<!-- Generator: Adobe Illustrator 22.0.0, SVG Export Plug-In  -->
<svg version="1.1"
	 xmlns="http://www.w3.org/2000/svg" xmlns:xlink="http://www.w3.org/1999/xlink" xmlns:a="http://ns.adobe.com/AdobeSVGViewerExtensions/3.0/"
	 x="0px" y="0px" width="2028px" height="1192px" viewBox="0 0 2028 1192" style="enable-background:new 0 0 2028 1192;"
	 xml:space="preserve">
<style type="text/css">
	.st0{fill:url(#SVGID_1_);}
	.st1{fill:url(#SVGID_2_);}
	.st2{fill:url(#SVGID_3_);}
	.st3{fill:url(#SVGID_4_);}
	.st4{fill:url(#SVGID_5_);}
	.st5{fill:url(#SVGID_6_);}
	.st6{fill:url(#SVGID_7_);}
	.st7{fill:url(#SVGID_8_);}
	.st8{fill:url(#SVGID_9_);}
	.st9{fill:url(#SVGID_10_);}
	.st10{fill:url(#SVGID_11_);}
	.st11{fill:url(#SVGID_12_);}
	.st12{fill:url(#SVGID_13_);}
	.st13{fill:url(#SVGID_14_);}
	.st14{fill:url(#SVGID_15_);}
	.st15{fill:url(#SVGID_16_);}
	.st16{fill:url(#SVGID_17_);}
	.st17{fill:url(#SVGID_18_);}
	.st18{fill:url(#SVGID_19_);}
	.st19{fill:url(#SVGID_20_);}
	.st20{fill:url(#SVGID_21_);}
	.st21{fill:url(#SVGID_22_);}
	.st22{fill:url(#SVGID_23_);}
	.st23{fill:url(#SVGID_24_);}
	.st24{fill:url(#SVGID_25_);}
	.st25{fill:url(#SVGID_26_);}
	.st26{fill:url(#SVGID_27_);}
	.st27{fill:url(#SVGID_28_);}
	.st28{fill:url(#SVGID_29_);}
	.st29{fill:url(#SVGID_30_);}
	.st30{fill:url(#SVGID_31_);}
	.st31{fill:url(#SVGID_32_);}
	.st32{fill:url(#SVGID_33_);}
	.st33{fill:url(#SVGID_34_);}
	.st34{fill:url(#SVGID_35_);}
	.st35{fill:url(#SVGID_36_);}
	.st36{fill:url(#SVGID_37_);}
	.st37{fill:url(#SVGID_38_);}
	.st38{fill:url(#SVGID_39_);}
	.st39{fill:url(#SVGID_40_);}
	.st40{fill:url(#SVGID_41_);}
	.st41{fill:url(#SVGID_42_);}
	.st42{fill:url(#SVGID_43_);}
	.st43{fill:url(#SVGID_44_);}
	.st44{fill:url(#SVGID_45_);}
	.st45{fill:url(#SVGID_46_);}
	.st46{fill:url(#SVGID_47_);}
	.st47{fill:url(#SVGID_48_);}
	.st48{fill:url(#SVGID_49_);}
	.st49{fill:url(#SVGID_50_);}
	.st50{fill:url(#SVGID_51_);}
	.st51{fill:url(#SVGID_52_);}
	.st52{fill:url(#SVGID_53_);}
	.st53{fill:url(#SVGID_54_);}
	.st54{fill:url(#SVGID_55_);}
	.st55{fill:url(#SVGID_56_);}
	.st56{fill:url(#SVGID_57_);}
	.st57{fill:url(#SVGID_58_);}
	.st58{fill:url(#SVGID_59_);}
	.st59{fill:url(#SVGID_60_);}
	.st60{fill:url(#SVGID_61_);}
	.st61{fill:url(#SVGID_62_);}
	.st62{fill:none;}
	.st63{fill:url(#SVGID_63_);}
	.st64{fill:url(#SVGID_64_);}
	.st65{fill:url(#SVGID_65_);}
	.st66{fill:url(#SVGID_66_);}
	.st67{fill:url(#SVGID_67_);}
	.st68{fill:url(#SVGID_68_);}
	.st69{fill:url(#SVGID_69_);}
	.st70{fill:url(#SVGID_70_);}
	.st71{fill:url(#SVGID_71_);}
	.st72{fill:url(#SVGID_72_);}
	.st73{fill:url(#SVGID_73_);}
	.st74{fill:url(#SVGID_74_);}
	.st75{fill:url(#SVGID_75_);}
	.st76{fill:url(#SVGID_76_);}
	.st77{fill:url(#SVGID_77_);}
	.st78{fill:url(#SVGID_78_);}
	.st79{fill:url(#SVGID_79_);}
	.st80{fill:url(#SVGID_80_);}
	.st81{fill:url(#SVGID_81_);}
	.st82{fill:url(#SVGID_82_);}
	.st83{fill:url(#SVGID_83_);}
	.st84{fill:url(#SVGID_84_);}
	.st85{fill:url(#SVGID_85_);}
	.st86{fill:url(#SVGID_86_);}
	.st87{fill:url(#SVGID_87_);}
	.st88{fill:url(#SVGID_88_);}
	.st89{fill:url(#SVGID_89_);}
	.st90{fill:url(#SVGID_90_);}
	.st91{fill:url(#SVGID_91_);}
	.st92{fill:url(#SVGID_92_);}
	.st93{fill:url(#SVGID_93_);}
	.st94{fill:url(#SVGID_94_);}
	.st95{fill:url(#SVGID_95_);}
	.st96{fill:url(#SVGID_96_);}
	.st97{fill:url(#SVGID_97_);}
	.st98{fill:url(#SVGID_98_);}
	.st99{fill:url(#SVGID_99_);}
	.st100{fill:url(#SVGID_100_);}
	.st101{fill:url(#SVGID_101_);}
	.st102{fill:url(#SVGID_102_);}
	.st103{fill:url(#SVGID_103_);}
	.st104{fill:url(#SVGID_104_);}
	.st105{fill:url(#SVGID_105_);}
	.st106{fill:url(#SVGID_106_);}
	.st107{fill:url(#SVGID_107_);}
	.st108{fill:url(#SVGID_108_);}
	.st109{fill:url(#SVGID_109_);}
	.st110{fill:url(#SVGID_110_);}
	.st111{fill:url(#SVGID_111_);}
	.st112{fill:url(#SVGID_112_);}
	.st113{fill:url(#SVGID_113_);}
	.st114{fill:url(#SVGID_114_);}
	.st115{fill:url(#SVGID_115_);}
	.st116{fill:url(#SVGID_116_);}
	.st117{fill:url(#SVGID_117_);}
	.st118{fill:url(#SVGID_118_);}
	.st119{fill:url(#SVGID_119_);}
	.st120{fill:url(#SVGID_120_);}
	.st121{fill:url(#SVGID_121_);}
	.st122{fill:url(#SVGID_122_);}
	.st123{fill:url(#SVGID_123_);}
	.st124{fill:url(#SVGID_124_);}
</style>
<defs>
</defs>
<g>
	<linearGradient id="SVGID_1_" gradientUnits="userSpaceOnUse" x1="1085.7651" y1="1663.2644" x2="117.7764" y2="168.6921">
		<stop  offset="0" style="stop-color:#E1EFF8"/>
		<stop  offset="1" style="stop-color:#993366"/>
	</linearGradient>
	<path class="st0" d="M70.3,106.1c5.9,0,10.7-4.8,10.7-10.7s-4.8-10.7-10.7-10.7c-5.9,0-10.7,4.8-10.7,10.7S64.4,106.1,70.3,106.1z"
		/>
	<linearGradient id="SVGID_2_" gradientUnits="userSpaceOnUse" x1="1619.9385" y1="1317.2834" x2="651.9563" y2="-177.2786">
		<stop  offset="0" style="stop-color:#E1EFF8"/>
		<stop  offset="1" style="stop-color:#993366"/>
	</linearGradient>
	<circle class="st1" cx="828.5" cy="95.3" r="9.9"/>
	<linearGradient id="SVGID_3_" gradientUnits="userSpaceOnUse" x1="1753.4862" y1="1230.7949" x2="785.5009" y2="-263.7719">
		<stop  offset="0" style="stop-color:#E1EFF8"/>
		<stop  offset="1" style="stop-color:#993366"/>
	</linearGradient>
	<path class="st2" d="M1018.1,104.7c5.2,0,9.4-4.2,9.4-9.4s-4.2-9.4-9.4-9.4c-5.2,0-9.4,4.2-9.4,9.4S1012.9,104.7,1018.1,104.7z"/>
	<linearGradient id="SVGID_4_" gradientUnits="userSpaceOnUse" x1="1795.2944" y1="1203.7262" x2="827.3032" y2="-290.8499">
		<stop  offset="0" style="stop-color:#E1EFF8"/>
		<stop  offset="1" style="stop-color:#993366"/>
	</linearGradient>
	<circle class="st3" cx="1112.9" cy="150.1" r="5.9"/>
	<linearGradient id="SVGID_5_" gradientUnits="userSpaceOnUse" x1="2062.384" y1="1030.7402" x2="1094.3929" y2="-463.8356">
		<stop  offset="0" style="stop-color:#E1EFF8"/>
		<stop  offset="1" style="stop-color:#993366"/>
	</linearGradient>
	<path class="st4" d="M1492,160.3c5.7,0,10.2-4.6,10.2-10.2c0-5.7-4.6-10.2-10.2-10.2c-5.7,0-10.2,4.6-10.2,10.2
		C1481.8,155.7,1486.3,160.3,1492,160.3z"/>
	<linearGradient id="SVGID_6_" gradientUnits="userSpaceOnUse" x1="2020.5734" y1="1057.8052" x2="1052.5936" y2="-436.7531">
		<stop  offset="0" style="stop-color:#E1EFF8"/>
		<stop  offset="1" style="stop-color:#993366"/>
	</linearGradient>
	<circle class="st5" cx="1397.2" cy="95.3" r="12.1"/>
	<linearGradient id="SVGID_7_" gradientUnits="userSpaceOnUse" x1="1661.7482" y1="1290.2167" x2="693.7598" y2="-204.355">
		<stop  offset="0" style="stop-color:#E1EFF8"/>
		<stop  offset="1" style="stop-color:#993366"/>
	</linearGradient>
	<path class="st6" d="M931.2,150.1c0-4.3-3.5-7.9-7.9-7.9s-7.9,3.5-7.9,7.9c0,4.3,3.5,7.9,7.9,7.9S931.2,154.4,931.2,150.1z"/>
	<linearGradient id="SVGID_8_" gradientUnits="userSpaceOnUse" x1="1887.0403" y1="1144.3163" x2="919.0418" y2="-350.271">
		<stop  offset="0" style="stop-color:#E1EFF8"/>
		<stop  offset="1" style="stop-color:#993366"/>
	</linearGradient>
	<circle class="st7" cx="1207.7" cy="95.3" r="6.3"/>
	<linearGradient id="SVGID_9_" gradientUnits="userSpaceOnUse" x1="1928.8416" y1="1117.2369" x2="960.8459" y2="-377.3459">
		<stop  offset="0" style="stop-color:#E1EFF8"/>
		<stop  offset="1" style="stop-color:#993366"/>
	</linearGradient>
	<circle class="st8" cx="1302.4" cy="150.1" r="6.8"/>
	<linearGradient id="SVGID_10_" gradientUnits="userSpaceOnUse" x1="2012.4453" y1="1063.0797" x2="1044.4576" y2="-431.4909">
		<stop  offset="0" style="stop-color:#E1EFF8"/>
		<stop  offset="1" style="stop-color:#993366"/>
	</linearGradient>
	<path class="st9" d="M1492,250.7c-4.8,0-8.8,3.9-8.8,8.8c0,4.8,3.9,8.8,8.8,8.8c4.8,0,8.8-3.9,8.8-8.8
		C1500.8,254.7,1496.8,250.7,1492,250.7z"/>
	<linearGradient id="SVGID_11_" gradientUnits="userSpaceOnUse" x1="977.7675" y1="1733.2297" x2="9.7677" y2="238.6404">
		<stop  offset="0" style="stop-color:#E1EFF8"/>
		<stop  offset="1" style="stop-color:#993366"/>
	</linearGradient>
	<path class="st10" d="M158.8,478.4c0,3.4,2.8,6.2,6.2,6.2s6.2-2.8,6.2-6.2c0-3.4-2.8-6.2-6.2-6.2S158.8,475,158.8,478.4z"/>
	<linearGradient id="SVGID_12_" gradientUnits="userSpaceOnUse" x1="1745.3505" y1="1236.0574" x2="777.3691" y2="-258.5033">
		<stop  offset="0" style="stop-color:#E1EFF8"/>
		<stop  offset="1" style="stop-color:#993366"/>
	</linearGradient>
	<circle class="st11" cx="1112.9" cy="259.5" r="10.1"/>
	<linearGradient id="SVGID_13_" gradientUnits="userSpaceOnUse" x1="1787.1581" y1="1208.9877" x2="819.1711" y2="-285.5818">
		<stop  offset="0" style="stop-color:#E1EFF8"/>
		<stop  offset="1" style="stop-color:#993366"/>
	</linearGradient>
	<path class="st12" d="M1197.1,314.2c0,5.8,4.7,10.5,10.5,10.5c5.8,0,10.5-4.7,10.5-10.5c0-5.8-4.7-10.5-10.5-10.5
		C1201.8,303.7,1197.1,308.4,1197.1,314.2z"/>
	<linearGradient id="SVGID_14_" gradientUnits="userSpaceOnUse" x1="1779.0304" y1="1214.2627" x2="811.0343" y2="-280.3208">
		<stop  offset="0" style="stop-color:#E1EFF8"/>
		<stop  offset="1" style="stop-color:#993366"/>
	</linearGradient>
	<circle class="st13" cx="1302.4" cy="478.4" r="6.4"/>
	<linearGradient id="SVGID_15_" gradientUnits="userSpaceOnUse" x1="1737.2245" y1="1241.335" x2="769.2329" y2="-253.2416">
		<stop  offset="0" style="stop-color:#E1EFF8"/>
		<stop  offset="1" style="stop-color:#993366"/>
	</linearGradient>
	<path class="st14" d="M1207.7,415.4c-4.6,0-8.3,3.7-8.3,8.3s3.7,8.3,8.3,8.3s8.3-3.7,8.3-8.3S1212.2,415.4,1207.7,415.4z"/>
	<linearGradient id="SVGID_16_" gradientUnits="userSpaceOnUse" x1="1878.9021" y1="1149.5751" x2="910.9105" y2="-345.0015">
		<stop  offset="0" style="stop-color:#E1EFF8"/>
		<stop  offset="1" style="stop-color:#993366"/>
	</linearGradient>
	<circle class="st15" cx="1302.4" cy="259.5" r="8.8"/>
	<linearGradient id="SVGID_17_" gradientUnits="userSpaceOnUse" x1="1870.7688" y1="1154.8413" x2="902.7796" y2="-339.7316">
		<stop  offset="0" style="stop-color:#E1EFF8"/>
		<stop  offset="1" style="stop-color:#993366"/>
	</linearGradient>
	<circle class="st16" cx="1397.2" cy="423.7" r="12.5"/>
	<linearGradient id="SVGID_18_" gradientUnits="userSpaceOnUse" x1="1912.5703" y1="1127.7622" x2="944.5843" y2="-366.8059">
		<stop  offset="0" style="stop-color:#E1EFF8"/>
		<stop  offset="1" style="stop-color:#993366"/>
	</linearGradient>
	<path class="st17" d="M1492,485.5c3.9,0,7.1-3.2,7.1-7.1c0-3.9-3.2-7.1-7.1-7.1c-3.9,0-7.1,3.2-7.1,7.1
		C1484.9,482.3,1488.1,485.5,1492,485.5z"/>
	<linearGradient id="SVGID_19_" gradientUnits="userSpaceOnUse" x1="1920.7047" y1="1122.4974" x2="952.7158" y2="-372.075">
		<stop  offset="0" style="stop-color:#E1EFF8"/>
		<stop  offset="1" style="stop-color:#993366"/>
	</linearGradient>
	<path class="st18" d="M1397.2,326.7c6.9,0,12.4-5.6,12.4-12.4c0-6.9-5.6-12.4-12.4-12.4c-6.9,0-12.4,5.6-12.4,12.4
		C1384.8,321.1,1390.4,326.7,1397.2,326.7z"/>
	<linearGradient id="SVGID_20_" gradientUnits="userSpaceOnUse" x1="935.9512" y1="1760.286" x2="-32.0337" y2="265.7196">
		<stop  offset="0" style="stop-color:#E1EFF8"/>
		<stop  offset="1" style="stop-color:#993366"/>
	</linearGradient>
	<path class="st19" d="M70.3,435.8c6.7,0,12.1-5.4,12.1-12.1s-5.4-12.1-12.1-12.1c-6.7,0-12.1,5.4-12.1,12.1S63.6,435.8,70.3,435.8z
		"/>
	<linearGradient id="SVGID_21_" gradientUnits="userSpaceOnUse" x1="927.8213" y1="1765.5574" x2="-40.1671" y2="270.9858">
		<stop  offset="0" style="stop-color:#E1EFF8"/>
		<stop  offset="1" style="stop-color:#993366"/>
	</linearGradient>
	<path class="st20" d="M165.1,598.1c5.7,0,10.3-4.6,10.3-10.3c0-5.7-4.6-10.3-10.3-10.3s-10.3,4.6-10.3,10.3
		C154.8,593.5,159.4,598.1,165.1,598.1z"/>
	<linearGradient id="SVGID_22_" gradientUnits="userSpaceOnUse" x1="1061.3724" y1="1679.074" x2="93.3758" y2="184.4895">
		<stop  offset="0" style="stop-color:#E1EFF8"/>
		<stop  offset="1" style="stop-color:#993366"/>
	</linearGradient>
	<path class="st21" d="M359.5,587.8c0-2.7-2.2-4.9-4.9-4.9c-2.7,0-4.9,2.2-4.9,4.9c0,2.7,2.2,4.9,4.9,4.9
		C357.3,592.7,359.5,590.5,359.5,587.8z"/>
	<linearGradient id="SVGID_23_" gradientUnits="userSpaceOnUse" x1="1103.1667" y1="1651.9839" x2="135.1843" y2="157.4214">
		<stop  offset="0" style="stop-color:#E1EFF8"/>
		<stop  offset="1" style="stop-color:#993366"/>
	</linearGradient>
	<circle class="st22" cx="449.4" cy="642.6" r="9.4"/>
	<linearGradient id="SVGID_24_" gradientUnits="userSpaceOnUse" x1="1194.9084" y1="1592.5676" x2="226.9237" y2="98.0015">
		<stop  offset="0" style="stop-color:#E1EFF8"/>
		<stop  offset="1" style="stop-color:#993366"/>
	</linearGradient>
	<path class="st23" d="M553.3,587.8c0-5-4.1-9.1-9.1-9.1c-5,0-9.1,4.1-9.1,9.1c0,5,4.1,9.1,9.1,9.1
		C549.2,597,553.3,592.9,553.3,587.8z"/>
	<linearGradient id="SVGID_25_" gradientUnits="userSpaceOnUse" x1="1236.718" y1="1565.5009" x2="268.7238" y2="70.9203">
		<stop  offset="0" style="stop-color:#E1EFF8"/>
		<stop  offset="1" style="stop-color:#993366"/>
	</linearGradient>
	<circle class="st24" cx="639" cy="642.6" r="10.7"/>
	<linearGradient id="SVGID_26_" gradientUnits="userSpaceOnUse" x1="786.1359" y1="1857.3052" x2="-181.8417" y2="362.7502">
		<stop  offset="0" style="stop-color:#E1EFF8"/>
		<stop  offset="1" style="stop-color:#993366"/>
	</linearGradient>
	<path class="st25" d="M62.3,752c0,4.4,3.6,7.9,7.9,7.9c4.4,0,7.9-3.6,7.9-7.9c0-4.4-3.6-7.9-7.9-7.9
		C65.9,744.1,62.3,747.6,62.3,752z"/>
	<linearGradient id="SVGID_27_" gradientUnits="userSpaceOnUse" x1="836.0763" y1="1824.9685" x2="-131.9071" y2="330.4046">
		<stop  offset="0" style="stop-color:#E1EFF8"/>
		<stop  offset="1" style="stop-color:#993366"/>
	</linearGradient>
	<path class="st26" d="M75.7,642.6c0-3-2.4-5.4-5.4-5.4c-3,0-5.4,2.4-5.4,5.4s2.4,5.4,5.4,5.4C73.3,648,75.7,645.6,75.7,642.6z"/>
	<linearGradient id="SVGID_28_" gradientUnits="userSpaceOnUse" x1="969.6116" y1="1738.4607" x2="1.642" y2="243.918">
		<stop  offset="0" style="stop-color:#E1EFF8"/>
		<stop  offset="1" style="stop-color:#993366"/>
	</linearGradient>
	<circle class="st27" cx="259.8" cy="642.6" r="4.5"/>
	<linearGradient id="SVGID_29_" gradientUnits="userSpaceOnUse" x1="961.4918" y1="1743.7478" x2="-6.4956" y2="249.1777">
		<stop  offset="0" style="stop-color:#E1EFF8"/>
		<stop  offset="1" style="stop-color:#993366"/>
	</linearGradient>
	<path class="st28" d="M347.1,806.7c0,4.1,3.4,7.5,7.5,7.5c4.1,0,7.5-3.4,7.5-7.5s-3.4-7.5-7.5-7.5
		C350.5,799.2,347.1,802.6,347.1,806.7z"/>
	<linearGradient id="SVGID_30_" gradientUnits="userSpaceOnUse" x1="919.6889" y1="1770.8252" x2="-48.3006" y2="276.2517">
		<stop  offset="0" style="stop-color:#E1EFF8"/>
		<stop  offset="1" style="stop-color:#993366"/>
	</linearGradient>
	<path class="st29" d="M259.8,741.2c-6,0-10.8,4.8-10.8,10.8s4.8,10.8,10.8,10.8s10.8-4.8,10.8-10.8S265.8,741.2,259.8,741.2z"/>
	<linearGradient id="SVGID_31_" gradientUnits="userSpaceOnUse" x1="1186.7776" y1="1597.8378" x2="218.7902" y2="103.2677">
		<stop  offset="0" style="stop-color:#E1EFF8"/>
		<stop  offset="1" style="stop-color:#993366"/>
	</linearGradient>
	<circle class="st30" cx="639" cy="752" r="11.7"/>
	<linearGradient id="SVGID_32_" gradientUnits="userSpaceOnUse" x1="1629.2155" y1="1311.2825" x2="661.231" y2="-183.283">
		<stop  offset="0" style="stop-color:#E1EFF8"/>
		<stop  offset="1" style="stop-color:#993366"/>
	</linearGradient>
	<path class="st31" d="M1302.4,800.9c-3.2,0-5.8,2.6-5.8,5.8s2.6,5.8,5.8,5.8s5.8-2.6,5.8-5.8S1305.7,800.9,1302.4,800.9z"/>
	<linearGradient id="SVGID_33_" gradientUnits="userSpaceOnUse" x1="1729.0862" y1="1246.5936" x2="761.1061" y2="-247.9652">
		<stop  offset="0" style="stop-color:#E1EFF8"/>
		<stop  offset="1" style="stop-color:#993366"/>
	</linearGradient>
	<circle class="st32" cx="1302.4" cy="587.8" r="6.8"/>
	<linearGradient id="SVGID_34_" gradientUnits="userSpaceOnUse" x1="1770.8938" y1="1219.5237" x2="802.9054" y2="-275.0479">
		<stop  offset="0" style="stop-color:#E1EFF8"/>
		<stop  offset="1" style="stop-color:#993366"/>
	</linearGradient>
	<circle class="st33" cx="1397.2" cy="642.6" r="13.3"/>
	<linearGradient id="SVGID_35_" gradientUnits="userSpaceOnUse" x1="1862.632" y1="1160.1021" x2="894.6505" y2="-334.459">
		<stop  offset="0" style="stop-color:#E1EFF8"/>
		<stop  offset="1" style="stop-color:#993366"/>
	</linearGradient>
	<path class="st34" d="M1492,595.1c4,0,7.2-3.2,7.2-7.2c0-4-3.2-7.2-7.2-7.2c-4,0-7.2,3.2-7.2,7.2
		C1484.8,591.9,1488,595.1,1492,595.1z"/>
	<linearGradient id="SVGID_36_" gradientUnits="userSpaceOnUse" x1="827.9366" y1="1830.225" x2="-140.0365" y2="335.6769">
		<stop  offset="0" style="stop-color:#E1EFF8"/>
		<stop  offset="1" style="stop-color:#993366"/>
	</linearGradient>
	<circle class="st35" cx="165.1" cy="806.7" r="7.2"/>
	<linearGradient id="SVGID_37_" gradientUnits="userSpaceOnUse" x1="778.0112" y1="1862.5848" x2="-189.9774" y2="368.0128">
		<stop  offset="0" style="stop-color:#E1EFF8"/>
		<stop  offset="1" style="stop-color:#993366"/>
	</linearGradient>
	<path class="st36" d="M165.1,927.9c6.5,0,11.8-5.3,11.8-11.8c0-6.5-5.3-11.8-11.8-11.8s-11.8,5.3-11.8,11.8
		C153.3,922.7,158.6,927.9,165.1,927.9z"/>
	<linearGradient id="SVGID_38_" gradientUnits="userSpaceOnUse" x1="1053.2333" y1="1684.3313" x2="85.2446" y2="189.7592">
		<stop  offset="0" style="stop-color:#E1EFF8"/>
		<stop  offset="1" style="stop-color:#993366"/>
	</linearGradient>
	<circle class="st37" cx="449.4" cy="752" r="12.3"/>
	<linearGradient id="SVGID_39_" gradientUnits="userSpaceOnUse" x1="1095.0352" y1="1657.2526" x2="127.0503" y2="162.6864">
		<stop  offset="0" style="stop-color:#E1EFF8"/>
		<stop  offset="1" style="stop-color:#993366"/>
	</linearGradient>
	<path class="st38" d="M539.7,806.7c0,2.5,2,4.5,4.5,4.5c2.5,0,4.5-2,4.5-4.5c0-2.5-2-4.5-4.5-4.5
		C541.7,802.2,539.7,804.2,539.7,806.7z"/>
	<linearGradient id="SVGID_40_" gradientUnits="userSpaceOnUse" x1="1086.9058" y1="1662.5251" x2="118.9143" y2="167.9488">
		<stop  offset="0" style="stop-color:#E1EFF8"/>
		<stop  offset="1" style="stop-color:#993366"/>
	</linearGradient>
	<circle class="st39" cx="639" cy="970.9" r="9.1"/>
	<linearGradient id="SVGID_41_" gradientUnits="userSpaceOnUse" x1="1045.0997" y1="1689.5969" x2="77.1127" y2="195.0274">
		<stop  offset="0" style="stop-color:#E1EFF8"/>
		<stop  offset="1" style="stop-color:#993366"/>
	</linearGradient>
	<path class="st40" d="M544.2,902.3c-7.6,0-13.8,6.2-13.8,13.8c0,7.6,6.2,13.8,13.8,13.8c7.6,0,13.8-6.2,13.8-13.8
		C558,908.5,551.8,902.3,544.2,902.3z"/>
	<linearGradient id="SVGID_42_" gradientUnits="userSpaceOnUse" x1="1579.2789" y1="1343.6254" x2="611.2923" y2="-150.9434">
		<stop  offset="0" style="stop-color:#E1EFF8"/>
		<stop  offset="1" style="stop-color:#993366"/>
	</linearGradient>
	<path class="st41" d="M1310.3,916.2c0-4.3-3.5-7.9-7.9-7.9c-4.3,0-7.9,3.5-7.9,7.9c0,4.3,3.5,7.9,7.9,7.9
		C1306.8,924,1310.3,920.5,1310.3,916.2z"/>
	<linearGradient id="SVGID_43_" gradientUnits="userSpaceOnUse" x1="1762.7603" y1="1224.7896" x2="794.7748" y2="-269.7775">
		<stop  offset="0" style="stop-color:#E1EFF8"/>
		<stop  offset="1" style="stop-color:#993366"/>
	</linearGradient>
	<path class="st42" d="M1492,817c5.7,0,10.2-4.6,10.2-10.2c0-5.7-4.6-10.2-10.2-10.2c-5.7,0-10.2,4.6-10.2,10.2
		C1481.8,812.4,1486.3,817,1492,817z"/>
	<linearGradient id="SVGID_44_" gradientUnits="userSpaceOnUse" x1="1712.8262" y1="1257.1362" x2="744.8291" y2="-237.4488">
		<stop  offset="0" style="stop-color:#E1EFF8"/>
		<stop  offset="1" style="stop-color:#993366"/>
	</linearGradient>
	<path class="st43" d="M1492,905.9c-5.7,0-10.2,4.6-10.2,10.2c0,5.7,4.6,10.2,10.2,10.2c5.7,0,10.2-4.6,10.2-10.2
		C1502.2,910.5,1497.7,905.9,1492,905.9z"/>
	<linearGradient id="SVGID_45_" gradientUnits="userSpaceOnUse" x1="686.2972" y1="1921.9813" x2="-281.6892" y2="427.4127">
		<stop  offset="0" style="stop-color:#E1EFF8"/>
		<stop  offset="1" style="stop-color:#993366"/>
	</linearGradient>
	<path class="st44" d="M70.3,955.8c-5.8,0-10.8,3.3-13.3,8.1v13.9c2.5,4.8,7.5,8.1,13.3,8.1c8.3,0,15.1-6.8,15.1-15.1
		C85.4,962.6,78.6,955.8,70.3,955.8z"/>
	<linearGradient id="SVGID_46_" gradientUnits="userSpaceOnUse" x1="678.1411" y1="1927.2747" x2="-289.854" y2="432.6928">
		<stop  offset="0" style="stop-color:#E1EFF8"/>
		<stop  offset="1" style="stop-color:#993366"/>
	</linearGradient>
	<path class="st45" d="M165.1,1141.6c3.6,0,6.5-2.9,6.5-6.5c0-3.6-2.9-6.5-6.5-6.5s-6.5,2.9-6.5,6.5
		C158.5,1138.7,161.5,1141.6,165.1,1141.6z"/>
	<linearGradient id="SVGID_47_" gradientUnits="userSpaceOnUse" x1="769.876" y1="1867.8481" x2="-198.1068" y2="373.285">
		<stop  offset="0" style="stop-color:#E1EFF8"/>
		<stop  offset="1" style="stop-color:#993366"/>
	</linearGradient>
	<path class="st46" d="M259.8,1093.2c7.1,0,12.9-5.8,12.9-12.9s-5.8-12.9-12.9-12.9c-7.1,0-12.9,5.8-12.9,12.9
		S252.7,1093.2,259.8,1093.2z"/>
	<linearGradient id="SVGID_48_" gradientUnits="userSpaceOnUse" x1="819.8192" y1="1835.5156" x2="-148.1777" y2="340.9309">
		<stop  offset="0" style="stop-color:#E1EFF8"/>
		<stop  offset="1" style="stop-color:#993366"/>
	</linearGradient>
	<path class="st47" d="M259.8,961.8c-5,0-9.1,4.1-9.1,9.1c0,5,4.1,9.1,9.1,9.1c5,0,9.1-4.1,9.1-9.1
		C268.9,965.9,264.9,961.8,259.8,961.8z"/>
	<linearGradient id="SVGID_49_" gradientUnits="userSpaceOnUse" x1="911.5515" y1="1776.0851" x2="-56.4301" y2="281.524">
		<stop  offset="0" style="stop-color:#E1EFF8"/>
		<stop  offset="1" style="stop-color:#993366"/>
	</linearGradient>
	<path class="st48" d="M354.6,926.6c5.7,0,10.4-4.6,10.4-10.4c0-5.7-4.6-10.4-10.4-10.4s-10.4,4.6-10.4,10.4
		C344.3,921.9,348.9,926.6,354.6,926.6z"/>
	<linearGradient id="SVGID_50_" gradientUnits="userSpaceOnUse" x1="953.3592" y1="1749.0154" x2="-14.6279" y2="254.4458">
		<stop  offset="0" style="stop-color:#E1EFF8"/>
		<stop  offset="1" style="stop-color:#993366"/>
	</linearGradient>
	<path class="st49" d="M461.3,970.9c0-6.5-5.3-11.9-11.9-11.9s-11.9,5.3-11.9,11.9s5.3,11.9,11.9,11.9S461.3,977.5,461.3,970.9z"/>
	<linearGradient id="SVGID_51_" gradientUnits="userSpaceOnUse" x1="945.229" y1="1754.2864" x2="-22.7637" y2="259.7081">
		<stop  offset="0" style="stop-color:#E1EFF8"/>
		<stop  offset="1" style="stop-color:#993366"/>
	</linearGradient>
	<path class="st50" d="M544.2,1144.4c5.1,0,9.3-4.2,9.3-9.3s-4.2-9.3-9.3-9.3c-5.1,0-9.3,4.2-9.3,9.3S539,1144.4,544.2,1144.4z"/>
	<linearGradient id="SVGID_52_" gradientUnits="userSpaceOnUse" x1="1036.9701" y1="1694.869" x2="68.9769" y2="200.2901">
		<stop  offset="0" style="stop-color:#E1EFF8"/>
		<stop  offset="1" style="stop-color:#993366"/>
	</linearGradient>
	<circle class="st51" cx="639" cy="1080.3" r="9.8"/>
	<linearGradient id="SVGID_53_" gradientUnits="userSpaceOnUse" x1="1487.5375" y1="1403.0421" x2="519.5534" y2="-91.5228">
		<stop  offset="0" style="stop-color:#E1EFF8"/>
		<stop  offset="1" style="stop-color:#993366"/>
	</linearGradient>
	<path class="st52" d="M1207.7,979c4.5,0,8.1-3.6,8.1-8.1c0-4.5-3.6-8.1-8.1-8.1c-4.5,0-8.1,3.6-8.1,8.1
		C1199.5,975.4,1203.2,979,1207.7,979z"/>
	<linearGradient id="SVGID_54_" gradientUnits="userSpaceOnUse" x1="1621.0819" y1="1316.5485" x2="653.0999" y2="-178.0133">
		<stop  offset="0" style="stop-color:#E1EFF8"/>
		<stop  offset="1" style="stop-color:#993366"/>
	</linearGradient>
	<circle class="st53" cx="1397.2" cy="970.9" r="9"/>
	<linearGradient id="SVGID_55_" gradientUnits="userSpaceOnUse" x1="636.3419" y1="1954.3577" x2="-331.6613" y2="459.7631">
		<stop  offset="0" style="stop-color:#E1EFF8"/>
		<stop  offset="1" style="stop-color:#993366"/>
	</linearGradient>
	<path class="st54" d="M70.3,1075.5c-2.7,0-4.9,2.2-4.9,4.9c0,2.7,2.2,4.9,4.9,4.9c2.7,0,4.9-2.2,4.9-4.9
		C75.2,1077.7,73,1075.5,70.3,1075.5z"/>
	<linearGradient id="SVGID_56_" gradientUnits="userSpaceOnUse" x1="811.68" y1="1840.7728" x2="-156.3055" y2="346.2057">
		<stop  offset="0" style="stop-color:#E1EFF8"/>
		<stop  offset="1" style="stop-color:#993366"/>
	</linearGradient>
	<path class="st55" d="M354.6,1122.8c-6.8,0-12.3,5.5-12.3,12.3c0,6.8,5.5,12.3,12.3,12.3c6.8,0,12.3-5.5,12.3-12.3
		C366.9,1128.3,361.4,1122.8,354.6,1122.8z"/>
	<linearGradient id="SVGID_57_" gradientUnits="userSpaceOnUse" x1="903.4208" y1="1781.3551" x2="-64.5634" y2="286.7899">
		<stop  offset="0" style="stop-color:#E1EFF8"/>
		<stop  offset="1" style="stop-color:#993366"/>
	</linearGradient>
	<circle class="st56" cx="449.4" cy="1080.3" r="5.5"/>
	<linearGradient id="SVGID_58_" gradientUnits="userSpaceOnUse" x1="1078.7706" y1="1667.7882" x2="110.7855" y2="173.2218">
		<stop  offset="0" style="stop-color:#E1EFF8"/>
		<stop  offset="1" style="stop-color:#993366"/>
	</linearGradient>
	<circle class="st57" cx="733.7" cy="1135.1" r="7.3"/>
	<linearGradient id="SVGID_59_" gradientUnits="userSpaceOnUse" x1="1437.6007" y1="1435.3843" x2="469.6167" y2="-59.1805">
		<stop  offset="0" style="stop-color:#E1EFF8"/>
		<stop  offset="1" style="stop-color:#993366"/>
	</linearGradient>
	<path class="st58" d="M1207.7,1071.2c-5,0-9.1,4.1-9.1,9.1s4.1,9.1,9.1,9.1c5,0,9.1-4.1,9.1-9.1S1212.7,1071.2,1207.7,1071.2z"/>
	<linearGradient id="SVGID_60_" gradientUnits="userSpaceOnUse" x1="1479.4061" y1="1408.311" x2="511.4179" y2="-86.2603">
		<stop  offset="0" style="stop-color:#E1EFF8"/>
		<stop  offset="1" style="stop-color:#993366"/>
	</linearGradient>
	<path class="st59" d="M1297.4,1135.1c0,2.8,2.3,5.1,5.1,5.1c2.8,0,5.1-2.3,5.1-5.1c0-2.8-2.3-5.1-5.1-5.1
		C1299.6,1130,1297.4,1132.3,1297.4,1135.1z"/>
	<linearGradient id="SVGID_61_" gradientUnits="userSpaceOnUse" x1="1571.1483" y1="1348.8959" x2="603.1549" y2="-145.6837">
		<stop  offset="0" style="stop-color:#E1EFF8"/>
		<stop  offset="1" style="stop-color:#993366"/>
	</linearGradient>
	<path class="st60" d="M1397.2,1070.9c-5.2,0-9.5,4.2-9.5,9.5s4.2,9.5,9.5,9.5s9.5-4.2,9.5-9.5S1402.5,1070.9,1397.2,1070.9z"/>
	<linearGradient id="SVGID_62_" gradientUnits="userSpaceOnUse" x1="1612.9506" y1="1321.8176" x2="644.9652" y2="-172.7493">
		<stop  offset="0" style="stop-color:#E1EFF8"/>
		<stop  offset="1" style="stop-color:#993366"/>
	</linearGradient>
	<path class="st61" d="M1492,1123.9c-6.2,0-11.2,5-11.2,11.2c0,6.2,5,11.2,11.2,11.2c6.2,0,11.2-5,11.2-11.2
		C1503.2,1128.9,1498.2,1123.9,1492,1123.9z"/>
</g>
<rect class="st62" width="2028" height="1192"/>
</svg>
