<!-- Generator: Adobe Illustrator 22.0.0, SVG Export Plug-In  -->
<svg version="1.1"
	 xmlns="http://www.w3.org/2000/svg" xmlns:xlink="http://www.w3.org/1999/xlink" xmlns:a="http://ns.adobe.com/AdobeSVGViewerExtensions/3.0/"
	 x="0px" y="0px" width="2028px" height="1192px" viewBox="0 0 2028 1192" style="enable-background:new 0 0 2028 1192;"
	 xml:space="preserve">
<style type="text/css">
	.st0{opacity:0.5;}
	.st1{fill:url(#SVGID_1_);}
	.st2{fill:url(#SVGID_2_);}
	.st3{fill:url(#SVGID_3_);}
	.st4{fill:url(#SVGID_4_);}
	.st5{fill:url(#SVGID_5_);}
	.st6{fill:url(#SVGID_6_);}
	.st7{fill:url(#SVGID_7_);}
	.st8{fill:url(#SVGID_8_);}
	.st9{fill:url(#SVGID_9_);}
	.st10{fill:url(#SVGID_10_);}
	.st11{fill:url(#SVGID_11_);}
	.st12{fill:url(#SVGID_12_);}
	.st13{fill:url(#SVGID_13_);}
	.st14{fill:url(#SVGID_14_);}
	.st15{fill:url(#SVGID_15_);}
	.st16{fill:url(#SVGID_16_);}
	.st17{fill:url(#SVGID_17_);}
	.st18{fill:url(#SVGID_18_);}
	.st19{fill:url(#SVGID_19_);}
	.st20{fill:url(#SVGID_20_);}
	.st21{fill:url(#SVGID_21_);}
	.st22{fill:url(#SVGID_22_);}
	.st23{fill:none;}
	.st24{fill:url(#SVGID_23_);}
	.st25{fill:url(#SVGID_24_);}
	.st26{fill:url(#SVGID_25_);}
	.st27{fill:url(#SVGID_26_);}
	.st28{fill:url(#SVGID_27_);}
	.st29{fill:url(#SVGID_28_);}
	.st30{fill:url(#SVGID_29_);}
	.st31{fill:url(#SVGID_30_);}
	.st32{fill:url(#SVGID_31_);}
	.st33{fill:url(#SVGID_32_);}
	.st34{fill:url(#SVGID_33_);}
	.st35{fill:url(#SVGID_34_);}
	.st36{fill:url(#SVGID_35_);}
	.st37{fill:url(#SVGID_36_);}
	.st38{fill:url(#SVGID_37_);}
	.st39{fill:url(#SVGID_38_);}
	.st40{fill:url(#SVGID_39_);}
	.st41{fill:url(#SVGID_40_);}
	.st42{fill:url(#SVGID_41_);}
	.st43{fill:url(#SVGID_42_);}
	.st44{fill:url(#SVGID_43_);}
	.st45{fill:url(#SVGID_44_);}
</style>
<defs>
</defs>
<g class="st0">
	<g>
		<linearGradient id="SVGID_1_" gradientUnits="userSpaceOnUse" x1="1972.5111" y1="1088.9427" x2="1004.5236" y2="-405.6276">
			<stop  offset="0" style="stop-color:#E1EFF8"/>
			<stop  offset="1" style="stop-color:#993366"/>
		</linearGradient>
		<polygon class="st1" points="1425.7,0.2 1425.7,111.8 1304.3,181.9 1182.9,111.8 1182.9,0.2 1178.6,0.2 1178.6,114.3 
			1304.3,186.8 1430,114.3 1430,0.2 		"/>
	</g>
	<g>
		<linearGradient id="SVGID_2_" gradientUnits="userSpaceOnUse" x1="2061.1653" y1="1031.5243" x2="1093.1768" y2="-463.0476">
			<stop  offset="0" style="stop-color:#E1EFF8"/>
			<stop  offset="1" style="stop-color:#993366"/>
		</linearGradient>
		<polygon class="st2" points="1430,111.8 1430,0.2 1425.7,0.2 1425.7,114.3 1551.4,186.8 1552,186.4 1552,181.5 1551.4,181.9 		"/>
	</g>
	<g>
		<linearGradient id="SVGID_3_" gradientUnits="userSpaceOnUse" x1="1006.3875" y1="1714.6702" x2="38.4016" y2="220.1024">
			<stop  offset="0" style="stop-color:#E1EFF8"/>
			<stop  offset="1" style="stop-color:#993366"/>
		</linearGradient>
		<polygon class="st3" points="57,174.9 57,179.8 66.9,185.6 66.9,325.7 57,331.5 57,336.4 71.2,328.2 71.2,183.1 		"/>
	</g>
	<g>
		<linearGradient id="SVGID_4_" gradientUnits="userSpaceOnUse" x1="1098.7784" y1="1654.8323" x2="130.7907" y2="160.2617">
			<stop  offset="0" style="stop-color:#E1EFF8"/>
			<stop  offset="1" style="stop-color:#993366"/>
		</linearGradient>
		<path class="st4" d="M192.6,400.8L66.9,328.2V183.1l125.7-72.6l125.7,72.6v145.1L192.6,400.8z M71.2,325.7l121.4,70.1L314,325.7
			V185.6l-121.4-70.1L71.2,185.6V325.7z"/>
	</g>
	<g>
		<linearGradient id="SVGID_5_" gradientUnits="userSpaceOnUse" x1="2055.864" y1="1034.9569" x2="1087.8763" y2="-459.6136">
			<stop  offset="0" style="stop-color:#E1EFF8"/>
			<stop  offset="1" style="stop-color:#993366"/>
		</linearGradient>
		<polygon class="st5" points="1552,181.5 1549.2,183.1 1549.2,328.2 1552,329.8 		"/>
	</g>
	<g>
		<linearGradient id="SVGID_6_" gradientUnits="userSpaceOnUse" x1="939.1862" y1="1758.1938" x2="-28.8002" y2="263.6255">
			<stop  offset="0" style="stop-color:#E1EFF8"/>
			<stop  offset="1" style="stop-color:#993366"/>
		</linearGradient>
		<polygon class="st6" points="69,324.5 57,331.5 57,336.4 69,329.4 190.4,399.5 190.4,539.7 69,609.8 57,602.8 57,607.7 69,614.7 
			194.7,542.2 194.7,397 		"/>
	</g>
	<g>
		<linearGradient id="SVGID_7_" gradientUnits="userSpaceOnUse" x1="1088.1793" y1="1661.696" x2="120.1916" y2="167.1255">
			<stop  offset="0" style="stop-color:#E1EFF8"/>
			<stop  offset="1" style="stop-color:#993366"/>
		</linearGradient>
		<path class="st7" d="M316.1,614.7l-125.7-72.6V397l125.7-72.6L441.8,397v145.1L316.1,614.7z M194.7,539.7l121.4,70.1l121.4-70.1
			V399.5l-121.4-70.1l-121.4,70.1V539.7z"/>
	</g>
	<g>
		<linearGradient id="SVGID_8_" gradientUnits="userSpaceOnUse" x1="811.144" y1="1841.1232" x2="-156.8419" y2="346.5554">
			<stop  offset="0" style="stop-color:#E1EFF8"/>
			<stop  offset="1" style="stop-color:#993366"/>
		</linearGradient>
		<polygon class="st8" points="57,602.8 57,607.7 66.9,613.5 66.9,753.6 57,759.4 57,764.3 71.2,756.1 71.2,611 		"/>
	</g>
	<g>
		<linearGradient id="SVGID_9_" gradientUnits="userSpaceOnUse" x1="903.5346" y1="1781.2848" x2="-64.4531" y2="286.7142">
			<stop  offset="0" style="stop-color:#E1EFF8"/>
			<stop  offset="1" style="stop-color:#993366"/>
		</linearGradient>
		<path class="st9" d="M192.6,828.7L66.9,756.1V611l125.7-72.6L318.2,611v145.1L192.6,828.7z M71.2,753.6l121.4,70.1L314,753.6
			V613.5l-121.4-70.1L71.2,613.5V753.6z"/>
	</g>
	<g>
		<linearGradient id="SVGID_10_" gradientUnits="userSpaceOnUse" x1="2173.4312" y1="1217.8813" x2="1205.4436" y2="-276.6889">
			<stop  offset="0" style="stop-color:#E1EFF8"/>
			<stop  offset="1" style="stop-color:#993366"/>
		</linearGradient>
		<path class="st10" d="M1952,610.1l-124.2-71.7L1702.2,611v145.1l125.7,72.6L1952,757V610.1z M1827.8,823.7l-121.4-70.1V613.5
			l121.4-70.1l121.4,70.1v140.2L1827.8,823.7z"/>
	</g>
	<g>
		<linearGradient id="SVGID_11_" gradientUnits="userSpaceOnUse" x1="743.9429" y1="1884.6472" x2="-224.0434" y2="390.0789">
			<stop  offset="0" style="stop-color:#E1EFF8"/>
			<stop  offset="1" style="stop-color:#993366"/>
		</linearGradient>
		<polygon class="st11" points="69,752.4 57,759.4 57,764.3 69,757.4 190.4,827.4 190.4,967.6 69,1037.7 57,1030.7 57,1035.7 
			69,1042.6 194.7,970.1 194.7,825 		"/>
	</g>
	<g>
		<linearGradient id="SVGID_12_" gradientUnits="userSpaceOnUse" x1="892.9349" y1="1788.1477" x2="-75.0518" y2="293.5788">
			<stop  offset="0" style="stop-color:#E1EFF8"/>
			<stop  offset="1" style="stop-color:#993366"/>
		</linearGradient>
		<path class="st12" d="M316.1,1042.6l-125.7-72.6V825l125.7-72.6L441.8,825v145.1L316.1,1042.6z M194.7,967.6l121.4,70.1
			l121.4-70.1V827.4l-121.4-70.1l-121.4,70.1V967.6z"/>
	</g>
	<g>
		<linearGradient id="SVGID_13_" gradientUnits="userSpaceOnUse" x1="1989.1188" y1="1337.2529" x2="1021.1322" y2="-157.316">
			<stop  offset="0" style="stop-color:#E1EFF8"/>
			<stop  offset="1" style="stop-color:#993366"/>
		</linearGradient>
		<path class="st13" d="M1704.3,1042.6l-125.7-72.6V825l125.7-72.6L1830,825v145.1L1704.3,1042.6z M1582.9,967.6l121.4,70.1
			l121.4-70.1V827.4l-121.4-70.1l-121.4,70.1V967.6z"/>
	</g>
	<g>
		<linearGradient id="SVGID_14_" gradientUnits="userSpaceOnUse" x1="2135.5898" y1="1242.3875" x2="1167.6023" y2="-252.1828">
			<stop  offset="0" style="stop-color:#E1EFF8"/>
			<stop  offset="1" style="stop-color:#993366"/>
		</linearGradient>
		<polygon class="st14" points="1952,1037.3 1951.4,1037.7 1830,967.6 1830,827.4 1951.4,757.4 1952,757.7 1952,752.8 1951.4,752.4 
			1825.7,825 1825.7,970.1 1951.4,1042.6 1952,1042.3 		"/>
	</g>
	<g>
		<linearGradient id="SVGID_15_" gradientUnits="userSpaceOnUse" x1="625.1696" y1="1961.5714" x2="-342.8167" y2="467.003">
			<stop  offset="0" style="stop-color:#E1EFF8"/>
			<stop  offset="1" style="stop-color:#993366"/>
		</linearGradient>
		<polygon class="st15" points="57,1030.7 57,1035.7 66.9,1041.4 66.9,1166.9 71.2,1166.9 71.2,1038.9 		"/>
	</g>
	<g>
		<linearGradient id="SVGID_16_" gradientUnits="userSpaceOnUse" x1="712.1932" y1="1905.2104" x2="-255.7948" y2="410.6395">
			<stop  offset="0" style="stop-color:#E1EFF8"/>
			<stop  offset="1" style="stop-color:#993366"/>
		</linearGradient>
		<polygon class="st16" points="71.2,1166.9 71.2,1041.4 192.6,971.3 314,1041.4 314,1166.9 318.2,1166.9 318.2,1038.9 192.6,966.4 
			66.9,1038.9 66.9,1166.9 		"/>
	</g>
	<g>
		<linearGradient id="SVGID_17_" gradientUnits="userSpaceOnUse" x1="886.2386" y1="1792.4856" x2="-81.7485" y2="297.9161">
			<stop  offset="0" style="stop-color:#E1EFF8"/>
			<stop  offset="1" style="stop-color:#993366"/>
		</linearGradient>
		<polygon class="st17" points="318.2,1166.9 318.2,1041.4 439.6,971.3 561,1041.4 561,1166.9 565.3,1166.9 565.3,1038.9 
			439.6,966.4 314,1038.9 314,1166.9 		"/>
	</g>
	<g>
		<linearGradient id="SVGID_18_" gradientUnits="userSpaceOnUse" x1="1060.2847" y1="1679.7618" x2="92.2968" y2="185.1909">
			<stop  offset="0" style="stop-color:#E1EFF8"/>
			<stop  offset="1" style="stop-color:#993366"/>
		</linearGradient>
		<polygon class="st18" points="565.3,1166.9 565.3,1041.4 686.7,971.3 808.1,1041.4 808.1,1166.9 812.4,1166.9 812.4,1038.9 
			686.7,966.4 561,1038.9 561,1166.9 		"/>
	</g>
	<g>
		<linearGradient id="SVGID_19_" gradientUnits="userSpaceOnUse" x1="1634.3309" y1="1567.0386" x2="666.343" y2="72.4676">
			<stop  offset="0" style="stop-color:#E1EFF8"/>
			<stop  offset="1" style="stop-color:#993366"/>
		</linearGradient>
		<polygon class="st19" points="1212.4,1166.9 1212.4,1041.4 1333.7,971.3 1455.1,1041.4 1455.1,1166.9 1459.4,1166.9 
			1459.4,1038.9 1333.7,966.4 1208.1,1038.9 1208.1,1166.9 		"/>
	</g>
	<g>
		<linearGradient id="SVGID_20_" gradientUnits="userSpaceOnUse" x1="1808.377" y1="1454.3153" x2="840.389" y2="-40.2557">
			<stop  offset="0" style="stop-color:#E1EFF8"/>
			<stop  offset="1" style="stop-color:#993366"/>
		</linearGradient>
		<polygon class="st20" points="1459.4,1166.9 1459.4,1041.4 1580.8,971.3 1702.2,1041.4 1702.2,1166.9 1706.5,1166.9 
			1706.5,1038.9 1580.8,966.4 1455.1,1038.9 1455.1,1166.9 		"/>
	</g>
	<g>
		<linearGradient id="SVGID_21_" gradientUnits="userSpaceOnUse" x1="1982.0894" y1="1341.8063" x2="1014.1024" y2="-152.7631">
			<stop  offset="0" style="stop-color:#E1EFF8"/>
			<stop  offset="1" style="stop-color:#993366"/>
		</linearGradient>
		<polygon class="st21" points="1952,1166.9 1952,1038 1827.8,966.4 1702.2,1038.9 1702.2,1166.9 1706.5,1166.9 1706.5,1041.4 
			1827.8,971.3 1949.2,1041.4 1949.2,1166.9 		"/>
	</g>
	<g>
		<linearGradient id="SVGID_22_" gradientUnits="userSpaceOnUse" x1="2069.2793" y1="1285.3357" x2="1101.2933" y2="-209.2324">
			<stop  offset="0" style="stop-color:#E1EFF8"/>
			<stop  offset="1" style="stop-color:#993366"/>
		</linearGradient>
		<polygon class="st22" points="1952,1037.3 1949.2,1038.9 1949.2,1166.9 1952,1166.9 		"/>
	</g>
</g>
<rect class="st23" width="2028" height="1192"/>
</svg>
