<!-- Generator: Adobe Illustrator 22.0.0, SVG Export Plug-In  -->
<svg version="1.1"
	 xmlns="http://www.w3.org/2000/svg" xmlns:xlink="http://www.w3.org/1999/xlink" xmlns:a="http://ns.adobe.com/AdobeSVGViewerExtensions/3.0/"
	 x="0px" y="0px" width="2028px" height="1192px" viewBox="0 0 2028 1192" style="enable-background:new 0 0 2028 1192;"
	 xml:space="preserve">
<style type="text/css">
	.st0{opacity:0.42;}
	.st1{fill:url(#SVGID_1_);}
	.st2{fill:url(#SVGID_2_);}
	.st3{fill:url(#SVGID_3_);}
	.st4{fill:url(#SVGID_4_);}
	.st5{fill:url(#SVGID_5_);}
	.st6{fill:url(#SVGID_6_);}
	.st7{fill:url(#SVGID_7_);}
	.st8{fill:url(#SVGID_8_);}
	.st9{fill:url(#SVGID_9_);}
	.st10{fill:url(#SVGID_10_);}
	.st11{fill:url(#SVGID_11_);}
	.st12{fill:url(#SVGID_12_);}
	.st13{fill:url(#SVGID_13_);}
	.st14{fill:url(#SVGID_14_);}
	.st15{fill:url(#SVGID_15_);}
	.st16{fill:url(#SVGID_16_);}
	.st17{fill:url(#SVGID_17_);}
	.st18{fill:url(#SVGID_18_);}
	.st19{fill:url(#SVGID_19_);}
	.st20{fill:url(#SVGID_20_);}
	.st21{fill:url(#SVGID_21_);}
	.st22{fill:url(#SVGID_22_);}
	.st23{fill:url(#SVGID_23_);}
	.st24{fill:url(#SVGID_24_);}
	.st25{fill:url(#SVGID_25_);}
	.st26{fill:url(#SVGID_26_);}
	.st27{fill:url(#SVGID_27_);}
	.st28{fill:url(#SVGID_28_);}
	.st29{fill:url(#SVGID_29_);}
	.st30{fill:url(#SVGID_30_);}
	.st31{fill:url(#SVGID_31_);}
	.st32{fill:url(#SVGID_32_);}
	.st33{fill:url(#SVGID_33_);}
	.st34{fill:url(#SVGID_34_);}
	.st35{fill:url(#SVGID_35_);}
	.st36{fill:none;}
	.st37{fill:url(#SVGID_36_);}
	.st38{fill:url(#SVGID_37_);}
	.st39{fill:url(#SVGID_38_);}
	.st40{fill:url(#SVGID_39_);}
	.st41{fill:url(#SVGID_40_);}
	.st42{fill:url(#SVGID_41_);}
	.st43{fill:url(#SVGID_42_);}
	.st44{fill:url(#SVGID_43_);}
	.st45{fill:url(#SVGID_44_);}
	.st46{fill:url(#SVGID_45_);}
	.st47{fill:url(#SVGID_46_);}
	.st48{fill:url(#SVGID_47_);}
	.st49{fill:url(#SVGID_48_);}
	.st50{fill:url(#SVGID_49_);}
	.st51{fill:url(#SVGID_50_);}
	.st52{fill:url(#SVGID_51_);}
	.st53{fill:url(#SVGID_52_);}
	.st54{fill:url(#SVGID_53_);}
	.st55{fill:url(#SVGID_54_);}
	.st56{fill:url(#SVGID_55_);}
	.st57{fill:url(#SVGID_56_);}
	.st58{fill:url(#SVGID_57_);}
	.st59{fill:url(#SVGID_58_);}
	.st60{fill:url(#SVGID_59_);}
	.st61{fill:url(#SVGID_60_);}
	.st62{fill:url(#SVGID_61_);}
	.st63{fill:url(#SVGID_62_);}
	.st64{fill:url(#SVGID_63_);}
	.st65{fill:url(#SVGID_64_);}
	.st66{fill:url(#SVGID_65_);}
	.st67{fill:url(#SVGID_66_);}
	.st68{fill:url(#SVGID_67_);}
	.st69{fill:url(#SVGID_68_);}
	.st70{fill:url(#SVGID_69_);}
	.st71{fill:url(#SVGID_70_);}
</style>
<defs>
</defs>
<g class="st0">
	<g>
		<linearGradient id="SVGID_1_" gradientUnits="userSpaceOnUse" x1="2291.9407" y1="1218.7935" x2="1498.86" y2="-5.7211">
			<stop  offset="0" style="stop-color:#E1EFF8"/>
			<stop  offset="1" style="stop-color:#993366"/>
		</linearGradient>
		<polygon class="st1" points="1627.6,0.2 1627.6,76.6 1528.1,134.1 1428.7,76.6 1428.7,0.2 1425.2,0.2 1425.2,78.7 1528.1,138.1 
			1631.1,78.7 1631.1,0.2 		"/>
	</g>
	<g>
		<linearGradient id="SVGID_2_" gradientUnits="userSpaceOnUse" x1="2434.5386" y1="1126.4386" x2="1641.457" y2="-98.0773">
			<stop  offset="0" style="stop-color:#E1EFF8"/>
			<stop  offset="1" style="stop-color:#993366"/>
		</linearGradient>
		<polygon class="st2" points="1830,0.2 1830,76.6 1730.5,134.1 1631.1,76.6 1631.1,0.2 1627.6,0.2 1627.6,78.7 1730.5,138.1 
			1833.5,78.7 1833.5,0.2 		"/>
	</g>
	<g>
		<linearGradient id="SVGID_3_" gradientUnits="userSpaceOnUse" x1="2533.6086" y1="1062.2729" x2="1740.5281" y2="-162.2414">
			<stop  offset="0" style="stop-color:#E1EFF8"/>
			<stop  offset="1" style="stop-color:#993366"/>
		</linearGradient>
		<polygon class="st3" points="1833.5,76.6 1833.5,0.2 1830,0.2 1830,78.7 1932.9,138.1 1981,110.3 1981,106.3 1932.9,134.1 		"/>
	</g>
	<g>
		<linearGradient id="SVGID_4_" gradientUnits="userSpaceOnUse" x1="2292.4875" y1="1218.4374" x2="1499.4073" y2="-6.0765">
			<stop  offset="0" style="stop-color:#E1EFF8"/>
			<stop  offset="1" style="stop-color:#993366"/>
		</linearGradient>
		<path class="st4" d="M1629.3,313.4l-103-59.4V135.1l103-59.4l103,59.4V254L1629.3,313.4z M1529.9,251.9l99.4,57.4l99.4-57.4V137.1
			l-99.4-57.4l-99.4,57.4V251.9z"/>
	</g>
	<g>
		<linearGradient id="SVGID_5_" gradientUnits="userSpaceOnUse" x1="2435.0837" y1="1126.0824" x2="1642.0044" y2="-98.4301">
			<stop  offset="0" style="stop-color:#E1EFF8"/>
			<stop  offset="1" style="stop-color:#993366"/>
		</linearGradient>
		<path class="st5" d="M1831.7,313.4l-103-59.4V135.1l103-59.4l103,59.4V254L1831.7,313.4z M1732.3,251.9l99.4,57.4l99.4-57.4V137.1
			l-99.4-57.4l-99.4,57.4V251.9z"/>
	</g>
	<g>
		<linearGradient id="SVGID_6_" gradientUnits="userSpaceOnUse" x1="2529.2654" y1="1065.0847" x2="1736.1854" y2="-159.4289">
			<stop  offset="0" style="stop-color:#E1EFF8"/>
			<stop  offset="1" style="stop-color:#993366"/>
		</linearGradient>
		<polygon class="st6" points="1981,278.7 1934.7,251.9 1934.7,137.1 1981,110.3 1981,106.3 1931.2,135.1 1931.2,254 1981,282.7 		
			"/>
	</g>
	<g>
		<linearGradient id="SVGID_7_" gradientUnits="userSpaceOnUse" x1="2283.8057" y1="1224.0641" x2="1490.7242" y2="-0.4515">
			<stop  offset="0" style="stop-color:#E1EFF8"/>
			<stop  offset="1" style="stop-color:#993366"/>
		</linearGradient>
		<path class="st7" d="M1730.5,488.7l-103-59.4V310.4l103-59.4l103,59.4v118.9L1730.5,488.7z M1631.1,427.2l99.4,57.4l99.4-57.4
			V312.4l-99.4-57.4l-99.4,57.4V427.2z"/>
	</g>
	<g>
		<linearGradient id="SVGID_8_" gradientUnits="userSpaceOnUse" x1="2414.2981" y1="1139.5459" x2="1621.2178" y2="-84.968">
			<stop  offset="0" style="stop-color:#E1EFF8"/>
			<stop  offset="1" style="stop-color:#993366"/>
		</linearGradient>
		<polygon class="st8" points="1981,456.9 1932.9,484.6 1833.5,427.2 1833.5,312.4 1932.9,255 1981,282.7 1981,278.7 1932.9,250.9 
			1830,310.4 1830,429.3 1932.9,488.7 1981,460.9 		"/>
	</g>
	<g>
		<linearGradient id="SVGID_9_" gradientUnits="userSpaceOnUse" x1="914.8763" y1="1845.1321" x2="121.7958" y2="620.6178">
			<stop  offset="0" style="stop-color:#E1EFF8"/>
			<stop  offset="1" style="stop-color:#993366"/>
		</linearGradient>
		<polygon class="st9" points="57,456.3 57,460.4 104.3,487.7 104.3,602.5 57,629.8 57,633.9 107.8,604.5 107.8,485.7 		"/>
	</g>
	<g>
		<linearGradient id="SVGID_10_" gradientUnits="userSpaceOnUse" x1="1009.5389" y1="1783.8235" x2="216.4576" y2="559.3079">
			<stop  offset="0" style="stop-color:#E1EFF8"/>
			<stop  offset="1" style="stop-color:#993366"/>
		</linearGradient>
		<path class="st10" d="M207.3,664l-103-59.4V485.7l103-59.4l103,59.4v118.9L207.3,664z M107.8,602.5l99.4,57.4l99.4-57.4V487.7
			l-99.4-57.4l-99.4,57.4V602.5z"/>
	</g>
	<g>
		<linearGradient id="SVGID_11_" gradientUnits="userSpaceOnUse" x1="1152.1355" y1="1691.4668" x2="359.0542" y2="466.9513">
			<stop  offset="0" style="stop-color:#E1EFF8"/>
			<stop  offset="1" style="stop-color:#993366"/>
		</linearGradient>
		<path class="st11" d="M409.7,664l-103-59.4V485.7l103-59.4l103,59.4v118.9L409.7,664z M310.2,602.5l99.4,57.4l99.4-57.4V487.7
			l-99.4-57.4l-99.4,57.4V602.5z"/>
	</g>
	<g>
		<linearGradient id="SVGID_12_" gradientUnits="userSpaceOnUse" x1="2369.3008" y1="1168.689" x2="1576.2207" y2="-55.8247">
			<stop  offset="0" style="stop-color:#E1EFF8"/>
			<stop  offset="1" style="stop-color:#993366"/>
		</linearGradient>
		<polygon class="st12" points="1981,629.3 1934.7,602.5 1934.7,487.7 1981,460.9 1981,456.9 1931.2,485.7 1931.2,604.5 1981,633.3 
					"/>
	</g>
	<g>
		<linearGradient id="SVGID_13_" gradientUnits="userSpaceOnUse" x1="870.1398" y1="1874.1028" x2="77.0593" y2="649.5884">
			<stop  offset="0" style="stop-color:#E1EFF8"/>
			<stop  offset="1" style="stop-color:#993366"/>
		</linearGradient>
		<polygon class="st13" points="106.1,601.5 57,629.8 57,633.9 106.1,605.6 205.5,663 205.5,777.8 106.1,835.2 57,806.9 57,811 
			106.1,839.3 209,779.8 209,661 		"/>
	</g>
	<g>
		<linearGradient id="SVGID_14_" gradientUnits="userSpaceOnUse" x1="1000.8536" y1="1789.4454" x2="207.7734" y2="564.9316">
			<stop  offset="0" style="stop-color:#E1EFF8"/>
			<stop  offset="1" style="stop-color:#993366"/>
		</linearGradient>
		<path class="st14" d="M308.5,839.3l-103-59.4V661l103-59.4l103,59.4v118.9L308.5,839.3z M209,777.8l99.4,57.4l99.4-57.4V663
			l-99.4-57.4L209,663V777.8z"/>
	</g>
	<g>
		<linearGradient id="SVGID_15_" gradientUnits="userSpaceOnUse" x1="1143.4507" y1="1697.089" x2="350.3704" y2="472.5751">
			<stop  offset="0" style="stop-color:#E1EFF8"/>
			<stop  offset="1" style="stop-color:#993366"/>
		</linearGradient>
		<path class="st15" d="M510.9,839.3l-103-59.4V661l103-59.4l103,59.4v118.9L510.9,839.3z M411.4,777.8l99.4,57.4l99.4-57.4V663
			l-99.4-57.4L411.4,663V777.8z"/>
	</g>
	<g>
		<linearGradient id="SVGID_16_" gradientUnits="userSpaceOnUse" x1="754.9093" y1="1948.7328" x2="-38.1695" y2="724.221">
			<stop  offset="0" style="stop-color:#E1EFF8"/>
			<stop  offset="1" style="stop-color:#993366"/>
		</linearGradient>
		<polygon class="st16" points="57,806.9 57,811 104.3,838.3 104.3,953.1 57,980.4 57,984.5 107.8,955.1 107.8,836.2 		"/>
	</g>
	<g>
		<linearGradient id="SVGID_17_" gradientUnits="userSpaceOnUse" x1="849.5739" y1="1887.427" x2="56.4926" y2="662.9115">
			<stop  offset="0" style="stop-color:#E1EFF8"/>
			<stop  offset="1" style="stop-color:#993366"/>
		</linearGradient>
		<path class="st17" d="M207.3,1014.6l-103-59.4V836.2l103-59.4l103,59.4v118.9L207.3,1014.6z M107.8,953.1l99.4,57.4l99.4-57.4
			V838.3l-99.4-57.4l-99.4,57.4V953.1z"/>
	</g>
	<g>
		<linearGradient id="SVGID_18_" gradientUnits="userSpaceOnUse" x1="992.1705" y1="1795.0704" x2="199.0892" y2="570.5549">
			<stop  offset="0" style="stop-color:#E1EFF8"/>
			<stop  offset="1" style="stop-color:#993366"/>
		</linearGradient>
		<path class="st18" d="M409.7,1014.6l-103-59.4V836.2l103-59.4l103,59.4v118.9L409.7,1014.6z M310.2,953.1l99.4,57.4l99.4-57.4
			V838.3l-99.4-57.4l-99.4,57.4V953.1z"/>
	</g>
	<g>
		<linearGradient id="SVGID_19_" gradientUnits="userSpaceOnUse" x1="2115.1553" y1="1333.2921" x2="1322.0748" y2="108.7779">
			<stop  offset="0" style="stop-color:#E1EFF8"/>
			<stop  offset="1" style="stop-color:#993366"/>
		</linearGradient>
		<path class="st19" d="M1831.7,1014.6l-103-59.4V836.2l103-59.4l103,59.4v118.9L1831.7,1014.6z M1732.3,953.1l99.4,57.4l99.4-57.4
			V838.3l-99.4-57.4l-99.4,57.4V953.1z"/>
	</g>
	<g>
		<linearGradient id="SVGID_20_" gradientUnits="userSpaceOnUse" x1="632.593" y1="2027.9452" x2="-160.4808" y2="803.4412">
			<stop  offset="0" style="stop-color:#E1EFF8"/>
			<stop  offset="1" style="stop-color:#993366"/>
		</linearGradient>
		<polygon class="st20" points="57,1161.5 92,1181.8 99,1181.8 57,1157.5 		"/>
		<linearGradient id="SVGID_21_" gradientUnits="userSpaceOnUse" x1="725.3247" y1="1967.8953" x2="-67.7558" y2="743.381">
			<stop  offset="0" style="stop-color:#E1EFF8"/>
			<stop  offset="1" style="stop-color:#993366"/>
		</linearGradient>
		<polygon class="st21" points="106.1,952.1 57,980.4 57,984.5 106.1,956.2 205.5,1013.6 205.5,1128.4 113.1,1181.8 120.1,1181.8 
			209,1130.4 209,1011.5 		"/>
	</g>
	<g>
		<linearGradient id="SVGID_22_" gradientUnits="userSpaceOnUse" x1="840.8895" y1="1893.0504" x2="47.8093" y2="668.5366">
			<stop  offset="0" style="stop-color:#E1EFF8"/>
			<stop  offset="1" style="stop-color:#993366"/>
		</linearGradient>
		<polygon class="st22" points="301.4,1181.8 209,1128.4 209,1013.6 308.5,956.2 407.9,1013.6 407.9,1128.4 315.5,1181.8 
			322.5,1181.8 411.4,1130.4 411.4,1011.5 308.5,952.1 205.5,1011.5 205.5,1130.4 294.4,1181.8 		"/>
	</g>
	<g>
		<linearGradient id="SVGID_23_" gradientUnits="userSpaceOnUse" x1="983.4867" y1="1800.6945" x2="190.4058" y2="576.1796">
			<stop  offset="0" style="stop-color:#E1EFF8"/>
			<stop  offset="1" style="stop-color:#993366"/>
		</linearGradient>
		<polygon class="st23" points="503.9,1181.8 411.4,1128.4 411.4,1013.6 510.9,956.2 610.3,1013.6 610.3,1128.4 517.9,1181.8 
			524.9,1181.8 613.8,1130.4 613.8,1011.5 510.9,952.1 407.9,1011.5 407.9,1130.4 496.8,1181.8 		"/>
	</g>
	<g>
		<linearGradient id="SVGID_24_" gradientUnits="userSpaceOnUse" x1="1963.8756" y1="1431.2714" x2="1170.7947" y2="206.7565">
			<stop  offset="0" style="stop-color:#E1EFF8"/>
			<stop  offset="1" style="stop-color:#993366"/>
		</linearGradient>
		<polygon class="st24" points="1723.5,1181.8 1631.1,1128.4 1631.1,1013.6 1730.5,956.2 1830,1013.6 1830,1128.4 1737.6,1181.8 
			1744.6,1181.8 1833.5,1130.4 1833.5,1011.5 1730.5,952.1 1627.6,1011.5 1627.6,1130.4 1716.5,1181.8 		"/>
	</g>
	<g>
		<linearGradient id="SVGID_25_" gradientUnits="userSpaceOnUse" x1="2094.3687" y1="1346.7542" x2="1301.2878" y2="122.2392">
			<stop  offset="0" style="stop-color:#E1EFF8"/>
			<stop  offset="1" style="stop-color:#993366"/>
		</linearGradient>
		<polygon class="st25" points="1932.9,956.2 1981,983.9 1981,979.9 1932.9,952.1 1830,1011.5 1830,1130.4 1918.9,1181.8 
			1925.9,1181.8 1833.5,1128.4 1833.5,1013.6 		"/>
		<linearGradient id="SVGID_26_" gradientUnits="userSpaceOnUse" x1="2080.749" y1="1355.5797" x2="1287.6561" y2="131.0462">
			<stop  offset="0" style="stop-color:#E1EFF8"/>
			<stop  offset="1" style="stop-color:#993366"/>
		</linearGradient>
		<polygon class="st26" points="1981,1158.1 1940,1181.8 1947,1181.8 1981,1162.1 		"/>
	</g>
	<g>
		<linearGradient id="SVGID_27_" gradientUnits="userSpaceOnUse" x1="632.5961" y1="2027.9492" x2="-160.4811" y2="803.44">
			<stop  offset="0" style="stop-color:#E1EFF8"/>
			<stop  offset="1" style="stop-color:#993366"/>
		</linearGradient>
		<polygon class="st27" points="57,1157.5 57,1161.5 92,1181.8 99,1181.8 		"/>
	</g>
	<g>
		<linearGradient id="SVGID_28_" gradientUnits="userSpaceOnUse" x1="719.0456" y1="1971.9629" x2="-74.0338" y2="747.4503">
			<stop  offset="0" style="stop-color:#E1EFF8"/>
			<stop  offset="1" style="stop-color:#993366"/>
		</linearGradient>
		<polygon class="st28" points="120.1,1181.8 207.3,1131.4 294.4,1181.8 301.4,1181.8 207.3,1127.4 113.1,1181.8 		"/>
	</g>
	<g>
		<linearGradient id="SVGID_29_" gradientUnits="userSpaceOnUse" x1="861.644" y1="1879.6088" x2="68.5631" y2="655.0939">
			<stop  offset="0" style="stop-color:#E1EFF8"/>
			<stop  offset="1" style="stop-color:#993366"/>
		</linearGradient>
		<polygon class="st29" points="322.5,1181.8 409.7,1131.4 496.8,1181.8 503.9,1181.8 409.7,1127.4 315.5,1181.8 		"/>
	</g>
	<g>
		<linearGradient id="SVGID_30_" gradientUnits="userSpaceOnUse" x1="1004.2407" y1="1787.2523" x2="211.1598" y2="562.7375">
			<stop  offset="0" style="stop-color:#E1EFF8"/>
			<stop  offset="1" style="stop-color:#993366"/>
		</linearGradient>
		<polygon class="st30" points="524.9,1181.8 612.1,1131.4 699.2,1181.8 706.3,1181.8 612.1,1127.4 517.9,1181.8 		"/>
	</g>
	<g>
		<linearGradient id="SVGID_31_" gradientUnits="userSpaceOnUse" x1="1146.838" y1="1694.8969" x2="353.7571" y2="470.3819">
			<stop  offset="0" style="stop-color:#E1EFF8"/>
			<stop  offset="1" style="stop-color:#993366"/>
		</linearGradient>
		<polygon class="st31" points="727.3,1181.8 814.5,1131.4 901.6,1181.8 908.7,1181.8 814.5,1127.4 720.3,1181.8 		"/>
	</g>
	<g>
		<linearGradient id="SVGID_32_" gradientUnits="userSpaceOnUse" x1="1699.4349" y1="1602.5404" x2="906.3555" y2="378.0278">
			<stop  offset="0" style="stop-color:#E1EFF8"/>
			<stop  offset="1" style="stop-color:#993366"/>
		</linearGradient>
		<polygon class="st32" points="1339.8,1181.8 1426.9,1131.4 1514.1,1181.8 1521.1,1181.8 1426.9,1127.4 1332.7,1181.8 		"/>
	</g>
	<g>
		<linearGradient id="SVGID_33_" gradientUnits="userSpaceOnUse" x1="1842.0322" y1="1510.1848" x2="1048.9514" y2="285.6699">
			<stop  offset="0" style="stop-color:#E1EFF8"/>
			<stop  offset="1" style="stop-color:#993366"/>
		</linearGradient>
		<polygon class="st33" points="1542.2,1181.8 1629.3,1131.4 1716.5,1181.8 1723.5,1181.8 1629.3,1127.4 1535.1,1181.8 		"/>
	</g>
	<g>
		<linearGradient id="SVGID_34_" gradientUnits="userSpaceOnUse" x1="1984.6283" y1="1417.83" x2="1191.5454" y2="193.312">
			<stop  offset="0" style="stop-color:#E1EFF8"/>
			<stop  offset="1" style="stop-color:#993366"/>
		</linearGradient>
		<polygon class="st34" points="1744.6,1181.8 1831.7,1131.4 1918.9,1181.8 1925.9,1181.8 1831.7,1127.4 1737.6,1181.8 		"/>
	</g>
	<g>
		<linearGradient id="SVGID_35_" gradientUnits="userSpaceOnUse" x1="2080.7483" y1="1355.5795" x2="1287.657" y2="131.0486">
			<stop  offset="0" style="stop-color:#E1EFF8"/>
			<stop  offset="1" style="stop-color:#993366"/>
		</linearGradient>
		<polygon class="st35" points="1981,1158.1 1940,1181.8 1947,1181.8 1981,1162.1 		"/>
	</g>
</g>
<rect class="st36" width="2028" height="1192"/>
</svg>
