<!-- Generator: Adobe Illustrator 22.0.0, SVG Export Plug-In  -->
<svg version="1.1"
	 xmlns="http://www.w3.org/2000/svg" xmlns:xlink="http://www.w3.org/1999/xlink" xmlns:a="http://ns.adobe.com/AdobeSVGViewerExtensions/3.0/"
	 x="0px" y="0px" width="2028px" height="1192px" viewBox="0 0 2028 1192" style="enable-background:new 0 0 2028 1192;"
	 xml:space="preserve">
<style type="text/css">
	.st0{fill:url(#SVGID_1_);}
	.st1{fill:url(#SVGID_2_);}
	.st2{fill:url(#SVGID_3_);}
	.st3{fill:url(#SVGID_4_);}
	.st4{fill:url(#SVGID_5_);}
	.st5{fill:url(#SVGID_6_);}
	.st6{fill:url(#SVGID_7_);}
	.st7{fill:url(#SVGID_8_);}
	.st8{fill:url(#SVGID_9_);}
	.st9{fill:url(#SVGID_10_);}
	.st10{fill:url(#SVGID_11_);}
	.st11{fill:url(#SVGID_12_);}
	.st12{fill:url(#SVGID_13_);}
	.st13{fill:url(#SVGID_14_);}
	.st14{fill:url(#SVGID_15_);}
	.st15{fill:url(#SVGID_16_);}
	.st16{fill:url(#SVGID_17_);}
	.st17{fill:url(#SVGID_18_);}
	.st18{fill:url(#SVGID_19_);}
	.st19{fill:url(#SVGID_20_);}
	.st20{fill:url(#SVGID_21_);}
	.st21{fill:url(#SVGID_22_);}
	.st22{fill:url(#SVGID_23_);}
	.st23{fill:url(#SVGID_24_);}
	.st24{fill:url(#SVGID_25_);}
	.st25{fill:url(#SVGID_26_);}
	.st26{fill:url(#SVGID_27_);}
	.st27{fill:url(#SVGID_28_);}
	.st28{fill:url(#SVGID_29_);}
	.st29{fill:url(#SVGID_30_);}
	.st30{fill:url(#SVGID_31_);}
	.st31{fill:url(#SVGID_32_);}
	.st32{fill:none;}
	.st33{fill:url(#SVGID_33_);}
	.st34{fill:url(#SVGID_34_);}
	.st35{fill:url(#SVGID_35_);}
	.st36{fill:url(#SVGID_36_);}
	.st37{fill:url(#SVGID_37_);}
	.st38{fill:url(#SVGID_38_);}
	.st39{fill:url(#SVGID_39_);}
	.st40{fill:url(#SVGID_40_);}
	.st41{fill:url(#SVGID_41_);}
	.st42{fill:url(#SVGID_42_);}
	.st43{fill:url(#SVGID_43_);}
	.st44{fill:url(#SVGID_44_);}
	.st45{fill:url(#SVGID_45_);}
	.st46{fill:url(#SVGID_46_);}
	.st47{fill:url(#SVGID_47_);}
	.st48{fill:url(#SVGID_48_);}
	.st49{fill:url(#SVGID_49_);}
	.st50{fill:url(#SVGID_50_);}
	.st51{fill:url(#SVGID_51_);}
	.st52{fill:url(#SVGID_52_);}
	.st53{fill:url(#SVGID_53_);}
	.st54{fill:url(#SVGID_54_);}
	.st55{fill:url(#SVGID_55_);}
	.st56{fill:url(#SVGID_56_);}
	.st57{fill:url(#SVGID_57_);}
	.st58{fill:url(#SVGID_58_);}
	.st59{fill:url(#SVGID_59_);}
	.st60{fill:url(#SVGID_60_);}
	.st61{fill:url(#SVGID_61_);}
	.st62{fill:url(#SVGID_62_);}
	.st63{fill:url(#SVGID_63_);}
	.st64{fill:url(#SVGID_64_);}
</style>
<defs>
</defs>
<g>
	<g>
		<linearGradient id="SVGID_1_" gradientUnits="userSpaceOnUse" x1="1101.0616" y1="1653.3516" x2="133.0739" y2="158.7811">
			<stop  offset="0" style="stop-color:#E1EFF8"/>
			<stop  offset="1" style="stop-color:#993366"/>
		</linearGradient>
		<polygon class="st0" points="69.9,0.2 69.9,95.1 57,102.6 57,103.5 70.5,95.7 70.7,95.6 70.7,0.2 		"/>
	</g>
	<g>
		<linearGradient id="SVGID_2_" gradientUnits="userSpaceOnUse" x1="2118.3599" y1="1260.0256" x2="1150.3728" y2="-234.5439">
			<stop  offset="0" style="stop-color:#E1EFF8"/>
			<stop  offset="1" style="stop-color:#993366"/>
		</linearGradient>
		<polygon class="st1" points="1427.7,0.2 1427.7,95.1 1333.3,149.6 1238.9,95.1 1238.9,0.2 1238.1,0.2 1238.1,95.6 1333.1,150.4 
			1333.3,150.5 1428.3,95.7 1428.5,95.6 1428.5,0.2 		"/>
	</g>
	<g>
		<linearGradient id="SVGID_3_" gradientUnits="userSpaceOnUse" x1="2251.9043" y1="1173.5317" x2="1283.9174" y2="-321.0377">
			<stop  offset="0" style="stop-color:#E1EFF8"/>
			<stop  offset="1" style="stop-color:#993366"/>
		</linearGradient>
		<polygon class="st2" points="1617.2,0.2 1617.2,95.1 1522.9,149.6 1428.5,95.1 1428.5,0.2 1427.7,0.2 1427.7,95.6 1522.7,150.4 
			1522.9,150.5 1617.9,95.7 1618.1,95.6 1618.1,0.2 		"/>
	</g>
	<g>
		<linearGradient id="SVGID_4_" gradientUnits="userSpaceOnUse" x1="2385.4497" y1="1087.0388" x2="1417.4618" y2="-407.5322">
			<stop  offset="0" style="stop-color:#E1EFF8"/>
			<stop  offset="1" style="stop-color:#993366"/>
		</linearGradient>
		<polygon class="st3" points="1806.8,0.2 1806.8,95.1 1712.4,149.6 1618.1,95.1 1618.1,0.2 1617.2,0.2 1617.2,95.6 1712.2,150.4 
			1712.4,150.5 1807.4,95.7 1807.6,95.6 1807.6,0.2 		"/>
	</g>
	<g>
		<linearGradient id="SVGID_5_" gradientUnits="userSpaceOnUse" x1="2480.429" y1="1025.5276" x2="1512.4401" y2="-469.045">
			<stop  offset="0" style="stop-color:#E1EFF8"/>
			<stop  offset="1" style="stop-color:#993366"/>
		</linearGradient>
		<polygon class="st4" points="1807.6,95.1 1807.6,0.2 1806.8,0.2 1806.8,95.6 1901.8,150.4 1902,150.5 1962,115.9 1962,115 
			1902,149.6 		"/>
	</g>
	<g>
		<linearGradient id="SVGID_6_" gradientUnits="userSpaceOnUse" x1="2247.0967" y1="1176.6464" x2="1279.1094" y2="-317.9236">
			<stop  offset="0" style="stop-color:#E1EFF8"/>
			<stop  offset="1" style="stop-color:#993366"/>
		</linearGradient>
		<path class="st5" d="M1617.7,314.7l-0.2-0.1l-95-54.8V149.8l0.2-0.1l95-54.8l0.2,0.1l95,54.8v109.9l-0.2,0.1L1617.7,314.7z
			 M1523.3,259.3l94.4,54.5l94.4-54.5v-109l-94.4-54.5l-94.4,54.5V259.3z"/>
	</g>
	<g>
		<linearGradient id="SVGID_7_" gradientUnits="userSpaceOnUse" x1="2380.6404" y1="1090.1536" x2="1412.6539" y2="-404.4151">
			<stop  offset="0" style="stop-color:#E1EFF8"/>
			<stop  offset="1" style="stop-color:#993366"/>
		</linearGradient>
		<path class="st6" d="M1807.2,314.7l-0.2-0.1l-95-54.8V149.8l0.2-0.1l95-54.8l0.2,0.1l95,54.8v109.9l-0.2,0.1L1807.2,314.7z
			 M1712.9,259.3l94.4,54.5l94.4-54.5v-109l-94.4-54.5l-94.4,54.5V259.3z"/>
	</g>
	<g>
		<linearGradient id="SVGID_8_" gradientUnits="userSpaceOnUse" x1="2476.3594" y1="1028.158" x2="1508.3718" y2="-466.4122">
			<stop  offset="0" style="stop-color:#E1EFF8"/>
			<stop  offset="1" style="stop-color:#993366"/>
		</linearGradient>
		<polygon class="st7" points="1962,293.7 1902.4,259.3 1902.4,150.3 1962,115.9 1962,115 1901.8,149.7 1901.6,149.8 1901.6,259.8 
			1962,294.6 		"/>
	</g>
	<g>
		<linearGradient id="SVGID_9_" gradientUnits="userSpaceOnUse" x1="2238.9636" y1="1181.9127" x2="1270.9762" y2="-312.6573">
			<stop  offset="0" style="stop-color:#E1EFF8"/>
			<stop  offset="1" style="stop-color:#993366"/>
		</linearGradient>
		<path class="st8" d="M1712.4,478.9l-0.2-0.1l-95-54.8V314l0.2-0.1l95-54.8l0.2,0.1l95,54.8v109.9l-0.2,0.1L1712.4,478.9z
			 M1618.1,423.4l94.4,54.5l94.4-54.5v-109l-94.4-54.5l-94.4,54.5V423.4z"/>
	</g>
	<g>
		<linearGradient id="SVGID_10_" gradientUnits="userSpaceOnUse" x1="2364.7476" y1="1100.4473" x2="1396.7596" y2="-394.1235">
			<stop  offset="0" style="stop-color:#E1EFF8"/>
			<stop  offset="1" style="stop-color:#993366"/>
		</linearGradient>
		<polygon class="st9" points="1962,443.3 1902,477.9 1807.6,423.4 1807.6,314.5 1902,260 1962,294.6 1962,293.7 1902.2,259.2 
			1902,259 1807,313.9 1806.8,314 1806.8,423.9 1901.8,478.8 1902,478.9 1962,444.2 		"/>
	</g>
	<g>
		<linearGradient id="SVGID_11_" gradientUnits="userSpaceOnUse" x1="904.0759" y1="1780.934" x2="-63.9108" y2="286.365">
			<stop  offset="0" style="stop-color:#E1EFF8"/>
			<stop  offset="1" style="stop-color:#993366"/>
		</linearGradient>
		<polygon class="st10" points="70.5,423.3 70.3,423.2 57,430.9 57,431.8 70.3,424.2 164.6,478.6 164.6,587.6 70.3,642.1 57,634.4 
			57,635.4 70.1,642.9 70.3,643 165.3,588.2 165.5,588.1 165.5,478.2 		"/>
	</g>
	<g>
		<linearGradient id="SVGID_12_" gradientUnits="userSpaceOnUse" x1="2230.8303" y1="1187.1809" x2="1262.8438" y2="-307.3878">
			<stop  offset="0" style="stop-color:#E1EFF8"/>
			<stop  offset="1" style="stop-color:#993366"/>
		</linearGradient>
		<path class="st11" d="M1807.2,643l-0.2-0.1l-95-54.8V478.2l0.2-0.1l95-54.8l0.2,0.1l95,54.8v109.9l-0.2,0.1L1807.2,643z
			 M1712.9,587.6l94.4,54.5l94.4-54.5v-109l-94.4-54.5l-94.4,54.5V587.6z"/>
	</g>
	<g>
		<linearGradient id="SVGID_13_" gradientUnits="userSpaceOnUse" x1="2326.5503" y1="1125.1871" x2="1358.5612" y2="-369.3858">
			<stop  offset="0" style="stop-color:#E1EFF8"/>
			<stop  offset="1" style="stop-color:#993366"/>
		</linearGradient>
		<polygon class="st12" points="1962,622 1902.4,587.6 1902.4,478.6 1962,444.2 1962,443.3 1901.8,478 1901.6,478.2 1901.6,588.1 
			1962,623 		"/>
	</g>
	<g>
		<linearGradient id="SVGID_14_" gradientUnits="userSpaceOnUse" x1="804.7676" y1="1845.2561" x2="-163.2162" y2="350.6915">
			<stop  offset="0" style="stop-color:#E1EFF8"/>
			<stop  offset="1" style="stop-color:#993366"/>
		</linearGradient>
		<polygon class="st13" points="57,634.4 57,635.4 69.9,642.8 69.9,751.8 57,759.2 57,760.2 70.5,752.4 70.7,752.3 70.7,642.3 		"/>
	</g>
	<g>
		<linearGradient id="SVGID_15_" gradientUnits="userSpaceOnUse" x1="877.884" y1="1797.8984" x2="-90.1039" y2="303.3275">
			<stop  offset="0" style="stop-color:#E1EFF8"/>
			<stop  offset="1" style="stop-color:#993366"/>
		</linearGradient>
		<path class="st14" d="M165.1,807.2l-0.2-0.1l-95-54.8V642.3l0.2-0.1l95-54.8l0.2,0.1l95,54.8v109.9l-0.2,0.1L165.1,807.2z
			 M70.7,751.8l94.4,54.5l94.4-54.5v-109l-94.4-54.5l-94.4,54.5V751.8z"/>
	</g>
	<g>
		<linearGradient id="SVGID_16_" gradientUnits="userSpaceOnUse" x1="1011.4284" y1="1711.4066" x2="43.4397" y2="216.8344">
			<stop  offset="0" style="stop-color:#E1EFF8"/>
			<stop  offset="1" style="stop-color:#993366"/>
		</linearGradient>
		<path class="st15" d="M354.6,807.2l-0.2-0.1l-95-54.8V642.3l0.2-0.1l95-54.8l0.2,0.1l95,54.8v109.9l-0.2,0.1L354.6,807.2z
			 M260.2,751.8l94.4,54.5l94.4-54.5v-109l-94.4-54.5l-94.4,54.5V751.8z"/>
	</g>
	<g>
		<linearGradient id="SVGID_17_" gradientUnits="userSpaceOnUse" x1="1144.9733" y1="1624.9131" x2="176.9855" y2="130.3423">
			<stop  offset="0" style="stop-color:#E1EFF8"/>
			<stop  offset="1" style="stop-color:#993366"/>
		</linearGradient>
		<path class="st16" d="M544.2,807.2l-0.2-0.1l-95-54.8V642.3l0.2-0.1l95-54.8l0.2,0.1l95,54.8v109.9l-0.2,0.1L544.2,807.2z
			 M449.8,751.8l94.4,54.5l94.4-54.5v-109l-94.4-54.5l-94.4,54.5V751.8z"/>
	</g>
	<g>
		<linearGradient id="SVGID_18_" gradientUnits="userSpaceOnUse" x1="754.2656" y1="1877.9611" x2="-213.7211" y2="383.3922">
			<stop  offset="0" style="stop-color:#E1EFF8"/>
			<stop  offset="1" style="stop-color:#993366"/>
		</linearGradient>
		<polygon class="st17" points="70.5,751.7 70.3,751.5 57,759.2 57,760.2 70.3,752.5 164.6,807 164.6,915.9 70.3,970.4 57,962.7 
			57,963.7 70.1,971.3 70.3,971.4 165.3,916.5 165.5,916.4 165.5,806.5 		"/>
	</g>
	<g>
		<linearGradient id="SVGID_19_" gradientUnits="userSpaceOnUse" x1="869.751" y1="1803.167" x2="-98.2379" y2="308.5947">
			<stop  offset="0" style="stop-color:#E1EFF8"/>
			<stop  offset="1" style="stop-color:#993366"/>
		</linearGradient>
		<path class="st18" d="M259.8,971.4l-0.2-0.1l-95-54.8V806.5l0.2-0.1l95-54.8l0.2,0.1l95,54.8v109.9l-0.2,0.1L259.8,971.4z
			 M165.5,915.9l94.4,54.5l94.4-54.5V807l-94.4-54.5L165.5,807V915.9z"/>
	</g>
	<g>
		<linearGradient id="SVGID_20_" gradientUnits="userSpaceOnUse" x1="1003.2963" y1="1716.6744" x2="35.3074" y2="222.102">
			<stop  offset="0" style="stop-color:#E1EFF8"/>
			<stop  offset="1" style="stop-color:#993366"/>
		</linearGradient>
		<path class="st19" d="M449.4,971.4l-0.2-0.1l-95-54.8V806.5l0.2-0.1l95-54.8l0.2,0.1l95,54.8v109.9l-0.2,0.1L449.4,971.4z
			 M355,915.9l94.4,54.5l94.4-54.5V807l-94.4-54.5L355,807V915.9z"/>
	</g>
	<g>
		<linearGradient id="SVGID_21_" gradientUnits="userSpaceOnUse" x1="654.9564" y1="1942.2819" x2="-313.0332" y2="447.7083">
			<stop  offset="0" style="stop-color:#E1EFF8"/>
			<stop  offset="1" style="stop-color:#993366"/>
		</linearGradient>
		<polygon class="st20" points="57,962.7 57,963.7 69.9,971.1 69.9,1080.1 57,1087.6 57,1088.5 70.5,1080.7 70.7,1080.6 70.7,970.7 
					"/>
	</g>
	<g>
		<linearGradient id="SVGID_22_" gradientUnits="userSpaceOnUse" x1="728.0727" y1="1894.924" x2="-239.9137" y2="400.3553">
			<stop  offset="0" style="stop-color:#E1EFF8"/>
			<stop  offset="1" style="stop-color:#993366"/>
		</linearGradient>
		<path class="st21" d="M165.1,1135.5l-0.2-0.1l-95-54.8V970.7l0.2-0.1l95-54.8l0.2,0.1l95,54.8v109.9l-0.2,0.1L165.1,1135.5z
			 M70.7,1080.1l94.4,54.5l94.4-54.5v-109l-94.4-54.5l-94.4,54.5V1080.1z"/>
	</g>
	<g>
		<linearGradient id="SVGID_23_" gradientUnits="userSpaceOnUse" x1="861.6179" y1="1808.4333" x2="-106.3694" y2="313.8633">
			<stop  offset="0" style="stop-color:#E1EFF8"/>
			<stop  offset="1" style="stop-color:#993366"/>
		</linearGradient>
		<path class="st22" d="M354.6,1135.5l-0.2-0.1l-95-54.8V970.7l0.2-0.1l95-54.8l0.2,0.1l95,54.8v109.9l-0.2,0.1L354.6,1135.5z
			 M260.2,1080.1l94.4,54.5l94.4-54.5v-109l-94.4-54.5l-94.4,54.5V1080.1z"/>
	</g>
	<g>
		<linearGradient id="SVGID_24_" gradientUnits="userSpaceOnUse" x1="995.162" y1="1721.9385" x2="27.1756" y2="227.3699">
			<stop  offset="0" style="stop-color:#E1EFF8"/>
			<stop  offset="1" style="stop-color:#993366"/>
		</linearGradient>
		<path class="st23" d="M544.2,1135.5l-0.2-0.1l-95-54.8V970.7l0.2-0.1l95-54.8l0.2,0.1l95,54.8v109.9l-0.2,0.1L544.2,1135.5z
			 M449.8,1080.1l94.4,54.5l94.4-54.5v-109l-94.4-54.5l-94.4,54.5V1080.1z"/>
	</g>
	<g>
		<linearGradient id="SVGID_25_" gradientUnits="userSpaceOnUse" x1="1939.3434" y1="1375.9675" x2="971.3561" y2="-118.6025">
			<stop  offset="0" style="stop-color:#E1EFF8"/>
			<stop  offset="1" style="stop-color:#993366"/>
		</linearGradient>
		<path class="st24" d="M1712.4,1135.5l-0.2-0.1l-95-54.8V970.7l0.2-0.1l95-54.8l0.2,0.1l95,54.8v109.9l-0.2,0.1L1712.4,1135.5z
			 M1618.1,1080.1l94.4,54.5l94.4-54.5v-109l-94.4-54.5l-94.4,54.5V1080.1z"/>
	</g>
	<g>
		<linearGradient id="SVGID_26_" gradientUnits="userSpaceOnUse" x1="2065.127" y1="1294.5013" x2="1097.1395" y2="-200.0686">
			<stop  offset="0" style="stop-color:#E1EFF8"/>
			<stop  offset="1" style="stop-color:#993366"/>
		</linearGradient>
		<polygon class="st25" points="1962,1100 1902,1134.6 1807.6,1080.1 1807.6,971.1 1902,916.7 1962,951.3 1962,950.3 1902.2,915.8 
			1902,915.7 1807,970.5 1806.8,970.7 1806.8,1080.6 1901.8,1135.4 1902,1135.5 1962,1100.9 		"/>
	</g>
	<g>
		<linearGradient id="SVGID_27_" gradientUnits="userSpaceOnUse" x1="650.8879" y1="1944.9149" x2="-317.0965" y2="450.3495">
			<stop  offset="0" style="stop-color:#E1EFF8"/>
			<stop  offset="1" style="stop-color:#993366"/>
		</linearGradient>
		<polygon class="st26" points="70.5,1080 70.3,1079.9 57,1087.6 57,1088.5 70.3,1080.8 164.6,1135.3 164.6,1166.9 165.5,1166.9 
			165.5,1134.8 		"/>
	</g>
	<g>
		<linearGradient id="SVGID_28_" gradientUnits="userSpaceOnUse" x1="737.697" y1="1888.6912" x2="-230.2917" y2="394.119">
			<stop  offset="0" style="stop-color:#E1EFF8"/>
			<stop  offset="1" style="stop-color:#993366"/>
		</linearGradient>
		<polygon class="st27" points="165.5,1166.9 165.5,1135.3 259.8,1080.8 354.2,1135.3 354.2,1166.9 355,1166.9 355,1134.8 260,1080 
			259.8,1079.9 164.8,1134.7 164.6,1134.8 164.6,1166.9 		"/>
	</g>
	<g>
		<linearGradient id="SVGID_29_" gradientUnits="userSpaceOnUse" x1="871.2417" y1="1802.1976" x2="-96.747" y2="307.6255">
			<stop  offset="0" style="stop-color:#E1EFF8"/>
			<stop  offset="1" style="stop-color:#993366"/>
		</linearGradient>
		<polygon class="st28" points="355,1166.9 355,1135.3 449.4,1080.8 543.8,1135.3 543.8,1166.9 544.6,1166.9 544.6,1134.8 
			449.6,1080 449.4,1079.9 354.4,1134.7 354.2,1134.8 354.2,1166.9 		"/>
	</g>
	<g>
		<linearGradient id="SVGID_30_" gradientUnits="userSpaceOnUse" x1="1004.7878" y1="1715.7058" x2="36.802" y2="221.138">
			<stop  offset="0" style="stop-color:#E1EFF8"/>
			<stop  offset="1" style="stop-color:#993366"/>
		</linearGradient>
		<polygon class="st29" points="544.6,1166.9 544.6,1135.3 639,1080.8 733.3,1135.3 733.3,1166.9 734.2,1166.9 734.2,1134.8 
			639.2,1080 639,1079.9 544,1134.7 543.8,1134.8 543.8,1166.9 		"/>
	</g>
	<g>
		<linearGradient id="SVGID_31_" gradientUnits="userSpaceOnUse" x1="1948.9677" y1="1369.7349" x2="980.9774" y2="-124.8396">
			<stop  offset="0" style="stop-color:#E1EFF8"/>
			<stop  offset="1" style="stop-color:#993366"/>
		</linearGradient>
		<polygon class="st30" points="1712.9,1166.9 1712.9,1135.3 1807.2,1080.8 1901.6,1135.3 1901.6,1166.9 1902.4,1166.9 
			1902.4,1134.8 1807.4,1080 1807.2,1079.9 1712.2,1134.7 1712,1134.8 1712,1166.9 		"/>
	</g>
	<g>
		<linearGradient id="SVGID_32_" gradientUnits="userSpaceOnUse" x1="2044.6862" y1="1307.7386" x2="1076.7078" y2="-186.8176">
			<stop  offset="0" style="stop-color:#E1EFF8"/>
			<stop  offset="1" style="stop-color:#993366"/>
		</linearGradient>
		<polygon class="st31" points="1962,1100 1901.8,1134.7 1901.6,1134.8 1901.6,1166.9 1902.4,1166.9 1902.4,1135.3 1962,1100.9 		
			"/>
	</g>
</g>
<rect class="st32" width="2028" height="1192"/>
</svg>
