<!-- Generator: Adobe Illustrator 22.0.0, SVG Export Plug-In  -->
<svg version="1.1"
	 xmlns="http://www.w3.org/2000/svg" xmlns:xlink="http://www.w3.org/1999/xlink" xmlns:a="http://ns.adobe.com/AdobeSVGViewerExtensions/3.0/"
	 x="0px" y="0px" width="3365px" height="2653.6px" viewBox="0 0 3365 2653.6"
	 style="overflow:scroll;enable-background:new 0 0 3365 2653.6;" xml:space="preserve">
<style type="text/css">
	.st0{opacity:0.24;}
	.st1{fill:#FFFFFF;}
	.st2{fill:none;}
</style>
<defs>
</defs>
<g id="Layer_4_copy">
	<g class="st0">
		<circle class="st1" cx="1790.1" cy="1441.8" r="8.5"/>
		<circle class="st1" cx="996.2" cy="1108.7" r="8.5"/>
		<circle class="st1" cx="425.4" cy="186.3" r="8.5"/>
		<circle class="st1" cx="2284.8" cy="1131.8" r="8.5"/>
		<circle class="st1" cx="2699.4" cy="763.3" r="8.5"/>
		<circle class="st1" cx="2194" cy="1430.3" r="8.5"/>
		<circle class="st1" cx="1544.7" cy="1104.1" r="8.5"/>
		<circle class="st1" cx="1200.8" cy="375.6" r="8.5"/>
		<circle class="st1" cx="1530.1" cy="1476.4" r="8.5"/>
		<circle class="st1" cx="2911.8" cy="1254.1" r="8.5"/>
		<circle class="st1" cx="1337" cy="825.6" r="8.5"/>
		<circle class="st1" cx="1390.1" cy="1551.8" r="8.5"/>
		<circle class="st1" cx="1485.5" cy="2305.8" r="8.5"/>
		<circle class="st1" cx="1278.5" cy="2031.9" r="8.5"/>
		<circle class="st1" cx="874.4" cy="1271.4" r="8.5"/>
		<circle class="st1" cx="1827" cy="1074.1" r="8.5"/>
		<circle class="st1" cx="1636.6" cy="1241.4" r="11.2"/>
		<circle class="st1" cx="2736.7" cy="2113" r="11.2"/>
		<circle class="st1" cx="2509" cy="323.6" r="11.2"/>
		<circle class="st1" cx="2230.5" cy="1878.4" r="11.2"/>
		<circle class="st1" cx="2636" cy="1576.8" r="11.2"/>
		<circle class="st1" cx="1843.6" cy="1765.3" r="11.2"/>
		<circle class="st1" cx="1991.3" cy="1169.1" r="11.2"/>
		<circle class="st1" cx="1947.4" cy="788.3" r="11.2"/>
		<circle class="st1" cx="1551.2" cy="350.6" r="11.2"/>
		<circle class="st1" cx="1923.6" cy="589.8" r="11.2"/>
		<circle class="st1" cx="2152.8" cy="966.8" r="11.2"/>
		<circle class="st1" cx="1172.7" cy="1095.3" r="11.2"/>
		<circle class="st1" cx="811.9" cy="1989.2" r="11.2"/>
		<circle class="st1" cx="757.3" cy="725.2" r="11.2"/>
		<circle class="st1" cx="1337.4" cy="1185.3" r="11.2"/>
		<circle class="st1" cx="1223.5" cy="1473.8" r="11.2"/>
		<circle class="st1" cx="2309" cy="2297.7" r="11.2"/>
		<circle class="st1" cx="400.3" cy="2263.1" r="11.2"/>
		<circle class="st1" cx="433.4" cy="1111.4" r="11.2"/>
		<circle class="st1" cx="560.4" cy="1593" r="11.2"/>
	</g>
</g>
<rect class="st2" width="3365" height="2653.6"/>
</svg>
