<!-- Generator: Adobe Illustrator 22.0.0, SVG Export Plug-In  -->
<svg version="1.1"
	 xmlns="http://www.w3.org/2000/svg" xmlns:xlink="http://www.w3.org/1999/xlink" xmlns:a="http://ns.adobe.com/AdobeSVGViewerExtensions/3.0/"
	 x="0px" y="0px" width="3365px" height="2653.6px" viewBox="0 0 3365 2653.6"
	 style="overflow:scroll;enable-background:new 0 0 3365 2653.6;" xml:space="preserve">
<style type="text/css">
	.st0{opacity:0.4;}
	.st1{fill:none;stroke:#FFFFFF;stroke-width:2.9641;stroke-miterlimit:10;}
	.st2{fill:none;stroke:#FFFFFF;stroke-width:2.9641;stroke-linejoin:round;stroke-miterlimit:10;}
	.st3{display:none;fill:none;stroke:#FFFFFF;stroke-width:2.9641;stroke-miterlimit:10;}
	.st4{display:none;fill:none;stroke:#FFFFFF;stroke-width:2.9641;stroke-linejoin:round;stroke-miterlimit:10;}
	.st5{fill:none;}
</style>
<defs>
</defs>
<g id="Layer_1_2_" class="st0">
	<polygon class="st1" points="213.7,189.6 213.7,84 122.3,31.3 30.9,84 30.9,189.6 122.3,242.3 	"/>
	<polygon class="st1" points="396.5,189.6 396.5,84 305.1,31.3 213.7,84 213.7,189.6 305.1,242.3 	"/>
	<polygon class="st1" points="579.3,189.6 579.3,84 487.9,31.3 396.5,84 396.5,189.6 487.9,242.3 	"/>
	<polygon class="st1" points="762.1,189.6 762.1,84 670.7,31.3 579.3,84 579.3,189.6 670.7,242.3 	"/>
	<polygon class="st1" points="944.8,189.6 944.8,84 853.4,31.3 762.1,84 762.1,189.6 853.4,242.3 	"/>
	<polygon class="st1" points="1127.6,189.6 1127.6,84 1036.2,31.3 944.8,84 944.8,189.6 1036.2,242.3 	"/>
	<polygon class="st1" points="1310.4,189.6 1310.4,84 1219,31.3 1127.6,84 1127.6,189.6 1219,242.3 	"/>
	<polygon class="st1" points="1493.2,189.6 1493.2,84 1401.8,31.3 1310.4,84 1310.4,189.6 1401.8,242.3 	"/>
	<polygon class="st2" points="305.3,347.2 305.3,241.7 213.9,188.9 122.5,241.7 122.5,347.2 213.9,400 	"/>
	<polygon class="st2" points="488.1,347.2 488.1,241.7 396.7,188.9 305.3,241.7 305.3,347.2 396.7,400 	"/>
	<polygon class="st2" points="670.8,347.2 670.8,241.7 579.5,188.9 488.1,241.7 488.1,347.2 579.5,400 	"/>
	<polygon class="st2" points="853.6,347.2 853.6,241.7 762.2,188.9 670.8,241.7 670.8,347.2 762.2,400 	"/>
	<polygon class="st2" points="1036.4,347.2 1036.4,241.7 945,188.9 853.6,241.7 853.6,347.2 945,400 	"/>
	<polygon class="st2" points="1219.2,347.2 1219.2,241.7 1127.8,188.9 1036.4,241.7 1036.4,347.2 1127.8,400 	"/>
	<polygon class="st2" points="1402,347.2 1402,241.7 1310.6,188.9 1219.2,241.7 1219.2,347.2 1310.6,400 	"/>
	<polygon class="st2" points="1584.7,347.2 1584.7,241.7 1493.4,188.9 1402,241.7 1402,347.2 1493.4,400 	"/>
	<polygon class="st1" points="213.7,506.1 213.7,400.6 122.3,347.8 30.9,400.6 30.9,506.1 122.3,558.9 	"/>
	<polygon class="st1" points="396.5,506.1 396.5,400.6 305.1,347.8 213.7,400.6 213.7,506.1 305.1,558.9 	"/>
	<polygon class="st1" points="579.3,506.1 579.3,400.6 487.9,347.8 396.5,400.6 396.5,506.1 487.9,558.9 	"/>
	<polygon class="st3" points="762.1,506.1 762.1,400.6 670.7,347.8 579.3,400.6 579.3,506.1 670.7,558.9 	"/>
	<polygon class="st1" points="944.8,506.1 944.8,400.6 853.4,347.8 762.1,400.6 762.1,506.1 853.4,558.9 	"/>
	<polygon class="st1" points="1127.6,506.1 1127.6,400.6 1036.2,347.8 944.8,400.6 944.8,506.1 1036.2,558.9 	"/>
	<polygon class="st1" points="1310.4,506.1 1310.4,400.6 1219,347.8 1127.6,400.6 1127.6,506.1 1219,558.9 	"/>
	<polygon class="st1" points="1493.2,506.1 1493.2,400.6 1401.8,347.8 1310.4,400.6 1310.4,506.1 1401.8,558.9 	"/>
	<polygon class="st2" points="305.3,663.8 305.3,558.3 213.9,505.5 122.5,558.3 122.5,663.8 213.9,716.6 	"/>
	<polygon class="st2" points="488.1,663.8 488.1,558.3 396.7,505.5 305.3,558.3 305.3,663.8 396.7,716.6 	"/>
	<polygon class="st2" points="670.8,663.8 670.8,558.3 579.5,505.5 488.1,558.3 488.1,663.8 579.5,716.6 	"/>
	<polygon class="st2" points="853.6,663.8 853.6,558.3 762.2,505.5 670.8,558.3 670.8,663.8 762.2,716.6 	"/>
	<polygon class="st2" points="1036.4,663.8 1036.4,558.3 945,505.5 853.6,558.3 853.6,663.8 945,716.6 	"/>
	<polygon class="st2" points="1219.2,663.8 1219.2,558.3 1127.8,505.5 1036.4,558.3 1036.4,663.8 1127.8,716.6 	"/>
	<polygon class="st2" points="1402,663.8 1402,558.3 1310.6,505.5 1219.2,558.3 1219.2,663.8 1310.6,716.6 	"/>
	<polygon class="st2" points="1584.7,663.8 1584.7,558.3 1493.4,505.5 1402,558.3 1402,663.8 1493.4,716.6 	"/>
	<polygon class="st1" points="213.7,822.7 213.7,717.2 122.3,664.4 30.9,717.2 30.9,822.7 122.3,875.5 	"/>
	<polygon class="st1" points="396.5,822.7 396.5,717.2 305.1,664.4 213.7,717.2 213.7,822.7 305.1,875.5 	"/>
	<polygon class="st1" points="579.3,822.7 579.3,717.2 487.9,664.4 396.5,717.2 396.5,822.7 487.9,875.5 	"/>
	<polygon class="st1" points="762.1,822.7 762.1,717.2 670.7,664.4 579.3,717.2 579.3,822.7 670.7,875.5 	"/>
	<polygon class="st1" points="944.8,822.7 944.8,717.2 853.4,664.4 762.1,717.2 762.1,822.7 853.4,875.5 	"/>
	<polygon class="st3" points="1127.6,822.7 1127.6,717.2 1036.2,664.4 944.8,717.2 944.8,822.7 1036.2,875.5 	"/>
	<polygon class="st1" points="1310.4,822.7 1310.4,717.2 1219,664.4 1127.6,717.2 1127.6,822.7 1219,875.5 	"/>
	<polygon class="st1" points="1493.2,822.7 1493.2,717.2 1401.8,664.4 1310.4,717.2 1310.4,822.7 1401.8,875.5 	"/>
	<polygon class="st2" points="305.3,980.4 305.3,874.8 213.9,822.1 122.5,874.8 122.5,980.4 213.9,1033.1 	"/>
	<polygon class="st2" points="488.1,980.4 488.1,874.8 396.7,822.1 305.3,874.8 305.3,980.4 396.7,1033.1 	"/>
	<polygon class="st2" points="670.8,980.4 670.8,874.8 579.5,822.1 488.1,874.8 488.1,980.4 579.5,1033.1 	"/>
	<polygon class="st2" points="853.6,980.4 853.6,874.8 762.2,822.1 670.8,874.8 670.8,980.4 762.2,1033.1 	"/>
	<polygon class="st2" points="1036.4,980.4 1036.4,874.8 945,822.1 853.6,874.8 853.6,980.4 945,1033.1 	"/>
	<polygon class="st4" points="1219.2,980.4 1219.2,874.8 1127.8,822.1 1036.4,874.8 1036.4,980.4 1127.8,1033.1 	"/>
	<polygon class="st2" points="1402,980.4 1402,874.8 1310.6,822.1 1219.2,874.8 1219.2,980.4 1310.6,1033.1 	"/>
	<polygon class="st4" points="1584.7,980.4 1584.7,874.8 1493.4,822.1 1402,874.8 1402,980.4 1493.4,1033.1 	"/>
	<polygon class="st1" points="213.7,1139.3 213.7,1033.7 122.3,981 30.9,1033.7 30.9,1139.3 122.3,1192 	"/>
	<polygon class="st1" points="396.5,1139.3 396.5,1033.7 305.1,981 213.7,1033.7 213.7,1139.3 305.1,1192 	"/>
	<polygon class="st1" points="579.3,1139.3 579.3,1033.7 487.9,981 396.5,1033.7 396.5,1139.3 487.9,1192 	"/>
	<polygon class="st1" points="762.1,1139.3 762.1,1033.7 670.7,981 579.3,1033.7 579.3,1139.3 670.7,1192 	"/>
	<polygon class="st1" points="944.8,1139.3 944.8,1033.7 853.4,981 762.1,1033.7 762.1,1139.3 853.4,1192 	"/>
	<polygon class="st3" points="1127.6,1139.3 1127.6,1033.7 1036.2,981 944.8,1033.7 944.8,1139.3 1036.2,1192 	"/>
	<polygon class="st3" points="1310.4,1139.3 1310.4,1033.7 1219,981 1127.6,1033.7 1127.6,1139.3 1219,1192 	"/>
	<polygon class="st3" points="1493.2,1139.3 1493.2,1033.7 1401.8,981 1310.4,1033.7 1310.4,1139.3 1401.8,1192 	"/>
	<polygon class="st2" points="305.3,1296.9 305.3,1191.4 213.9,1138.7 122.5,1191.4 122.5,1296.9 213.9,1349.7 	"/>
	<polygon class="st2" points="488.1,1296.9 488.1,1191.4 396.7,1138.7 305.3,1191.4 305.3,1296.9 396.7,1349.7 	"/>
	<polygon class="st2" points="670.8,1296.9 670.8,1191.4 579.5,1138.7 488.1,1191.4 488.1,1296.9 579.5,1349.7 	"/>
	<polygon class="st2" points="853.6,1296.9 853.6,1191.4 762.2,1138.7 670.8,1191.4 670.8,1296.9 762.2,1349.7 	"/>
	<polygon class="st2" points="1036.4,1296.9 1036.4,1191.4 945,1138.7 853.6,1191.4 853.6,1296.9 945,1349.7 	"/>
	<polygon class="st4" points="1219.2,1296.9 1219.2,1191.4 1127.8,1138.7 1036.4,1191.4 1036.4,1296.9 1127.8,1349.7 	"/>
	<polygon class="st4" points="1402,1296.9 1402,1191.4 1310.6,1138.7 1219.2,1191.4 1219.2,1296.9 1310.6,1349.7 	"/>
	<polygon class="st4" points="1584.7,1296.9 1584.7,1191.4 1493.4,1138.7 1402,1191.4 1402,1296.9 1493.4,1349.7 	"/>
	<polygon class="st1" points="213.7,1455.8 213.7,1350.3 122.3,1297.5 30.9,1350.3 30.9,1455.8 122.3,1508.6 	"/>
	<polygon class="st1" points="396.5,1455.8 396.5,1350.3 305.1,1297.5 213.7,1350.3 213.7,1455.8 305.1,1508.6 	"/>
	<polygon class="st1" points="579.3,1455.8 579.3,1350.3 487.9,1297.5 396.5,1350.3 396.5,1455.8 487.9,1508.6 	"/>
	<polygon class="st1" points="762.1,1455.8 762.1,1350.3 670.7,1297.5 579.3,1350.3 579.3,1455.8 670.7,1508.6 	"/>
	<polygon class="st1" points="944.8,1455.8 944.8,1350.3 853.4,1297.5 762.1,1350.3 762.1,1455.8 853.4,1508.6 	"/>
	<polygon class="st1" points="1127.6,1455.8 1127.6,1350.3 1036.2,1297.5 944.8,1350.3 944.8,1455.8 1036.2,1508.6 	"/>
	<polygon class="st3" points="1310.4,1455.8 1310.4,1350.3 1219,1297.5 1127.6,1350.3 1127.6,1455.8 1219,1508.6 	"/>
	<polygon class="st3" points="1493.2,1455.8 1493.2,1350.3 1401.8,1297.5 1310.4,1350.3 1310.4,1455.8 1401.8,1508.6 	"/>
	<polygon class="st2" points="305.3,1613.5 305.3,1508 213.9,1455.2 122.5,1508 122.5,1613.5 213.9,1666.3 	"/>
	<polygon class="st2" points="488.1,1613.5 488.1,1508 396.7,1455.2 305.3,1508 305.3,1613.5 396.7,1666.3 	"/>
	<polygon class="st2" points="670.8,1613.5 670.8,1508 579.5,1455.2 488.1,1508 488.1,1613.5 579.5,1666.3 	"/>
	<polygon class="st2" points="853.6,1613.5 853.6,1508 762.2,1455.2 670.8,1508 670.8,1613.5 762.2,1666.3 	"/>
	<polygon class="st2" points="1036.4,1613.5 1036.4,1508 945,1455.2 853.6,1508 853.6,1613.5 945,1666.3 	"/>
	<polygon class="st2" points="1219.2,1613.5 1219.2,1508 1127.8,1455.2 1036.4,1508 1036.4,1613.5 1127.8,1666.3 	"/>
	<polygon class="st4" points="1402,1613.5 1402,1508 1310.6,1455.2 1219.2,1508 1219.2,1613.5 1310.6,1666.3 	"/>
	<polygon class="st4" points="1584.7,1613.5 1584.7,1508 1493.4,1455.2 1402,1508 1402,1613.5 1493.4,1666.3 	"/>
	<polygon class="st1" points="213.7,1772.4 213.7,1666.9 122.3,1614.1 30.9,1666.9 30.9,1772.4 122.3,1825.2 	"/>
	<polygon class="st1" points="396.5,1772.4 396.5,1666.9 305.1,1614.1 213.7,1666.9 213.7,1772.4 305.1,1825.2 	"/>
	<polygon class="st1" points="579.3,1772.4 579.3,1666.9 487.9,1614.1 396.5,1666.9 396.5,1772.4 487.9,1825.2 	"/>
	<polygon class="st1" points="762.1,1772.4 762.1,1666.9 670.7,1614.1 579.3,1666.9 579.3,1772.4 670.7,1825.2 	"/>
	<polygon class="st1" points="944.8,1772.4 944.8,1666.9 853.4,1614.1 762.1,1666.9 762.1,1772.4 853.4,1825.2 	"/>
	<polygon class="st1" points="1127.6,1772.4 1127.6,1666.9 1036.2,1614.1 944.8,1666.9 944.8,1772.4 1036.2,1825.2 	"/>
	<polygon class="st1" points="1310.4,1772.4 1310.4,1666.9 1219,1614.1 1127.6,1666.9 1127.6,1772.4 1219,1825.2 	"/>
	<polygon class="st1" points="1493.2,1772.4 1493.2,1666.9 1401.8,1614.1 1310.4,1666.9 1310.4,1772.4 1401.8,1825.2 	"/>
	<polygon class="st2" points="305.3,1930.1 305.3,1824.6 213.9,1771.8 122.5,1824.6 122.5,1930.1 213.9,1982.8 	"/>
	<polygon class="st2" points="488.1,1930.1 488.1,1824.6 396.7,1771.8 305.3,1824.6 305.3,1930.1 396.7,1982.8 	"/>
	<polygon class="st2" points="670.8,1930.1 670.8,1824.6 579.5,1771.8 488.1,1824.6 488.1,1930.1 579.5,1982.8 	"/>
	<polygon class="st2" points="853.6,1930.1 853.6,1824.6 762.2,1771.8 670.8,1824.6 670.8,1930.1 762.2,1982.8 	"/>
	<polygon class="st2" points="1036.4,1930.1 1036.4,1824.6 945,1771.8 853.6,1824.6 853.6,1930.1 945,1982.8 	"/>
	<polygon class="st2" points="1219.2,1930.1 1219.2,1824.6 1127.8,1771.8 1036.4,1824.6 1036.4,1930.1 1127.8,1982.8 	"/>
	<polygon class="st2" points="1402,1930.1 1402,1824.6 1310.6,1771.8 1219.2,1824.6 1219.2,1930.1 1310.6,1982.8 	"/>
	<polygon class="st2" points="1584.7,1930.1 1584.7,1824.6 1493.4,1771.8 1402,1824.6 1402,1930.1 1493.4,1982.8 	"/>
	<polygon class="st1" points="213.7,2089 213.7,1983.4 122.3,1930.7 30.9,1983.4 30.9,2089 122.3,2141.7 	"/>
	<polygon class="st1" points="396.5,2089 396.5,1983.4 305.1,1930.7 213.7,1983.4 213.7,2089 305.1,2141.7 	"/>
	<polygon class="st1" points="579.3,2089 579.3,1983.4 487.9,1930.7 396.5,1983.4 396.5,2089 487.9,2141.7 	"/>
	<polygon class="st1" points="762.1,2089 762.1,1983.4 670.7,1930.7 579.3,1983.4 579.3,2089 670.7,2141.7 	"/>
	<polygon class="st1" points="944.8,2089 944.8,1983.4 853.4,1930.7 762.1,1983.4 762.1,2089 853.4,2141.7 	"/>
	<polygon class="st1" points="1127.6,2089 1127.6,1983.4 1036.2,1930.7 944.8,1983.4 944.8,2089 1036.2,2141.7 	"/>
	<polygon class="st1" points="1310.4,2089 1310.4,1983.4 1219,1930.7 1127.6,1983.4 1127.6,2089 1219,2141.7 	"/>
	<polygon class="st1" points="1493.2,2089 1493.2,1983.4 1401.8,1930.7 1310.4,1983.4 1310.4,2089 1401.8,2141.7 	"/>
	<polygon class="st2" points="305.3,2246.6 305.3,2141.1 213.9,2088.4 122.5,2141.1 122.5,2246.6 213.9,2299.4 	"/>
	<polygon class="st2" points="488.1,2246.6 488.1,2141.1 396.7,2088.4 305.3,2141.1 305.3,2246.6 396.7,2299.4 	"/>
	<polygon class="st2" points="670.8,2246.6 670.8,2141.1 579.5,2088.4 488.1,2141.1 488.1,2246.6 579.5,2299.4 	"/>
	<polygon class="st2" points="853.6,2246.6 853.6,2141.1 762.2,2088.4 670.8,2141.1 670.8,2246.6 762.2,2299.4 	"/>
	<polygon class="st2" points="1036.4,2246.6 1036.4,2141.1 945,2088.4 853.6,2141.1 853.6,2246.6 945,2299.4 	"/>
	<polygon class="st2" points="1219.2,2246.6 1219.2,2141.1 1127.8,2088.4 1036.4,2141.1 1036.4,2246.6 1127.8,2299.4 	"/>
	<polygon class="st2" points="1402,2246.6 1402,2141.1 1310.6,2088.4 1219.2,2141.1 1219.2,2246.6 1310.6,2299.4 	"/>
	<polygon class="st2" points="1584.7,2246.6 1584.7,2141.1 1493.4,2088.4 1402,2141.1 1402,2246.6 1493.4,2299.4 	"/>
	<polygon class="st1" points="213.7,2404.9 213.7,2299.4 122.3,2246.6 30.9,2299.4 30.9,2404.9 122.3,2457.7 	"/>
	<polygon class="st1" points="396.5,2404.9 396.5,2299.4 305.1,2246.6 213.7,2299.4 213.7,2404.9 305.1,2457.7 	"/>
	<polygon class="st1" points="579.3,2404.9 579.3,2299.4 487.9,2246.6 396.5,2299.4 396.5,2404.9 487.9,2457.7 	"/>
	<polygon class="st1" points="762.1,2404.9 762.1,2299.4 670.7,2246.6 579.3,2299.4 579.3,2404.9 670.7,2457.7 	"/>
	<polygon class="st1" points="944.8,2404.9 944.8,2299.4 853.4,2246.6 762.1,2299.4 762.1,2404.9 853.4,2457.7 	"/>
	<polygon class="st1" points="1127.6,2404.9 1127.6,2299.4 1036.2,2246.6 944.8,2299.4 944.8,2404.9 1036.2,2457.7 	"/>
	<polygon class="st1" points="1310.4,2404.9 1310.4,2299.4 1219,2246.6 1127.6,2299.4 1127.6,2404.9 1219,2457.7 	"/>
	<polygon class="st1" points="1493.2,2404.9 1493.2,2299.4 1401.8,2246.6 1310.4,2299.4 1310.4,2404.9 1401.8,2457.7 	"/>
	<polygon class="st2" points="305.3,2562.6 305.3,2457.1 213.9,2404.3 122.5,2457.1 122.5,2562.6 213.9,2615.4 	"/>
	<polygon class="st2" points="488.1,2562.6 488.1,2457.1 396.7,2404.3 305.3,2457.1 305.3,2562.6 396.7,2615.4 	"/>
	<polygon class="st2" points="670.8,2562.6 670.8,2457.1 579.5,2404.3 488.1,2457.1 488.1,2562.6 579.5,2615.4 	"/>
	<polygon class="st2" points="853.6,2562.6 853.6,2457.1 762.2,2404.3 670.8,2457.1 670.8,2562.6 762.2,2615.4 	"/>
	<polygon class="st2" points="1036.4,2562.6 1036.4,2457.1 945,2404.3 853.6,2457.1 853.6,2562.6 945,2615.4 	"/>
	<polygon class="st2" points="1219.2,2562.6 1219.2,2457.1 1127.8,2404.3 1036.4,2457.1 1036.4,2562.6 1127.8,2615.4 	"/>
	<polygon class="st2" points="1402,2562.6 1402,2457.1 1310.6,2404.3 1219.2,2457.1 1219.2,2562.6 1310.6,2615.4 	"/>
	<polygon class="st2" points="1584.7,2562.6 1584.7,2457.1 1493.4,2404.3 1402,2457.1 1402,2562.6 1493.4,2615.4 	"/>
	<polygon class="st1" points="1676.5,189.6 1676.5,84 1585.1,31.3 1493.7,84 1493.7,189.6 1585.1,242.3 	"/>
	<polygon class="st1" points="1859.3,189.6 1859.3,84 1767.9,31.3 1676.5,84 1676.5,189.6 1767.9,242.3 	"/>
	<polygon class="st1" points="2042.1,189.6 2042.1,84 1950.7,31.3 1859.3,84 1859.3,189.6 1950.7,242.3 	"/>
	<polygon class="st1" points="2224.8,189.6 2224.8,84 2133.5,31.3 2042.1,84 2042.1,189.6 2133.5,242.3 	"/>
	<polygon class="st1" points="2407.6,189.6 2407.6,84 2316.2,31.3 2224.8,84 2224.8,189.6 2316.2,242.3 	"/>
	<polygon class="st1" points="2590.4,189.6 2590.4,84 2499,31.3 2407.6,84 2407.6,189.6 2499,242.3 	"/>
	<polygon class="st1" points="2773.2,189.6 2773.2,84 2681.8,31.3 2590.4,84 2590.4,189.6 2681.8,242.3 	"/>
	<polygon class="st1" points="2956,189.6 2956,84 2864.6,31.3 2773.2,84 2773.2,189.6 2864.6,242.3 	"/>
	<polygon class="st1" points="3138.7,189.6 3138.7,84 3047.4,31.3 2956,84 2956,189.6 3047.4,242.3 	"/>
	<polygon class="st1" points="3321.5,189.6 3321.5,84 3230.1,31.3 3138.7,84 3138.7,189.6 3230.1,242.3 	"/>
	<polygon class="st2" points="1768.1,347.2 1768.1,241.7 1676.7,188.9 1585.3,241.7 1585.3,347.2 1676.7,400 	"/>
	<polygon class="st2" points="1950.9,347.2 1950.9,241.7 1859.5,188.9 1768.1,241.7 1768.1,347.2 1859.5,400 	"/>
	<polygon class="st2" points="2133.6,347.2 2133.6,241.7 2042.2,188.9 1950.9,241.7 1950.9,347.2 2042.2,400 	"/>
	<polygon class="st2" points="2316.4,347.2 2316.4,241.7 2225,188.9 2133.6,241.7 2133.6,347.2 2225,400 	"/>
	<polygon class="st2" points="2499.2,347.2 2499.2,241.7 2407.8,188.9 2316.4,241.7 2316.4,347.2 2407.8,400 	"/>
	<polygon class="st2" points="2682,347.2 2682,241.7 2590.6,188.9 2499.2,241.7 2499.2,347.2 2590.6,400 	"/>
	<polygon class="st2" points="2864.8,347.2 2864.8,241.7 2773.4,188.9 2682,241.7 2682,347.2 2773.4,400 	"/>
	<polygon class="st2" points="3047.5,347.2 3047.5,241.7 2956.2,188.9 2864.8,241.7 2864.8,347.2 2956.2,400 	"/>
	<polygon class="st2" points="3230.3,347.2 3230.3,241.7 3138.9,188.9 3047.5,241.7 3047.5,347.2 3138.9,400 	"/>
	<polygon class="st1" points="1676.5,506.1 1676.5,400.6 1585.1,347.8 1493.7,400.6 1493.7,506.1 1585.1,558.9 	"/>
	<polygon class="st1" points="1859.3,506.1 1859.3,400.6 1767.9,347.8 1676.5,400.6 1676.5,506.1 1767.9,558.9 	"/>
	<polygon class="st1" points="2042.1,506.1 2042.1,400.6 1950.7,347.8 1859.3,400.6 1859.3,506.1 1950.7,558.9 	"/>
	<polygon class="st1" points="2224.8,506.1 2224.8,400.6 2133.5,347.8 2042.1,400.6 2042.1,506.1 2133.5,558.9 	"/>
	<polygon class="st1" points="2407.6,506.1 2407.6,400.6 2316.2,347.8 2224.8,400.6 2224.8,506.1 2316.2,558.9 	"/>
	<polygon class="st1" points="2590.4,506.1 2590.4,400.6 2499,347.8 2407.6,400.6 2407.6,506.1 2499,558.9 	"/>
	<polygon class="st1" points="2773.2,506.1 2773.2,400.6 2681.8,347.8 2590.4,400.6 2590.4,506.1 2681.8,558.9 	"/>
	<polygon class="st1" points="2956,506.1 2956,400.6 2864.6,347.8 2773.2,400.6 2773.2,506.1 2864.6,558.9 	"/>
	<polygon class="st1" points="3138.7,506.1 3138.7,400.6 3047.4,347.8 2956,400.6 2956,506.1 3047.4,558.9 	"/>
	<polygon class="st1" points="3321.5,506.1 3321.5,400.6 3230.1,347.8 3138.7,400.6 3138.7,506.1 3230.1,558.9 	"/>
	<polygon class="st2" points="1768.1,663.8 1768.1,558.3 1676.7,505.5 1585.3,558.3 1585.3,663.8 1676.7,716.6 	"/>
	<polygon class="st2" points="1950.9,663.8 1950.9,558.3 1859.5,505.5 1768.1,558.3 1768.1,663.8 1859.5,716.6 	"/>
	<polygon class="st2" points="2133.6,663.8 2133.6,558.3 2042.2,505.5 1950.9,558.3 1950.9,663.8 2042.2,716.6 	"/>
	<polygon class="st2" points="2316.4,663.8 2316.4,558.3 2225,505.5 2133.6,558.3 2133.6,663.8 2225,716.6 	"/>
	<polygon class="st2" points="2499.2,663.8 2499.2,558.3 2407.8,505.5 2316.4,558.3 2316.4,663.8 2407.8,716.6 	"/>
	<polygon class="st2" points="2682,663.8 2682,558.3 2590.6,505.5 2499.2,558.3 2499.2,663.8 2590.6,716.6 	"/>
	<polygon class="st2" points="2864.8,663.8 2864.8,558.3 2773.4,505.5 2682,558.3 2682,663.8 2773.4,716.6 	"/>
	<polygon class="st2" points="3047.5,663.8 3047.5,558.3 2956.2,505.5 2864.8,558.3 2864.8,663.8 2956.2,716.6 	"/>
	<polygon class="st2" points="3230.3,663.8 3230.3,558.3 3138.9,505.5 3047.5,558.3 3047.5,663.8 3138.9,716.6 	"/>
	<polygon class="st1" points="1676.5,822.7 1676.5,717.2 1585.1,664.4 1493.7,717.2 1493.7,822.7 1585.1,875.5 	"/>
	<polygon class="st1" points="1859.3,822.7 1859.3,717.2 1767.9,664.4 1676.5,717.2 1676.5,822.7 1767.9,875.5 	"/>
	<polygon class="st1" points="2042.1,822.7 2042.1,717.2 1950.7,664.4 1859.3,717.2 1859.3,822.7 1950.7,875.5 	"/>
	<polygon class="st1" points="2224.8,822.7 2224.8,717.2 2133.5,664.4 2042.1,717.2 2042.1,822.7 2133.5,875.5 	"/>
	<polygon class="st1" points="2407.6,822.7 2407.6,717.2 2316.2,664.4 2224.8,717.2 2224.8,822.7 2316.2,875.5 	"/>
	<polygon class="st1" points="2590.4,822.7 2590.4,717.2 2499,664.4 2407.6,717.2 2407.6,822.7 2499,875.5 	"/>
	<polygon class="st1" points="2773.2,822.7 2773.2,717.2 2681.8,664.4 2590.4,717.2 2590.4,822.7 2681.8,875.5 	"/>
	<polygon class="st1" points="2956,822.7 2956,717.2 2864.6,664.4 2773.2,717.2 2773.2,822.7 2864.6,875.5 	"/>
	<polygon class="st1" points="3138.7,822.7 3138.7,717.2 3047.4,664.4 2956,717.2 2956,822.7 3047.4,875.5 	"/>
	<polygon class="st1" points="3321.5,822.7 3321.5,717.2 3230.1,664.4 3138.7,717.2 3138.7,822.7 3230.1,875.5 	"/>
	<polygon class="st2" points="1768.1,980.4 1768.1,874.8 1676.7,822.1 1585.3,874.8 1585.3,980.4 1676.7,1033.1 	"/>
	<polygon class="st2" points="1950.9,980.4 1950.9,874.8 1859.5,822.1 1768.1,874.8 1768.1,980.4 1859.5,1033.1 	"/>
	<polygon class="st2" points="2133.6,980.4 2133.6,874.8 2042.2,822.1 1950.9,874.8 1950.9,980.4 2042.2,1033.1 	"/>
	<polygon class="st2" points="2316.4,980.4 2316.4,874.8 2225,822.1 2133.6,874.8 2133.6,980.4 2225,1033.1 	"/>
	<polygon class="st2" points="2499.2,980.4 2499.2,874.8 2407.8,822.1 2316.4,874.8 2316.4,980.4 2407.8,1033.1 	"/>
	<polygon class="st2" points="2682,980.4 2682,874.8 2590.6,822.1 2499.2,874.8 2499.2,980.4 2590.6,1033.1 	"/>
	<polygon class="st2" points="2864.8,980.4 2864.8,874.8 2773.4,822.1 2682,874.8 2682,980.4 2773.4,1033.1 	"/>
	<polygon class="st2" points="3047.5,980.4 3047.5,874.8 2956.2,822.1 2864.8,874.8 2864.8,980.4 2956.2,1033.1 	"/>
	<polygon class="st2" points="3230.3,980.4 3230.3,874.8 3138.9,822.1 3047.5,874.8 3047.5,980.4 3138.9,1033.1 	"/>
	<polygon class="st3" points="1676.5,1139.3 1676.5,1033.7 1585.1,981 1493.7,1033.7 1493.7,1139.3 1585.1,1192 	"/>
	<polygon class="st3" points="1859.3,1139.3 1859.3,1033.7 1767.9,981 1676.5,1033.7 1676.5,1139.3 1767.9,1192 	"/>
	<polygon class="st3" points="2042.1,1139.3 2042.1,1033.7 1950.7,981 1859.3,1033.7 1859.3,1139.3 1950.7,1192 	"/>
	<polygon class="st1" points="2224.8,1139.3 2224.8,1033.7 2133.5,981 2042.1,1033.7 2042.1,1139.3 2133.5,1192 	"/>
	<polygon class="st1" points="2407.6,1139.3 2407.6,1033.7 2316.2,981 2224.8,1033.7 2224.8,1139.3 2316.2,1192 	"/>
	<polygon class="st1" points="2590.4,1139.3 2590.4,1033.7 2499,981 2407.6,1033.7 2407.6,1139.3 2499,1192 	"/>
	<polygon class="st1" points="2773.2,1139.3 2773.2,1033.7 2681.8,981 2590.4,1033.7 2590.4,1139.3 2681.8,1192 	"/>
	<polygon class="st1" points="2956,1139.3 2956,1033.7 2864.6,981 2773.2,1033.7 2773.2,1139.3 2864.6,1192 	"/>
	<polygon class="st1" points="3138.7,1139.3 3138.7,1033.7 3047.4,981 2956,1033.7 2956,1139.3 3047.4,1192 	"/>
	<polygon class="st1" points="3321.5,1139.3 3321.5,1033.7 3230.1,981 3138.7,1033.7 3138.7,1139.3 3230.1,1192 	"/>
	<polygon class="st4" points="1768.1,1296.9 1768.1,1191.4 1676.7,1138.7 1585.3,1191.4 1585.3,1296.9 1676.7,1349.7 	"/>
	<polygon class="st4" points="1950.9,1296.9 1950.9,1191.4 1859.5,1138.7 1768.1,1191.4 1768.1,1296.9 1859.5,1349.7 	"/>
	<polygon class="st4" points="2133.6,1296.9 2133.6,1191.4 2042.2,1138.7 1950.9,1191.4 1950.9,1296.9 2042.2,1349.7 	"/>
	<polygon class="st2" points="2316.4,1296.9 2316.4,1191.4 2225,1138.7 2133.6,1191.4 2133.6,1296.9 2225,1349.7 	"/>
	<polygon class="st2" points="2499.2,1296.9 2499.2,1191.4 2407.8,1138.7 2316.4,1191.4 2316.4,1296.9 2407.8,1349.7 	"/>
	<polygon class="st2" points="2682,1296.9 2682,1191.4 2590.6,1138.7 2499.2,1191.4 2499.2,1296.9 2590.6,1349.7 	"/>
	<polygon class="st2" points="2864.8,1296.9 2864.8,1191.4 2773.4,1138.7 2682,1191.4 2682,1296.9 2773.4,1349.7 	"/>
	<polygon class="st2" points="3047.5,1296.9 3047.5,1191.4 2956.2,1138.7 2864.8,1191.4 2864.8,1296.9 2956.2,1349.7 	"/>
	<polygon class="st2" points="3230.3,1296.9 3230.3,1191.4 3138.9,1138.7 3047.5,1191.4 3047.5,1296.9 3138.9,1349.7 	"/>
	<polygon class="st3" points="1676.5,1455.8 1676.5,1350.3 1585.1,1297.5 1493.7,1350.3 1493.7,1455.8 1585.1,1508.6 	"/>
	<polygon class="st3" points="1859.3,1455.8 1859.3,1350.3 1767.9,1297.5 1676.5,1350.3 1676.5,1455.8 1767.9,1508.6 	"/>
	<polygon class="st3" points="2042.1,1455.8 2042.1,1350.3 1950.7,1297.5 1859.3,1350.3 1859.3,1455.8 1950.7,1508.6 	"/>
	<polygon class="st3" points="2224.8,1455.8 2224.8,1350.3 2133.5,1297.5 2042.1,1350.3 2042.1,1455.8 2133.5,1508.6 	"/>
	<polygon class="st1" points="2407.6,1455.8 2407.6,1350.3 2316.2,1297.5 2224.8,1350.3 2224.8,1455.8 2316.2,1508.6 	"/>
	<polygon class="st1" points="2590.4,1455.8 2590.4,1350.3 2499,1297.5 2407.6,1350.3 2407.6,1455.8 2499,1508.6 	"/>
	<polygon class="st1" points="2773.2,1455.8 2773.2,1350.3 2681.8,1297.5 2590.4,1350.3 2590.4,1455.8 2681.8,1508.6 	"/>
	<polygon class="st1" points="2956,1455.8 2956,1350.3 2864.6,1297.5 2773.2,1350.3 2773.2,1455.8 2864.6,1508.6 	"/>
	<polygon class="st1" points="3138.7,1455.8 3138.7,1350.3 3047.4,1297.5 2956,1350.3 2956,1455.8 3047.4,1508.6 	"/>
	<polygon class="st1" points="3321.5,1455.8 3321.5,1350.3 3230.1,1297.5 3138.7,1350.3 3138.7,1455.8 3230.1,1508.6 	"/>
	<polygon class="st4" points="1768.1,1613.5 1768.1,1508 1676.7,1455.2 1585.3,1508 1585.3,1613.5 1676.7,1666.3 	"/>
	<polygon class="st4" points="1950.9,1613.5 1950.9,1508 1859.5,1455.2 1768.1,1508 1768.1,1613.5 1859.5,1666.3 	"/>
	<polygon class="st4" points="2133.6,1613.5 2133.6,1508 2042.2,1455.2 1950.9,1508 1950.9,1613.5 2042.2,1666.3 	"/>
	<polygon class="st2" points="2316.4,1613.5 2316.4,1508 2225,1455.2 2133.6,1508 2133.6,1613.5 2225,1666.3 	"/>
	<polygon class="st2" points="2499.2,1613.5 2499.2,1508 2407.8,1455.2 2316.4,1508 2316.4,1613.5 2407.8,1666.3 	"/>
	<polygon class="st2" points="2682,1613.5 2682,1508 2590.6,1455.2 2499.2,1508 2499.2,1613.5 2590.6,1666.3 	"/>
	<polygon class="st2" points="2864.8,1613.5 2864.8,1508 2773.4,1455.2 2682,1508 2682,1613.5 2773.4,1666.3 	"/>
	<polygon class="st2" points="3047.5,1613.5 3047.5,1508 2956.2,1455.2 2864.8,1508 2864.8,1613.5 2956.2,1666.3 	"/>
	<polygon class="st2" points="3230.3,1613.5 3230.3,1508 3138.9,1455.2 3047.5,1508 3047.5,1613.5 3138.9,1666.3 	"/>
	<polygon class="st3" points="1676.5,1772.4 1676.5,1666.9 1585.1,1614.1 1493.7,1666.9 1493.7,1772.4 1585.1,1825.2 	"/>
	<polygon class="st1" points="1859.3,1772.4 1859.3,1666.9 1767.9,1614.1 1676.5,1666.9 1676.5,1772.4 1767.9,1825.2 	"/>
	<polygon class="st1" points="2042.1,1772.4 2042,1666.9 1950.5,1614.2 1859.2,1667.1 1859.4,1772.6 1950.8,1825.3 	"/>
	<polygon class="st3" points="2224.9,1772.2 2224.8,1666.6 2133.3,1614 2042,1666.9 2042.1,1772.4 2133.6,1825 	"/>
	<polygon class="st3" points="2407.6,1772.4 2407.6,1666.9 2316.2,1614.1 2224.8,1666.9 2224.8,1772.4 2316.2,1825.2 	"/>
	<polygon class="st1" points="2590.4,1772.4 2590.4,1666.9 2499,1614.1 2407.6,1666.9 2407.6,1772.4 2499,1825.2 	"/>
	<polygon class="st1" points="2773.2,1772.4 2773.2,1666.9 2681.8,1614.1 2590.4,1666.9 2590.4,1772.4 2681.8,1825.2 	"/>
	<polygon class="st1" points="2956,1772.4 2956,1666.9 2864.6,1614.1 2773.2,1666.9 2773.2,1772.4 2864.6,1825.2 	"/>
	<polygon class="st1" points="3138.7,1772.4 3138.7,1666.9 3047.4,1614.1 2956,1666.9 2956,1772.4 3047.4,1825.2 	"/>
	<polygon class="st1" points="3321.5,1772.4 3321.5,1666.9 3230.1,1614.1 3138.7,1666.9 3138.7,1772.4 3230.1,1825.2 	"/>
	<polygon class="st2" points="1768.1,1930.1 1768.1,1824.6 1676.7,1771.8 1585.3,1824.6 1585.3,1930.1 1676.7,1982.8 	"/>
	<polygon class="st2" points="1950.9,1930.1 1950.9,1824.6 1859.5,1771.8 1768.1,1824.6 1768.1,1930.1 1859.5,1982.8 	"/>
	<polygon class="st2" points="2133.6,1930.1 2133.6,1824.6 2042.2,1771.8 1950.9,1824.6 1950.9,1930.1 2042.2,1982.8 	"/>
	<polygon class="st4" points="2316.4,1930.1 2316.4,1824.6 2225,1771.8 2133.6,1824.6 2133.6,1930.1 2225,1982.8 	"/>
	<polygon class="st2" points="2499.2,1930.1 2499.2,1824.6 2407.8,1771.8 2316.4,1824.6 2316.4,1930.1 2407.8,1982.8 	"/>
	<polygon class="st2" points="2682,1930.1 2682,1824.6 2590.6,1771.8 2499.2,1824.6 2499.2,1930.1 2590.6,1982.8 	"/>
	<polygon class="st2" points="2864.8,1930.1 2864.8,1824.6 2773.4,1771.8 2682,1824.6 2682,1930.1 2773.4,1982.8 	"/>
	<polygon class="st2" points="3047.5,1930.1 3047.5,1824.6 2956.2,1771.8 2864.8,1824.6 2864.8,1930.1 2956.2,1982.8 	"/>
	<polygon class="st2" points="3230.3,1930.1 3230.3,1824.6 3138.9,1771.8 3047.5,1824.6 3047.5,1930.1 3138.9,1982.8 	"/>
	<polygon class="st1" points="1676.5,2089 1676.5,1983.4 1585.1,1930.7 1493.7,1983.4 1493.7,2089 1585.1,2141.7 	"/>
	<polygon class="st1" points="1859.3,2089 1859.3,1983.4 1767.9,1930.7 1676.5,1983.4 1676.5,2089 1767.9,2141.7 	"/>
	<polygon class="st3" points="2042.1,2089 2042.1,1983.4 1950.7,1930.7 1859.3,1983.4 1859.3,2089 1950.7,2141.7 	"/>
	<polygon class="st3" points="2224.8,2089 2224.8,1983.4 2133.5,1930.7 2042.1,1983.4 2042.1,2089 2133.5,2141.7 	"/>
	<polygon class="st1" points="2407.6,2089 2407.6,1983.4 2316.2,1930.7 2224.8,1983.4 2224.8,2089 2316.2,2141.7 	"/>
	<polygon class="st1" points="2590.4,2089 2590.4,1983.4 2499,1930.7 2407.6,1983.4 2407.6,2089 2499,2141.7 	"/>
	<polygon class="st1" points="2773.2,2089 2773.2,1983.4 2681.8,1930.7 2590.4,1983.4 2590.4,2089 2681.8,2141.7 	"/>
	<polygon class="st1" points="2956,2089 2956,1983.4 2864.6,1930.7 2773.2,1983.4 2773.2,2089 2864.6,2141.7 	"/>
	<polygon class="st1" points="3138.7,2089 3138.7,1983.4 3047.4,1930.7 2956,1983.4 2956,2089 3047.4,2141.7 	"/>
	<polygon class="st1" points="3321.5,2089 3321.5,1983.4 3230.1,1930.7 3138.7,1983.4 3138.7,2089 3230.1,2141.7 	"/>
	<polygon class="st2" points="1768.1,2246.6 1768.1,2141.1 1676.7,2088.4 1585.3,2141.1 1585.3,2246.6 1676.7,2299.4 	"/>
	<polygon class="st2" points="1950.9,2246.6 1950.9,2141.1 1859.5,2088.4 1768.1,2141.1 1768.1,2246.6 1859.5,2299.4 	"/>
	<polygon class="st4" points="2133.6,2246.6 2133.6,2141.1 2042.2,2088.4 1950.9,2141.1 1950.9,2246.6 2042.2,2299.4 	"/>
	<polygon class="st4" points="2316.4,2246.6 2316.4,2141.1 2225,2088.4 2133.6,2141.1 2133.6,2246.6 2225,2299.4 	"/>
	<polygon class="st4" points="2499.2,2246.6 2499.2,2141.1 2407.8,2088.4 2316.4,2141.1 2316.4,2246.6 2407.8,2299.4 	"/>
	<polygon class="st2" points="2682,2246.6 2682,2141.1 2590.6,2088.4 2499.2,2141.1 2499.2,2246.6 2590.6,2299.4 	"/>
	<polygon class="st2" points="2864.8,2246.6 2864.8,2141.1 2773.4,2088.4 2682,2141.1 2682,2246.6 2773.4,2299.4 	"/>
	<polygon class="st2" points="3047.5,2246.6 3047.5,2141.1 2956.2,2088.4 2864.8,2141.1 2864.8,2246.6 2956.2,2299.4 	"/>
	<polygon class="st2" points="3230.3,2246.6 3230.3,2141.1 3138.9,2088.4 3047.5,2141.1 3047.5,2246.6 3138.9,2299.4 	"/>
	<polygon class="st1" points="1676.5,2404.9 1676.5,2299.4 1585.1,2246.6 1493.7,2299.4 1493.7,2404.9 1585.1,2457.7 	"/>
	<polygon class="st1" points="1859.3,2404.9 1859.3,2299.4 1767.9,2246.6 1676.5,2299.4 1676.5,2404.9 1767.9,2457.7 	"/>
	<polygon class="st1" points="2042.1,2404.9 2042.1,2299.4 1950.7,2246.6 1859.3,2299.4 1859.3,2404.9 1950.7,2457.7 	"/>
	<polygon class="st1" points="2224.8,2404.9 2224.8,2299.4 2133.5,2246.6 2042.1,2299.4 2042.1,2404.9 2133.5,2457.7 	"/>
	<polygon class="st1" points="2407.6,2404.9 2407.6,2299.4 2316.2,2246.6 2224.8,2299.4 2224.8,2404.9 2316.2,2457.7 	"/>
	<polygon class="st1" points="2590.4,2404.9 2590.4,2299.4 2499,2246.6 2407.6,2299.4 2407.6,2404.9 2499,2457.7 	"/>
	<polygon class="st1" points="2773.2,2404.9 2773.2,2299.4 2681.8,2246.6 2590.4,2299.4 2590.4,2404.9 2681.8,2457.7 	"/>
	<polygon class="st1" points="2956,2404.9 2956,2299.4 2864.6,2246.6 2773.2,2299.4 2773.2,2404.9 2864.6,2457.7 	"/>
	<polygon class="st1" points="3138.7,2404.9 3138.7,2299.4 3047.4,2246.6 2956,2299.4 2956,2404.9 3047.4,2457.7 	"/>
	<polygon class="st1" points="3321.5,2404.9 3321.5,2299.4 3230.1,2246.6 3138.7,2299.4 3138.7,2404.9 3230.1,2457.7 	"/>
	<polygon class="st2" points="1768.1,2562.6 1768.1,2457.1 1676.7,2404.3 1585.3,2457.1 1585.3,2562.6 1676.7,2615.4 	"/>
	<polygon class="st2" points="1950.9,2562.6 1950.9,2457.1 1859.5,2404.3 1768.1,2457.1 1768.1,2562.6 1859.5,2615.4 	"/>
	<polygon class="st2" points="2133.6,2562.6 2133.6,2457.1 2042.2,2404.3 1950.9,2457.1 1950.9,2562.6 2042.2,2615.4 	"/>
	<polygon class="st2" points="2316.4,2562.6 2316.4,2457.1 2225,2404.3 2133.6,2457.1 2133.6,2562.6 2225,2615.4 	"/>
	<polygon class="st2" points="2499.2,2562.6 2499.2,2457.1 2407.8,2404.3 2316.4,2457.1 2316.4,2562.6 2407.8,2615.4 	"/>
	<polygon class="st2" points="2682,2562.6 2682,2457.1 2590.6,2404.3 2499.2,2457.1 2499.2,2562.6 2590.6,2615.4 	"/>
	<polygon class="st2" points="2864.8,2562.6 2864.8,2457.1 2773.4,2404.3 2682,2457.1 2682,2562.6 2773.4,2615.4 	"/>
	<polygon class="st2" points="3047.5,2562.6 3047.5,2457.1 2956.2,2404.3 2864.8,2457.1 2864.8,2562.6 2956.2,2615.4 	"/>
	<polygon class="st2" points="3230.3,2562.6 3230.3,2457.1 3138.9,2404.3 3047.5,2457.1 3047.5,2562.6 3138.9,2615.4 	"/>
</g>
<rect class="st5" width="3365" height="2653.6"/>
</svg>
