<!-- Generator: Adobe Illustrator 22.0.0, SVG Export Plug-In  -->
<svg version="1.1"
	 xmlns="http://www.w3.org/2000/svg" xmlns:xlink="http://www.w3.org/1999/xlink" xmlns:a="http://ns.adobe.com/AdobeSVGViewerExtensions/3.0/"
	 x="0px" y="0px" width="3365px" height="2653.6px" viewBox="0 0 3365 2653.6"
	 style="overflow:scroll;enable-background:new 0 0 3365 2653.6;" xml:space="preserve">
<style type="text/css">
	.st0{opacity:0.16;}
	.st1{display:none;fill:none;stroke:#FFFFFF;stroke-width:1.4821;stroke-linejoin:round;stroke-miterlimit:10;}
	.st2{display:none;fill:none;stroke:#FFFFFF;stroke-width:1.4821;stroke-miterlimit:10;}
	.st3{fill:none;stroke:#FFFFFF;stroke-width:2.4175;stroke-miterlimit:10;}
	.st4{fill:none;stroke:#FFFFFF;stroke-width:2.4175;stroke-linejoin:round;stroke-miterlimit:10;}
	.st5{fill:#FFFFFF;}
	.st6{fill:none;}
</style>
<defs>
</defs>
<g id="Layer_3_1_" class="st0">
	<polygon class="st1" points="1708.3,1093.7 1708.3,1025.2 1648.9,990.9 1589.6,1025.2 1589.6,1093.7 1648.9,1128 	"/>
	<polygon class="st2" points="1530.1,1196.9 1530.1,1128.4 1470.8,1094.1 1411.4,1128.4 1411.4,1196.9 1470.8,1231.2 	"/>
	<polygon class="st2" points="1648.8,1196.9 1648.8,1128.4 1589.5,1094.1 1530.1,1128.4 1530.1,1196.9 1589.5,1231.2 	"/>
	<polygon class="st1" points="996.1,1299.3 996.1,1230.8 936.7,1196.5 877.4,1230.8 877.4,1299.3 936.7,1333.6 	"/>
	<polygon class="st1" points="1114.8,1299.3 1114.8,1230.8 1055.4,1196.5 996.1,1230.8 996.1,1299.3 1055.4,1333.6 	"/>
	<polygon class="st1" points="1352.2,1299.3 1352.2,1230.8 1292.8,1196.5 1233.5,1230.8 1233.5,1299.3 1292.8,1333.6 	"/>
	<polygon class="st1" points="1470.9,1299.3 1470.9,1230.8 1411.5,1196.5 1352.2,1230.8 1352.2,1299.3 1411.5,1333.6 	"/>
	<polygon class="st1" points="1589.6,1299.3 1589.6,1230.8 1530.2,1196.5 1470.9,1230.8 1470.9,1299.3 1530.2,1333.6 	"/>
	<polygon class="st1" points="1708.3,1299.3 1708.3,1230.8 1648.9,1196.5 1589.6,1230.8 1589.6,1299.3 1648.9,1333.6 	"/>
	<polygon class="st2" points="936.6,1402.5 936.6,1334 877.3,1299.7 817.9,1334 817.9,1402.5 877.3,1436.8 	"/>
	<polygon class="st2" points="1055.3,1402.5 1055.3,1334 996,1299.7 936.6,1334 936.6,1402.5 996,1436.8 	"/>
	<polygon class="st2" points="1411.4,1402.5 1411.4,1334 1352.1,1299.7 1292.7,1334 1292.7,1402.5 1352.1,1436.8 	"/>
	<polygon class="st2" points="1530.1,1402.5 1530.1,1334 1470.8,1299.7 1411.4,1334 1411.4,1402.5 1470.8,1436.8 	"/>
	<polygon class="st2" points="1648.8,1402.5 1648.8,1334 1589.5,1299.7 1530.1,1334 1530.1,1402.5 1589.5,1436.8 	"/>
	<polygon class="st1" points="996.1,1504.9 996.1,1436.4 936.7,1402.1 877.4,1436.4 877.4,1504.9 936.7,1539.2 	"/>
	<polygon class="st1" points="1114.8,1504.9 1114.8,1436.4 1055.4,1402.1 996.1,1436.4 996.1,1504.9 1055.4,1539.2 	"/>
	<polygon class="st1" points="1589.6,1504.9 1589.6,1436.4 1530.2,1402.1 1470.9,1436.4 1470.9,1504.9 1530.2,1539.2 	"/>
	<polygon class="st1" points="1708.3,1504.9 1708.3,1436.4 1648.9,1402.1 1589.6,1436.4 1589.6,1504.9 1648.9,1539.2 	"/>
	<polygon class="st2" points="1767.9,1196.9 1767.9,1128.4 1708.5,1094.1 1649.2,1128.4 1649.2,1196.9 1708.5,1231.2 	"/>
	<polygon class="st2" points="1886.5,1196.9 1886.5,1128.4 1827.2,1094.1 1767.9,1128.4 1767.9,1196.9 1827.2,1231.2 	"/>
	<polygon class="st1" points="1827.3,1299.3 1827.3,1230.8 1768,1196.5 1708.6,1230.8 1708.6,1299.3 1768,1333.6 	"/>
	<polygon class="st1" points="1946,1299.3 1946,1230.8 1886.7,1196.5 1827.3,1230.8 1827.3,1299.3 1886.7,1333.6 	"/>
	<polygon class="st2" points="1767.9,1402.5 1767.9,1334 1708.5,1299.7 1649.2,1334 1649.2,1402.5 1708.5,1436.8 	"/>
	<polygon class="st2" points="1886.5,1402.5 1886.5,1334 1827.2,1299.7 1767.9,1334 1767.9,1402.5 1827.2,1436.8 	"/>
	<polygon class="st2" points="2005.2,1402.5 2005.2,1334 1945.9,1299.7 1886.5,1334 1886.5,1402.5 1945.9,1436.8 	"/>
	<polygon class="st1" points="1827.3,1504.9 1827.3,1436.4 1768,1402.1 1708.6,1436.4 1708.6,1504.9 1768,1539.2 	"/>
	<polygon class="st1" points="1946,1504.9 1946,1436.4 1886.7,1402.1 1827.3,1436.4 1827.3,1504.9 1886.7,1539.2 	"/>
	<g>
		<g>
			<polygon class="st3" points="301,229.4 301,164.5 244.8,132.1 188.6,164.5 188.6,229.4 244.8,261.9 			"/>
			<polygon class="st3" points="413.5,229.4 413.5,164.5 357.2,132.1 301,164.5 301,229.4 357.2,261.9 			"/>
			<polygon class="st3" points="525.9,229.4 525.9,164.5 469.7,132.1 413.5,164.5 413.5,229.4 469.7,261.9 			"/>
			<polygon class="st3" points="638.3,229.4 638.3,164.5 582.1,132.1 525.9,164.5 525.9,229.4 582.1,261.9 			"/>
			<polygon class="st3" points="750.8,229.4 750.8,164.5 694.6,132.1 638.3,164.5 638.3,229.4 694.6,261.9 			"/>
			<polygon class="st3" points="863.2,229.4 863.2,164.5 807,132.1 750.8,164.5 750.8,229.4 807,261.9 			"/>
			<polygon class="st3" points="975.7,229.4 975.7,164.5 919.5,132.1 863.2,164.5 863.2,229.4 919.5,261.9 			"/>
			<polygon class="st3" points="1088.1,229.4 1088.1,164.5 1031.9,132.1 975.7,164.5 975.7,229.4 1031.9,261.9 			"/>
			<polygon class="st3" points="1200.6,229.4 1200.6,164.5 1144.4,132.1 1088.1,164.5 1088.1,229.4 1144.4,261.9 			"/>
			<polygon class="st3" points="1313,229.4 1313,164.5 1256.8,132.1 1200.6,164.5 1200.6,229.4 1256.8,261.9 			"/>
			<polygon class="st3" points="1425.5,229.4 1425.5,164.5 1369.3,132.1 1313,164.5 1313,229.4 1369.3,261.9 			"/>
			<polygon class="st3" points="1537.9,229.4 1537.9,164.5 1481.7,132.1 1425.5,164.5 1425.5,229.4 1481.7,261.9 			"/>
			<polygon class="st3" points="1650.4,229.4 1650.4,164.5 1594.2,132.1 1537.9,164.5 1537.9,229.4 1594.2,261.9 			"/>
			<polygon class="st4" points="357.3,326.4 357.3,261.5 301.1,229.1 244.9,261.5 244.9,326.4 301.1,358.9 			"/>
			<polygon class="st4" points="469.8,326.4 469.8,261.5 413.6,229.1 357.3,261.5 357.3,326.4 413.6,358.9 			"/>
			<polygon class="st4" points="582.2,326.4 582.2,261.5 526,229.1 469.8,261.5 469.8,326.4 526,358.9 			"/>
			<polygon class="st4" points="694.7,326.4 694.7,261.5 638.5,229.1 582.2,261.5 582.2,326.4 638.5,358.9 			"/>
			<polygon class="st4" points="807.1,326.4 807.1,261.5 750.9,229.1 694.7,261.5 694.7,326.4 750.9,358.9 			"/>
			<polygon class="st4" points="919.6,326.4 919.6,261.5 863.4,229.1 807.1,261.5 807.1,326.4 863.4,358.9 			"/>
			<polygon class="st4" points="1032,326.4 1032,261.5 975.8,229.1 919.6,261.5 919.6,326.4 975.8,358.9 			"/>
			<polygon class="st4" points="1144.5,326.4 1144.5,261.5 1088.3,229.1 1032,261.5 1032,326.4 1088.3,358.9 			"/>
			<polygon class="st4" points="1256.9,326.4 1256.9,261.5 1200.7,229.1 1144.5,261.5 1144.5,326.4 1200.7,358.9 			"/>
			<polygon class="st4" points="1369.4,326.4 1369.4,261.5 1313.1,229.1 1256.9,261.5 1256.9,326.4 1313.1,358.9 			"/>
			<polygon class="st4" points="1481.8,326.4 1481.8,261.5 1425.6,229.1 1369.4,261.5 1369.4,326.4 1425.6,358.9 			"/>
			<polygon class="st4" points="1594.3,326.4 1594.3,261.5 1538,229.1 1481.8,261.5 1481.8,326.4 1538,358.9 			"/>
			<polygon class="st4" points="1706.7,326.4 1706.7,261.5 1650.5,229.1 1594.3,261.5 1594.3,326.4 1650.5,358.9 			"/>
			<polygon class="st3" points="301,424.2 301,359.3 244.8,326.8 188.6,359.3 188.6,424.2 244.8,456.7 			"/>
			<polygon class="st3" points="413.5,424.2 413.5,359.3 357.2,326.8 301,359.3 301,424.2 357.2,456.7 			"/>
			<polygon class="st3" points="525.9,424.2 525.9,359.3 469.7,326.8 413.5,359.3 413.5,424.2 469.7,456.7 			"/>
			<polygon class="st3" points="638.3,424.2 638.3,359.3 582.1,326.8 525.9,359.3 525.9,424.2 582.1,456.7 			"/>
			<polygon class="st3" points="750.8,424.2 750.8,359.3 694.6,326.8 638.3,359.3 638.3,424.2 694.6,456.7 			"/>
			<polygon class="st3" points="863.2,424.2 863.2,359.3 807,326.8 750.8,359.3 750.8,424.2 807,456.7 			"/>
			<polygon class="st3" points="975.7,424.2 975.7,359.3 919.5,326.8 863.2,359.3 863.2,424.2 919.5,456.7 			"/>
			<polygon class="st3" points="1088.1,424.2 1088.1,359.3 1031.9,326.8 975.7,359.3 975.7,424.2 1031.9,456.7 			"/>
			<polygon class="st3" points="1200.6,424.2 1200.6,359.3 1144.4,326.8 1088.1,359.3 1088.1,424.2 1144.4,456.7 			"/>
			<polygon class="st3" points="1313,424.2 1313,359.3 1256.8,326.8 1200.6,359.3 1200.6,424.2 1256.8,456.7 			"/>
			<polygon class="st3" points="1425.5,424.2 1425.5,359.3 1369.3,326.8 1313,359.3 1313,424.2 1369.3,456.7 			"/>
			<polygon class="st3" points="1537.9,424.2 1537.9,359.3 1481.7,326.8 1425.5,359.3 1425.5,424.2 1481.7,456.7 			"/>
			<polygon class="st3" points="1650.4,424.2 1650.4,359.3 1594.2,326.8 1537.9,359.3 1537.9,424.2 1594.2,456.7 			"/>
			<polygon class="st4" points="357.3,521.2 357.3,456.3 301.1,423.8 244.9,456.3 244.9,521.2 301.1,553.7 			"/>
			<polygon class="st4" points="469.8,521.2 469.8,456.3 413.6,423.8 357.3,456.3 357.3,521.2 413.6,553.7 			"/>
			<polygon class="st4" points="582.2,521.2 582.2,456.3 526,423.8 469.8,456.3 469.8,521.2 526,553.7 			"/>
			<polygon class="st4" points="694.7,521.2 694.7,456.3 638.5,423.8 582.2,456.3 582.2,521.2 638.5,553.7 			"/>
			<polygon class="st4" points="807.1,521.2 807.1,456.3 750.9,423.8 694.7,456.3 694.7,521.2 750.9,553.7 			"/>
			<polygon class="st4" points="919.6,521.2 919.6,456.3 863.4,423.8 807.1,456.3 807.1,521.2 863.4,553.7 			"/>
			<polygon class="st4" points="1032,521.2 1032,456.3 975.8,423.8 919.6,456.3 919.6,521.2 975.8,553.7 			"/>
			<polygon class="st4" points="1144.5,521.2 1144.5,456.3 1088.3,423.8 1032,456.3 1032,521.2 1088.3,553.7 			"/>
			<polygon class="st4" points="1256.9,521.2 1256.9,456.3 1200.7,423.8 1144.5,456.3 1144.5,521.2 1200.7,553.7 			"/>
			<polygon class="st4" points="1369.4,521.2 1369.4,456.3 1313.1,423.8 1256.9,456.3 1256.9,521.2 1313.1,553.7 			"/>
			<polygon class="st4" points="1481.8,521.2 1481.8,456.3 1425.6,423.8 1369.4,456.3 1369.4,521.2 1425.6,553.7 			"/>
			<polygon class="st4" points="1594.3,521.2 1594.3,456.3 1538,423.8 1481.8,456.3 1481.8,521.2 1538,553.7 			"/>
			<polygon class="st4" points="1706.7,521.2 1706.7,456.3 1650.5,423.8 1594.3,456.3 1594.3,521.2 1650.5,553.7 			"/>
			<polygon class="st3" points="301,619 301,554 244.8,521.6 188.6,554 188.6,619 244.8,651.4 			"/>
			<polygon class="st3" points="413.5,619 413.5,554 357.2,521.6 301,554 301,619 357.2,651.4 			"/>
			<polygon class="st3" points="525.9,619 525.9,554 469.7,521.6 413.5,554 413.5,619 469.7,651.4 			"/>
			<polygon class="st3" points="638.3,619 638.3,554 582.1,521.6 525.9,554 525.9,619 582.1,651.4 			"/>
			<polygon class="st3" points="750.8,619 750.8,554 694.6,521.6 638.3,554 638.3,619 694.6,651.4 			"/>
			<polygon class="st3" points="863.2,619 863.2,554 807,521.6 750.8,554 750.8,619 807,651.4 			"/>
			<polygon class="st3" points="975.7,619 975.7,554 919.5,521.6 863.2,554 863.2,619 919.5,651.4 			"/>
			<polygon class="st3" points="1088.1,619 1088.1,554 1031.9,521.6 975.7,554 975.7,619 1031.9,651.4 			"/>
			<polygon class="st3" points="1200.6,619 1200.6,554 1144.4,521.6 1088.1,554 1088.1,619 1144.4,651.4 			"/>
			<polygon class="st3" points="1313,619 1313,554 1256.8,521.6 1200.6,554 1200.6,619 1256.8,651.4 			"/>
			<polygon class="st3" points="1425.5,619 1425.5,554 1369.3,521.6 1313,554 1313,619 1369.3,651.4 			"/>
			<polygon class="st3" points="1537.9,619 1537.9,554 1481.7,521.6 1425.5,554 1425.5,619 1481.7,651.4 			"/>
			<polygon class="st3" points="1650.4,619 1650.4,554 1594.2,521.6 1537.9,554 1537.9,619 1594.2,651.4 			"/>
			<polygon class="st4" points="357.3,716 357.3,651 301.1,618.6 244.9,651 244.9,716 301.1,748.4 			"/>
			<polygon class="st4" points="469.8,716 469.8,651 413.6,618.6 357.3,651 357.3,716 413.6,748.4 			"/>
			<polygon class="st4" points="582.2,716 582.2,651 526,618.6 469.8,651 469.8,716 526,748.4 			"/>
			<polygon class="st4" points="694.7,716 694.7,651 638.5,618.6 582.2,651 582.2,716 638.5,748.4 			"/>
			<polygon class="st4" points="807.1,716 807.1,651 750.9,618.6 694.7,651 694.7,716 750.9,748.4 			"/>
			<polygon class="st4" points="919.6,716 919.6,651 863.4,618.6 807.1,651 807.1,716 863.4,748.4 			"/>
			<polygon class="st4" points="1032,716 1032,651 975.8,618.6 919.6,651 919.6,716 975.8,748.4 			"/>
			<polygon class="st4" points="1144.5,716 1144.5,651 1088.3,618.6 1032,651 1032,716 1088.3,748.4 			"/>
			<polygon class="st4" points="1256.9,716 1256.9,651 1200.7,618.6 1144.5,651 1144.5,716 1200.7,748.4 			"/>
			<polygon class="st4" points="1369.4,716 1369.4,651 1313.1,618.6 1256.9,651 1256.9,716 1313.1,748.4 			"/>
			<polygon class="st4" points="1481.8,716 1481.8,651 1425.6,618.6 1369.4,651 1369.4,716 1425.6,748.4 			"/>
			<polygon class="st4" points="1594.3,716 1594.3,651 1538,618.6 1481.8,651 1481.8,716 1538,748.4 			"/>
			<polygon class="st4" points="1706.7,716 1706.7,651 1650.5,618.6 1594.3,651 1594.3,716 1650.5,748.4 			"/>
			<polygon class="st3" points="301,813.7 301,748.8 244.8,716.3 188.6,748.8 188.6,813.7 244.8,846.2 			"/>
			<polygon class="st3" points="413.5,813.7 413.5,748.8 357.2,716.3 301,748.8 301,813.7 357.2,846.2 			"/>
			<polygon class="st3" points="525.9,813.7 525.9,748.8 469.7,716.3 413.5,748.8 413.5,813.7 469.7,846.2 			"/>
			<polygon class="st3" points="638.3,813.7 638.3,748.8 582.1,716.3 525.9,748.8 525.9,813.7 582.1,846.2 			"/>
			<polygon class="st3" points="750.8,813.7 750.8,748.8 694.6,716.3 638.3,748.8 638.3,813.7 694.6,846.2 			"/>
			<polygon class="st3" points="863.2,813.7 863.2,748.8 807,716.3 750.8,748.8 750.8,813.7 807,846.2 			"/>
			<polygon class="st3" points="975.7,813.7 975.7,748.8 919.5,716.3 863.2,748.8 863.2,813.7 919.5,846.2 			"/>
			<polygon class="st3" points="1088.1,813.7 1088.1,748.8 1031.9,716.3 975.7,748.8 975.7,813.7 1031.9,846.2 			"/>
			<polygon class="st3" points="1200.6,813.7 1200.6,748.8 1144.4,716.3 1088.1,748.8 1088.1,813.7 1144.4,846.2 			"/>
			<polygon class="st3" points="1313,813.7 1313,748.8 1256.8,716.3 1200.6,748.8 1200.6,813.7 1256.8,846.2 			"/>
			<polygon class="st3" points="1425.5,813.7 1425.5,748.8 1369.3,716.3 1313,748.8 1313,813.7 1369.3,846.2 			"/>
			<polygon class="st3" points="1537.9,813.7 1537.9,748.8 1481.7,716.3 1425.5,748.8 1425.5,813.7 1481.7,846.2 			"/>
			<polygon class="st3" points="1650.4,813.7 1650.4,748.8 1594.2,716.3 1537.9,748.8 1537.9,813.7 1594.2,846.2 			"/>
			<polygon class="st4" points="357.3,910.7 357.3,845.8 301.1,813.3 244.9,845.8 244.9,910.7 301.1,943.2 			"/>
			<polygon class="st4" points="469.8,910.7 469.8,845.8 413.6,813.3 357.3,845.8 357.3,910.7 413.6,943.2 			"/>
			<polygon class="st4" points="582.2,910.7 582.2,845.8 526,813.3 469.8,845.8 469.8,910.7 526,943.2 			"/>
			<polygon class="st4" points="694.7,910.7 694.7,845.8 638.5,813.3 582.2,845.8 582.2,910.7 638.5,943.2 			"/>
			<polygon class="st4" points="807.1,910.7 807.1,845.8 750.9,813.3 694.7,845.8 694.7,910.7 750.9,943.2 			"/>
			<polygon class="st4" points="919.6,910.7 919.6,845.8 863.4,813.3 807.1,845.8 807.1,910.7 863.4,943.2 			"/>
			<polygon class="st4" points="1032,910.7 1032,845.8 975.8,813.3 919.6,845.8 919.6,910.7 975.8,943.2 			"/>
			<polygon class="st4" points="1144.5,910.7 1144.5,845.8 1088.3,813.3 1032,845.8 1032,910.7 1088.3,943.2 			"/>
			<polygon class="st4" points="1256.9,910.7 1256.9,845.8 1200.7,813.3 1144.5,845.8 1144.5,910.7 1200.7,943.2 			"/>
			<polygon class="st4" points="1369.4,910.7 1369.4,845.8 1313.1,813.3 1256.9,845.8 1256.9,910.7 1313.1,943.2 			"/>
			<polygon class="st4" points="1481.8,910.7 1481.8,845.8 1425.6,813.3 1369.4,845.8 1369.4,910.7 1425.6,943.2 			"/>
			<polygon class="st4" points="1594.3,910.7 1594.3,845.8 1538,813.3 1481.8,845.8 1481.8,910.7 1538,943.2 			"/>
			<polygon class="st4" points="1706.7,910.7 1706.7,845.8 1650.5,813.3 1594.3,845.8 1594.3,910.7 1650.5,943.2 			"/>
			<polygon class="st3" points="301,1008.5 301,943.5 244.8,911.1 188.6,943.5 188.6,1008.5 244.8,1040.9 			"/>
			<polygon class="st3" points="413.5,1008.5 413.5,943.5 357.2,911.1 301,943.5 301,1008.5 357.2,1040.9 			"/>
			<polygon class="st3" points="525.9,1008.5 525.9,943.5 469.7,911.1 413.5,943.5 413.5,1008.5 469.7,1040.9 			"/>
			<polygon class="st3" points="638.3,1008.5 638.3,943.5 582.1,911.1 525.9,943.5 525.9,1008.5 582.1,1040.9 			"/>
			<polygon class="st3" points="750.8,1008.5 750.8,943.5 694.6,911.1 638.3,943.5 638.3,1008.5 694.6,1040.9 			"/>
			<polygon class="st3" points="863.2,1008.5 863.2,943.5 807,911.1 750.8,943.5 750.8,1008.5 807,1040.9 			"/>
			<polygon class="st3" points="975.7,1008.5 975.7,943.5 919.5,911.1 863.2,943.5 863.2,1008.5 919.5,1040.9 			"/>
			<polygon class="st3" points="1088.1,1008.5 1088.1,943.5 1031.9,911.1 975.7,943.5 975.7,1008.5 1031.9,1040.9 			"/>
			<polygon class="st3" points="1200.6,1008.5 1200.6,943.5 1144.4,911.1 1088.1,943.5 1088.1,1008.5 1144.4,1040.9 			"/>
			<polygon class="st3" points="1313,1008.5 1313,943.5 1256.8,911.1 1200.6,943.5 1200.6,1008.5 1256.8,1040.9 			"/>
			<polygon class="st3" points="1425.5,1008.5 1425.5,943.5 1369.3,911.1 1313,943.5 1313,1008.5 1369.3,1040.9 			"/>
			<polygon class="st3" points="1537.9,1008.5 1537.9,943.5 1481.7,911.1 1425.5,943.5 1425.5,1008.5 1481.7,1040.9 			"/>
			<polygon class="st3" points="1650.4,1008.5 1650.4,943.5 1594.2,911.1 1537.9,943.5 1537.9,1008.5 1594.2,1040.9 			"/>
			<polygon class="st4" points="357.3,1105.5 357.3,1040.5 301.1,1008.1 244.9,1040.5 244.9,1105.5 301.1,1137.9 			"/>
			<polygon class="st4" points="469.8,1105.5 469.8,1040.5 413.6,1008.1 357.3,1040.5 357.3,1105.5 413.6,1137.9 			"/>
			<polygon class="st4" points="582.2,1105.5 582.2,1040.5 526,1008.1 469.8,1040.5 469.8,1105.5 526,1137.9 			"/>
			<polygon class="st4" points="694.7,1105.5 694.7,1040.5 638.5,1008.1 582.2,1040.5 582.2,1105.5 638.5,1137.9 			"/>
			<polygon class="st4" points="807.1,1105.5 807.1,1040.5 750.9,1008.1 694.7,1040.5 694.7,1105.5 750.9,1137.9 			"/>
			<polygon class="st4" points="919.6,1105.5 919.6,1040.5 863.4,1008.1 807.1,1040.5 807.1,1105.5 863.4,1137.9 			"/>
			<polygon class="st4" points="1032,1105.5 1032,1040.5 975.8,1008.1 919.6,1040.5 919.6,1105.5 975.8,1137.9 			"/>
			<polygon class="st4" points="1144.5,1105.5 1144.5,1040.5 1088.3,1008.1 1032,1040.5 1032,1105.5 1088.3,1137.9 			"/>
			<polygon class="st4" points="1256.9,1105.5 1256.9,1040.5 1200.7,1008.1 1144.5,1040.5 1144.5,1105.5 1200.7,1137.9 			"/>
			<polygon class="st4" points="1369.4,1105.5 1369.4,1040.5 1313.1,1008.1 1256.9,1040.5 1256.9,1105.5 1313.1,1137.9 			"/>
			<polygon class="st4" points="1481.8,1105.5 1481.8,1040.5 1425.6,1008.1 1369.4,1040.5 1369.4,1105.5 1425.6,1137.9 			"/>
			<polygon class="st4" points="1594.3,1105.5 1594.3,1040.5 1538,1008.1 1481.8,1040.5 1481.8,1105.5 1538,1137.9 			"/>
			<polygon class="st3" points="301,1203.2 301,1138.3 244.8,1105.8 188.6,1138.3 188.6,1203.2 244.8,1235.7 			"/>
			<polygon class="st3" points="413.5,1203.2 413.5,1138.3 357.2,1105.8 301,1138.3 301,1203.2 357.2,1235.7 			"/>
			<polygon class="st3" points="525.9,1203.2 525.9,1138.3 469.7,1105.8 413.5,1138.3 413.5,1203.2 469.7,1235.7 			"/>
			<polygon class="st3" points="638.3,1203.2 638.3,1138.3 582.1,1105.8 525.9,1138.3 525.9,1203.2 582.1,1235.7 			"/>
			<polygon class="st3" points="750.8,1203.2 750.8,1138.3 694.6,1105.8 638.3,1138.3 638.3,1203.2 694.6,1235.7 			"/>
			<polygon class="st3" points="863.2,1203.2 863.2,1138.3 807,1105.8 750.8,1138.3 750.8,1203.2 807,1235.7 			"/>
			<polygon class="st3" points="975.7,1203.2 975.7,1138.3 919.5,1105.8 863.2,1138.3 863.2,1203.2 919.5,1235.7 			"/>
			<polygon class="st3" points="1088.1,1203.2 1088.1,1138.3 1031.9,1105.8 975.7,1138.3 975.7,1203.2 1031.9,1235.7 			"/>
			<polygon class="st3" points="1200.6,1203.2 1200.6,1138.3 1144.4,1105.8 1088.1,1138.3 1088.1,1203.2 1144.4,1235.7 			"/>
			<polygon class="st3" points="1313,1203.2 1313,1138.3 1256.8,1105.8 1200.6,1138.3 1200.6,1203.2 1256.8,1235.7 			"/>
			<polygon class="st3" points="1425.5,1203.2 1425.5,1138.3 1369.3,1105.8 1313,1138.3 1313,1203.2 1369.3,1235.7 			"/>
			<polygon class="st4" points="357.3,1300.2 357.3,1235.3 301.1,1202.8 244.9,1235.3 244.9,1300.2 301.1,1332.7 			"/>
			<polygon class="st4" points="469.8,1300.2 469.8,1235.3 413.6,1202.8 357.3,1235.3 357.3,1300.2 413.6,1332.7 			"/>
			<polygon class="st4" points="582.2,1300.2 582.2,1235.3 526,1202.8 469.8,1235.3 469.8,1300.2 526,1332.7 			"/>
			<polygon class="st4" points="694.7,1300.2 694.7,1235.3 638.5,1202.8 582.2,1235.3 582.2,1300.2 638.5,1332.7 			"/>
			<polygon class="st4" points="807.1,1300.2 807.1,1235.3 750.9,1202.8 694.7,1235.3 694.7,1300.2 750.9,1332.7 			"/>
			<polygon class="st4" points="919.6,1300.2 919.6,1235.3 863.4,1202.8 807.1,1235.3 807.1,1300.2 863.4,1332.7 			"/>
			<polygon class="st4" points="1256.9,1300.2 1256.9,1235.3 1200.7,1202.8 1144.5,1235.3 1144.5,1300.2 1200.7,1332.7 			"/>
			<polygon class="st3" points="301,1398 301,1333 244.8,1300.6 188.6,1333 188.6,1398 244.8,1430.4 			"/>
			<polygon class="st3" points="413.5,1398 413.5,1333 357.2,1300.6 301,1333 301,1398 357.2,1430.4 			"/>
			<polygon class="st3" points="525.9,1398 525.9,1333 469.7,1300.6 413.5,1333 413.5,1398 469.7,1430.4 			"/>
			<polygon class="st3" points="638.3,1398 638.3,1333 582.1,1300.6 525.9,1333 525.9,1398 582.1,1430.4 			"/>
			<polygon class="st3" points="750.8,1398 750.8,1333 694.6,1300.6 638.3,1333 638.3,1398 694.6,1430.4 			"/>
			<polygon class="st3" points="863.2,1398 863.2,1333 807,1300.6 750.8,1333 750.8,1398 807,1430.4 			"/>
			<polygon class="st3" points="1200.6,1398 1200.6,1333 1144.4,1300.6 1088.1,1333 1088.1,1398 1144.4,1430.4 			"/>
			<polygon class="st3" points="1313,1398 1313,1333 1256.8,1300.6 1200.6,1333 1200.6,1398 1256.8,1430.4 			"/>
			<polygon class="st4" points="357.3,1495 357.3,1430 301.1,1397.6 244.9,1430 244.9,1495 301.1,1527.4 			"/>
			<polygon class="st4" points="469.8,1495 469.8,1430 413.6,1397.6 357.3,1430 357.3,1495 413.6,1527.4 			"/>
			<polygon class="st4" points="582.2,1495 582.2,1430 526,1397.6 469.8,1430 469.8,1495 526,1527.4 			"/>
			<polygon class="st4" points="694.7,1495 694.7,1430 638.5,1397.6 582.2,1430 582.2,1495 638.5,1527.4 			"/>
			<polygon class="st4" points="807.1,1495 807.1,1430 750.9,1397.6 694.7,1430 694.7,1495 750.9,1527.4 			"/>
			<polygon class="st4" points="919.6,1495 919.6,1430 863.4,1397.6 807.1,1430 807.1,1495 863.4,1527.4 			"/>
			<polygon class="st4" points="1256.9,1495 1256.9,1430 1200.7,1397.6 1144.5,1430 1144.5,1495 1200.7,1527.4 			"/>
			<polygon class="st4" points="1369.4,1495 1369.4,1430 1313.1,1397.6 1256.9,1430 1256.9,1495 1313.1,1527.4 			"/>
			<polygon class="st4" points="1481.8,1495 1481.8,1430 1425.6,1397.6 1369.4,1430 1369.4,1495 1425.6,1527.4 			"/>
			<polygon class="st3" points="301,1592.7 301,1527.8 244.8,1495.3 188.6,1527.8 188.6,1592.7 244.8,1625.2 			"/>
			<polygon class="st3" points="413.5,1592.7 413.5,1527.8 357.2,1495.3 301,1527.8 301,1592.7 357.2,1625.2 			"/>
			<polygon class="st3" points="525.9,1592.7 525.9,1527.8 469.7,1495.3 413.5,1527.8 413.5,1592.7 469.7,1625.2 			"/>
			<polygon class="st3" points="638.3,1592.7 638.3,1527.8 582.1,1495.3 525.9,1527.8 525.9,1592.7 582.1,1625.2 			"/>
			<polygon class="st3" points="750.8,1592.7 750.8,1527.8 694.6,1495.3 638.3,1527.8 638.3,1592.7 694.6,1625.2 			"/>
			<polygon class="st3" points="863.2,1592.7 863.2,1527.8 807,1495.3 750.8,1527.8 750.8,1592.7 807,1625.2 			"/>
			<polygon class="st3" points="975.7,1592.7 975.7,1527.8 919.5,1495.3 863.2,1527.8 863.2,1592.7 919.5,1625.2 			"/>
			<polygon class="st3" points="1088.1,1592.7 1088.1,1527.8 1031.9,1495.3 975.7,1527.8 975.7,1592.7 1031.9,1625.2 			"/>
			<polygon class="st3" points="1200.6,1592.7 1200.6,1527.8 1144.4,1495.3 1088.1,1527.8 1088.1,1592.7 1144.4,1625.2 			"/>
			<polygon class="st3" points="1313,1592.7 1313,1527.8 1256.8,1495.3 1200.6,1527.8 1200.6,1592.7 1256.8,1625.2 			"/>
			<polygon class="st3" points="1425.5,1592.7 1425.5,1527.8 1369.3,1495.3 1313,1527.8 1313,1592.7 1369.3,1625.2 			"/>
			<polygon class="st3" points="1537.9,1592.7 1537.9,1527.8 1481.7,1495.3 1425.5,1527.8 1425.5,1592.7 1481.7,1625.2 			"/>
			<polygon class="st3" points="1650.4,1592.7 1650.4,1527.8 1594.2,1495.3 1537.9,1527.8 1537.9,1592.7 1594.2,1625.2 			"/>
			<polygon class="st4" points="357.3,1689.7 357.3,1624.8 301.1,1592.3 244.9,1624.8 244.9,1689.7 301.1,1722.2 			"/>
			<polygon class="st4" points="469.8,1689.7 469.8,1624.8 413.6,1592.3 357.3,1624.8 357.3,1689.7 413.6,1722.2 			"/>
			<polygon class="st4" points="582.2,1689.7 582.2,1624.8 526,1592.3 469.8,1624.8 469.8,1689.7 526,1722.2 			"/>
			<polygon class="st4" points="694.7,1689.7 694.7,1624.8 638.5,1592.3 582.2,1624.8 582.2,1689.7 638.5,1722.2 			"/>
			<polygon class="st4" points="807.1,1689.7 807.1,1624.8 750.9,1592.3 694.7,1624.8 694.7,1689.7 750.9,1722.2 			"/>
			<polygon class="st4" points="919.6,1689.7 919.6,1624.8 863.4,1592.3 807.1,1624.8 807.1,1689.7 863.4,1722.2 			"/>
			<polygon class="st4" points="1032,1689.7 1032,1624.8 975.8,1592.3 919.6,1624.8 919.6,1689.7 975.8,1722.2 			"/>
			<polygon class="st4" points="1144.5,1689.7 1144.5,1624.8 1088.3,1592.3 1032,1624.8 1032,1689.7 1088.3,1722.2 			"/>
			<polygon class="st4" points="1256.9,1689.7 1256.9,1624.8 1200.7,1592.3 1144.5,1624.8 1144.5,1689.7 1200.7,1722.2 			"/>
			<polygon class="st4" points="1369.4,1689.7 1369.4,1624.8 1313.1,1592.3 1256.9,1624.8 1256.9,1689.7 1313.1,1722.2 			"/>
			<polygon class="st4" points="1481.8,1689.7 1481.8,1624.8 1425.6,1592.3 1369.4,1624.8 1369.4,1689.7 1425.6,1722.2 			"/>
			<polygon class="st4" points="1594.3,1689.7 1594.3,1624.8 1538,1592.3 1481.8,1624.8 1481.8,1689.7 1538,1722.2 			"/>
			<polygon class="st4" points="1706.7,1689.7 1706.7,1624.8 1650.5,1592.3 1594.3,1624.8 1594.3,1689.7 1650.5,1722.2 			"/>
			<polygon class="st3" points="301,1787.1 301,1722.2 244.8,1689.7 188.6,1722.2 188.6,1787.1 244.8,1819.6 			"/>
			<polygon class="st3" points="413.5,1787.1 413.5,1722.2 357.2,1689.7 301,1722.2 301,1787.1 357.2,1819.6 			"/>
			<polygon class="st3" points="525.9,1787.1 525.9,1722.2 469.7,1689.7 413.5,1722.2 413.5,1787.1 469.7,1819.6 			"/>
			<polygon class="st3" points="638.3,1787.1 638.3,1722.2 582.1,1689.7 525.9,1722.2 525.9,1787.1 582.1,1819.6 			"/>
			<polygon class="st3" points="750.8,1787.1 750.8,1722.2 694.6,1689.7 638.3,1722.2 638.3,1787.1 694.6,1819.6 			"/>
			<polygon class="st3" points="863.2,1787.1 863.2,1722.2 807,1689.7 750.8,1722.2 750.8,1787.1 807,1819.6 			"/>
			<polygon class="st3" points="975.7,1787.1 975.7,1722.2 919.5,1689.7 863.2,1722.2 863.2,1787.1 919.5,1819.6 			"/>
			<polygon class="st3" points="1088.1,1787.1 1088.1,1722.2 1031.9,1689.7 975.7,1722.2 975.7,1787.1 1031.9,1819.6 			"/>
			<polygon class="st3" points="1200.6,1787.1 1200.6,1722.2 1144.4,1689.7 1088.1,1722.2 1088.1,1787.1 1144.4,1819.6 			"/>
			<polygon class="st3" points="1313,1787.1 1313,1722.2 1256.8,1689.7 1200.6,1722.2 1200.6,1787.1 1256.8,1819.6 			"/>
			<polygon class="st3" points="1425.5,1787.1 1425.5,1722.2 1369.3,1689.7 1313,1722.2 1313,1787.1 1369.3,1819.6 			"/>
			<polygon class="st3" points="1537.9,1787.1 1537.9,1722.2 1481.7,1689.7 1425.5,1722.2 1425.5,1787.1 1481.7,1819.6 			"/>
			<polygon class="st3" points="1650.4,1787.1 1650.4,1722.2 1594.2,1689.7 1537.9,1722.2 1537.9,1787.1 1594.2,1819.6 			"/>
			<polygon class="st4" points="357.3,1884.1 357.3,1819.2 301.1,1786.7 244.9,1819.2 244.9,1884.1 301.1,1916.6 			"/>
			<polygon class="st4" points="469.8,1884.1 469.8,1819.2 413.6,1786.7 357.3,1819.2 357.3,1884.1 413.6,1916.6 			"/>
			<polygon class="st4" points="582.2,1884.1 582.2,1819.2 526,1786.7 469.8,1819.2 469.8,1884.1 526,1916.6 			"/>
			<polygon class="st4" points="694.7,1884.1 694.7,1819.2 638.5,1786.7 582.2,1819.2 582.2,1884.1 638.5,1916.6 			"/>
			<polygon class="st4" points="807.1,1884.1 807.1,1819.2 750.9,1786.7 694.7,1819.2 694.7,1884.1 750.9,1916.6 			"/>
			<polygon class="st4" points="919.6,1884.1 919.6,1819.2 863.4,1786.7 807.1,1819.2 807.1,1884.1 863.4,1916.6 			"/>
			<polygon class="st4" points="1032,1884.1 1032,1819.2 975.8,1786.7 919.6,1819.2 919.6,1884.1 975.8,1916.6 			"/>
			<polygon class="st4" points="1144.5,1884.1 1144.5,1819.2 1088.3,1786.7 1032,1819.2 1032,1884.1 1088.3,1916.6 			"/>
			<polygon class="st4" points="1256.9,1884.1 1256.9,1819.2 1200.7,1786.7 1144.5,1819.2 1144.5,1884.1 1200.7,1916.6 			"/>
			<polygon class="st4" points="1369.4,1884.1 1369.4,1819.2 1313.1,1786.7 1256.9,1819.2 1256.9,1884.1 1313.1,1916.6 			"/>
			<polygon class="st4" points="1481.8,1884.1 1481.8,1819.2 1425.6,1786.7 1369.4,1819.2 1369.4,1884.1 1425.6,1916.6 			"/>
			<polygon class="st4" points="1594.3,1884.1 1594.3,1819.2 1538,1786.7 1481.8,1819.2 1481.8,1884.1 1538,1916.6 			"/>
			<polygon class="st4" points="1706.7,1884.1 1706.7,1819.2 1650.5,1786.7 1594.3,1819.2 1594.3,1884.1 1650.5,1916.6 			"/>
			<polygon class="st3" points="301,1981.8 301,1916.9 244.8,1884.5 188.6,1916.9 188.6,1981.8 244.8,2014.3 			"/>
			<polygon class="st3" points="413.5,1981.8 413.5,1916.9 357.2,1884.5 301,1916.9 301,1981.8 357.2,2014.3 			"/>
			<polygon class="st3" points="525.9,1981.8 525.9,1916.9 469.7,1884.5 413.5,1916.9 413.5,1981.8 469.7,2014.3 			"/>
			<polygon class="st3" points="638.3,1981.8 638.3,1916.9 582.1,1884.5 525.9,1916.9 525.9,1981.8 582.1,2014.3 			"/>
			<polygon class="st3" points="750.8,1981.8 750.8,1916.9 694.6,1884.5 638.3,1916.9 638.3,1981.8 694.6,2014.3 			"/>
			<polygon class="st3" points="863.2,1981.8 863.2,1916.9 807,1884.5 750.8,1916.9 750.8,1981.8 807,2014.3 			"/>
			<polygon class="st3" points="975.7,1981.8 975.7,1916.9 919.5,1884.5 863.2,1916.9 863.2,1981.8 919.5,2014.3 			"/>
			<polygon class="st3" points="1088.1,1981.8 1088.1,1916.9 1031.9,1884.5 975.7,1916.9 975.7,1981.8 1031.9,2014.3 			"/>
			<polygon class="st3" points="1200.6,1981.8 1200.6,1916.9 1144.4,1884.5 1088.1,1916.9 1088.1,1981.8 1144.4,2014.3 			"/>
			<polygon class="st3" points="1313,1981.8 1313,1916.9 1256.8,1884.5 1200.6,1916.9 1200.6,1981.8 1256.8,2014.3 			"/>
			<polygon class="st3" points="1425.5,1981.8 1425.5,1916.9 1369.3,1884.5 1313,1916.9 1313,1981.8 1369.3,2014.3 			"/>
			<polygon class="st3" points="1537.9,1981.8 1537.9,1916.9 1481.7,1884.5 1425.5,1916.9 1425.5,1981.8 1481.7,2014.3 			"/>
			<polygon class="st3" points="1650.4,1981.8 1650.4,1916.9 1594.2,1884.5 1537.9,1916.9 1537.9,1981.8 1594.2,2014.3 			"/>
			<polygon class="st4" points="357.3,2078.9 357.3,2013.9 301.1,1981.5 244.9,2013.9 244.9,2078.9 301.1,2111.3 			"/>
			<polygon class="st4" points="469.8,2078.9 469.8,2013.9 413.6,1981.5 357.3,2013.9 357.3,2078.9 413.6,2111.3 			"/>
			<polygon class="st4" points="582.2,2078.9 582.2,2013.9 526,1981.5 469.8,2013.9 469.8,2078.9 526,2111.3 			"/>
			<polygon class="st4" points="694.7,2078.9 694.7,2013.9 638.5,1981.5 582.2,2013.9 582.2,2078.9 638.5,2111.3 			"/>
			<polygon class="st4" points="807.1,2078.9 807.1,2013.9 750.9,1981.5 694.7,2013.9 694.7,2078.9 750.9,2111.3 			"/>
			<polygon class="st4" points="919.6,2078.9 919.6,2013.9 863.4,1981.5 807.1,2013.9 807.1,2078.9 863.4,2111.3 			"/>
			<polygon class="st4" points="1032,2078.9 1032,2013.9 975.8,1981.5 919.6,2013.9 919.6,2078.9 975.8,2111.3 			"/>
			<polygon class="st4" points="1144.5,2078.9 1144.5,2013.9 1088.3,1981.5 1032,2013.9 1032,2078.9 1088.3,2111.3 			"/>
			<polygon class="st4" points="1256.9,2078.9 1256.9,2013.9 1200.7,1981.5 1144.5,2013.9 1144.5,2078.9 1200.7,2111.3 			"/>
			<polygon class="st4" points="1369.4,2078.9 1369.4,2013.9 1313.1,1981.5 1256.9,2013.9 1256.9,2078.9 1313.1,2111.3 			"/>
			<polygon class="st4" points="1481.8,2078.9 1481.8,2013.9 1425.6,1981.5 1369.4,2013.9 1369.4,2078.9 1425.6,2111.3 			"/>
			<polygon class="st4" points="1594.3,2078.9 1594.3,2013.9 1538,1981.5 1481.8,2013.9 1481.8,2078.9 1538,2111.3 			"/>
			<polygon class="st4" points="1706.7,2078.9 1706.7,2013.9 1650.5,1981.5 1594.3,2013.9 1594.3,2078.9 1650.5,2111.3 			"/>
			<polygon class="st3" points="301,2176.6 301,2111.7 244.8,2079.2 188.6,2111.7 188.6,2176.6 244.8,2209.1 			"/>
			<polygon class="st3" points="413.5,2176.6 413.5,2111.7 357.2,2079.2 301,2111.7 301,2176.6 357.2,2209.1 			"/>
			<polygon class="st3" points="525.9,2176.6 525.9,2111.7 469.7,2079.2 413.5,2111.7 413.5,2176.6 469.7,2209.1 			"/>
			<polygon class="st3" points="638.3,2176.6 638.3,2111.7 582.1,2079.2 525.9,2111.7 525.9,2176.6 582.1,2209.1 			"/>
			<polygon class="st3" points="750.8,2176.6 750.8,2111.7 694.6,2079.2 638.3,2111.7 638.3,2176.6 694.6,2209.1 			"/>
			<polygon class="st3" points="863.2,2176.6 863.2,2111.7 807,2079.2 750.8,2111.7 750.8,2176.6 807,2209.1 			"/>
			<polygon class="st3" points="975.7,2176.6 975.7,2111.7 919.5,2079.2 863.2,2111.7 863.2,2176.6 919.5,2209.1 			"/>
			<polygon class="st3" points="1088.1,2176.6 1088.1,2111.7 1031.9,2079.2 975.7,2111.7 975.7,2176.6 1031.9,2209.1 			"/>
			<polygon class="st3" points="1200.6,2176.6 1200.6,2111.7 1144.4,2079.2 1088.1,2111.7 1088.1,2176.6 1144.4,2209.1 			"/>
			<polygon class="st3" points="1313,2176.6 1313,2111.7 1256.8,2079.2 1200.6,2111.7 1200.6,2176.6 1256.8,2209.1 			"/>
			<polygon class="st3" points="1425.5,2176.6 1425.5,2111.7 1369.3,2079.2 1313,2111.7 1313,2176.6 1369.3,2209.1 			"/>
			<polygon class="st3" points="1537.9,2176.6 1537.9,2111.7 1481.7,2079.2 1425.5,2111.7 1425.5,2176.6 1481.7,2209.1 			"/>
			<polygon class="st3" points="1650.4,2176.6 1650.4,2111.7 1594.2,2079.2 1537.9,2111.7 1537.9,2176.6 1594.2,2209.1 			"/>
			<polygon class="st4" points="357.3,2273.6 357.3,2208.7 301.1,2176.2 244.9,2208.7 244.9,2273.6 301.1,2306.1 			"/>
			<polygon class="st4" points="469.8,2273.6 469.8,2208.7 413.6,2176.2 357.3,2208.7 357.3,2273.6 413.6,2306.1 			"/>
			<polygon class="st4" points="582.2,2273.6 582.2,2208.7 526,2176.2 469.8,2208.7 469.8,2273.6 526,2306.1 			"/>
			<polygon class="st4" points="694.7,2273.6 694.7,2208.7 638.5,2176.2 582.2,2208.7 582.2,2273.6 638.5,2306.1 			"/>
			<polygon class="st4" points="807.1,2273.6 807.1,2208.7 750.9,2176.2 694.7,2208.7 694.7,2273.6 750.9,2306.1 			"/>
			<polygon class="st4" points="919.6,2273.6 919.6,2208.7 863.4,2176.2 807.1,2208.7 807.1,2273.6 863.4,2306.1 			"/>
			<polygon class="st4" points="1032,2273.6 1032,2208.7 975.8,2176.2 919.6,2208.7 919.6,2273.6 975.8,2306.1 			"/>
			<polygon class="st4" points="1144.5,2273.6 1144.5,2208.7 1088.3,2176.2 1032,2208.7 1032,2273.6 1088.3,2306.1 			"/>
			<polygon class="st4" points="1256.9,2273.6 1256.9,2208.7 1200.7,2176.2 1144.5,2208.7 1144.5,2273.6 1200.7,2306.1 			"/>
			<polygon class="st4" points="1369.4,2273.6 1369.4,2208.7 1313.1,2176.2 1256.9,2208.7 1256.9,2273.6 1313.1,2306.1 			"/>
			<polygon class="st4" points="1481.8,2273.6 1481.8,2208.7 1425.6,2176.2 1369.4,2208.7 1369.4,2273.6 1425.6,2306.1 			"/>
			<polygon class="st4" points="1594.3,2273.6 1594.3,2208.7 1538,2176.2 1481.8,2208.7 1481.8,2273.6 1538,2306.1 			"/>
			<polygon class="st4" points="1706.7,2273.6 1706.7,2208.7 1650.5,2176.2 1594.3,2208.7 1594.3,2273.6 1650.5,2306.1 			"/>
			<polygon class="st3" points="301,2371.4 301,2306.4 244.8,2274 188.6,2306.4 188.6,2371.4 244.8,2403.8 			"/>
			<polygon class="st3" points="413.5,2371.4 413.5,2306.4 357.2,2274 301,2306.4 301,2371.4 357.2,2403.8 			"/>
			<polygon class="st3" points="525.9,2371.4 525.9,2306.4 469.7,2274 413.5,2306.4 413.5,2371.4 469.7,2403.8 			"/>
			<polygon class="st3" points="638.3,2371.4 638.3,2306.4 582.1,2274 525.9,2306.4 525.9,2371.4 582.1,2403.8 			"/>
			<polygon class="st3" points="750.8,2371.4 750.8,2306.4 694.6,2274 638.3,2306.4 638.3,2371.4 694.6,2403.8 			"/>
			<polygon class="st3" points="863.2,2371.4 863.2,2306.4 807,2274 750.8,2306.4 750.8,2371.4 807,2403.8 			"/>
			<polygon class="st3" points="975.7,2371.4 975.7,2306.4 919.5,2274 863.2,2306.4 863.2,2371.4 919.5,2403.8 			"/>
			<polygon class="st3" points="1088.1,2371.4 1088.1,2306.4 1031.9,2274 975.7,2306.4 975.7,2371.4 1031.9,2403.8 			"/>
			<polygon class="st3" points="1200.6,2371.4 1200.6,2306.4 1144.4,2274 1088.1,2306.4 1088.1,2371.4 1144.4,2403.8 			"/>
			<polygon class="st3" points="1313,2371.4 1313,2306.4 1256.8,2274 1200.6,2306.4 1200.6,2371.4 1256.8,2403.8 			"/>
			<polygon class="st3" points="1425.5,2371.4 1425.5,2306.4 1369.3,2274 1313,2306.4 1313,2371.4 1369.3,2403.8 			"/>
			<polygon class="st3" points="1537.9,2371.4 1537.9,2306.4 1481.7,2274 1425.5,2306.4 1425.5,2371.4 1481.7,2403.8 			"/>
			<polygon class="st3" points="1650.4,2371.4 1650.4,2306.4 1594.2,2274 1537.9,2306.4 1537.9,2371.4 1594.2,2403.8 			"/>
			<polygon class="st4" points="357.3,2468.4 357.3,2403.4 301.1,2371 244.9,2403.4 244.9,2468.4 301.1,2500.8 			"/>
			<polygon class="st4" points="469.8,2468.4 469.8,2403.4 413.6,2371 357.3,2403.4 357.3,2468.4 413.6,2500.8 			"/>
			<polygon class="st4" points="582.2,2468.4 582.2,2403.4 526,2371 469.8,2403.4 469.8,2468.4 526,2500.8 			"/>
			<polygon class="st4" points="694.7,2468.4 694.7,2403.4 638.5,2371 582.2,2403.4 582.2,2468.4 638.5,2500.8 			"/>
			<polygon class="st4" points="807.1,2468.4 807.1,2403.4 750.9,2371 694.7,2403.4 694.7,2468.4 750.9,2500.8 			"/>
			<polygon class="st4" points="919.6,2468.4 919.6,2403.4 863.4,2371 807.1,2403.4 807.1,2468.4 863.4,2500.8 			"/>
			<polygon class="st4" points="1032,2468.4 1032,2403.4 975.8,2371 919.6,2403.4 919.6,2468.4 975.8,2500.8 			"/>
			<polygon class="st4" points="1144.5,2468.4 1144.5,2403.4 1088.3,2371 1032,2403.4 1032,2468.4 1088.3,2500.8 			"/>
			<polygon class="st4" points="1256.9,2468.4 1256.9,2403.4 1200.7,2371 1144.5,2403.4 1144.5,2468.4 1200.7,2500.8 			"/>
			<polygon class="st4" points="1369.4,2468.4 1369.4,2403.4 1313.1,2371 1256.9,2403.4 1256.9,2468.4 1313.1,2500.8 			"/>
			<polygon class="st4" points="1481.8,2468.4 1481.8,2403.4 1425.6,2371 1369.4,2403.4 1369.4,2468.4 1425.6,2500.8 			"/>
			<polygon class="st4" points="1594.3,2468.4 1594.3,2403.4 1538,2371 1481.8,2403.4 1481.8,2468.4 1538,2500.8 			"/>
			<polygon class="st4" points="1706.7,2468.4 1706.7,2403.4 1650.5,2371 1594.3,2403.4 1594.3,2468.4 1650.5,2500.8 			"/>
			<polygon class="st3" points="1763.2,229.4 1763.2,164.5 1706.9,132.1 1650.7,164.5 1650.7,229.4 1706.9,261.9 			"/>
			<polygon class="st3" points="1875.6,229.4 1875.6,164.5 1819.4,132.1 1763.2,164.5 1763.2,229.4 1819.4,261.9 			"/>
			<polygon class="st3" points="1988.1,229.4 1988.1,164.5 1931.8,132.1 1875.6,164.5 1875.6,229.4 1931.8,261.9 			"/>
			<polygon class="st3" points="2100.5,229.4 2100.5,164.5 2044.3,132.1 1988.1,164.5 1988.1,229.4 2044.3,261.9 			"/>
			<polygon class="st3" points="2212.9,229.4 2212.9,164.5 2156.7,132.1 2100.5,164.5 2100.5,229.4 2156.7,261.9 			"/>
			<polygon class="st3" points="2325.4,229.4 2325.4,164.5 2269.2,132.1 2212.9,164.5 2212.9,229.4 2269.2,261.9 			"/>
			<polygon class="st3" points="2437.8,229.4 2437.8,164.5 2381.6,132.1 2325.4,164.5 2325.4,229.4 2381.6,261.9 			"/>
			<polygon class="st3" points="2550.3,229.4 2550.3,164.5 2494.1,132.1 2437.8,164.5 2437.8,229.4 2494.1,261.9 			"/>
			<polygon class="st3" points="2662.7,229.4 2662.7,164.5 2606.5,132.1 2550.3,164.5 2550.3,229.4 2606.5,261.9 			"/>
			<polygon class="st3" points="2775.2,229.4 2775.2,164.5 2719,132.1 2662.7,164.5 2662.7,229.4 2719,261.9 			"/>
			<polygon class="st3" points="2887.6,229.4 2887.6,164.5 2831.4,132.1 2775.2,164.5 2775.2,229.4 2831.4,261.9 			"/>
			<polygon class="st3" points="3000.1,229.4 3000.1,164.5 2943.9,132.1 2887.6,164.5 2887.6,229.4 2943.9,261.9 			"/>
			<polygon class="st3" points="3112.5,229.4 3112.5,164.5 3056.3,132.1 3000.1,164.5 3000.1,229.4 3056.3,261.9 			"/>
			<polygon class="st4" points="1819.5,326.4 1819.5,261.5 1763.3,229.1 1707,261.5 1707,326.4 1763.3,358.9 			"/>
			<polygon class="st4" points="1931.9,326.4 1931.9,261.5 1875.7,229.1 1819.5,261.5 1819.5,326.4 1875.7,358.9 			"/>
			<polygon class="st4" points="2044.4,326.4 2044.4,261.5 1988.2,229.1 1931.9,261.5 1931.9,326.4 1988.2,358.9 			"/>
			<polygon class="st4" points="2156.8,326.4 2156.8,261.5 2100.6,229.1 2044.4,261.5 2044.4,326.4 2100.6,358.9 			"/>
			<polygon class="st4" points="2269.3,326.4 2269.3,261.5 2213.1,229.1 2156.8,261.5 2156.8,326.4 2213.1,358.9 			"/>
			<polygon class="st4" points="2381.7,326.4 2381.7,261.5 2325.5,229.1 2269.3,261.5 2269.3,326.4 2325.5,358.9 			"/>
			<polygon class="st4" points="2494.2,326.4 2494.2,261.5 2438,229.1 2381.7,261.5 2381.7,326.4 2438,358.9 			"/>
			<polygon class="st4" points="2606.6,326.4 2606.6,261.5 2550.4,229.1 2494.2,261.5 2494.2,326.4 2550.4,358.9 			"/>
			<polygon class="st4" points="2719.1,326.4 2719.1,261.5 2662.8,229.1 2606.6,261.5 2606.6,326.4 2662.8,358.9 			"/>
			<polygon class="st4" points="2831.5,326.4 2831.5,261.5 2775.3,229.1 2719.1,261.5 2719.1,326.4 2775.3,358.9 			"/>
			<polygon class="st4" points="2944,326.4 2944,261.5 2887.7,229.1 2831.5,261.5 2831.5,326.4 2887.7,358.9 			"/>
			<polygon class="st4" points="3056.4,326.4 3056.4,261.5 3000.2,229.1 2944,261.5 2944,326.4 3000.2,358.9 			"/>
			<polygon class="st4" points="3168.9,326.4 3168.9,261.5 3112.6,229.1 3056.4,261.5 3056.4,326.4 3112.6,358.9 			"/>
			<polygon class="st3" points="1763.2,424.2 1763.2,359.3 1706.9,326.8 1650.7,359.3 1650.7,424.2 1706.9,456.7 			"/>
			<polygon class="st3" points="1875.6,424.2 1875.6,359.3 1819.4,326.8 1763.2,359.3 1763.2,424.2 1819.4,456.7 			"/>
			<polygon class="st3" points="1988.1,424.2 1988.1,359.3 1931.8,326.8 1875.6,359.3 1875.6,424.2 1931.8,456.7 			"/>
			<polygon class="st3" points="2100.5,424.2 2100.5,359.3 2044.3,326.8 1988.1,359.3 1988.1,424.2 2044.3,456.7 			"/>
			<polygon class="st3" points="2212.9,424.2 2212.9,359.3 2156.7,326.8 2100.5,359.3 2100.5,424.2 2156.7,456.7 			"/>
			<polygon class="st3" points="2325.4,424.2 2325.4,359.3 2269.2,326.8 2212.9,359.3 2212.9,424.2 2269.2,456.7 			"/>
			<polygon class="st3" points="2437.8,424.2 2437.8,359.3 2381.6,326.8 2325.4,359.3 2325.4,424.2 2381.6,456.7 			"/>
			<polygon class="st3" points="2550.3,424.2 2550.3,359.3 2494.1,326.8 2437.8,359.3 2437.8,424.2 2494.1,456.7 			"/>
			<polygon class="st3" points="2662.7,424.2 2662.7,359.3 2606.5,326.8 2550.3,359.3 2550.3,424.2 2606.5,456.7 			"/>
			<polygon class="st3" points="2775.2,424.2 2775.2,359.3 2719,326.8 2662.7,359.3 2662.7,424.2 2719,456.7 			"/>
			<polygon class="st3" points="2887.6,424.2 2887.6,359.3 2831.4,326.8 2775.2,359.3 2775.2,424.2 2831.4,456.7 			"/>
			<polygon class="st3" points="3000.1,424.2 3000.1,359.3 2943.9,326.8 2887.6,359.3 2887.6,424.2 2943.9,456.7 			"/>
			<polygon class="st3" points="3112.5,424.2 3112.5,359.3 3056.3,326.8 3000.1,359.3 3000.1,424.2 3056.3,456.7 			"/>
			<polygon class="st4" points="1819.5,521.2 1819.5,456.3 1763.3,423.8 1707,456.3 1707,521.2 1763.3,553.7 			"/>
			<polygon class="st4" points="1931.9,521.2 1931.9,456.3 1875.7,423.8 1819.5,456.3 1819.5,521.2 1875.7,553.7 			"/>
			<polygon class="st4" points="2044.4,521.2 2044.4,456.3 1988.2,423.8 1931.9,456.3 1931.9,521.2 1988.2,553.7 			"/>
			<polygon class="st4" points="2156.8,521.2 2156.8,456.3 2100.6,423.8 2044.4,456.3 2044.4,521.2 2100.6,553.7 			"/>
			<polygon class="st4" points="2269.3,521.2 2269.3,456.3 2213.1,423.8 2156.8,456.3 2156.8,521.2 2213.1,553.7 			"/>
			<polygon class="st4" points="2381.7,521.2 2381.7,456.3 2325.5,423.8 2269.3,456.3 2269.3,521.2 2325.5,553.7 			"/>
			<polygon class="st4" points="2494.2,521.2 2494.2,456.3 2438,423.8 2381.7,456.3 2381.7,521.2 2438,553.7 			"/>
			<polygon class="st4" points="2606.6,521.2 2606.6,456.3 2550.4,423.8 2494.2,456.3 2494.2,521.2 2550.4,553.7 			"/>
			<polygon class="st4" points="2719.1,521.2 2719.1,456.3 2662.8,423.8 2606.6,456.3 2606.6,521.2 2662.8,553.7 			"/>
			<polygon class="st4" points="2831.5,521.2 2831.5,456.3 2775.3,423.8 2719.1,456.3 2719.1,521.2 2775.3,553.7 			"/>
			<polygon class="st4" points="2944,521.2 2944,456.3 2887.7,423.8 2831.5,456.3 2831.5,521.2 2887.7,553.7 			"/>
			<polygon class="st4" points="3056.4,521.2 3056.4,456.3 3000.2,423.8 2944,456.3 2944,521.2 3000.2,553.7 			"/>
			<polygon class="st4" points="3168.9,521.2 3168.9,456.3 3112.6,423.8 3056.4,456.3 3056.4,521.2 3112.6,553.7 			"/>
			<polygon class="st3" points="1763.2,619 1763.2,554 1706.9,521.6 1650.7,554 1650.7,619 1706.9,651.4 			"/>
			<polygon class="st3" points="1875.6,619 1875.6,554 1819.4,521.6 1763.2,554 1763.2,619 1819.4,651.4 			"/>
			<polygon class="st3" points="1988.1,619 1988.1,554 1931.8,521.6 1875.6,554 1875.6,619 1931.8,651.4 			"/>
			<polygon class="st3" points="2100.5,619 2100.5,554 2044.3,521.6 1988.1,554 1988.1,619 2044.3,651.4 			"/>
			<polygon class="st3" points="2212.9,619 2212.9,554 2156.7,521.6 2100.5,554 2100.5,619 2156.7,651.4 			"/>
			<polygon class="st3" points="2325.4,619 2325.4,554 2269.2,521.6 2212.9,554 2212.9,619 2269.2,651.4 			"/>
			<polygon class="st3" points="2437.8,619 2437.8,554 2381.6,521.6 2325.4,554 2325.4,619 2381.6,651.4 			"/>
			<polygon class="st3" points="2550.3,619 2550.3,554 2494.1,521.6 2437.8,554 2437.8,619 2494.1,651.4 			"/>
			<polygon class="st3" points="2662.7,619 2662.7,554 2606.5,521.6 2550.3,554 2550.3,619 2606.5,651.4 			"/>
			<polygon class="st3" points="2775.2,619 2775.2,554 2719,521.6 2662.7,554 2662.7,619 2719,651.4 			"/>
			<polygon class="st3" points="2887.6,619 2887.6,554 2831.4,521.6 2775.2,554 2775.2,619 2831.4,651.4 			"/>
			<polygon class="st3" points="3000.1,619 3000.1,554 2943.9,521.6 2887.6,554 2887.6,619 2943.9,651.4 			"/>
			<polygon class="st3" points="3112.5,619 3112.5,554 3056.3,521.6 3000.1,554 3000.1,619 3056.3,651.4 			"/>
			<polygon class="st4" points="1819.5,716 1819.5,651 1763.3,618.6 1707,651 1707,716 1763.3,748.4 			"/>
			<polygon class="st4" points="1931.9,716 1931.9,651 1875.7,618.6 1819.5,651 1819.5,716 1875.7,748.4 			"/>
			<polygon class="st4" points="2044.4,716 2044.4,651 1988.2,618.6 1931.9,651 1931.9,716 1988.2,748.4 			"/>
			<polygon class="st4" points="2156.8,716 2156.8,651 2100.6,618.6 2044.4,651 2044.4,716 2100.6,748.4 			"/>
			<polygon class="st4" points="2269.3,716 2269.3,651 2213.1,618.6 2156.8,651 2156.8,716 2213.1,748.4 			"/>
			<polygon class="st4" points="2381.7,716 2381.7,651 2325.5,618.6 2269.3,651 2269.3,716 2325.5,748.4 			"/>
			<polygon class="st4" points="2494.2,716 2494.2,651 2438,618.6 2381.7,651 2381.7,716 2438,748.4 			"/>
			<polygon class="st4" points="2606.6,716 2606.6,651 2550.4,618.6 2494.2,651 2494.2,716 2550.4,748.4 			"/>
			<polygon class="st4" points="2719.1,716 2719.1,651 2662.8,618.6 2606.6,651 2606.6,716 2662.8,748.4 			"/>
			<polygon class="st4" points="2831.5,716 2831.5,651 2775.3,618.6 2719.1,651 2719.1,716 2775.3,748.4 			"/>
			<polygon class="st4" points="2944,716 2944,651 2887.7,618.6 2831.5,651 2831.5,716 2887.7,748.4 			"/>
			<polygon class="st4" points="3056.4,716 3056.4,651 3000.2,618.6 2944,651 2944,716 3000.2,748.4 			"/>
			<polygon class="st4" points="3168.9,716 3168.9,651 3112.6,618.6 3056.4,651 3056.4,716 3112.6,748.4 			"/>
			<polygon class="st3" points="1763.2,813.7 1763.2,748.8 1706.9,716.3 1650.7,748.8 1650.7,813.7 1706.9,846.2 			"/>
			<polygon class="st3" points="1875.6,813.7 1875.6,748.8 1819.4,716.3 1763.2,748.8 1763.2,813.7 1819.4,846.2 			"/>
			<polygon class="st3" points="1988.1,813.7 1988.1,748.8 1931.8,716.3 1875.6,748.8 1875.6,813.7 1931.8,846.2 			"/>
			<polygon class="st3" points="2100.5,813.7 2100.5,748.8 2044.3,716.3 1988.1,748.8 1988.1,813.7 2044.3,846.2 			"/>
			<polygon class="st3" points="2212.9,813.7 2212.9,748.8 2156.7,716.3 2100.5,748.8 2100.5,813.7 2156.7,846.2 			"/>
			<polygon class="st3" points="2325.4,813.7 2325.4,748.8 2269.2,716.3 2212.9,748.8 2212.9,813.7 2269.2,846.2 			"/>
			<polygon class="st3" points="2437.8,813.7 2437.8,748.8 2381.6,716.3 2325.4,748.8 2325.4,813.7 2381.6,846.2 			"/>
			<polygon class="st3" points="2550.3,813.7 2550.3,748.8 2494.1,716.3 2437.8,748.8 2437.8,813.7 2494.1,846.2 			"/>
			<polygon class="st3" points="2662.7,813.7 2662.7,748.8 2606.5,716.3 2550.3,748.8 2550.3,813.7 2606.5,846.2 			"/>
			<polygon class="st3" points="2775.2,813.7 2775.2,748.8 2719,716.3 2662.7,748.8 2662.7,813.7 2719,846.2 			"/>
			<polygon class="st3" points="2887.6,813.7 2887.6,748.8 2831.4,716.3 2775.2,748.8 2775.2,813.7 2831.4,846.2 			"/>
			<polygon class="st3" points="3000.1,813.7 3000.1,748.8 2943.9,716.3 2887.6,748.8 2887.6,813.7 2943.9,846.2 			"/>
			<polygon class="st3" points="3112.5,813.7 3112.5,748.8 3056.3,716.3 3000.1,748.8 3000.1,813.7 3056.3,846.2 			"/>
			<polygon class="st4" points="1819.5,910.7 1819.5,845.8 1763.3,813.3 1707,845.8 1707,910.7 1763.3,943.2 			"/>
			<polygon class="st4" points="1931.9,910.7 1931.9,845.8 1875.7,813.3 1819.5,845.8 1819.5,910.7 1875.7,943.2 			"/>
			<polygon class="st4" points="2044.4,910.7 2044.4,845.8 1988.2,813.3 1931.9,845.8 1931.9,910.7 1988.2,943.2 			"/>
			<polygon class="st4" points="2156.8,910.7 2156.8,845.8 2100.6,813.3 2044.4,845.8 2044.4,910.7 2100.6,943.2 			"/>
			<polygon class="st4" points="2269.3,910.7 2269.3,845.8 2213.1,813.3 2156.8,845.8 2156.8,910.7 2213.1,943.2 			"/>
			<polygon class="st4" points="2381.7,910.7 2381.7,845.8 2325.5,813.3 2269.3,845.8 2269.3,910.7 2325.5,943.2 			"/>
			<polygon class="st4" points="2494.2,910.7 2494.2,845.8 2438,813.3 2381.7,845.8 2381.7,910.7 2438,943.2 			"/>
			<polygon class="st4" points="2606.6,910.7 2606.6,845.8 2550.4,813.3 2494.2,845.8 2494.2,910.7 2550.4,943.2 			"/>
			<polygon class="st4" points="2719.1,910.7 2719.1,845.8 2662.8,813.3 2606.6,845.8 2606.6,910.7 2662.8,943.2 			"/>
			<polygon class="st4" points="2831.5,910.7 2831.5,845.8 2775.3,813.3 2719.1,845.8 2719.1,910.7 2775.3,943.2 			"/>
			<polygon class="st4" points="2944,910.7 2944,845.8 2887.7,813.3 2831.5,845.8 2831.5,910.7 2887.7,943.2 			"/>
			<polygon class="st4" points="3056.4,910.7 3056.4,845.8 3000.2,813.3 2944,845.8 2944,910.7 3000.2,943.2 			"/>
			<polygon class="st4" points="3168.9,910.7 3168.9,845.8 3112.6,813.3 3056.4,845.8 3056.4,910.7 3112.6,943.2 			"/>
			<polygon class="st3" points="1763.2,1008.5 1763.2,943.5 1706.9,911.1 1650.7,943.5 1650.7,1008.5 1706.9,1040.9 			"/>
			<polygon class="st3" points="1875.6,1008.5 1875.6,943.5 1819.4,911.1 1763.2,943.5 1763.2,1008.5 1819.4,1040.9 			"/>
			<polygon class="st3" points="1988.1,1008.5 1988.1,943.5 1931.8,911.1 1875.6,943.5 1875.6,1008.5 1931.8,1040.9 			"/>
			<polygon class="st3" points="2100.5,1008.5 2100.5,943.5 2044.3,911.1 1988.1,943.5 1988.1,1008.5 2044.3,1040.9 			"/>
			<polygon class="st3" points="2212.9,1008.5 2212.9,943.5 2156.7,911.1 2100.5,943.5 2100.5,1008.5 2156.7,1040.9 			"/>
			<polygon class="st3" points="2325.4,1008.5 2325.4,943.5 2269.2,911.1 2212.9,943.5 2212.9,1008.5 2269.2,1040.9 			"/>
			<polygon class="st3" points="2437.8,1008.5 2437.8,943.5 2381.6,911.1 2325.4,943.5 2325.4,1008.5 2381.6,1040.9 			"/>
			<polygon class="st3" points="2550.3,1008.5 2550.3,943.5 2494.1,911.1 2437.8,943.5 2437.8,1008.5 2494.1,1040.9 			"/>
			<polygon class="st3" points="2662.7,1008.5 2662.7,943.5 2606.5,911.1 2550.3,943.5 2550.3,1008.5 2606.5,1040.9 			"/>
			<polygon class="st3" points="2775.2,1008.5 2775.2,943.5 2719,911.1 2662.7,943.5 2662.7,1008.5 2719,1040.9 			"/>
			<polygon class="st3" points="2887.6,1008.5 2887.6,943.5 2831.4,911.1 2775.2,943.5 2775.2,1008.5 2831.4,1040.9 			"/>
			<polygon class="st3" points="3000.1,1008.5 3000.1,943.5 2943.9,911.1 2887.6,943.5 2887.6,1008.5 2943.9,1040.9 			"/>
			<polygon class="st3" points="3112.5,1008.5 3112.5,943.5 3056.3,911.1 3000.1,943.5 3000.1,1008.5 3056.3,1040.9 			"/>
			<polygon class="st4" points="1819.5,1105.5 1819.5,1040.5 1763.3,1008.1 1707,1040.5 1707,1105.5 1763.3,1137.9 			"/>
			<polygon class="st4" points="1931.9,1105.5 1931.9,1040.5 1875.7,1008.1 1819.5,1040.5 1819.5,1105.5 1875.7,1137.9 			"/>
			<polygon class="st4" points="2044.4,1105.5 2044.4,1040.5 1988.2,1008.1 1931.9,1040.5 1931.9,1105.5 1988.2,1137.9 			"/>
			<polygon class="st4" points="2156.8,1105.5 2156.8,1040.5 2100.6,1008.1 2044.4,1040.5 2044.4,1105.5 2100.6,1137.9 			"/>
			<polygon class="st4" points="2269.3,1105.5 2269.3,1040.5 2213.1,1008.1 2156.8,1040.5 2156.8,1105.5 2213.1,1137.9 			"/>
			<polygon class="st4" points="2381.7,1105.5 2381.7,1040.5 2325.5,1008.1 2269.3,1040.5 2269.3,1105.5 2325.5,1137.9 			"/>
			<polygon class="st4" points="2494.2,1105.5 2494.2,1040.5 2438,1008.1 2381.7,1040.5 2381.7,1105.5 2438,1137.9 			"/>
			<polygon class="st4" points="2606.6,1105.5 2606.6,1040.5 2550.4,1008.1 2494.2,1040.5 2494.2,1105.5 2550.4,1137.9 			"/>
			<polygon class="st4" points="2719.1,1105.5 2719.1,1040.5 2662.8,1008.1 2606.6,1040.5 2606.6,1105.5 2662.8,1137.9 			"/>
			<polygon class="st4" points="2831.5,1105.5 2831.5,1040.5 2775.3,1008.1 2719.1,1040.5 2719.1,1105.5 2775.3,1137.9 			"/>
			<polygon class="st4" points="2944,1105.5 2944,1040.5 2887.7,1008.1 2831.5,1040.5 2831.5,1105.5 2887.7,1137.9 			"/>
			<polygon class="st4" points="3056.4,1105.5 3056.4,1040.5 3000.2,1008.1 2944,1040.5 2944,1105.5 3000.2,1137.9 			"/>
			<polygon class="st4" points="3168.9,1105.5 3168.9,1040.5 3112.6,1008.1 3056.4,1040.5 3056.4,1105.5 3112.6,1137.9 			"/>
			<polygon class="st3" points="1988.1,1203.2 1988.1,1138.3 1931.8,1105.8 1875.6,1138.3 1875.6,1203.2 1931.8,1235.7 			"/>
			<polygon class="st3" points="2100.5,1203.2 2100.5,1138.3 2044.3,1105.8 1988.1,1138.3 1988.1,1203.2 2044.3,1235.7 			"/>
			<polygon class="st3" points="2212.9,1203.2 2212.9,1138.3 2156.7,1105.8 2100.5,1138.3 2100.5,1203.2 2156.7,1235.7 			"/>
			<polygon class="st3" points="2325.4,1203.2 2325.4,1138.3 2269.2,1105.8 2212.9,1138.3 2212.9,1203.2 2269.2,1235.7 			"/>
			<polygon class="st3" points="2437.8,1203.2 2437.8,1138.3 2381.6,1105.8 2325.4,1138.3 2325.4,1203.2 2381.6,1235.7 			"/>
			<polygon class="st3" points="2550.3,1203.2 2550.3,1138.3 2494.1,1105.8 2437.8,1138.3 2437.8,1203.2 2494.1,1235.7 			"/>
			<polygon class="st3" points="2662.7,1203.2 2662.7,1138.3 2606.5,1105.8 2550.3,1138.3 2550.3,1203.2 2606.5,1235.7 			"/>
			<polygon class="st3" points="2775.2,1203.2 2775.2,1138.3 2719,1105.8 2662.7,1138.3 2662.7,1203.2 2719,1235.7 			"/>
			<polygon class="st3" points="2887.6,1203.2 2887.6,1138.3 2831.4,1105.8 2775.2,1138.3 2775.2,1203.2 2831.4,1235.7 			"/>
			<polygon class="st3" points="3000.1,1203.2 3000.1,1138.3 2943.9,1105.8 2887.6,1138.3 2887.6,1203.2 2943.9,1235.7 			"/>
			<polygon class="st3" points="3112.5,1203.2 3112.5,1138.3 3056.3,1105.8 3000.1,1138.3 3000.1,1203.2 3056.3,1235.7 			"/>
			<polygon class="st4" points="2044.4,1300.2 2044.4,1235.3 1988.2,1202.8 1931.9,1235.3 1931.9,1300.2 1988.2,1332.7 			"/>
			<polygon class="st4" points="2156.8,1300.2 2156.8,1235.3 2100.6,1202.8 2044.4,1235.3 2044.4,1300.2 2100.6,1332.7 			"/>
			<polygon class="st4" points="2269.3,1300.2 2269.3,1235.3 2213.1,1202.8 2156.8,1235.3 2156.8,1300.2 2213.1,1332.7 			"/>
			<polygon class="st4" points="2381.7,1300.2 2381.7,1235.3 2325.5,1202.8 2269.3,1235.3 2269.3,1300.2 2325.5,1332.7 			"/>
			<polygon class="st4" points="2494.2,1300.2 2494.2,1235.3 2438,1202.8 2381.7,1235.3 2381.7,1300.2 2438,1332.7 			"/>
			<polygon class="st4" points="2606.6,1300.2 2606.6,1235.3 2550.4,1202.8 2494.2,1235.3 2494.2,1300.2 2550.4,1332.7 			"/>
			<polygon class="st4" points="2719.1,1300.2 2719.1,1235.3 2662.8,1202.8 2606.6,1235.3 2606.6,1300.2 2662.8,1332.7 			"/>
			<polygon class="st4" points="2831.5,1300.2 2831.5,1235.3 2775.3,1202.8 2719.1,1235.3 2719.1,1300.2 2775.3,1332.7 			"/>
			<polygon class="st4" points="2944,1300.2 2944,1235.3 2887.7,1202.8 2831.5,1235.3 2831.5,1300.2 2887.7,1332.7 			"/>
			<polygon class="st4" points="3056.4,1300.2 3056.4,1235.3 3000.2,1202.8 2944,1235.3 2944,1300.2 3000.2,1332.7 			"/>
			<polygon class="st4" points="3168.9,1300.2 3168.9,1235.3 3112.6,1202.8 3056.4,1235.3 3056.4,1300.2 3112.6,1332.7 			"/>
			<polygon class="st3" points="2100.5,1398 2100.5,1333 2044.3,1300.6 1988.1,1333 1988.1,1398 2044.3,1430.4 			"/>
			<polygon class="st3" points="2212.9,1398 2212.9,1333 2156.7,1300.6 2100.5,1333 2100.5,1398 2156.7,1430.4 			"/>
			<polygon class="st3" points="2325.4,1398 2325.4,1333 2269.2,1300.6 2212.9,1333 2212.9,1398 2269.2,1430.4 			"/>
			<polygon class="st3" points="2437.8,1398 2437.8,1333 2381.6,1300.6 2325.4,1333 2325.4,1398 2381.6,1430.4 			"/>
			<polygon class="st3" points="2550.3,1398 2550.3,1333 2494.1,1300.6 2437.8,1333 2437.8,1398 2494.1,1430.4 			"/>
			<polygon class="st3" points="2662.7,1398 2662.7,1333 2606.5,1300.6 2550.3,1333 2550.3,1398 2606.5,1430.4 			"/>
			<polygon class="st3" points="2775.2,1398 2775.2,1333 2719,1300.6 2662.7,1333 2662.7,1398 2719,1430.4 			"/>
			<polygon class="st3" points="2887.6,1398 2887.6,1333 2831.4,1300.6 2775.2,1333 2775.2,1398 2831.4,1430.4 			"/>
			<polygon class="st3" points="3000.1,1398 3000.1,1333 2943.9,1300.6 2887.6,1333 2887.6,1398 2943.9,1430.4 			"/>
			<polygon class="st3" points="3112.5,1398 3112.5,1333 3056.3,1300.6 3000.1,1333 3000.1,1398 3056.3,1430.4 			"/>
			<polygon class="st4" points="2044.4,1495 2044.4,1430 1988.2,1397.6 1931.9,1430 1931.9,1495 1988.2,1527.4 			"/>
			<polygon class="st4" points="2156.8,1495 2156.8,1430 2100.6,1397.6 2044.4,1430 2044.4,1495 2100.6,1527.4 			"/>
			<polygon class="st4" points="2269.3,1495 2269.3,1430 2213.1,1397.6 2156.8,1430 2156.8,1495 2213.1,1527.4 			"/>
			<polygon class="st4" points="2381.7,1495 2381.7,1430 2325.5,1397.6 2269.3,1430 2269.3,1495 2325.5,1527.4 			"/>
			<polygon class="st4" points="2494.2,1495 2494.2,1430 2438,1397.6 2381.7,1430 2381.7,1495 2438,1527.4 			"/>
			<polygon class="st4" points="2606.6,1495 2606.6,1430 2550.4,1397.6 2494.2,1430 2494.2,1495 2550.4,1527.4 			"/>
			<polygon class="st4" points="2719.1,1495 2719.1,1430 2662.8,1397.6 2606.6,1430 2606.6,1495 2662.8,1527.4 			"/>
			<polygon class="st4" points="2831.5,1495 2831.5,1430 2775.3,1397.6 2719.1,1430 2719.1,1495 2775.3,1527.4 			"/>
			<polygon class="st4" points="2944,1495 2944,1430 2887.7,1397.6 2831.5,1430 2831.5,1495 2887.7,1527.4 			"/>
			<polygon class="st4" points="3056.4,1495 3056.4,1430 3000.2,1397.6 2944,1430 2944,1495 3000.2,1527.4 			"/>
			<polygon class="st4" points="3168.9,1495 3168.9,1430 3112.6,1397.6 3056.4,1430 3056.4,1495 3112.6,1527.4 			"/>
			<polygon class="st3" points="1763.2,1592.7 1763.2,1527.8 1706.9,1495.3 1650.7,1527.8 1650.7,1592.7 1706.9,1625.2 			"/>
			<polygon class="st3" points="1875.6,1592.7 1875.6,1527.8 1819.4,1495.3 1763.2,1527.8 1763.2,1592.7 1819.4,1625.2 			"/>
			<polygon class="st3" points="1988.1,1592.7 1988.1,1527.8 1931.8,1495.3 1875.6,1527.8 1875.6,1592.7 1931.8,1625.2 			"/>
			<polygon class="st3" points="2100.5,1592.7 2100.5,1527.8 2044.3,1495.3 1988.1,1527.8 1988.1,1592.7 2044.3,1625.2 			"/>
			<polygon class="st3" points="2212.9,1592.7 2212.9,1527.8 2156.7,1495.3 2100.5,1527.8 2100.5,1592.7 2156.7,1625.2 			"/>
			<polygon class="st3" points="2325.4,1592.7 2325.4,1527.8 2269.2,1495.3 2212.9,1527.8 2212.9,1592.7 2269.2,1625.2 			"/>
			<polygon class="st3" points="2437.8,1592.7 2437.8,1527.8 2381.6,1495.3 2325.4,1527.8 2325.4,1592.7 2381.6,1625.2 			"/>
			<polygon class="st3" points="2550.3,1592.7 2550.3,1527.8 2494.1,1495.3 2437.8,1527.8 2437.8,1592.7 2494.1,1625.2 			"/>
			<polygon class="st3" points="2662.7,1592.7 2662.7,1527.8 2606.5,1495.3 2550.3,1527.8 2550.3,1592.7 2606.5,1625.2 			"/>
			<polygon class="st3" points="2775.2,1592.7 2775.2,1527.8 2719,1495.3 2662.7,1527.8 2662.7,1592.7 2719,1625.2 			"/>
			<polygon class="st3" points="2887.6,1592.7 2887.6,1527.8 2831.4,1495.3 2775.2,1527.8 2775.2,1592.7 2831.4,1625.2 			"/>
			<polygon class="st3" points="3000.1,1592.7 3000.1,1527.8 2943.9,1495.3 2887.6,1527.8 2887.6,1592.7 2943.9,1625.2 			"/>
			<polygon class="st3" points="3112.5,1592.7 3112.5,1527.8 3056.3,1495.3 3000.1,1527.8 3000.1,1592.7 3056.3,1625.2 			"/>
			<polygon class="st4" points="1819.5,1689.7 1819.5,1624.8 1763.3,1592.3 1707,1624.8 1707,1689.7 1763.3,1722.2 			"/>
			<polygon class="st4" points="1931.9,1689.7 1931.9,1624.8 1875.7,1592.3 1819.5,1624.8 1819.5,1689.7 1875.7,1722.2 			"/>
			<polygon class="st4" points="2044.4,1689.7 2044.4,1624.8 1988.2,1592.3 1931.9,1624.8 1931.9,1689.7 1988.2,1722.2 			"/>
			<polygon class="st4" points="2156.8,1689.7 2156.8,1624.8 2100.6,1592.3 2044.4,1624.8 2044.4,1689.7 2100.6,1722.2 			"/>
			<polygon class="st4" points="2269.3,1689.7 2269.3,1624.8 2213.1,1592.3 2156.8,1624.8 2156.8,1689.7 2213.1,1722.2 			"/>
			<polygon class="st4" points="2381.7,1689.7 2381.7,1624.8 2325.5,1592.3 2269.3,1624.8 2269.3,1689.7 2325.5,1722.2 			"/>
			<polygon class="st4" points="2494.2,1689.7 2494.2,1624.8 2438,1592.3 2381.7,1624.8 2381.7,1689.7 2438,1722.2 			"/>
			<polygon class="st4" points="2606.6,1689.7 2606.6,1624.8 2550.4,1592.3 2494.2,1624.8 2494.2,1689.7 2550.4,1722.2 			"/>
			<polygon class="st4" points="2719.1,1689.7 2719.1,1624.8 2662.8,1592.3 2606.6,1624.8 2606.6,1689.7 2662.8,1722.2 			"/>
			<polygon class="st4" points="2831.5,1689.7 2831.5,1624.8 2775.3,1592.3 2719.1,1624.8 2719.1,1689.7 2775.3,1722.2 			"/>
			<polygon class="st4" points="2944,1689.7 2944,1624.8 2887.7,1592.3 2831.5,1624.8 2831.5,1689.7 2887.7,1722.2 			"/>
			<polygon class="st4" points="3056.4,1689.7 3056.4,1624.8 3000.2,1592.3 2944,1624.8 2944,1689.7 3000.2,1722.2 			"/>
			<polygon class="st4" points="3168.9,1689.7 3168.9,1624.8 3112.6,1592.3 3056.4,1624.8 3056.4,1689.7 3112.6,1722.2 			"/>
			<polygon class="st3" points="1763.2,1787.1 1763.2,1722.2 1706.9,1689.7 1650.7,1722.2 1650.7,1787.1 1706.9,1819.6 			"/>
			<polygon class="st3" points="1875.6,1787.1 1875.6,1722.2 1819.4,1689.7 1763.2,1722.2 1763.2,1787.1 1819.4,1819.6 			"/>
			<polygon class="st3" points="1988.1,1787.1 1988.1,1722.2 1931.8,1689.7 1875.6,1722.2 1875.6,1787.1 1931.8,1819.6 			"/>
			<polygon class="st3" points="2100.5,1787.1 2100.5,1722.2 2044.3,1689.7 1988.1,1722.2 1988.1,1787.1 2044.3,1819.6 			"/>
			<polygon class="st3" points="2212.9,1787.1 2212.9,1722.2 2156.7,1689.7 2100.5,1722.2 2100.5,1787.1 2156.7,1819.6 			"/>
			<polygon class="st3" points="2325.4,1787.1 2325.4,1722.2 2269.2,1689.7 2212.9,1722.2 2212.9,1787.1 2269.2,1819.6 			"/>
			<polygon class="st3" points="2437.8,1787.1 2437.8,1722.2 2381.6,1689.7 2325.4,1722.2 2325.4,1787.1 2381.6,1819.6 			"/>
			<polygon class="st3" points="2550.3,1787.1 2550.3,1722.2 2494.1,1689.7 2437.8,1722.2 2437.8,1787.1 2494.1,1819.6 			"/>
			<polygon class="st3" points="2662.7,1787.1 2662.7,1722.2 2606.5,1689.7 2550.3,1722.2 2550.3,1787.1 2606.5,1819.6 			"/>
			<polygon class="st3" points="2775.2,1787.1 2775.2,1722.2 2719,1689.7 2662.7,1722.2 2662.7,1787.1 2719,1819.6 			"/>
			<polygon class="st3" points="2887.6,1787.1 2887.6,1722.2 2831.4,1689.7 2775.2,1722.2 2775.2,1787.1 2831.4,1819.6 			"/>
			<polygon class="st3" points="3000.1,1787.1 3000.1,1722.2 2943.9,1689.7 2887.6,1722.2 2887.6,1787.1 2943.9,1819.6 			"/>
			<polygon class="st3" points="3112.5,1787.1 3112.5,1722.2 3056.3,1689.7 3000.1,1722.2 3000.1,1787.1 3056.3,1819.6 			"/>
			<polygon class="st4" points="1819.5,1884.1 1819.5,1819.2 1763.3,1786.7 1707,1819.2 1707,1884.1 1763.3,1916.6 			"/>
			<polygon class="st4" points="1931.9,1884.1 1931.9,1819.2 1875.7,1786.7 1819.5,1819.2 1819.5,1884.1 1875.7,1916.6 			"/>
			<polygon class="st4" points="2044.4,1884.1 2044.4,1819.2 1988.2,1786.7 1931.9,1819.2 1931.9,1884.1 1988.2,1916.6 			"/>
			<polygon class="st4" points="2156.8,1884.1 2156.8,1819.2 2100.6,1786.7 2044.4,1819.2 2044.4,1884.1 2100.6,1916.6 			"/>
			<polygon class="st4" points="2269.3,1884.1 2269.3,1819.2 2213.1,1786.7 2156.8,1819.2 2156.8,1884.1 2213.1,1916.6 			"/>
			<polygon class="st4" points="2381.7,1884.1 2381.7,1819.2 2325.5,1786.7 2269.3,1819.2 2269.3,1884.1 2325.5,1916.6 			"/>
			<polygon class="st4" points="2494.2,1884.1 2494.2,1819.2 2438,1786.7 2381.7,1819.2 2381.7,1884.1 2438,1916.6 			"/>
			<polygon class="st4" points="2606.6,1884.1 2606.6,1819.2 2550.4,1786.7 2494.2,1819.2 2494.2,1884.1 2550.4,1916.6 			"/>
			<polygon class="st4" points="2719.1,1884.1 2719.1,1819.2 2662.8,1786.7 2606.6,1819.2 2606.6,1884.1 2662.8,1916.6 			"/>
			<polygon class="st4" points="2831.5,1884.1 2831.5,1819.2 2775.3,1786.7 2719.1,1819.2 2719.1,1884.1 2775.3,1916.6 			"/>
			<polygon class="st4" points="2944,1884.1 2944,1819.2 2887.7,1786.7 2831.5,1819.2 2831.5,1884.1 2887.7,1916.6 			"/>
			<polygon class="st4" points="3056.4,1884.1 3056.4,1819.2 3000.2,1786.7 2944,1819.2 2944,1884.1 3000.2,1916.6 			"/>
			<polygon class="st4" points="3168.9,1884.1 3168.9,1819.2 3112.6,1786.7 3056.4,1819.2 3056.4,1884.1 3112.6,1916.6 			"/>
			<polygon class="st3" points="1763.2,1981.8 1763.2,1916.9 1706.9,1884.5 1650.7,1916.9 1650.7,1981.8 1706.9,2014.3 			"/>
			<polygon class="st3" points="1875.6,1981.8 1875.6,1916.9 1819.4,1884.5 1763.2,1916.9 1763.2,1981.8 1819.4,2014.3 			"/>
			<polygon class="st3" points="1988.1,1981.8 1988.1,1916.9 1931.8,1884.5 1875.6,1916.9 1875.6,1981.8 1931.8,2014.3 			"/>
			<polygon class="st3" points="2100.5,1981.8 2100.5,1916.9 2044.3,1884.5 1988.1,1916.9 1988.1,1981.8 2044.3,2014.3 			"/>
			<polygon class="st3" points="2212.9,1981.8 2212.9,1916.9 2156.7,1884.5 2100.5,1916.9 2100.5,1981.8 2156.7,2014.3 			"/>
			<polygon class="st3" points="2325.4,1981.8 2325.4,1916.9 2269.2,1884.5 2212.9,1916.9 2212.9,1981.8 2269.2,2014.3 			"/>
			<polygon class="st3" points="2437.8,1981.8 2437.8,1916.9 2381.6,1884.5 2325.4,1916.9 2325.4,1981.8 2381.6,2014.3 			"/>
			<polygon class="st3" points="2550.3,1981.8 2550.3,1916.9 2494.1,1884.5 2437.8,1916.9 2437.8,1981.8 2494.1,2014.3 			"/>
			<polygon class="st3" points="2662.7,1981.8 2662.7,1916.9 2606.5,1884.5 2550.3,1916.9 2550.3,1981.8 2606.5,2014.3 			"/>
			<polygon class="st3" points="2775.2,1981.8 2775.2,1916.9 2719,1884.5 2662.7,1916.9 2662.7,1981.8 2719,2014.3 			"/>
			<polygon class="st3" points="2887.6,1981.8 2887.6,1916.9 2831.4,1884.5 2775.2,1916.9 2775.2,1981.8 2831.4,2014.3 			"/>
			<polygon class="st3" points="3000.1,1981.8 3000.1,1916.9 2943.9,1884.5 2887.6,1916.9 2887.6,1981.8 2943.9,2014.3 			"/>
			<polygon class="st3" points="3112.5,1981.8 3112.5,1916.9 3056.3,1884.5 3000.1,1916.9 3000.1,1981.8 3056.3,2014.3 			"/>
			<polygon class="st4" points="1819.5,2078.9 1819.5,2013.9 1763.3,1981.5 1707,2013.9 1707,2078.9 1763.3,2111.3 			"/>
			<polygon class="st4" points="1931.9,2078.9 1931.9,2013.9 1875.7,1981.5 1819.5,2013.9 1819.5,2078.9 1875.7,2111.3 			"/>
			<polygon class="st4" points="2044.4,2078.9 2044.4,2013.9 1988.2,1981.5 1931.9,2013.9 1931.9,2078.9 1988.2,2111.3 			"/>
			<polygon class="st4" points="2156.8,2078.9 2156.8,2013.9 2100.6,1981.5 2044.4,2013.9 2044.4,2078.9 2100.6,2111.3 			"/>
			<polygon class="st4" points="2269.3,2078.9 2269.3,2013.9 2213.1,1981.5 2156.8,2013.9 2156.8,2078.9 2213.1,2111.3 			"/>
			<polygon class="st4" points="2381.7,2078.9 2381.7,2013.9 2325.5,1981.5 2269.3,2013.9 2269.3,2078.9 2325.5,2111.3 			"/>
			<polygon class="st4" points="2494.2,2078.9 2494.2,2013.9 2438,1981.5 2381.7,2013.9 2381.7,2078.9 2438,2111.3 			"/>
			<polygon class="st4" points="2606.6,2078.9 2606.6,2013.9 2550.4,1981.5 2494.2,2013.9 2494.2,2078.9 2550.4,2111.3 			"/>
			<polygon class="st4" points="2719.1,2078.9 2719.1,2013.9 2662.8,1981.5 2606.6,2013.9 2606.6,2078.9 2662.8,2111.3 			"/>
			<polygon class="st4" points="2831.5,2078.9 2831.5,2013.9 2775.3,1981.5 2719.1,2013.9 2719.1,2078.9 2775.3,2111.3 			"/>
			<polygon class="st4" points="2944,2078.9 2944,2013.9 2887.7,1981.5 2831.5,2013.9 2831.5,2078.9 2887.7,2111.3 			"/>
			<polygon class="st4" points="3056.4,2078.9 3056.4,2013.9 3000.2,1981.5 2944,2013.9 2944,2078.9 3000.2,2111.3 			"/>
			<polygon class="st4" points="3168.9,2078.9 3168.9,2013.9 3112.6,1981.5 3056.4,2013.9 3056.4,2078.9 3112.6,2111.3 			"/>
			<polygon class="st3" points="1763.2,2176.6 1763.2,2111.7 1706.9,2079.2 1650.7,2111.7 1650.7,2176.6 1706.9,2209.1 			"/>
			<polygon class="st3" points="1875.6,2176.6 1875.6,2111.7 1819.4,2079.2 1763.2,2111.7 1763.2,2176.6 1819.4,2209.1 			"/>
			<polygon class="st3" points="1988.1,2176.6 1988.1,2111.7 1931.8,2079.2 1875.6,2111.7 1875.6,2176.6 1931.8,2209.1 			"/>
			<polygon class="st3" points="2100.5,2176.6 2100.5,2111.7 2044.3,2079.2 1988.1,2111.7 1988.1,2176.6 2044.3,2209.1 			"/>
			<polygon class="st3" points="2212.9,2176.6 2212.9,2111.7 2156.7,2079.2 2100.5,2111.7 2100.5,2176.6 2156.7,2209.1 			"/>
			<polygon class="st3" points="2325.4,2176.6 2325.4,2111.7 2269.2,2079.2 2212.9,2111.7 2212.9,2176.6 2269.2,2209.1 			"/>
			<polygon class="st3" points="2437.8,2176.6 2437.8,2111.7 2381.6,2079.2 2325.4,2111.7 2325.4,2176.6 2381.6,2209.1 			"/>
			<polygon class="st3" points="2550.3,2176.6 2550.3,2111.7 2494.1,2079.2 2437.8,2111.7 2437.8,2176.6 2494.1,2209.1 			"/>
			<polygon class="st3" points="2662.7,2176.6 2662.7,2111.7 2606.5,2079.2 2550.3,2111.7 2550.3,2176.6 2606.5,2209.1 			"/>
			<polygon class="st3" points="2775.2,2176.6 2775.2,2111.7 2719,2079.2 2662.7,2111.7 2662.7,2176.6 2719,2209.1 			"/>
			<polygon class="st3" points="2887.6,2176.6 2887.6,2111.7 2831.4,2079.2 2775.2,2111.7 2775.2,2176.6 2831.4,2209.1 			"/>
			<polygon class="st3" points="3000.1,2176.6 3000.1,2111.7 2943.9,2079.2 2887.6,2111.7 2887.6,2176.6 2943.9,2209.1 			"/>
			<polygon class="st3" points="3112.5,2176.6 3112.5,2111.7 3056.3,2079.2 3000.1,2111.7 3000.1,2176.6 3056.3,2209.1 			"/>
			<polygon class="st4" points="1819.5,2273.6 1819.5,2208.7 1763.3,2176.2 1707,2208.7 1707,2273.6 1763.3,2306.1 			"/>
			<polygon class="st4" points="1931.9,2273.6 1931.9,2208.7 1875.7,2176.2 1819.5,2208.7 1819.5,2273.6 1875.7,2306.1 			"/>
			<polygon class="st4" points="2044.4,2273.6 2044.4,2208.7 1988.2,2176.2 1931.9,2208.7 1931.9,2273.6 1988.2,2306.1 			"/>
			<polygon class="st4" points="2156.8,2273.6 2156.8,2208.7 2100.6,2176.2 2044.4,2208.7 2044.4,2273.6 2100.6,2306.1 			"/>
			<polygon class="st4" points="2269.3,2273.6 2269.3,2208.7 2213.1,2176.2 2156.8,2208.7 2156.8,2273.6 2213.1,2306.1 			"/>
			<polygon class="st4" points="2381.7,2273.6 2381.7,2208.7 2325.5,2176.2 2269.3,2208.7 2269.3,2273.6 2325.5,2306.1 			"/>
			<polygon class="st4" points="2494.2,2273.6 2494.2,2208.7 2438,2176.2 2381.7,2208.7 2381.7,2273.6 2438,2306.1 			"/>
			<polygon class="st4" points="2606.6,2273.6 2606.6,2208.7 2550.4,2176.2 2494.2,2208.7 2494.2,2273.6 2550.4,2306.1 			"/>
			<polygon class="st4" points="2719.1,2273.6 2719.1,2208.7 2662.8,2176.2 2606.6,2208.7 2606.6,2273.6 2662.8,2306.1 			"/>
			<polygon class="st4" points="2831.5,2273.6 2831.5,2208.7 2775.3,2176.2 2719.1,2208.7 2719.1,2273.6 2775.3,2306.1 			"/>
			<polygon class="st4" points="2944,2273.6 2944,2208.7 2887.7,2176.2 2831.5,2208.7 2831.5,2273.6 2887.7,2306.1 			"/>
			<polygon class="st4" points="3056.4,2273.6 3056.4,2208.7 3000.2,2176.2 2944,2208.7 2944,2273.6 3000.2,2306.1 			"/>
			<polygon class="st4" points="3168.9,2273.6 3168.9,2208.7 3112.6,2176.2 3056.4,2208.7 3056.4,2273.6 3112.6,2306.1 			"/>
			<polygon class="st3" points="1763.2,2371.4 1763.2,2306.4 1706.9,2274 1650.7,2306.4 1650.7,2371.4 1706.9,2403.8 			"/>
			<polygon class="st3" points="1875.6,2371.4 1875.6,2306.4 1819.4,2274 1763.2,2306.4 1763.2,2371.4 1819.4,2403.8 			"/>
			<polygon class="st3" points="1988.1,2371.4 1988.1,2306.4 1931.8,2274 1875.6,2306.4 1875.6,2371.4 1931.8,2403.8 			"/>
			<polygon class="st3" points="2100.5,2371.4 2100.5,2306.4 2044.3,2274 1988.1,2306.4 1988.1,2371.4 2044.3,2403.8 			"/>
			<polygon class="st3" points="2212.9,2371.4 2212.9,2306.4 2156.7,2274 2100.5,2306.4 2100.5,2371.4 2156.7,2403.8 			"/>
			<polygon class="st3" points="2325.4,2371.4 2325.4,2306.4 2269.2,2274 2212.9,2306.4 2212.9,2371.4 2269.2,2403.8 			"/>
			<polygon class="st3" points="2437.8,2371.4 2437.8,2306.4 2381.6,2274 2325.4,2306.4 2325.4,2371.4 2381.6,2403.8 			"/>
			<polygon class="st3" points="2550.3,2371.4 2550.3,2306.4 2494.1,2274 2437.8,2306.4 2437.8,2371.4 2494.1,2403.8 			"/>
			<polygon class="st3" points="2662.7,2371.4 2662.7,2306.4 2606.5,2274 2550.3,2306.4 2550.3,2371.4 2606.5,2403.8 			"/>
			<polygon class="st3" points="2775.2,2371.4 2775.2,2306.4 2719,2274 2662.7,2306.4 2662.7,2371.4 2719,2403.8 			"/>
			<polygon class="st3" points="2887.6,2371.4 2887.6,2306.4 2831.4,2274 2775.2,2306.4 2775.2,2371.4 2831.4,2403.8 			"/>
			<polygon class="st3" points="3000.1,2371.4 3000.1,2306.4 2943.9,2274 2887.6,2306.4 2887.6,2371.4 2943.9,2403.8 			"/>
			<polygon class="st3" points="3112.5,2371.4 3112.5,2306.4 3056.3,2274 3000.1,2306.4 3000.1,2371.4 3056.3,2403.8 			"/>
			<polygon class="st4" points="1819.5,2468.4 1819.5,2403.4 1763.3,2371 1707,2403.4 1707,2468.4 1763.3,2500.8 			"/>
			<polygon class="st4" points="1931.9,2468.4 1931.9,2403.4 1875.7,2371 1819.5,2403.4 1819.5,2468.4 1875.7,2500.8 			"/>
			<polygon class="st4" points="2044.4,2468.4 2044.4,2403.4 1988.2,2371 1931.9,2403.4 1931.9,2468.4 1988.2,2500.8 			"/>
			<polygon class="st4" points="2156.8,2468.4 2156.8,2403.4 2100.6,2371 2044.4,2403.4 2044.4,2468.4 2100.6,2500.8 			"/>
			<polygon class="st4" points="2269.3,2468.4 2269.3,2403.4 2213.1,2371 2156.8,2403.4 2156.8,2468.4 2213.1,2500.8 			"/>
			<polygon class="st4" points="2381.7,2468.4 2381.7,2403.4 2325.5,2371 2269.3,2403.4 2269.3,2468.4 2325.5,2500.8 			"/>
			<polygon class="st4" points="2494.2,2468.4 2494.2,2403.4 2438,2371 2381.7,2403.4 2381.7,2468.4 2438,2500.8 			"/>
			<polygon class="st4" points="2606.6,2468.4 2606.6,2403.4 2550.4,2371 2494.2,2403.4 2494.2,2468.4 2550.4,2500.8 			"/>
			<polygon class="st4" points="2719.1,2468.4 2719.1,2403.4 2662.8,2371 2606.6,2403.4 2606.6,2468.4 2662.8,2500.8 			"/>
			<polygon class="st4" points="2831.5,2468.4 2831.5,2403.4 2775.3,2371 2719.1,2403.4 2719.1,2468.4 2775.3,2500.8 			"/>
			<polygon class="st4" points="2944,2468.4 2944,2403.4 2887.7,2371 2831.5,2403.4 2831.5,2468.4 2887.7,2500.8 			"/>
			<polygon class="st4" points="3056.4,2468.4 3056.4,2403.4 3000.2,2371 2944,2403.4 2944,2468.4 3000.2,2500.8 			"/>
			<polygon class="st4" points="3168.9,2468.4 3168.9,2403.4 3112.6,2371 3056.4,2403.4 3056.4,2468.4 3112.6,2500.8 			"/>
		</g>
		<g>
			<circle class="st5" cx="1649.8" cy="1526.5" r="9.1"/>
			<circle class="st5" cx="1877.8" cy="1203.8" r="9.1"/>
			<circle class="st5" cx="1763.4" cy="1137.8" r="9.1"/>
			<circle class="st5" cx="2105.6" cy="1202.2" r="9.1"/>
			<circle class="st5" cx="1764.1" cy="1528.1" r="9.1"/>
			<circle class="st5" cx="1539" cy="1596.4" r="9.1"/>
			<circle class="st5" cx="1256.5" cy="1236.8" r="9.1"/>
			<circle class="st5" cx="1371.7" cy="1427" r="9.1"/>
			<circle class="st5" cx="1313.4" cy="1138.5" r="9.1"/>
			<circle class="st5" cx="1481.9" cy="1106.2" r="9.1"/>
			<circle class="st5" cx="1593.5" cy="1040.9" r="9.1"/>
			<circle class="st5" cx="1369.6" cy="1040.2" r="9.1"/>
		</g>
	</g>
</g>
<rect class="st6" width="3365" height="2653.6"/>
</svg>
