<!-- Generator: Adobe Illustrator 22.0.0, SVG Export Plug-In  -->
<svg version="1.1"
	 xmlns="http://www.w3.org/2000/svg" xmlns:xlink="http://www.w3.org/1999/xlink" xmlns:a="http://ns.adobe.com/AdobeSVGViewerExtensions/3.0/"
	 x="0px" y="0px" width="3365px" height="2653.6px" viewBox="0 0 3365 2653.6"
	 style="overflow:scroll;enable-background:new 0 0 3365 2653.6;" xml:space="preserve">
<style type="text/css">
	.st0{opacity:0.16;}
	.st1{fill:#FFFFFF;}
	.st2{fill:none;}
</style>
<defs>
</defs>
<g id="Layer_5_copy">
	<g class="st0">
		<ellipse class="st1" cx="1822.3" cy="1522.3" rx="7.6" ry="7.8"/>
		<ellipse class="st1" cx="1497.7" cy="1289.6" rx="7.6" ry="7.8"/>
		<ellipse class="st1" cx="1580" cy="1774.2" rx="7.6" ry="7.8"/>
		<ellipse class="st1" cx="1966.6" cy="1615.5" rx="7.6" ry="7.8"/>
		<ellipse class="st1" cx="2477.9" cy="1393.2" rx="7.6" ry="7.8"/>
		<ellipse class="st1" cx="2632.6" cy="2173.4" rx="7.6" ry="7.8"/>
		<ellipse class="st1" cx="2844.8" cy="280.2" rx="7.6" ry="7.8"/>
		<ellipse class="st1" cx="1899.3" cy="427.7" rx="7.6" ry="7.8"/>
		<ellipse class="st1" cx="2504.2" cy="1647.3" rx="7.6" ry="7.8"/>
		<ellipse class="st1" cx="1937.4" cy="1948.8" rx="7.6" ry="7.8"/>
		<ellipse class="st1" cx="624.9" cy="1575.2" rx="7.6" ry="7.8"/>
		<ellipse class="st1" cx="386.3" cy="1465.1" rx="7.6" ry="7.8"/>
		<ellipse class="st1" cx="1671.8" cy="2320.9" rx="7.6" ry="7.8"/>
		<ellipse class="st1" cx="922.5" cy="559.1" rx="7.6" ry="7.8"/>
		<ellipse class="st1" cx="1164.6" cy="1837.9" rx="7.6" ry="7.8"/>
		<ellipse class="st1" cx="1036.8" cy="1405.7" rx="7.6" ry="7.8"/>
		<ellipse class="st1" cx="1425.5" cy="1940.3" rx="7.6" ry="7.8"/>
		<ellipse class="st1" cx="1959.8" cy="1723.9" rx="7.6" ry="7.8"/>
		<ellipse class="st1" cx="1164" cy="2419.1" rx="7.6" ry="7.8"/>
		<ellipse class="st1" cx="2270.4" cy="964.4" rx="7.6" ry="7.8"/>
		<ellipse class="st1" cx="2824" cy="879.7" rx="7.6" ry="7.8"/>
		<ellipse class="st1" cx="1126.5" cy="742.7" rx="7.6" ry="7.8"/>
		<ellipse class="st1" cx="1775.1" cy="831.7" rx="7.6" ry="7.8"/>
		<ellipse class="st1" cx="2144.2" cy="702.4" rx="7.6" ry="7.8"/>
		<ellipse class="st1" cx="2957.2" cy="1520.2" rx="7.6" ry="7.8"/>
		<ellipse class="st1" cx="1552.4" cy="1181.2" rx="4.9" ry="4.9"/>
		<ellipse class="st1" cx="1671.1" cy="1485.6" rx="4.9" ry="4.9"/>
		<ellipse class="st1" cx="1953.4" cy="1087.6" rx="4.9" ry="4.9"/>
		<ellipse class="st1" cx="1771.1" cy="1287.7" rx="4.9" ry="4.9"/>
		<ellipse class="st1" cx="1989" cy="1312.2" rx="4.9" ry="4.9"/>
		<ellipse class="st1" cx="2268.3" cy="1730.8" rx="4.9" ry="4.9"/>
		<ellipse class="st1" cx="2554.9" cy="1132.5" rx="4.9" ry="4.9"/>
		<ellipse class="st1" cx="2341.2" cy="305.6" rx="4.9" ry="4.9"/>
		<ellipse class="st1" cx="1621.8" cy="1644.4" rx="4.9" ry="4.9"/>
		<ellipse class="st1" cx="1481.8" cy="1519.9" rx="4.9" ry="4.9"/>
		<ellipse class="st1" cx="1552.9" cy="1424.4" rx="4.9" ry="4.9"/>
		<ellipse class="st1" cx="1361" cy="1099.3" rx="4.9" ry="4.9"/>
		<ellipse class="st1" cx="1350.6" cy="1248.2" rx="4.9" ry="4.9"/>
		<ellipse class="st1" cx="1187.5" cy="271" rx="4.9" ry="4.9"/>
		<ellipse class="st1" cx="1694.6" cy="1108.5" rx="4.9" ry="4.9"/>
		<ellipse class="st1" cx="1437.5" cy="812.1" rx="4.9" ry="4.9"/>
		<ellipse class="st1" cx="1176.4" cy="1209.5" rx="4.9" ry="4.9"/>
		<ellipse class="st1" cx="1216.7" cy="1478.5" rx="4.9" ry="4.9"/>
		<ellipse class="st1" cx="1438" cy="609.2" rx="4.9" ry="4.9"/>
		<ellipse class="st1" cx="959.3" cy="1744" rx="4.9" ry="4.9"/>
		<ellipse class="st1" cx="513.9" cy="368.4" rx="4.9" ry="4.9"/>
		<ellipse class="st1" cx="1320.7" cy="1661.4" rx="4.9" ry="4.9"/>
		<ellipse class="st1" cx="831" cy="2203" rx="4.9" ry="4.9"/>
		<ellipse class="st1" cx="423.1" cy="2366.8" rx="4.9" ry="4.9"/>
		<ellipse class="st1" cx="1041.2" cy="1527.9" rx="4.9" ry="4.9"/>
		<ellipse class="st1" cx="731.8" cy="1276.5" rx="4.9" ry="4.9"/>
		<ellipse class="st1" cx="606.9" cy="859.2" rx="4.9" ry="4.9"/>
		<ellipse class="st1" cx="440.4" cy="1041.4" rx="4.9" ry="4.9"/>
		<ellipse class="st1" cx="539.6" cy="2063.2" rx="4.9" ry="4.9"/>
		<ellipse class="st1" cx="962.1" cy="1099.3" rx="4.9" ry="4.9"/>
		<ellipse class="st1" cx="2112.3" cy="1116.2" rx="4.9" ry="4.9"/>
		<ellipse class="st1" cx="2197.6" cy="1521.6" rx="4.9" ry="4.9"/>
		<ellipse class="st1" cx="2274.6" cy="1938.9" rx="4.9" ry="4.9"/>
		<ellipse class="st1" cx="2169.8" cy="2325.2" rx="4.9" ry="4.9"/>
		<ellipse class="st1" cx="2299.6" cy="1286.4" rx="4.9" ry="4.9"/>
		<ellipse class="st1" cx="2694.3" cy="491.3" rx="4.9" ry="4.9"/>
		<ellipse class="st1" cx="1167.4" cy="1097.9" rx="4.9" ry="4.9"/>
		<ellipse class="st1" cx="1028.7" cy="1328.1" rx="4.9" ry="4.9"/>
		<ellipse class="st1" cx="1346.6" cy="897.5" rx="4.9" ry="4.9"/>
	</g>
</g>
<rect class="st2" width="3365" height="2653.6"/>
</svg>
