<!-- Generator: Adobe Illustrator 22.0.0, SVG Export Plug-In  -->
<svg version="1.1"
	 xmlns="http://www.w3.org/2000/svg" xmlns:xlink="http://www.w3.org/1999/xlink" xmlns:a="http://ns.adobe.com/AdobeSVGViewerExtensions/3.0/"
	 x="0px" y="0px" width="4543px" height="3583px" viewBox="0 0 4543 3583"
	 style="overflow:scroll;enable-background:new 0 0 4543 3583;" xml:space="preserve">
<style type="text/css">
	.st0{opacity:0.24;}
	.st1{display:none;fill:none;stroke:#FFFFFF;stroke-width:2;stroke-linejoin:round;stroke-miterlimit:10;}
	.st2{display:none;fill:none;stroke:#FFFFFF;stroke-width:2;stroke-miterlimit:10;}
	.st3{fill:none;stroke:#FFFFFF;stroke-width:2;stroke-linejoin:round;stroke-miterlimit:10;}
	.st4{fill:none;stroke:#FFFFFF;stroke-width:2;stroke-miterlimit:10;}
</style>
<defs>
</defs>
<g class="st0">
	<polygon class="st1" points="2203,1664.3 2203,1544 2098.8,1483.9 1994.7,1544 1994.7,1664.3 2098.8,1724.4 	"/>
	<polygon class="st1" points="2411.3,1664.3 2411.3,1544 2307.1,1483.9 2203,1544 2203,1664.3 2307.1,1724.4 	"/>
	<polygon class="st2" points="2098.6,1845.4 2098.6,1725.1 1994.5,1665 1890.3,1725.1 1890.3,1845.4 1994.5,1905.5 	"/>
	<polygon class="st2" points="2306.9,1845.4 2306.9,1725.1 2202.8,1665 2098.6,1725.1 2098.6,1845.4 2202.8,1905.5 	"/>
	<polygon class="st1" points="2203,2025.1 2203,1904.8 2098.8,1844.7 1994.7,1904.8 1994.7,2025.1 2098.8,2085.2 	"/>
	<polygon class="st1" points="2411.3,2025.1 2411.3,1904.8 2307.1,1844.7 2203,1904.8 2203,2025.1 2307.1,2085.2 	"/>
	<polygon class="st2" points="2306.9,2206.2 2306.9,2085.9 2202.8,2025.8 2098.6,2085.9 2098.6,2206.2 2202.8,2266.3 	"/>
	<polygon class="st1" points="2620.2,1664.3 2620.2,1544 2516.1,1483.9 2411.9,1544 2411.9,1664.3 2516.1,1724.4 	"/>
	<polygon class="st2" points="2515.9,1845.4 2515.9,1725.1 2411.7,1665 2307.6,1725.1 2307.6,1845.4 2411.7,1905.5 	"/>
	<polygon class="st2" points="2724.2,1845.4 2724.2,1725.1 2620,1665 2515.9,1725.1 2515.9,1845.4 2620,1905.5 	"/>
	<polygon class="st1" points="2620.2,2025.1 2620.2,1904.8 2516.1,1844.7 2411.9,1904.8 2411.9,2025.1 2516.1,2085.2 	"/>
	<polygon class="st2" points="2515.9,2206.2 2515.9,2085.9 2411.7,2025.8 2307.6,2085.9 2307.6,2206.2 2411.7,2266.3 	"/>
	<g>
		<polygon class="st3" points="328.1,221.1 328.1,100.8 224,40.7 119.8,100.8 119.8,221.1 224,281.3 		"/>
		<polygon class="st3" points="536.5,221.1 536.5,100.8 432.3,40.7 328.1,100.8 328.1,221.1 432.3,281.3 		"/>
		<polygon class="st3" points="744.8,221.1 744.8,100.8 640.6,40.7 536.5,100.8 536.5,221.1 640.6,281.3 		"/>
		<polygon class="st3" points="953.1,221.1 953.1,100.8 848.9,40.7 744.8,100.8 744.8,221.1 848.9,281.3 		"/>
		<polygon class="st3" points="1161.4,221.1 1161.4,100.8 1057.2,40.7 953.1,100.8 953.1,221.1 1057.2,281.3 		"/>
		<polygon class="st3" points="1369.7,221.1 1369.7,100.8 1265.6,40.7 1161.4,100.8 1161.4,221.1 1265.6,281.3 		"/>
		<polygon class="st3" points="1578,221.1 1578,100.8 1473.9,40.7 1369.7,100.8 1369.7,221.1 1473.9,281.3 		"/>
		<polygon class="st3" points="1786.4,221.1 1786.4,100.8 1682.2,40.7 1578,100.8 1578,221.1 1682.2,281.3 		"/>
		<polygon class="st3" points="1994.7,221.1 1994.7,100.8 1890.5,40.7 1786.4,100.8 1786.4,221.1 1890.5,281.3 		"/>
		<polygon class="st3" points="2203,221.1 2203,100.8 2098.8,40.7 1994.7,100.8 1994.7,221.1 2098.8,281.3 		"/>
		<polygon class="st3" points="2411.3,221.1 2411.3,100.8 2307.1,40.7 2203,100.8 2203,221.1 2307.1,281.3 		"/>
		<polygon class="st4" points="432.1,402.2 432.1,281.9 327.9,221.8 223.8,281.9 223.8,402.2 327.9,462.3 		"/>
		<polygon class="st4" points="640.4,402.2 640.4,281.9 536.2,221.8 432.1,281.9 432.1,402.2 536.2,462.3 		"/>
		<polygon class="st4" points="848.7,402.2 848.7,281.9 744.6,221.8 640.4,281.9 640.4,402.2 744.6,462.3 		"/>
		<polygon class="st4" points="1057,402.2 1057,281.9 952.9,221.8 848.7,281.9 848.7,402.2 952.9,462.3 		"/>
		<polygon class="st4" points="1265.4,402.2 1265.4,281.9 1161.2,221.8 1057,281.9 1057,402.2 1161.2,462.3 		"/>
		<polygon class="st4" points="1473.7,402.2 1473.7,281.9 1369.5,221.8 1265.4,281.9 1265.4,402.2 1369.5,462.3 		"/>
		<polygon class="st4" points="1682,402.2 1682,281.9 1577.8,221.8 1473.7,281.9 1473.7,402.2 1577.8,462.3 		"/>
		<polygon class="st4" points="1890.3,402.2 1890.3,281.9 1786.1,221.8 1682,281.9 1682,402.2 1786.1,462.3 		"/>
		<polygon class="st4" points="2098.6,402.2 2098.6,281.9 1994.5,221.8 1890.3,281.9 1890.3,402.2 1994.5,462.3 		"/>
		<polygon class="st4" points="2306.9,402.2 2306.9,281.9 2202.8,221.8 2098.6,281.9 2098.6,402.2 2202.8,462.3 		"/>
		<polygon class="st3" points="328.1,581.9 328.1,461.6 224,401.5 119.8,461.6 119.8,581.9 224,642 		"/>
		<polygon class="st3" points="536.5,581.9 536.5,461.6 432.3,401.5 328.1,461.6 328.1,581.9 432.3,642 		"/>
		<polygon class="st3" points="744.8,581.9 744.8,461.6 640.6,401.5 536.5,461.6 536.5,581.9 640.6,642 		"/>
		<polygon class="st3" points="953.1,581.9 953.1,461.6 848.9,401.5 744.8,461.6 744.8,581.9 848.9,642 		"/>
		<polygon class="st3" points="1161.4,581.9 1161.4,461.6 1057.2,401.5 953.1,461.6 953.1,581.9 1057.2,642 		"/>
		<polygon class="st3" points="1369.7,581.9 1369.7,461.6 1265.6,401.5 1161.4,461.6 1161.4,581.9 1265.6,642 		"/>
		<polygon class="st3" points="1578,581.9 1578,461.6 1473.9,401.5 1369.7,461.6 1369.7,581.9 1473.9,642 		"/>
		<polygon class="st3" points="1786.4,581.9 1786.4,461.6 1682.2,401.5 1578,461.6 1578,581.9 1682.2,642 		"/>
		<polygon class="st3" points="1994.7,581.9 1994.7,461.6 1890.5,401.5 1786.4,461.6 1786.4,581.9 1890.5,642 		"/>
		<polygon class="st3" points="2203,581.9 2203,461.6 2098.8,401.5 1994.7,461.6 1994.7,581.9 2098.8,642 		"/>
		<polygon class="st3" points="2411.3,581.9 2411.3,461.6 2307.1,401.5 2203,461.6 2203,581.9 2307.1,642 		"/>
		<polygon class="st4" points="432.1,763 432.1,642.7 327.9,582.6 223.8,642.7 223.8,763 327.9,823.1 		"/>
		<polygon class="st4" points="640.4,763 640.4,642.7 536.2,582.6 432.1,642.7 432.1,763 536.2,823.1 		"/>
		<polygon class="st4" points="848.7,763 848.7,642.7 744.6,582.6 640.4,642.7 640.4,763 744.6,823.1 		"/>
		<polygon class="st4" points="1057,763 1057,642.7 952.9,582.6 848.7,642.7 848.7,763 952.9,823.1 		"/>
		<polygon class="st4" points="1265.4,763 1265.4,642.7 1161.2,582.6 1057,642.7 1057,763 1161.2,823.1 		"/>
		<polygon class="st4" points="1473.7,763 1473.7,642.7 1369.5,582.6 1265.4,642.7 1265.4,763 1369.5,823.1 		"/>
		<polygon class="st4" points="1682,763 1682,642.7 1577.8,582.6 1473.7,642.7 1473.7,763 1577.8,823.1 		"/>
		<polygon class="st4" points="1890.3,763 1890.3,642.7 1786.1,582.6 1682,642.7 1682,763 1786.1,823.1 		"/>
		<polygon class="st4" points="2098.6,763 2098.6,642.7 1994.5,582.6 1890.3,642.7 1890.3,763 1994.5,823.1 		"/>
		<polygon class="st4" points="2306.9,763 2306.9,642.7 2202.8,582.6 2098.6,642.7 2098.6,763 2202.8,823.1 		"/>
		<polygon class="st3" points="328.1,942.7 328.1,822.4 224,762.3 119.8,822.4 119.8,942.7 224,1002.8 		"/>
		<polygon class="st3" points="536.5,942.7 536.5,822.4 432.3,762.3 328.1,822.4 328.1,942.7 432.3,1002.8 		"/>
		<polygon class="st3" points="744.8,942.7 744.8,822.4 640.6,762.3 536.5,822.4 536.5,942.7 640.6,1002.8 		"/>
		<polygon class="st3" points="953.1,942.7 953.1,822.4 848.9,762.3 744.8,822.4 744.8,942.7 848.9,1002.8 		"/>
		<polygon class="st3" points="1161.4,942.7 1161.4,822.4 1057.2,762.3 953.1,822.4 953.1,942.7 1057.2,1002.8 		"/>
		<polygon class="st3" points="1369.7,942.7 1369.7,822.4 1265.6,762.3 1161.4,822.4 1161.4,942.7 1265.6,1002.8 		"/>
		<polygon class="st3" points="1578,942.7 1578,822.4 1473.9,762.3 1369.7,822.4 1369.7,942.7 1473.9,1002.8 		"/>
		<polygon class="st3" points="1786.4,942.7 1786.4,822.4 1682.2,762.3 1578,822.4 1578,942.7 1682.2,1002.8 		"/>
		<polygon class="st3" points="1994.7,942.7 1994.7,822.4 1890.5,762.3 1786.4,822.4 1786.4,942.7 1890.5,1002.8 		"/>
		<polygon class="st3" points="2203,942.7 2203,822.4 2098.8,762.3 1994.7,822.4 1994.7,942.7 2098.8,1002.8 		"/>
		<polygon class="st3" points="2411.3,942.7 2411.3,822.4 2307.1,762.3 2203,822.4 2203,942.7 2307.1,1002.8 		"/>
		<polygon class="st4" points="432.1,1123.8 432.1,1003.5 327.9,943.4 223.8,1003.5 223.8,1123.8 327.9,1183.9 		"/>
		<polygon class="st4" points="640.4,1123.8 640.4,1003.5 536.2,943.4 432.1,1003.5 432.1,1123.8 536.2,1183.9 		"/>
		<polygon class="st4" points="848.7,1123.8 848.7,1003.5 744.6,943.4 640.4,1003.5 640.4,1123.8 744.6,1183.9 		"/>
		<polygon class="st4" points="1057,1123.8 1057,1003.5 952.9,943.4 848.7,1003.5 848.7,1123.8 952.9,1183.9 		"/>
		<polygon class="st4" points="1265.4,1123.8 1265.4,1003.5 1161.2,943.4 1057,1003.5 1057,1123.8 1161.2,1183.9 		"/>
		<polygon class="st4" points="1473.7,1123.8 1473.7,1003.5 1369.5,943.4 1265.4,1003.5 1265.4,1123.8 1369.5,1183.9 		"/>
		<polygon class="st4" points="1682,1123.8 1682,1003.5 1577.8,943.4 1473.7,1003.5 1473.7,1123.8 1577.8,1183.9 		"/>
		<polygon class="st4" points="1890.3,1123.8 1890.3,1003.5 1786.1,943.4 1682,1003.5 1682,1123.8 1786.1,1183.9 		"/>
		<polygon class="st4" points="2098.6,1123.8 2098.6,1003.5 1994.5,943.4 1890.3,1003.5 1890.3,1123.8 1994.5,1183.9 		"/>
		<polygon class="st4" points="2306.9,1123.8 2306.9,1003.5 2202.8,943.4 2098.6,1003.5 2098.6,1123.8 2202.8,1183.9 		"/>
		<polygon class="st3" points="328.1,1303.5 328.1,1183.2 224,1123.1 119.8,1183.2 119.8,1303.5 224,1363.6 		"/>
		<polygon class="st3" points="536.5,1303.5 536.5,1183.2 432.3,1123.1 328.1,1183.2 328.1,1303.5 432.3,1363.6 		"/>
		<polygon class="st3" points="744.8,1303.5 744.8,1183.2 640.6,1123.1 536.5,1183.2 536.5,1303.5 640.6,1363.6 		"/>
		<polygon class="st3" points="953.1,1303.5 953.1,1183.2 848.9,1123.1 744.8,1183.2 744.8,1303.5 848.9,1363.6 		"/>
		<polygon class="st3" points="1161.4,1303.5 1161.4,1183.2 1057.2,1123.1 953.1,1183.2 953.1,1303.5 1057.2,1363.6 		"/>
		<polygon class="st3" points="1369.7,1303.5 1369.7,1183.2 1265.6,1123.1 1161.4,1183.2 1161.4,1303.5 1265.6,1363.6 		"/>
		<polygon class="st3" points="1578,1303.5 1578,1183.2 1473.9,1123.1 1369.7,1183.2 1369.7,1303.5 1473.9,1363.6 		"/>
		<polygon class="st3" points="1786.4,1303.5 1786.4,1183.2 1682.2,1123.1 1578,1183.2 1578,1303.5 1682.2,1363.6 		"/>
		<polygon class="st3" points="1994.7,1303.5 1994.7,1183.2 1890.5,1123.1 1786.4,1183.2 1786.4,1303.5 1890.5,1363.6 		"/>
		<polygon class="st3" points="2203,1303.5 2203,1183.2 2098.8,1123.1 1994.7,1183.2 1994.7,1303.5 2098.8,1363.6 		"/>
		<polygon class="st3" points="2411.3,1303.5 2411.3,1183.2 2307.1,1123.1 2203,1183.2 2203,1303.5 2307.1,1363.6 		"/>
		<polygon class="st4" points="432.1,1484.6 432.1,1364.3 327.9,1304.2 223.8,1364.3 223.8,1484.6 327.9,1544.7 		"/>
		<polygon class="st4" points="640.4,1484.6 640.4,1364.3 536.2,1304.2 432.1,1364.3 432.1,1484.6 536.2,1544.7 		"/>
		<polygon class="st4" points="848.7,1484.6 848.7,1364.3 744.6,1304.2 640.4,1364.3 640.4,1484.6 744.6,1544.7 		"/>
		<polygon class="st4" points="1057,1484.6 1057,1364.3 952.9,1304.2 848.7,1364.3 848.7,1484.6 952.9,1544.7 		"/>
		<polygon class="st4" points="1265.4,1484.6 1265.4,1364.3 1161.2,1304.2 1057,1364.3 1057,1484.6 1161.2,1544.7 		"/>
		<polygon class="st4" points="1473.7,1484.6 1473.7,1364.3 1369.5,1304.2 1265.4,1364.3 1265.4,1484.6 1369.5,1544.7 		"/>
		<polygon class="st4" points="1682,1484.6 1682,1364.3 1577.8,1304.2 1473.7,1364.3 1473.7,1484.6 1577.8,1544.7 		"/>
		<polygon class="st4" points="1890.3,1484.6 1890.3,1364.3 1786.1,1304.2 1682,1364.3 1682,1484.6 1786.1,1544.7 		"/>
		<polygon class="st4" points="2098.6,1484.6 2098.6,1364.3 1994.5,1304.2 1890.3,1364.3 1890.3,1484.6 1994.5,1544.7 		"/>
		<polygon class="st4" points="2306.9,1484.6 2306.9,1364.3 2202.8,1304.2 2098.6,1364.3 2098.6,1484.6 2202.8,1544.7 		"/>
		<polygon class="st3" points="328.1,1664.3 328.1,1544 224,1483.9 119.8,1544 119.8,1664.3 224,1724.4 		"/>
		<polygon class="st3" points="536.5,1664.3 536.5,1544 432.3,1483.9 328.1,1544 328.1,1664.3 432.3,1724.4 		"/>
		<polygon class="st3" points="744.8,1664.3 744.8,1544 640.6,1483.9 536.5,1544 536.5,1664.3 640.6,1724.4 		"/>
		<polygon class="st3" points="953.1,1664.3 953.1,1544 848.9,1483.9 744.8,1544 744.8,1664.3 848.9,1724.4 		"/>
		<polygon class="st3" points="1161.4,1664.3 1161.4,1544 1057.2,1483.9 953.1,1544 953.1,1664.3 1057.2,1724.4 		"/>
		<polygon class="st3" points="1369.7,1664.3 1369.7,1544 1265.6,1483.9 1161.4,1544 1161.4,1664.3 1265.6,1724.4 		"/>
		<polygon class="st1" points="1578,1664.3 1578,1544 1473.9,1483.9 1369.7,1544 1369.7,1664.3 1473.9,1724.4 		"/>
		<polygon class="st1" points="1786.4,1664.3 1786.4,1544 1682.2,1483.9 1578,1544 1578,1664.3 1682.2,1724.4 		"/>
		<polygon class="st1" points="1994.7,1664.3 1994.7,1544 1890.5,1483.9 1786.4,1544 1786.4,1664.3 1890.5,1724.4 		"/>
		<polygon class="st4" points="432.1,1845.4 432.1,1725.1 327.9,1665 223.8,1725.1 223.8,1845.4 327.9,1905.5 		"/>
		<polygon class="st4" points="640.4,1845.4 640.4,1725.1 536.2,1665 432.1,1725.1 432.1,1845.4 536.2,1905.5 		"/>
		<polygon class="st4" points="848.7,1845.4 848.7,1725.1 744.6,1665 640.4,1725.1 640.4,1845.4 744.6,1905.5 		"/>
		<polygon class="st4" points="1057,1845.4 1057,1725.1 952.9,1665 848.7,1725.1 848.7,1845.4 952.9,1905.5 		"/>
		<polygon class="st4" points="1265.4,1845.4 1265.4,1725.1 1161.2,1665 1057,1725.1 1057,1845.4 1161.2,1905.5 		"/>
		<polygon class="st4" points="1473.7,1845.4 1473.7,1725.1 1369.5,1665 1265.4,1725.1 1265.4,1845.4 1369.5,1905.5 		"/>
		<polygon class="st2" points="1682,1845.4 1682,1725.1 1577.8,1665 1473.7,1725.1 1473.7,1845.4 1577.8,1905.5 		"/>
		<polygon class="st2" points="1890.3,1845.4 1890.3,1725.1 1786.1,1665 1682,1725.1 1682,1845.4 1786.1,1905.5 		"/>
		<polygon class="st3" points="328.1,2025.1 328.1,1904.8 224,1844.7 119.8,1904.8 119.8,2025.1 224,2085.2 		"/>
		<polygon class="st3" points="536.5,2025.1 536.5,1904.8 432.3,1844.7 328.1,1904.8 328.1,2025.1 432.3,2085.2 		"/>
		<polygon class="st3" points="744.8,2025.1 744.8,1904.8 640.6,1844.7 536.5,1904.8 536.5,2025.1 640.6,2085.2 		"/>
		<polygon class="st3" points="953.1,2025.1 953.1,1904.8 848.9,1844.7 744.8,1904.8 744.8,2025.1 848.9,2085.2 		"/>
		<polygon class="st3" points="1161.4,2025.1 1161.4,1904.8 1057.2,1844.7 953.1,1904.8 953.1,2025.1 1057.2,2085.2 		"/>
		<polygon class="st3" points="1369.7,2025.1 1369.7,1904.8 1265.6,1844.7 1161.4,1904.8 1161.4,2025.1 1265.6,2085.2 		"/>
		<polygon class="st3" points="1578,2025.1 1578,1904.8 1473.9,1844.7 1369.7,1904.8 1369.7,2025.1 1473.9,2085.2 		"/>
		<polygon class="st3" points="1786.4,2025.1 1786.4,1904.8 1682.2,1844.7 1578,1904.8 1578,2025.1 1682.2,2085.2 		"/>
		<polygon class="st1" points="1994.7,2025.1 1994.7,1904.8 1890.5,1844.7 1786.4,1904.8 1786.4,2025.1 1890.5,2085.2 		"/>
		<polygon class="st4" points="432.1,2206.2 432.1,2085.9 327.9,2025.8 223.8,2085.9 223.8,2206.2 327.9,2266.3 		"/>
		<polygon class="st4" points="640.4,2206.2 640.4,2085.9 536.2,2025.8 432.1,2085.9 432.1,2206.2 536.2,2266.3 		"/>
		<polygon class="st4" points="848.7,2206.2 848.7,2085.9 744.6,2025.8 640.4,2085.9 640.4,2206.2 744.6,2266.3 		"/>
		<polygon class="st4" points="1057,2206.2 1057,2085.9 952.9,2025.8 848.7,2085.9 848.7,2206.2 952.9,2266.3 		"/>
		<polygon class="st4" points="1265.4,2206.2 1265.4,2085.9 1161.2,2025.8 1057,2085.9 1057,2206.2 1161.2,2266.3 		"/>
		<polygon class="st4" points="1473.7,2206.2 1473.7,2085.9 1369.5,2025.8 1265.4,2085.9 1265.4,2206.2 1369.5,2266.3 		"/>
		<polygon class="st4" points="1682,2206.2 1682,2085.9 1577.8,2025.8 1473.7,2085.9 1473.7,2206.2 1577.8,2266.3 		"/>
		<polygon class="st4" points="1890.3,2206.2 1890.3,2085.9 1786.1,2025.8 1682,2085.9 1682,2206.2 1786.1,2266.3 		"/>
		<polygon class="st4" points="2098.6,2206.2 2098.6,2085.9 1994.5,2025.8 1890.3,2085.9 1890.3,2206.2 1994.5,2266.3 		"/>
		<polygon class="st3" points="328.1,2385.9 328.1,2265.6 224,2205.5 119.8,2265.6 119.8,2385.9 224,2446 		"/>
		<polygon class="st3" points="536.5,2385.9 536.5,2265.6 432.3,2205.5 328.1,2265.6 328.1,2385.9 432.3,2446 		"/>
		<polygon class="st3" points="744.8,2385.9 744.8,2265.6 640.6,2205.5 536.5,2265.6 536.5,2385.9 640.6,2446 		"/>
		<polygon class="st3" points="953.1,2385.9 953.1,2265.6 848.9,2205.5 744.8,2265.6 744.8,2385.9 848.9,2446 		"/>
		<polygon class="st3" points="1161.4,2385.9 1161.4,2265.6 1057.2,2205.5 953.1,2265.6 953.1,2385.9 1057.2,2446 		"/>
		<polygon class="st3" points="1369.7,2385.9 1369.7,2265.6 1265.6,2205.5 1161.4,2265.6 1161.4,2385.9 1265.6,2446 		"/>
		<polygon class="st3" points="1578,2385.9 1578,2265.6 1473.9,2205.5 1369.7,2265.6 1369.7,2385.9 1473.9,2446 		"/>
		<polygon class="st3" points="1786.4,2385.9 1786.4,2265.6 1682.2,2205.5 1578,2265.6 1578,2385.9 1682.2,2446 		"/>
		<polygon class="st3" points="1994.7,2385.9 1994.7,2265.6 1890.5,2205.5 1786.4,2265.6 1786.4,2385.9 1890.5,2446 		"/>
		<polygon class="st3" points="2203,2385.9 2203,2265.6 2098.8,2205.5 1994.7,2265.6 1994.7,2385.9 2098.8,2446 		"/>
		<polygon class="st3" points="2411.3,2385.9 2411.3,2265.6 2307.1,2205.5 2203,2265.6 2203,2385.9 2307.1,2446 		"/>
		<polygon class="st4" points="432.1,2567 432.1,2446.7 327.9,2386.6 223.8,2446.7 223.8,2567 327.9,2627.1 		"/>
		<polygon class="st4" points="640.4,2567 640.4,2446.7 536.2,2386.6 432.1,2446.7 432.1,2567 536.2,2627.1 		"/>
		<polygon class="st4" points="848.7,2567 848.7,2446.7 744.6,2386.6 640.4,2446.7 640.4,2567 744.6,2627.1 		"/>
		<polygon class="st4" points="1057,2567 1057,2446.7 952.9,2386.6 848.7,2446.7 848.7,2567 952.9,2627.1 		"/>
		<polygon class="st4" points="1265.4,2567 1265.4,2446.7 1161.2,2386.6 1057,2446.7 1057,2567 1161.2,2627.1 		"/>
		<polygon class="st4" points="1473.7,2567 1473.7,2446.7 1369.5,2386.6 1265.4,2446.7 1265.4,2567 1369.5,2627.1 		"/>
		<polygon class="st4" points="1682,2567 1682,2446.7 1577.8,2386.6 1473.7,2446.7 1473.7,2567 1577.8,2627.1 		"/>
		<polygon class="st4" points="1890.3,2567 1890.3,2446.7 1786.1,2386.6 1682,2446.7 1682,2567 1786.1,2627.1 		"/>
		<polygon class="st4" points="2098.6,2567 2098.6,2446.7 1994.5,2386.6 1890.3,2446.7 1890.3,2567 1994.5,2627.1 		"/>
		<polygon class="st4" points="2306.9,2567 2306.9,2446.7 2202.8,2386.6 2098.6,2446.7 2098.6,2567 2202.8,2627.1 		"/>
		<polygon class="st3" points="328.1,2746.7 328.1,2626.4 224,2566.3 119.8,2626.4 119.8,2746.7 224,2806.8 		"/>
		<polygon class="st3" points="536.5,2746.7 536.5,2626.4 432.3,2566.3 328.1,2626.4 328.1,2746.7 432.3,2806.8 		"/>
		<polygon class="st3" points="744.8,2746.7 744.8,2626.4 640.6,2566.3 536.5,2626.4 536.5,2746.7 640.6,2806.8 		"/>
		<polygon class="st3" points="953.1,2746.7 953.1,2626.4 848.9,2566.3 744.8,2626.4 744.8,2746.7 848.9,2806.8 		"/>
		<polygon class="st3" points="1161.4,2746.7 1161.4,2626.4 1057.2,2566.3 953.1,2626.4 953.1,2746.7 1057.2,2806.8 		"/>
		<polygon class="st3" points="1369.7,2746.7 1369.7,2626.4 1265.6,2566.3 1161.4,2626.4 1161.4,2746.7 1265.6,2806.8 		"/>
		<polygon class="st3" points="1578,2746.7 1578,2626.4 1473.9,2566.3 1369.7,2626.4 1369.7,2746.7 1473.9,2806.8 		"/>
		<polygon class="st3" points="1786.4,2746.7 1786.4,2626.4 1682.2,2566.3 1578,2626.4 1578,2746.7 1682.2,2806.8 		"/>
		<polygon class="st3" points="1994.7,2746.7 1994.7,2626.4 1890.5,2566.3 1786.4,2626.4 1786.4,2746.7 1890.5,2806.8 		"/>
		<polygon class="st3" points="2203,2746.7 2203,2626.4 2098.8,2566.3 1994.7,2626.4 1994.7,2746.7 2098.8,2806.8 		"/>
		<polygon class="st3" points="2411.3,2746.7 2411.3,2626.4 2307.1,2566.3 2203,2626.4 2203,2746.7 2307.1,2806.8 		"/>
		<polygon class="st4" points="432.1,2927.1 432.1,2806.8 327.9,2746.7 223.8,2806.8 223.8,2927.1 327.9,2987.2 		"/>
		<polygon class="st4" points="640.4,2927.1 640.4,2806.8 536.2,2746.7 432.1,2806.8 432.1,2927.1 536.2,2987.2 		"/>
		<polygon class="st4" points="848.7,2927.1 848.7,2806.8 744.6,2746.7 640.4,2806.8 640.4,2927.1 744.6,2987.2 		"/>
		<polygon class="st4" points="1057,2927.1 1057,2806.8 952.9,2746.7 848.7,2806.8 848.7,2927.1 952.9,2987.2 		"/>
		<polygon class="st4" points="1265.4,2927.1 1265.4,2806.8 1161.2,2746.7 1057,2806.8 1057,2927.1 1161.2,2987.2 		"/>
		<polygon class="st4" points="1473.7,2927.1 1473.7,2806.8 1369.5,2746.7 1265.4,2806.8 1265.4,2927.1 1369.5,2987.2 		"/>
		<polygon class="st4" points="1682,2927.1 1682,2806.8 1577.8,2746.7 1473.7,2806.8 1473.7,2927.1 1577.8,2987.2 		"/>
		<polygon class="st4" points="1890.3,2927.1 1890.3,2806.8 1786.1,2746.7 1682,2806.8 1682,2927.1 1786.1,2987.2 		"/>
		<polygon class="st4" points="2098.6,2927.1 2098.6,2806.8 1994.5,2746.7 1890.3,2806.8 1890.3,2927.1 1994.5,2987.2 		"/>
		<polygon class="st4" points="2306.9,2927.1 2306.9,2806.8 2202.8,2746.7 2098.6,2806.8 2098.6,2927.1 2202.8,2987.2 		"/>
		<polygon class="st3" points="328.1,3106.8 328.1,2986.5 224,2926.4 119.8,2986.5 119.8,3106.8 224,3166.9 		"/>
		<polygon class="st3" points="536.5,3106.8 536.5,2986.5 432.3,2926.4 328.1,2986.5 328.1,3106.8 432.3,3166.9 		"/>
		<polygon class="st3" points="744.8,3106.8 744.8,2986.5 640.6,2926.4 536.5,2986.5 536.5,3106.8 640.6,3166.9 		"/>
		<polygon class="st3" points="953.1,3106.8 953.1,2986.5 848.9,2926.4 744.8,2986.5 744.8,3106.8 848.9,3166.9 		"/>
		<polygon class="st3" points="1161.4,3106.8 1161.4,2986.5 1057.2,2926.4 953.1,2986.5 953.1,3106.8 1057.2,3166.9 		"/>
		<polygon class="st3" points="1369.7,3106.8 1369.7,2986.5 1265.6,2926.4 1161.4,2986.5 1161.4,3106.8 1265.6,3166.9 		"/>
		<polygon class="st3" points="1578,3106.8 1578,2986.5 1473.9,2926.4 1369.7,2986.5 1369.7,3106.8 1473.9,3166.9 		"/>
		<polygon class="st3" points="1786.4,3106.8 1786.4,2986.5 1682.2,2926.4 1578,2986.5 1578,3106.8 1682.2,3166.9 		"/>
		<polygon class="st3" points="1994.7,3106.8 1994.7,2986.5 1890.5,2926.4 1786.4,2986.5 1786.4,3106.8 1890.5,3166.9 		"/>
		<polygon class="st3" points="2203,3106.8 2203,2986.5 2098.8,2926.4 1994.7,2986.5 1994.7,3106.8 2098.8,3166.9 		"/>
		<polygon class="st3" points="2411.3,3106.8 2411.3,2986.5 2307.1,2926.4 2203,2986.5 2203,3106.8 2307.1,3166.9 		"/>
		<polygon class="st4" points="432.1,3287.9 432.1,3167.6 327.9,3107.5 223.8,3167.6 223.8,3287.9 327.9,3348 		"/>
		<polygon class="st4" points="640.4,3287.9 640.4,3167.6 536.2,3107.5 432.1,3167.6 432.1,3287.9 536.2,3348 		"/>
		<polygon class="st4" points="848.7,3287.9 848.7,3167.6 744.6,3107.5 640.4,3167.6 640.4,3287.9 744.6,3348 		"/>
		<polygon class="st4" points="1057,3287.9 1057,3167.6 952.9,3107.5 848.7,3167.6 848.7,3287.9 952.9,3348 		"/>
		<polygon class="st4" points="1265.4,3287.9 1265.4,3167.6 1161.2,3107.5 1057,3167.6 1057,3287.9 1161.2,3348 		"/>
		<polygon class="st4" points="1473.7,3287.9 1473.7,3167.6 1369.5,3107.5 1265.4,3167.6 1265.4,3287.9 1369.5,3348 		"/>
		<polygon class="st4" points="1682,3287.9 1682,3167.6 1577.8,3107.5 1473.7,3167.6 1473.7,3287.9 1577.8,3348 		"/>
		<polygon class="st4" points="1890.3,3287.9 1890.3,3167.6 1786.1,3107.5 1682,3167.6 1682,3287.9 1786.1,3348 		"/>
		<polygon class="st4" points="2098.6,3287.9 2098.6,3167.6 1994.5,3107.5 1890.3,3167.6 1890.3,3287.9 1994.5,3348 		"/>
		<polygon class="st4" points="2306.9,3287.9 2306.9,3167.6 2202.8,3107.5 2098.6,3167.6 2098.6,3287.9 2202.8,3348 		"/>
		<polygon class="st3" points="328.1,3467.6 328.1,3347.3 224,3287.2 119.8,3347.3 119.8,3467.6 224,3527.7 		"/>
		<polygon class="st3" points="536.5,3467.6 536.5,3347.3 432.3,3287.2 328.1,3347.3 328.1,3467.6 432.3,3527.7 		"/>
		<polygon class="st3" points="744.8,3467.6 744.8,3347.3 640.6,3287.2 536.5,3347.3 536.5,3467.6 640.6,3527.7 		"/>
		<polygon class="st3" points="953.1,3467.6 953.1,3347.3 848.9,3287.2 744.8,3347.3 744.8,3467.6 848.9,3527.7 		"/>
		<polygon class="st3" points="1161.4,3467.6 1161.4,3347.3 1057.2,3287.2 953.1,3347.3 953.1,3467.6 1057.2,3527.7 		"/>
		<polygon class="st3" points="1369.7,3467.6 1369.7,3347.3 1265.6,3287.2 1161.4,3347.3 1161.4,3467.6 1265.6,3527.7 		"/>
		<polygon class="st3" points="1578,3467.6 1578,3347.3 1473.9,3287.2 1369.7,3347.3 1369.7,3467.6 1473.9,3527.7 		"/>
		<polygon class="st3" points="1786.4,3467.6 1786.4,3347.3 1682.2,3287.2 1578,3347.3 1578,3467.6 1682.2,3527.7 		"/>
		<polygon class="st3" points="1994.7,3467.6 1994.7,3347.3 1890.5,3287.2 1786.4,3347.3 1786.4,3467.6 1890.5,3527.7 		"/>
		<polygon class="st3" points="2203,3467.6 2203,3347.3 2098.8,3287.2 1994.7,3347.3 1994.7,3467.6 2098.8,3527.7 		"/>
		<polygon class="st3" points="2411.3,3467.6 2411.3,3347.3 2307.1,3287.2 2203,3347.3 2203,3467.6 2307.1,3527.7 		"/>
		<polygon class="st3" points="2620.2,221.1 2620.2,100.8 2516.1,40.7 2411.9,100.8 2411.9,221.1 2516.1,281.3 		"/>
		<polygon class="st3" points="2828.6,221.1 2828.6,100.8 2724.4,40.7 2620.2,100.8 2620.2,221.1 2724.4,281.3 		"/>
		<polygon class="st3" points="3036.9,221.1 3036.9,100.8 2932.7,40.7 2828.6,100.8 2828.6,221.1 2932.7,281.3 		"/>
		<polygon class="st3" points="3245.2,221.1 3245.2,100.8 3141,40.7 3036.9,100.8 3036.9,221.1 3141,281.3 		"/>
		<polygon class="st3" points="3453.5,221.1 3453.5,100.8 3349.4,40.7 3245.2,100.8 3245.2,221.1 3349.4,281.3 		"/>
		<polygon class="st3" points="3661.8,221.1 3661.8,100.8 3557.7,40.7 3453.5,100.8 3453.5,221.1 3557.7,281.3 		"/>
		<polygon class="st3" points="3870.2,221.1 3870.2,100.8 3766,40.7 3661.8,100.8 3661.8,221.1 3766,281.3 		"/>
		<polygon class="st3" points="4078.5,221.1 4078.5,100.8 3974.3,40.7 3870.2,100.8 3870.2,221.1 3974.3,281.3 		"/>
		<polygon class="st3" points="4286.8,221.1 4286.8,100.8 4182.6,40.7 4078.5,100.8 4078.5,221.1 4182.6,281.3 		"/>
		<polygon class="st4" points="2515.9,402.2 2515.9,281.9 2411.7,221.8 2307.6,281.9 2307.6,402.2 2411.7,462.3 		"/>
		<polygon class="st4" points="2724.2,402.2 2724.2,281.9 2620,221.8 2515.9,281.9 2515.9,402.2 2620,462.3 		"/>
		<polygon class="st4" points="2932.5,402.2 2932.5,281.9 2828.4,221.8 2724.2,281.9 2724.2,402.2 2828.4,462.3 		"/>
		<polygon class="st4" points="3140.8,402.2 3140.8,281.9 3036.7,221.8 2932.5,281.9 2932.5,402.2 3036.7,462.3 		"/>
		<polygon class="st4" points="3349.1,402.2 3349.1,281.9 3245,221.8 3140.8,281.9 3140.8,402.2 3245,462.3 		"/>
		<polygon class="st4" points="3557.5,402.2 3557.5,281.9 3453.3,221.8 3349.1,281.9 3349.1,402.2 3453.3,462.3 		"/>
		<polygon class="st4" points="3765.8,402.2 3765.8,281.9 3661.6,221.8 3557.5,281.9 3557.5,402.2 3661.6,462.3 		"/>
		<polygon class="st4" points="3974.1,402.2 3974.1,281.9 3869.9,221.8 3765.8,281.9 3765.8,402.2 3869.9,462.3 		"/>
		<polygon class="st4" points="4182.4,402.2 4182.4,281.9 4078.3,221.8 3974.1,281.9 3974.1,402.2 4078.3,462.3 		"/>
		<polygon class="st4" points="4390.7,402.2 4390.7,281.9 4286.6,221.8 4182.4,281.9 4182.4,402.2 4286.6,462.3 		"/>
		<polygon class="st3" points="2620.2,581.9 2620.2,461.6 2516.1,401.5 2411.9,461.6 2411.9,581.9 2516.1,642 		"/>
		<polygon class="st3" points="2828.6,581.9 2828.6,461.6 2724.4,401.5 2620.2,461.6 2620.2,581.9 2724.4,642 		"/>
		<polygon class="st3" points="3036.9,581.9 3036.9,461.6 2932.7,401.5 2828.6,461.6 2828.6,581.9 2932.7,642 		"/>
		<polygon class="st3" points="3245.2,581.9 3245.2,461.6 3141,401.5 3036.9,461.6 3036.9,581.9 3141,642 		"/>
		<polygon class="st3" points="3453.5,581.9 3453.5,461.6 3349.4,401.5 3245.2,461.6 3245.2,581.9 3349.4,642 		"/>
		<polygon class="st3" points="3661.8,581.9 3661.8,461.6 3557.7,401.5 3453.5,461.6 3453.5,581.9 3557.7,642 		"/>
		<polygon class="st3" points="3870.2,581.9 3870.2,461.6 3766,401.5 3661.8,461.6 3661.8,581.9 3766,642 		"/>
		<polygon class="st3" points="4078.5,581.9 4078.5,461.6 3974.3,401.5 3870.2,461.6 3870.2,581.9 3974.3,642 		"/>
		<polygon class="st3" points="4286.8,581.9 4286.8,461.6 4182.6,401.5 4078.5,461.6 4078.5,581.9 4182.6,642 		"/>
		<polygon class="st4" points="2515.9,763 2515.9,642.7 2411.7,582.6 2307.6,642.7 2307.6,763 2411.7,823.1 		"/>
		<polygon class="st4" points="2724.2,763 2724.2,642.7 2620,582.6 2515.9,642.7 2515.9,763 2620,823.1 		"/>
		<polygon class="st4" points="2932.5,763 2932.5,642.7 2828.4,582.6 2724.2,642.7 2724.2,763 2828.4,823.1 		"/>
		<polygon class="st4" points="3140.8,763 3140.8,642.7 3036.7,582.6 2932.5,642.7 2932.5,763 3036.7,823.1 		"/>
		<polygon class="st4" points="3349.1,763 3349.1,642.7 3245,582.6 3140.8,642.7 3140.8,763 3245,823.1 		"/>
		<polygon class="st4" points="3557.5,763 3557.5,642.7 3453.3,582.6 3349.1,642.7 3349.1,763 3453.3,823.1 		"/>
		<polygon class="st4" points="3765.8,763 3765.8,642.7 3661.6,582.6 3557.5,642.7 3557.5,763 3661.6,823.1 		"/>
		<polygon class="st4" points="3974.1,763 3974.1,642.7 3869.9,582.6 3765.8,642.7 3765.8,763 3869.9,823.1 		"/>
		<polygon class="st4" points="4182.4,763 4182.4,642.7 4078.3,582.6 3974.1,642.7 3974.1,763 4078.3,823.1 		"/>
		<polygon class="st4" points="4390.7,763 4390.7,642.7 4286.6,582.6 4182.4,642.7 4182.4,763 4286.6,823.1 		"/>
		<polygon class="st3" points="2620.2,942.7 2620.2,822.4 2516.1,762.3 2411.9,822.4 2411.9,942.7 2516.1,1002.8 		"/>
		<polygon class="st3" points="2828.6,942.7 2828.6,822.4 2724.4,762.3 2620.2,822.4 2620.2,942.7 2724.4,1002.8 		"/>
		<polygon class="st3" points="3036.9,942.7 3036.9,822.4 2932.7,762.3 2828.6,822.4 2828.6,942.7 2932.7,1002.8 		"/>
		<polygon class="st3" points="3245.2,942.7 3245.2,822.4 3141,762.3 3036.9,822.4 3036.9,942.7 3141,1002.8 		"/>
		<polygon class="st3" points="3453.5,942.7 3453.5,822.4 3349.4,762.3 3245.2,822.4 3245.2,942.7 3349.4,1002.8 		"/>
		<polygon class="st3" points="3661.8,942.7 3661.8,822.4 3557.7,762.3 3453.5,822.4 3453.5,942.7 3557.7,1002.8 		"/>
		<polygon class="st3" points="3870.2,942.7 3870.2,822.4 3766,762.3 3661.8,822.4 3661.8,942.7 3766,1002.8 		"/>
		<polygon class="st3" points="4078.5,942.7 4078.5,822.4 3974.3,762.3 3870.2,822.4 3870.2,942.7 3974.3,1002.8 		"/>
		<polygon class="st3" points="4286.8,942.7 4286.8,822.4 4182.6,762.3 4078.5,822.4 4078.5,942.7 4182.6,1002.8 		"/>
		<polygon class="st4" points="2515.9,1123.8 2515.9,1003.5 2411.7,943.4 2307.6,1003.5 2307.6,1123.8 2411.7,1183.9 		"/>
		<polygon class="st4" points="2724.2,1123.8 2724.2,1003.5 2620,943.4 2515.9,1003.5 2515.9,1123.8 2620,1183.9 		"/>
		<polygon class="st4" points="2932.5,1123.8 2932.5,1003.5 2828.4,943.4 2724.2,1003.5 2724.2,1123.8 2828.4,1183.9 		"/>
		<polygon class="st4" points="3140.8,1123.8 3140.8,1003.5 3036.7,943.4 2932.5,1003.5 2932.5,1123.8 3036.7,1183.9 		"/>
		<polygon class="st4" points="3349.1,1123.8 3349.1,1003.5 3245,943.4 3140.8,1003.5 3140.8,1123.8 3245,1183.9 		"/>
		<polygon class="st4" points="3557.5,1123.8 3557.5,1003.5 3453.3,943.4 3349.1,1003.5 3349.1,1123.8 3453.3,1183.9 		"/>
		<polygon class="st4" points="3765.8,1123.8 3765.8,1003.5 3661.6,943.4 3557.5,1003.5 3557.5,1123.8 3661.6,1183.9 		"/>
		<polygon class="st4" points="3974.1,1123.8 3974.1,1003.5 3869.9,943.4 3765.8,1003.5 3765.8,1123.8 3869.9,1183.9 		"/>
		<polygon class="st4" points="4182.4,1123.8 4182.4,1003.5 4078.3,943.4 3974.1,1003.5 3974.1,1123.8 4078.3,1183.9 		"/>
		<polygon class="st4" points="4390.7,1123.8 4390.7,1003.5 4286.6,943.4 4182.4,1003.5 4182.4,1123.8 4286.6,1183.9 		"/>
		<polygon class="st3" points="2620.2,1303.5 2620.2,1183.2 2516.1,1123.1 2411.9,1183.2 2411.9,1303.5 2516.1,1363.6 		"/>
		<polygon class="st3" points="2828.6,1303.5 2828.6,1183.2 2724.4,1123.1 2620.2,1183.2 2620.2,1303.5 2724.4,1363.6 		"/>
		<polygon class="st3" points="3036.9,1303.5 3036.9,1183.2 2932.7,1123.1 2828.6,1183.2 2828.6,1303.5 2932.7,1363.6 		"/>
		<polygon class="st3" points="3245.2,1303.5 3245.2,1183.2 3141,1123.1 3036.9,1183.2 3036.9,1303.5 3141,1363.6 		"/>
		<polygon class="st3" points="3453.5,1303.5 3453.5,1183.2 3349.4,1123.1 3245.2,1183.2 3245.2,1303.5 3349.4,1363.6 		"/>
		<polygon class="st3" points="3661.8,1303.5 3661.8,1183.2 3557.7,1123.1 3453.5,1183.2 3453.5,1303.5 3557.7,1363.6 		"/>
		<polygon class="st3" points="3870.2,1303.5 3870.2,1183.2 3766,1123.1 3661.8,1183.2 3661.8,1303.5 3766,1363.6 		"/>
		<polygon class="st3" points="4078.5,1303.5 4078.5,1183.2 3974.3,1123.1 3870.2,1183.2 3870.2,1303.5 3974.3,1363.6 		"/>
		<polygon class="st3" points="4286.8,1303.5 4286.8,1183.2 4182.6,1123.1 4078.5,1183.2 4078.5,1303.5 4182.6,1363.6 		"/>
		<polygon class="st4" points="2515.9,1484.6 2515.9,1364.3 2411.7,1304.2 2307.6,1364.3 2307.6,1484.6 2411.7,1544.7 		"/>
		<polygon class="st4" points="2724.2,1484.6 2724.2,1364.3 2620,1304.2 2515.9,1364.3 2515.9,1484.6 2620,1544.7 		"/>
		<polygon class="st4" points="2932.5,1484.6 2932.5,1364.3 2828.4,1304.2 2724.2,1364.3 2724.2,1484.6 2828.4,1544.7 		"/>
		<polygon class="st4" points="3140.8,1484.6 3140.8,1364.3 3036.7,1304.2 2932.5,1364.3 2932.5,1484.6 3036.7,1544.7 		"/>
		<polygon class="st4" points="3349.1,1484.6 3349.1,1364.3 3245,1304.2 3140.8,1364.3 3140.8,1484.6 3245,1544.7 		"/>
		<polygon class="st4" points="3557.5,1484.6 3557.5,1364.3 3453.3,1304.2 3349.1,1364.3 3349.1,1484.6 3453.3,1544.7 		"/>
		<polygon class="st4" points="3765.8,1484.6 3765.8,1364.3 3661.6,1304.2 3557.5,1364.3 3557.5,1484.6 3661.6,1544.7 		"/>
		<polygon class="st4" points="3974.1,1484.6 3974.1,1364.3 3869.9,1304.2 3765.8,1364.3 3765.8,1484.6 3869.9,1544.7 		"/>
		<polygon class="st4" points="4182.4,1484.6 4182.4,1364.3 4078.3,1304.2 3974.1,1364.3 3974.1,1484.6 4078.3,1544.7 		"/>
		<polygon class="st4" points="4390.7,1484.6 4390.7,1364.3 4286.6,1304.2 4182.4,1364.3 4182.4,1484.6 4286.6,1544.7 		"/>
		<polygon class="st1" points="2828.6,1664.3 2828.6,1544 2724.4,1483.9 2620.2,1544 2620.2,1664.3 2724.4,1724.4 		"/>
		<polygon class="st3" points="3036.9,1664.3 3036.9,1544 2932.7,1483.9 2828.6,1544 2828.6,1664.3 2932.7,1724.4 		"/>
		<polygon class="st3" points="3245.2,1664.3 3245.2,1544 3141,1483.9 3036.9,1544 3036.9,1664.3 3141,1724.4 		"/>
		<polygon class="st3" points="3453.5,1664.3 3453.5,1544 3349.4,1483.9 3245.2,1544 3245.2,1664.3 3349.4,1724.4 		"/>
		<polygon class="st3" points="3661.8,1664.3 3661.8,1544 3557.7,1483.9 3453.5,1544 3453.5,1664.3 3557.7,1724.4 		"/>
		<polygon class="st3" points="3870.2,1664.3 3870.2,1544 3766,1483.9 3661.8,1544 3661.8,1664.3 3766,1724.4 		"/>
		<polygon class="st3" points="4078.5,1664.3 4078.5,1544 3974.3,1483.9 3870.2,1544 3870.2,1664.3 3974.3,1724.4 		"/>
		<polygon class="st3" points="4286.8,1664.3 4286.8,1544 4182.6,1483.9 4078.5,1544 4078.5,1664.3 4182.6,1724.4 		"/>
		<polygon class="st2" points="2932.5,1845.4 2932.5,1725.1 2828.4,1665 2724.2,1725.1 2724.2,1845.4 2828.4,1905.5 		"/>
		<polygon class="st4" points="3140.8,1845.4 3140.8,1725.1 3036.7,1665 2932.5,1725.1 2932.5,1845.4 3036.7,1905.5 		"/>
		<polygon class="st4" points="3349.1,1845.4 3349.1,1725.1 3245,1665 3140.8,1725.1 3140.8,1845.4 3245,1905.5 		"/>
		<polygon class="st4" points="3557.5,1845.4 3557.5,1725.1 3453.3,1665 3349.1,1725.1 3349.1,1845.4 3453.3,1905.5 		"/>
		<polygon class="st4" points="3765.8,1845.4 3765.8,1725.1 3661.6,1665 3557.5,1725.1 3557.5,1845.4 3661.6,1905.5 		"/>
		<polygon class="st4" points="3974.1,1845.4 3974.1,1725.1 3869.9,1665 3765.8,1725.1 3765.8,1845.4 3869.9,1905.5 		"/>
		<polygon class="st4" points="4182.4,1845.4 4182.4,1725.1 4078.3,1665 3974.1,1725.1 3974.1,1845.4 4078.3,1905.5 		"/>
		<polygon class="st4" points="4390.7,1845.4 4390.7,1725.1 4286.6,1665 4182.4,1725.1 4182.4,1845.4 4286.6,1905.5 		"/>
		<polygon class="st3" points="2828.6,2025.1 2828.6,1904.8 2724.4,1844.7 2620.2,1904.8 2620.2,2025.1 2724.4,2085.2 		"/>
		<polygon class="st3" points="3036.9,2025.1 3036.9,1904.8 2932.7,1844.7 2828.6,1904.8 2828.6,2025.1 2932.7,2085.2 		"/>
		<polygon class="st3" points="3245.2,2025.1 3245.2,1904.8 3141,1844.7 3036.9,1904.8 3036.9,2025.1 3141,2085.2 		"/>
		<polygon class="st3" points="3453.5,2025.1 3453.5,1904.8 3349.4,1844.7 3245.2,1904.8 3245.2,2025.1 3349.4,2085.2 		"/>
		<polygon class="st3" points="3661.8,2025.1 3661.8,1904.8 3557.7,1844.7 3453.5,1904.8 3453.5,2025.1 3557.7,2085.2 		"/>
		<polygon class="st3" points="3870.2,2025.1 3870.2,1904.8 3766,1844.7 3661.8,1904.8 3661.8,2025.1 3766,2085.2 		"/>
		<polygon class="st3" points="4078.5,2025.1 4078.5,1904.8 3974.3,1844.7 3870.2,1904.8 3870.2,2025.1 3974.3,2085.2 		"/>
		<polygon class="st3" points="4286.8,2025.1 4286.8,1904.8 4182.6,1844.7 4078.5,1904.8 4078.5,2025.1 4182.6,2085.2 		"/>
		<polygon class="st4" points="2724.2,2206.2 2724.2,2085.9 2620,2025.8 2515.9,2085.9 2515.9,2206.2 2620,2266.3 		"/>
		<polygon class="st4" points="2932.5,2206.2 2932.5,2085.9 2828.4,2025.8 2724.2,2085.9 2724.2,2206.2 2828.4,2266.3 		"/>
		<polygon class="st4" points="3140.8,2206.2 3140.8,2085.9 3036.7,2025.8 2932.5,2085.9 2932.5,2206.2 3036.7,2266.3 		"/>
		<polygon class="st4" points="3349.1,2206.2 3349.1,2085.9 3245,2025.8 3140.8,2085.9 3140.8,2206.2 3245,2266.3 		"/>
		<polygon class="st4" points="3557.5,2206.2 3557.5,2085.9 3453.3,2025.8 3349.1,2085.9 3349.1,2206.2 3453.3,2266.3 		"/>
		<polygon class="st4" points="3765.8,2206.2 3765.8,2085.9 3661.6,2025.8 3557.5,2085.9 3557.5,2206.2 3661.6,2266.3 		"/>
		<polygon class="st4" points="3974.1,2206.2 3974.1,2085.9 3869.9,2025.8 3765.8,2085.9 3765.8,2206.2 3869.9,2266.3 		"/>
		<polygon class="st4" points="4182.4,2206.2 4182.4,2085.9 4078.3,2025.8 3974.1,2085.9 3974.1,2206.2 4078.3,2266.3 		"/>
		<polygon class="st4" points="4390.7,2206.2 4390.7,2085.9 4286.6,2025.8 4182.4,2085.9 4182.4,2206.2 4286.6,2266.3 		"/>
		<polygon class="st3" points="2620.2,2385.9 2620.2,2265.6 2516.1,2205.5 2411.9,2265.6 2411.9,2385.9 2516.1,2446 		"/>
		<polygon class="st3" points="2828.6,2385.9 2828.6,2265.6 2724.4,2205.5 2620.2,2265.6 2620.2,2385.9 2724.4,2446 		"/>
		<polygon class="st3" points="3036.9,2385.9 3036.9,2265.6 2932.7,2205.5 2828.6,2265.6 2828.6,2385.9 2932.7,2446 		"/>
		<polygon class="st3" points="3245.2,2385.9 3245.2,2265.6 3141,2205.5 3036.9,2265.6 3036.9,2385.9 3141,2446 		"/>
		<polygon class="st3" points="3453.5,2385.9 3453.5,2265.6 3349.4,2205.5 3245.2,2265.6 3245.2,2385.9 3349.4,2446 		"/>
		<polygon class="st3" points="3661.8,2385.9 3661.8,2265.6 3557.7,2205.5 3453.5,2265.6 3453.5,2385.9 3557.7,2446 		"/>
		<polygon class="st3" points="3870.2,2385.9 3870.2,2265.6 3766,2205.5 3661.8,2265.6 3661.8,2385.9 3766,2446 		"/>
		<polygon class="st3" points="4078.5,2385.9 4078.5,2265.6 3974.3,2205.5 3870.2,2265.6 3870.2,2385.9 3974.3,2446 		"/>
		<polygon class="st3" points="4286.8,2385.9 4286.8,2265.6 4182.6,2205.5 4078.5,2265.6 4078.5,2385.9 4182.6,2446 		"/>
		<polygon class="st4" points="2515.9,2567 2515.9,2446.7 2411.7,2386.6 2307.6,2446.7 2307.6,2567 2411.7,2627.1 		"/>
		<polygon class="st4" points="2724.2,2567 2724.2,2446.7 2620,2386.6 2515.9,2446.7 2515.9,2567 2620,2627.1 		"/>
		<polygon class="st4" points="2932.5,2567 2932.5,2446.7 2828.4,2386.6 2724.2,2446.7 2724.2,2567 2828.4,2627.1 		"/>
		<polygon class="st4" points="3140.8,2567 3140.8,2446.7 3036.7,2386.6 2932.5,2446.7 2932.5,2567 3036.7,2627.1 		"/>
		<polygon class="st4" points="3349.1,2567 3349.1,2446.7 3245,2386.6 3140.8,2446.7 3140.8,2567 3245,2627.1 		"/>
		<polygon class="st4" points="3557.5,2567 3557.5,2446.7 3453.3,2386.6 3349.1,2446.7 3349.1,2567 3453.3,2627.1 		"/>
		<polygon class="st4" points="3765.8,2567 3765.8,2446.7 3661.6,2386.6 3557.5,2446.7 3557.5,2567 3661.6,2627.1 		"/>
		<polygon class="st4" points="3974.1,2567 3974.1,2446.7 3869.9,2386.6 3765.8,2446.7 3765.8,2567 3869.9,2627.1 		"/>
		<polygon class="st4" points="4182.4,2567 4182.4,2446.7 4078.3,2386.6 3974.1,2446.7 3974.1,2567 4078.3,2627.1 		"/>
		<polygon class="st4" points="4390.7,2567 4390.7,2446.7 4286.6,2386.6 4182.4,2446.7 4182.4,2567 4286.6,2627.1 		"/>
		<polygon class="st3" points="2620.2,2746.7 2620.2,2626.4 2516.1,2566.3 2411.9,2626.4 2411.9,2746.7 2516.1,2806.8 		"/>
		<polygon class="st3" points="2828.6,2746.7 2828.6,2626.4 2724.4,2566.3 2620.2,2626.4 2620.2,2746.7 2724.4,2806.8 		"/>
		<polygon class="st3" points="3036.9,2746.7 3036.9,2626.4 2932.7,2566.3 2828.6,2626.4 2828.6,2746.7 2932.7,2806.8 		"/>
		<polygon class="st3" points="3245.2,2746.7 3245.2,2626.4 3141,2566.3 3036.9,2626.4 3036.9,2746.7 3141,2806.8 		"/>
		<polygon class="st3" points="3453.5,2746.7 3453.5,2626.4 3349.4,2566.3 3245.2,2626.4 3245.2,2746.7 3349.4,2806.8 		"/>
		<polygon class="st3" points="3661.8,2746.7 3661.8,2626.4 3557.7,2566.3 3453.5,2626.4 3453.5,2746.7 3557.7,2806.8 		"/>
		<polygon class="st3" points="3870.2,2746.7 3870.2,2626.4 3766,2566.3 3661.8,2626.4 3661.8,2746.7 3766,2806.8 		"/>
		<polygon class="st3" points="4078.5,2746.7 4078.5,2626.4 3974.3,2566.3 3870.2,2626.4 3870.2,2746.7 3974.3,2806.8 		"/>
		<polygon class="st3" points="4286.8,2746.7 4286.8,2626.4 4182.6,2566.3 4078.5,2626.4 4078.5,2746.7 4182.6,2806.8 		"/>
		<polygon class="st4" points="2515.9,2927.1 2515.9,2806.8 2411.7,2746.7 2307.6,2806.8 2307.6,2927.1 2411.7,2987.2 		"/>
		<polygon class="st4" points="2724.2,2927.1 2724.2,2806.8 2620,2746.7 2515.9,2806.8 2515.9,2927.1 2620,2987.2 		"/>
		<polygon class="st4" points="2932.5,2927.1 2932.5,2806.8 2828.4,2746.7 2724.2,2806.8 2724.2,2927.1 2828.4,2987.2 		"/>
		<polygon class="st4" points="3140.8,2927.1 3140.8,2806.8 3036.7,2746.7 2932.5,2806.8 2932.5,2927.1 3036.7,2987.2 		"/>
		<polygon class="st4" points="3349.1,2927.1 3349.1,2806.8 3245,2746.7 3140.8,2806.8 3140.8,2927.1 3245,2987.2 		"/>
		<polygon class="st4" points="3557.5,2927.1 3557.5,2806.8 3453.3,2746.7 3349.1,2806.8 3349.1,2927.1 3453.3,2987.2 		"/>
		<polygon class="st4" points="3765.8,2927.1 3765.8,2806.8 3661.6,2746.7 3557.5,2806.8 3557.5,2927.1 3661.6,2987.2 		"/>
		<polygon class="st4" points="3974.1,2927.1 3974.1,2806.8 3869.9,2746.7 3765.8,2806.8 3765.8,2927.1 3869.9,2987.2 		"/>
		<polygon class="st4" points="4182.4,2927.1 4182.4,2806.8 4078.3,2746.7 3974.1,2806.8 3974.1,2927.1 4078.3,2987.2 		"/>
		<polygon class="st4" points="4390.7,2927.1 4390.7,2806.8 4286.6,2746.7 4182.4,2806.8 4182.4,2927.1 4286.6,2987.2 		"/>
		<polygon class="st3" points="2620.2,3106.8 2620.2,2986.5 2516.1,2926.4 2411.9,2986.5 2411.9,3106.8 2516.1,3166.9 		"/>
		<polygon class="st3" points="2828.6,3106.8 2828.6,2986.5 2724.4,2926.4 2620.2,2986.5 2620.2,3106.8 2724.4,3166.9 		"/>
		<polygon class="st3" points="3036.9,3106.8 3036.9,2986.5 2932.7,2926.4 2828.6,2986.5 2828.6,3106.8 2932.7,3166.9 		"/>
		<polygon class="st3" points="3245.2,3106.8 3245.2,2986.5 3141,2926.4 3036.9,2986.5 3036.9,3106.8 3141,3166.9 		"/>
		<polygon class="st3" points="3453.5,3106.8 3453.5,2986.5 3349.4,2926.4 3245.2,2986.5 3245.2,3106.8 3349.4,3166.9 		"/>
		<polygon class="st3" points="3661.8,3106.8 3661.8,2986.5 3557.7,2926.4 3453.5,2986.5 3453.5,3106.8 3557.7,3166.9 		"/>
		<polygon class="st3" points="3870.2,3106.8 3870.2,2986.5 3766,2926.4 3661.8,2986.5 3661.8,3106.8 3766,3166.9 		"/>
		<polygon class="st3" points="4078.5,3106.8 4078.5,2986.5 3974.3,2926.4 3870.2,2986.5 3870.2,3106.8 3974.3,3166.9 		"/>
		<polygon class="st3" points="4286.8,3106.8 4286.8,2986.5 4182.6,2926.4 4078.5,2986.5 4078.5,3106.8 4182.6,3166.9 		"/>
		<polygon class="st4" points="2515.9,3287.9 2515.9,3167.6 2411.7,3107.5 2307.6,3167.6 2307.6,3287.9 2411.7,3348 		"/>
		<polygon class="st4" points="2724.2,3287.9 2724.2,3167.6 2620,3107.5 2515.9,3167.6 2515.9,3287.9 2620,3348 		"/>
		<polygon class="st4" points="2932.5,3287.9 2932.5,3167.6 2828.4,3107.5 2724.2,3167.6 2724.2,3287.9 2828.4,3348 		"/>
		<polygon class="st4" points="3140.8,3287.9 3140.8,3167.6 3036.7,3107.5 2932.5,3167.6 2932.5,3287.9 3036.7,3348 		"/>
		<polygon class="st4" points="3349.1,3287.9 3349.1,3167.6 3245,3107.5 3140.8,3167.6 3140.8,3287.9 3245,3348 		"/>
		<polygon class="st4" points="3557.5,3287.9 3557.5,3167.6 3453.3,3107.5 3349.1,3167.6 3349.1,3287.9 3453.3,3348 		"/>
		<polygon class="st4" points="3765.8,3287.9 3765.8,3167.6 3661.6,3107.5 3557.5,3167.6 3557.5,3287.9 3661.6,3348 		"/>
		<polygon class="st4" points="3974.1,3287.9 3974.1,3167.6 3869.9,3107.5 3765.8,3167.6 3765.8,3287.9 3869.9,3348 		"/>
		<polygon class="st4" points="4182.4,3287.9 4182.4,3167.6 4078.3,3107.5 3974.1,3167.6 3974.1,3287.9 4078.3,3348 		"/>
		<polygon class="st4" points="4390.7,3287.9 4390.7,3167.6 4286.6,3107.5 4182.4,3167.6 4182.4,3287.9 4286.6,3348 		"/>
		<polygon class="st3" points="2620.2,3467.6 2620.2,3347.3 2516.1,3287.2 2411.9,3347.3 2411.9,3467.6 2516.1,3527.7 		"/>
		<polygon class="st3" points="2828.6,3467.6 2828.6,3347.3 2724.4,3287.2 2620.2,3347.3 2620.2,3467.6 2724.4,3527.7 		"/>
		<polygon class="st3" points="3036.9,3467.6 3036.9,3347.3 2932.7,3287.2 2828.6,3347.3 2828.6,3467.6 2932.7,3527.7 		"/>
		<polygon class="st3" points="3245.2,3467.6 3245.2,3347.3 3141,3287.2 3036.9,3347.3 3036.9,3467.6 3141,3527.7 		"/>
		<polygon class="st3" points="3453.5,3467.6 3453.5,3347.3 3349.4,3287.2 3245.2,3347.3 3245.2,3467.6 3349.4,3527.7 		"/>
		<polygon class="st3" points="3661.8,3467.6 3661.8,3347.3 3557.7,3287.2 3453.5,3347.3 3453.5,3467.6 3557.7,3527.7 		"/>
		<polygon class="st3" points="3870.2,3467.6 3870.2,3347.3 3766,3287.2 3661.8,3347.3 3661.8,3467.6 3766,3527.7 		"/>
		<polygon class="st3" points="4078.5,3467.6 4078.5,3347.3 3974.3,3287.2 3870.2,3347.3 3870.2,3467.6 3974.3,3527.7 		"/>
		<polygon class="st3" points="4286.8,3467.6 4286.8,3347.3 4182.6,3287.2 4078.5,3347.3 4078.5,3467.6 4182.6,3527.7 		"/>
	</g>
</g>
<rect x="1" y="1" class="st4" width="4541" height="3581"/>
</svg>
