<!-- Generator: Adobe Illustrator 22.0.0, SVG Export Plug-In  -->
<svg version="1.1"
	 xmlns="http://www.w3.org/2000/svg" xmlns:xlink="http://www.w3.org/1999/xlink" xmlns:a="http://ns.adobe.com/AdobeSVGViewerExtensions/3.0/"
	 x="0px" y="0px" width="3397.2px" height="2679px" viewBox="0 0 3397.2 2679"
	 style="overflow:scroll;enable-background:new 0 0 3397.2 2679;" xml:space="preserve">
<style type="text/css">
	.st0{opacity:0.16;}
	.st1{fill:#FFFFFF;}
	.st2{fill:none;}
</style>
<defs>
</defs>
<g id="Layer_5_copy">
	<g class="st0">
		<ellipse class="st1" cx="1831.2" cy="1526.6" rx="7.3" ry="7.4"/>
		<ellipse class="st1" cx="1522.1" cy="1305" rx="7.3" ry="7.4"/>
		<ellipse class="st1" cx="1600.5" cy="1766.5" rx="7.3" ry="7.4"/>
		<ellipse class="st1" cx="1968.6" cy="1615.3" rx="7.3" ry="7.4"/>
		<ellipse class="st1" cx="2455.4" cy="1403.6" rx="7.3" ry="7.4"/>
		<ellipse class="st1" cx="2602.7" cy="2146.5" rx="7.3" ry="7.4"/>
		<ellipse class="st1" cx="2804.8" cy="343.8" rx="7.3" ry="7.4"/>
		<ellipse class="st1" cx="1904.5" cy="484.4" rx="7.3" ry="7.4"/>
		<ellipse class="st1" cx="2480.5" cy="1645.6" rx="7.3" ry="7.4"/>
		<ellipse class="st1" cx="1940.8" cy="1932.7" rx="7.3" ry="7.4"/>
		<ellipse class="st1" cx="691.1" cy="1577" rx="7.3" ry="7.4"/>
		<ellipse class="st1" cx="463.9" cy="1472.1" rx="7.3" ry="7.4"/>
		<ellipse class="st1" cx="1687.9" cy="2287" rx="7.3" ry="7.4"/>
		<ellipse class="st1" cx="974.5" cy="609.4" rx="7.3" ry="7.4"/>
		<ellipse class="st1" cx="1205" cy="1827.1" rx="7.3" ry="7.4"/>
		<ellipse class="st1" cx="1083.3" cy="1415.6" rx="7.3" ry="7.4"/>
		<ellipse class="st1" cx="1453.4" cy="1924.6" rx="7.3" ry="7.4"/>
		<ellipse class="st1" cx="1962.1" cy="1718.6" rx="7.3" ry="7.4"/>
		<ellipse class="st1" cx="1204.3" cy="2380.5" rx="7.3" ry="7.4"/>
		<ellipse class="st1" cx="2257.9" cy="995.4" rx="7.3" ry="7.4"/>
		<ellipse class="st1" cx="2785" cy="914.7" rx="7.3" ry="7.4"/>
		<ellipse class="st1" cx="1168.7" cy="784.3" rx="7.3" ry="7.4"/>
		<ellipse class="st1" cx="1786.3" cy="869" rx="7.3" ry="7.4"/>
		<ellipse class="st1" cx="2137.7" cy="745.9" rx="7.3" ry="7.4"/>
		<ellipse class="st1" cx="2911.8" cy="1524.5" rx="7.3" ry="7.4"/>
		<ellipse class="st1" cx="1574.2" cy="1201.8" rx="4.6" ry="4.7"/>
		<ellipse class="st1" cx="1687.2" cy="1491.6" rx="4.6" ry="4.7"/>
		<ellipse class="st1" cx="1956" cy="1112.7" rx="4.6" ry="4.7"/>
		<ellipse class="st1" cx="1782.4" cy="1303.2" rx="4.6" ry="4.7"/>
		<ellipse class="st1" cx="1989.9" cy="1326.5" rx="4.6" ry="4.7"/>
		<ellipse class="st1" cx="2255.9" cy="1725.1" rx="4.6" ry="4.7"/>
		<ellipse class="st1" cx="2528.7" cy="1155.4" rx="4.6" ry="4.7"/>
		<ellipse class="st1" cx="2325.3" cy="368" rx="4.6" ry="4.7"/>
		<ellipse class="st1" cx="1640.3" cy="1642.9" rx="4.6" ry="4.7"/>
		<ellipse class="st1" cx="1506.9" cy="1524.3" rx="4.6" ry="4.7"/>
		<ellipse class="st1" cx="1574.7" cy="1433.3" rx="4.6" ry="4.7"/>
		<ellipse class="st1" cx="1391.9" cy="1123.8" rx="4.6" ry="4.7"/>
		<ellipse class="st1" cx="1382.1" cy="1265.6" rx="4.6" ry="4.7"/>
		<ellipse class="st1" cx="1226.8" cy="335.1" rx="4.6" ry="4.7"/>
		<ellipse class="st1" cx="1709.6" cy="1132.5" rx="4.6" ry="4.7"/>
		<ellipse class="st1" cx="1464.8" cy="850.3" rx="4.6" ry="4.7"/>
		<ellipse class="st1" cx="1216.2" cy="1228.7" rx="4.6" ry="4.7"/>
		<ellipse class="st1" cx="1254.5" cy="1484.9" rx="4.6" ry="4.7"/>
		<ellipse class="st1" cx="1465.2" cy="657.2" rx="4.6" ry="4.7"/>
		<ellipse class="st1" cx="1009.5" cy="1737.7" rx="4.6" ry="4.7"/>
		<ellipse class="st1" cx="585.4" cy="427.9" rx="4.6" ry="4.7"/>
		<ellipse class="st1" cx="1353.6" cy="1659" rx="4.6" ry="4.7"/>
		<ellipse class="st1" cx="887.3" cy="2174.7" rx="4.6" ry="4.7"/>
		<ellipse class="st1" cx="498.9" cy="2330.7" rx="4.6" ry="4.7"/>
		<ellipse class="st1" cx="1087.4" cy="1531.9" rx="4.6" ry="4.7"/>
		<ellipse class="st1" cx="792.8" cy="1292.6" rx="4.6" ry="4.7"/>
		<ellipse class="st1" cx="673.9" cy="895.2" rx="4.6" ry="4.7"/>
		<ellipse class="st1" cx="515.4" cy="1068.7" rx="4.6" ry="4.7"/>
		<ellipse class="st1" cx="609.9" cy="2041.6" rx="4.6" ry="4.7"/>
		<ellipse class="st1" cx="1012.1" cy="1123.8" rx="4.6" ry="4.7"/>
		<ellipse class="st1" cx="2107.3" cy="1139.9" rx="4.6" ry="4.7"/>
		<ellipse class="st1" cx="2188.5" cy="1525.9" rx="4.6" ry="4.7"/>
		<ellipse class="st1" cx="2261.9" cy="1923.3" rx="4.6" ry="4.7"/>
		<ellipse class="st1" cx="2162.1" cy="2291.1" rx="4.6" ry="4.7"/>
		<ellipse class="st1" cx="2285.6" cy="1302" rx="4.6" ry="4.7"/>
		<ellipse class="st1" cx="2661.5" cy="544.9" rx="4.6" ry="4.7"/>
		<ellipse class="st1" cx="1207.6" cy="1122.5" rx="4.6" ry="4.7"/>
		<ellipse class="st1" cx="1075.5" cy="1341.7" rx="4.6" ry="4.7"/>
		<ellipse class="st1" cx="1378.2" cy="931.7" rx="4.6" ry="4.7"/>
	</g>
</g>
<rect class="st2" width="3397.2" height="2679"/>
</svg>
