<!-- Generator: Adobe Illustrator 22.0.0, SVG Export Plug-In  -->
<svg version="1.1"
	 xmlns="http://www.w3.org/2000/svg" xmlns:xlink="http://www.w3.org/1999/xlink" xmlns:a="http://ns.adobe.com/AdobeSVGViewerExtensions/3.0/"
	 x="0px" y="0px" width="3397.2px" height="2679px" viewBox="0 0 3397.2 2679"
	 style="overflow:scroll;enable-background:new 0 0 3397.2 2679;" xml:space="preserve">
<style type="text/css">
	.st0{opacity:0.2;}
	.st1{fill:#FFFFFF;}
	.st2{fill:none;}
</style>
<defs>
</defs>
<g id="Layer_6_copy">
	<g class="st0">
		<ellipse class="st1" cx="2186.2" cy="1247.8" rx="2.5" ry="2.5"/>
		<ellipse class="st1" cx="2276.2" cy="834.8" rx="2.5" ry="2.5"/>
		<ellipse class="st1" cx="2018.6" cy="906.6" rx="2.5" ry="2.5"/>
		<ellipse class="st1" cx="2604.1" cy="1749.6" rx="2.5" ry="2.5"/>
		<ellipse class="st1" cx="1198.8" cy="921.7" rx="2.5" ry="2.5"/>
		<ellipse class="st1" cx="152.9" cy="220.1" rx="2.5" ry="2.5"/>
		<ellipse class="st1" cx="1837.9" cy="1392.2" rx="2.5" ry="2.5"/>
		<ellipse class="st1" cx="2465.9" cy="1159.2" rx="2.5" ry="2.5"/>
		<ellipse class="st1" cx="2090.9" cy="1329.2" rx="2.5" ry="2.5"/>
		<ellipse class="st1" cx="2729.9" cy="1048.2" rx="2.5" ry="2.5"/>
		<ellipse class="st1" cx="3008" cy="639.1" rx="2.5" ry="2.5"/>
		<ellipse class="st1" cx="1467.4" cy="1646.6" rx="2.5" ry="2.5"/>
		<ellipse class="st1" cx="1674.4" cy="1200.6" rx="2.5" ry="2.5"/>
		<ellipse class="st1" cx="556.7" cy="1575.9" rx="2.5" ry="2.5"/>
		<ellipse class="st1" cx="1579.4" cy="1016.6" rx="2.5" ry="2.5"/>
		<ellipse class="st1" cx="2232.6" cy="1943.4" rx="2.5" ry="2.5"/>
		<ellipse class="st1" cx="2240.7" cy="2658.2" rx="2.5" ry="2.5"/>
		<ellipse class="st1" cx="1789.4" cy="1614.3" rx="2.5" ry="2.5"/>
		<ellipse class="st1" cx="1540.1" cy="2102.9" rx="2.5" ry="2.5"/>
		<ellipse class="st1" cx="2480" cy="911.6" rx="2.5" ry="2.5"/>
		<ellipse class="st1" cx="746.5" cy="433.1" rx="2.5" ry="2.5"/>
		<ellipse class="st1" cx="2798" cy="2258.4" rx="2.5" ry="2.5"/>
		<ellipse class="st1" cx="936.3" cy="1236.7" rx="2.5" ry="2.5"/>
		<ellipse class="st1" cx="997.9" cy="2510.8" rx="2.5" ry="2.5"/>
		<ellipse class="st1" cx="2917.1" cy="1416.4" rx="2.5" ry="2.5"/>
		<ellipse class="st1" cx="1745" cy="653.2" rx="2.5" ry="2.5"/>
		<ellipse class="st1" cx="2446.6" cy="299.8" rx="2.5" ry="2.5"/>
		<ellipse class="st1" cx="1198.8" cy="1442.7" rx="2.5" ry="2.5"/>
		<ellipse class="st1" cx="1400.7" cy="1301.3" rx="2.5" ry="2.5"/>
		<ellipse class="st1" cx="1687.4" cy="65.6" rx="2.5" ry="2.5"/>
		<ellipse class="st1" cx="859.6" cy="1830.3" rx="2.5" ry="2.5"/>
		<ellipse class="st1" cx="100.4" cy="2109" rx="2.5" ry="2.5"/>
		<ellipse class="st1" cx="496.2" cy="974.2" rx="2.5" ry="2.5"/>
		<ellipse class="st1" cx="1045.4" cy="951" rx="2.5" ry="2.5"/>
		<ellipse class="st1" cx="1213" cy="609.8" rx="2.5" ry="2.5"/>
		<ellipse class="st1" cx="627.4" cy="1452.8" rx="2.5" ry="2.5"/>
		<ellipse class="st1" cx="2032.7" cy="624.9" rx="2.5" ry="2.5"/>
		<ellipse class="st1" cx="1393.7" cy="1095.4" rx="2.5" ry="2.5"/>
		<ellipse class="st1" cx="223.6" cy="342.2" rx="2.5" ry="2.5"/>
		<ellipse class="st1" cx="1764.2" cy="1349.8" rx="2.5" ry="2.5"/>
		<ellipse class="st1" cx="2674.8" cy="1279.1" rx="2.5" ry="2.5"/>
		<ellipse class="st1" cx="2039.8" cy="1672.1" rx="2.5" ry="2.5"/>
		<ellipse class="st1" cx="1652.1" cy="719.8" rx="2.5" ry="2.5"/>
		<ellipse class="st1" cx="998.9" cy="1646.6" rx="2.5" ry="2.5"/>
		<ellipse class="st1" cx="990.8" cy="2361.4" rx="2.5" ry="2.5"/>
		<ellipse class="st1" cx="1442.1" cy="1317.5" rx="2.5" ry="2.5"/>
		<ellipse class="st1" cx="1691.5" cy="1806.1" rx="2.5" ry="2.5"/>
		<ellipse class="st1" cx="1226.5" cy="1876.1" rx="2.5" ry="2.5"/>
		<ellipse class="st1" cx="751.6" cy="614.8" rx="2.5" ry="2.5"/>
		<ellipse class="st1" cx="433.6" cy="1961.6" rx="2.5" ry="2.5"/>
		<ellipse class="st1" cx="2295.2" cy="939.9" rx="2.5" ry="2.5"/>
		<ellipse class="st1" cx="2233.6" cy="2214" rx="2.5" ry="2.5"/>
		<ellipse class="st1" cx="314.4" cy="1119.6" rx="2.5" ry="2.5"/>
		<ellipse class="st1" cx="1486.5" cy="356.4" rx="2.5" ry="2.5"/>
		<ellipse class="st1" cx="2032.7" cy="1145.9" rx="2.5" ry="2.5"/>
		<ellipse class="st1" cx="1830.8" cy="1004.5" rx="2.5" ry="2.5"/>
		<ellipse class="st1" cx="2371.9" cy="1533.5" rx="2.5" ry="2.5"/>
		<ellipse class="st1" cx="3131.1" cy="1812.2" rx="2.5" ry="2.5"/>
		<ellipse class="st1" cx="2735.4" cy="677.4" rx="2.5" ry="2.5"/>
	</g>
</g>
<rect class="st2" width="3397.2" height="2679"/>
</svg>
