<!-- Generator: Adobe Illustrator 22.0.0, SVG Export Plug-In  -->
<svg version="1.1"
	 xmlns="http://www.w3.org/2000/svg" xmlns:xlink="http://www.w3.org/1999/xlink" xmlns:a="http://ns.adobe.com/AdobeSVGViewerExtensions/3.0/"
	 x="0px" y="0px" width="3365px" height="2653.6px" viewBox="0 0 3365 2653.6"
	 style="overflow:scroll;enable-background:new 0 0 3365 2653.6;" xml:space="preserve">
<style type="text/css">
	.st0{opacity:0.16;}
	.st1{display:none;fill:none;stroke:#FFFFFF;stroke-width:1.4086;stroke-linejoin:round;stroke-miterlimit:10;}
	.st2{display:none;fill:none;stroke:#FFFFFF;stroke-width:1.4086;stroke-miterlimit:10;}
	.st3{fill:none;stroke:#FFFFFF;stroke-miterlimit:10;}
	.st4{fill:none;stroke:#FFFFFF;stroke-linejoin:round;stroke-miterlimit:10;}
	.st5{display:none;}
	.st6{display:inline;fill:#FFFFFF;}
	.st7{fill:none;}
</style>
<defs>
</defs>
<g id="Layer_3_1_" class="st0">
	<polygon class="st1" points="1676.8,1104.8 1676.8,1039.6 1620.4,1007.1 1564,1039.6 1564,1104.8 1620.4,1137.3 	"/>
	<polygon class="st2" points="1507.5,1202.8 1507.5,1137.7 1451.1,1105.1 1394.7,1137.7 1394.7,1202.8 1451.1,1235.4 	"/>
	<polygon class="st2" points="1620.3,1202.8 1620.3,1137.7 1563.9,1105.1 1507.5,1137.7 1507.5,1202.8 1563.9,1235.4 	"/>
	<polygon class="st1" points="999.9,1300.2 999.9,1235 943.5,1202.5 887.1,1235 887.1,1300.2 943.5,1332.7 	"/>
	<polygon class="st1" points="1112.7,1300.2 1112.7,1235 1056.3,1202.5 999.9,1235 999.9,1300.2 1056.3,1332.7 	"/>
	<polygon class="st1" points="1338.4,1300.2 1338.4,1235 1282,1202.5 1225.5,1235 1225.5,1300.2 1282,1332.7 	"/>
	<polygon class="st1" points="1451.2,1300.2 1451.2,1235 1394.8,1202.5 1338.4,1235 1338.4,1300.2 1394.8,1332.7 	"/>
	<polygon class="st1" points="1564,1300.2 1564,1235 1507.6,1202.5 1451.2,1235 1451.2,1300.2 1507.6,1332.7 	"/>
	<polygon class="st1" points="1676.8,1300.2 1676.8,1235 1620.4,1202.5 1564,1235 1564,1300.2 1620.4,1332.7 	"/>
	<polygon class="st2" points="943.4,1398.2 943.4,1333.1 887,1300.5 830.6,1333.1 830.6,1398.2 887,1430.8 	"/>
	<polygon class="st2" points="1056.2,1398.2 1056.2,1333.1 999.8,1300.5 943.4,1333.1 943.4,1398.2 999.8,1430.8 	"/>
	<polygon class="st2" points="1394.7,1398.2 1394.7,1333.1 1338.2,1300.5 1281.8,1333.1 1281.8,1398.2 1338.2,1430.8 	"/>
	<polygon class="st2" points="1507.5,1398.2 1507.5,1333.1 1451.1,1300.5 1394.7,1333.1 1394.7,1398.2 1451.1,1430.8 	"/>
	<polygon class="st2" points="1620.3,1398.2 1620.3,1333.1 1563.9,1300.5 1507.5,1333.1 1507.5,1398.2 1563.9,1430.8 	"/>
	<polygon class="st1" points="999.9,1495.5 999.9,1430.4 943.5,1397.8 887.1,1430.4 887.1,1495.5 943.5,1528.1 	"/>
	<polygon class="st1" points="1112.7,1495.5 1112.7,1430.4 1056.3,1397.8 999.9,1430.4 999.9,1495.5 1056.3,1528.1 	"/>
	<polygon class="st1" points="1564,1495.5 1564,1430.4 1507.6,1397.8 1451.2,1430.4 1451.2,1495.5 1507.6,1528.1 	"/>
	<polygon class="st1" points="1676.8,1495.5 1676.8,1430.4 1620.4,1397.8 1564,1430.4 1564,1495.5 1620.4,1528.1 	"/>
	<polygon class="st2" points="1733.4,1202.8 1733.4,1137.7 1677,1105.1 1620.6,1137.7 1620.6,1202.8 1677,1235.4 	"/>
	<polygon class="st2" points="1846.2,1202.8 1846.2,1137.7 1789.8,1105.1 1733.4,1137.7 1733.4,1202.8 1789.8,1235.4 	"/>
	<polygon class="st1" points="1790,1300.2 1790,1235 1733.5,1202.5 1677.1,1235 1677.1,1300.2 1733.5,1332.7 	"/>
	<polygon class="st1" points="1902.8,1300.2 1902.8,1235 1846.4,1202.5 1790,1235 1790,1300.2 1846.4,1332.7 	"/>
	<polygon class="st2" points="1733.4,1398.2 1733.4,1333.1 1677,1300.5 1620.6,1333.1 1620.6,1398.2 1677,1430.8 	"/>
	<polygon class="st2" points="1846.2,1398.2 1846.2,1333.1 1789.8,1300.5 1733.4,1333.1 1733.4,1398.2 1789.8,1430.8 	"/>
	<polygon class="st2" points="1959.1,1398.2 1959.1,1333.1 1902.7,1300.5 1846.2,1333.1 1846.2,1398.2 1902.7,1430.8 	"/>
	<polygon class="st1" points="1790,1495.5 1790,1430.4 1733.5,1397.8 1677.1,1430.4 1677.1,1495.5 1733.5,1528.1 	"/>
	<polygon class="st1" points="1902.8,1495.5 1902.8,1430.4 1846.4,1397.8 1790,1430.4 1790,1495.5 1846.4,1528.1 	"/>
	<g>
		<g>
			<polygon class="st3" points="339.3,283.3 339.3,221.6 285.9,190.8 232.4,221.6 232.4,283.3 285.9,314.2 			"/>
			<polygon class="st3" points="446.2,283.3 446.2,221.6 392.7,190.8 339.3,221.6 339.3,283.3 392.7,314.2 			"/>
			<polygon class="st3" points="553,283.3 553,221.6 499.6,190.8 446.2,221.6 446.2,283.3 499.6,314.2 			"/>
			<polygon class="st3" points="659.9,283.3 659.9,221.6 606.5,190.8 553,221.6 553,283.3 606.5,314.2 			"/>
			<polygon class="st3" points="766.8,283.3 766.8,221.6 713.4,190.8 659.9,221.6 659.9,283.3 713.4,314.2 			"/>
			<polygon class="st3" points="873.7,283.3 873.7,221.6 820.2,190.8 766.8,221.6 766.8,283.3 820.2,314.2 			"/>
			<polygon class="st3" points="980.5,283.3 980.5,221.6 927.1,190.8 873.7,221.6 873.7,283.3 927.1,314.2 			"/>
			<polygon class="st3" points="1087.4,283.3 1087.4,221.6 1034,190.8 980.5,221.6 980.5,283.3 1034,314.2 			"/>
			<polygon class="st3" points="1194.3,283.3 1194.3,221.6 1140.8,190.8 1087.4,221.6 1087.4,283.3 1140.8,314.2 			"/>
			<polygon class="st3" points="1301.2,283.3 1301.2,221.6 1247.7,190.8 1194.3,221.6 1194.3,283.3 1247.7,314.2 			"/>
			<polygon class="st3" points="1408,283.3 1408,221.6 1354.6,190.8 1301.2,221.6 1301.2,283.3 1354.6,314.2 			"/>
			<polygon class="st3" points="1514.9,283.3 1514.9,221.6 1461.5,190.8 1408,221.6 1408,283.3 1461.5,314.2 			"/>
			<polygon class="st3" points="1621.8,283.3 1621.8,221.6 1568.3,190.8 1514.9,221.6 1514.9,283.3 1568.3,314.2 			"/>
			<polygon class="st4" points="392.8,375.5 392.8,313.8 339.4,283 286,313.8 286,375.5 339.4,406.4 			"/>
			<polygon class="st4" points="499.7,375.5 499.7,313.8 446.3,283 392.8,313.8 392.8,375.5 446.3,406.4 			"/>
			<polygon class="st4" points="606.6,375.5 606.6,313.8 553.1,283 499.7,313.8 499.7,375.5 553.1,406.4 			"/>
			<polygon class="st4" points="713.5,375.5 713.5,313.8 660,283 606.6,313.8 606.6,375.5 660,406.4 			"/>
			<polygon class="st4" points="820.3,375.5 820.3,313.8 766.9,283 713.5,313.8 713.5,375.5 766.9,406.4 			"/>
			<polygon class="st4" points="927.2,375.5 927.2,313.8 873.8,283 820.3,313.8 820.3,375.5 873.8,406.4 			"/>
			<polygon class="st4" points="1034.1,375.5 1034.1,313.8 980.6,283 927.2,313.8 927.2,375.5 980.6,406.4 			"/>
			<polygon class="st4" points="1141,375.5 1141,313.8 1087.5,283 1034.1,313.8 1034.1,375.5 1087.5,406.4 			"/>
			<polygon class="st4" points="1247.8,375.5 1247.8,313.8 1194.4,283 1141,313.8 1141,375.5 1194.4,406.4 			"/>
			<polygon class="st4" points="1354.7,375.5 1354.7,313.8 1301.3,283 1247.8,313.8 1247.8,375.5 1301.3,406.4 			"/>
			<polygon class="st4" points="1461.6,375.5 1461.6,313.8 1408.1,283 1354.7,313.8 1354.7,375.5 1408.1,406.4 			"/>
			<polygon class="st4" points="1568.4,375.5 1568.4,313.8 1515,283 1461.6,313.8 1461.6,375.5 1515,406.4 			"/>
			<polygon class="st4" points="1675.3,375.5 1675.3,313.8 1621.9,283 1568.4,313.8 1568.4,375.5 1621.9,406.4 			"/>
			<polygon class="st3" points="339.3,468.4 339.3,406.7 285.9,375.9 232.4,406.7 232.4,468.4 285.9,499.3 			"/>
			<polygon class="st3" points="446.2,468.4 446.2,406.7 392.7,375.9 339.3,406.7 339.3,468.4 392.7,499.3 			"/>
			<polygon class="st3" points="553,468.4 553,406.7 499.6,375.9 446.2,406.7 446.2,468.4 499.6,499.3 			"/>
			<polygon class="st3" points="659.9,468.4 659.9,406.7 606.5,375.9 553,406.7 553,468.4 606.5,499.3 			"/>
			<polygon class="st3" points="766.8,468.4 766.8,406.7 713.4,375.9 659.9,406.7 659.9,468.4 713.4,499.3 			"/>
			<polygon class="st3" points="873.7,468.4 873.7,406.7 820.2,375.9 766.8,406.7 766.8,468.4 820.2,499.3 			"/>
			<polygon class="st3" points="980.5,468.4 980.5,406.7 927.1,375.9 873.7,406.7 873.7,468.4 927.1,499.3 			"/>
			<polygon class="st3" points="1087.4,468.4 1087.4,406.7 1034,375.9 980.5,406.7 980.5,468.4 1034,499.3 			"/>
			<polygon class="st3" points="1194.3,468.4 1194.3,406.7 1140.8,375.9 1087.4,406.7 1087.4,468.4 1140.8,499.3 			"/>
			<polygon class="st3" points="1301.2,468.4 1301.2,406.7 1247.7,375.9 1194.3,406.7 1194.3,468.4 1247.7,499.3 			"/>
			<polygon class="st3" points="1408,468.4 1408,406.7 1354.6,375.9 1301.2,406.7 1301.2,468.4 1354.6,499.3 			"/>
			<polygon class="st3" points="1514.9,468.4 1514.9,406.7 1461.5,375.9 1408,406.7 1408,468.4 1461.5,499.3 			"/>
			<polygon class="st3" points="1621.8,468.4 1621.8,406.7 1568.3,375.9 1514.9,406.7 1514.9,468.4 1568.3,499.3 			"/>
			<polygon class="st4" points="392.8,560.6 392.8,498.9 339.4,468.1 286,498.9 286,560.6 339.4,591.5 			"/>
			<polygon class="st4" points="499.7,560.6 499.7,498.9 446.3,468.1 392.8,498.9 392.8,560.6 446.3,591.5 			"/>
			<polygon class="st4" points="606.6,560.6 606.6,498.9 553.1,468.1 499.7,498.9 499.7,560.6 553.1,591.5 			"/>
			<polygon class="st4" points="713.5,560.6 713.5,498.9 660,468.1 606.6,498.9 606.6,560.6 660,591.5 			"/>
			<polygon class="st4" points="820.3,560.6 820.3,498.9 766.9,468.1 713.5,498.9 713.5,560.6 766.9,591.5 			"/>
			<polygon class="st4" points="927.2,560.6 927.2,498.9 873.8,468.1 820.3,498.9 820.3,560.6 873.8,591.5 			"/>
			<polygon class="st4" points="1034.1,560.6 1034.1,498.9 980.6,468.1 927.2,498.9 927.2,560.6 980.6,591.5 			"/>
			<polygon class="st4" points="1141,560.6 1141,498.9 1087.5,468.1 1034.1,498.9 1034.1,560.6 1087.5,591.5 			"/>
			<polygon class="st4" points="1247.8,560.6 1247.8,498.9 1194.4,468.1 1141,498.9 1141,560.6 1194.4,591.5 			"/>
			<polygon class="st4" points="1354.7,560.6 1354.7,498.9 1301.3,468.1 1247.8,498.9 1247.8,560.6 1301.3,591.5 			"/>
			<polygon class="st4" points="1461.6,560.6 1461.6,498.9 1408.1,468.1 1354.7,498.9 1354.7,560.6 1408.1,591.5 			"/>
			<polygon class="st4" points="1568.4,560.6 1568.4,498.9 1515,468.1 1461.6,498.9 1461.6,560.6 1515,591.5 			"/>
			<polygon class="st4" points="1675.3,560.6 1675.3,498.9 1621.9,468.1 1568.4,498.9 1568.4,560.6 1621.9,591.5 			"/>
			<polygon class="st3" points="339.3,653.5 339.3,591.8 285.9,561 232.4,591.8 232.4,653.5 285.9,684.4 			"/>
			<polygon class="st3" points="446.2,653.5 446.2,591.8 392.7,561 339.3,591.8 339.3,653.5 392.7,684.4 			"/>
			<polygon class="st3" points="553,653.5 553,591.8 499.6,561 446.2,591.8 446.2,653.5 499.6,684.4 			"/>
			<polygon class="st3" points="659.9,653.5 659.9,591.8 606.5,561 553,591.8 553,653.5 606.5,684.4 			"/>
			<polygon class="st3" points="766.8,653.5 766.8,591.8 713.4,561 659.9,591.8 659.9,653.5 713.4,684.4 			"/>
			<polygon class="st3" points="873.7,653.5 873.7,591.8 820.2,561 766.8,591.8 766.8,653.5 820.2,684.4 			"/>
			<polygon class="st3" points="980.5,653.5 980.5,591.8 927.1,561 873.7,591.8 873.7,653.5 927.1,684.4 			"/>
			<polygon class="st3" points="1087.4,653.5 1087.4,591.8 1034,561 980.5,591.8 980.5,653.5 1034,684.4 			"/>
			<polygon class="st3" points="1194.3,653.5 1194.3,591.8 1140.8,561 1087.4,591.8 1087.4,653.5 1140.8,684.4 			"/>
			<polygon class="st3" points="1301.2,653.5 1301.2,591.8 1247.7,561 1194.3,591.8 1194.3,653.5 1247.7,684.4 			"/>
			<polygon class="st3" points="1408,653.5 1408,591.8 1354.6,561 1301.2,591.8 1301.2,653.5 1354.6,684.4 			"/>
			<polygon class="st3" points="1514.9,653.5 1514.9,591.8 1461.5,561 1408,591.8 1408,653.5 1461.5,684.4 			"/>
			<polygon class="st3" points="1621.8,653.5 1621.8,591.8 1568.3,561 1514.9,591.8 1514.9,653.5 1568.3,684.4 			"/>
			<polygon class="st4" points="392.8,745.7 392.8,684 339.4,653.2 286,684 286,745.7 339.4,776.6 			"/>
			<polygon class="st4" points="499.7,745.7 499.7,684 446.3,653.2 392.8,684 392.8,745.7 446.3,776.6 			"/>
			<polygon class="st4" points="606.6,745.7 606.6,684 553.1,653.2 499.7,684 499.7,745.7 553.1,776.6 			"/>
			<polygon class="st4" points="713.5,745.7 713.5,684 660,653.2 606.6,684 606.6,745.7 660,776.6 			"/>
			<polygon class="st4" points="820.3,745.7 820.3,684 766.9,653.2 713.5,684 713.5,745.7 766.9,776.6 			"/>
			<polygon class="st4" points="927.2,745.7 927.2,684 873.8,653.2 820.3,684 820.3,745.7 873.8,776.6 			"/>
			<polygon class="st4" points="1034.1,745.7 1034.1,684 980.6,653.2 927.2,684 927.2,745.7 980.6,776.6 			"/>
			<polygon class="st4" points="1141,745.7 1141,684 1087.5,653.2 1034.1,684 1034.1,745.7 1087.5,776.6 			"/>
			<polygon class="st4" points="1247.8,745.7 1247.8,684 1194.4,653.2 1141,684 1141,745.7 1194.4,776.6 			"/>
			<polygon class="st4" points="1354.7,745.7 1354.7,684 1301.3,653.2 1247.8,684 1247.8,745.7 1301.3,776.6 			"/>
			<polygon class="st4" points="1461.6,745.7 1461.6,684 1408.1,653.2 1354.7,684 1354.7,745.7 1408.1,776.6 			"/>
			<polygon class="st4" points="1568.4,745.7 1568.4,684 1515,653.2 1461.6,684 1461.6,745.7 1515,776.6 			"/>
			<polygon class="st4" points="1675.3,745.7 1675.3,684 1621.9,653.2 1568.4,684 1568.4,745.7 1621.9,776.6 			"/>
			<polygon class="st3" points="339.3,838.6 339.3,776.9 285.9,746.1 232.4,776.9 232.4,838.6 285.9,869.5 			"/>
			<polygon class="st3" points="446.2,838.6 446.2,776.9 392.7,746.1 339.3,776.9 339.3,838.6 392.7,869.5 			"/>
			<polygon class="st3" points="553,838.6 553,776.9 499.6,746.1 446.2,776.9 446.2,838.6 499.6,869.5 			"/>
			<polygon class="st3" points="659.9,838.6 659.9,776.9 606.5,746.1 553,776.9 553,838.6 606.5,869.5 			"/>
			<polygon class="st3" points="766.8,838.6 766.8,776.9 713.4,746.1 659.9,776.9 659.9,838.6 713.4,869.5 			"/>
			<polygon class="st3" points="873.7,838.6 873.7,776.9 820.2,746.1 766.8,776.9 766.8,838.6 820.2,869.5 			"/>
			<polygon class="st3" points="980.5,838.6 980.5,776.9 927.1,746.1 873.7,776.9 873.7,838.6 927.1,869.5 			"/>
			<polygon class="st3" points="1087.4,838.6 1087.4,776.9 1034,746.1 980.5,776.9 980.5,838.6 1034,869.5 			"/>
			<polygon class="st3" points="1194.3,838.6 1194.3,776.9 1140.8,746.1 1087.4,776.9 1087.4,838.6 1140.8,869.5 			"/>
			<polygon class="st3" points="1301.2,838.6 1301.2,776.9 1247.7,746.1 1194.3,776.9 1194.3,838.6 1247.7,869.5 			"/>
			<polygon class="st3" points="1408,838.6 1408,776.9 1354.6,746.1 1301.2,776.9 1301.2,838.6 1354.6,869.5 			"/>
			<polygon class="st3" points="1514.9,838.6 1514.9,776.9 1461.5,746.1 1408,776.9 1408,838.6 1461.5,869.5 			"/>
			<polygon class="st3" points="1621.8,838.6 1621.8,776.9 1568.3,746.1 1514.9,776.9 1514.9,838.6 1568.3,869.5 			"/>
			<polygon class="st4" points="392.8,930.8 392.8,869.1 339.4,838.3 286,869.1 286,930.8 339.4,961.7 			"/>
			<polygon class="st4" points="499.7,930.8 499.7,869.1 446.3,838.3 392.8,869.1 392.8,930.8 446.3,961.7 			"/>
			<polygon class="st4" points="606.6,930.8 606.6,869.1 553.1,838.3 499.7,869.1 499.7,930.8 553.1,961.7 			"/>
			<polygon class="st4" points="713.5,930.8 713.5,869.1 660,838.3 606.6,869.1 606.6,930.8 660,961.7 			"/>
			<polygon class="st4" points="820.3,930.8 820.3,869.1 766.9,838.3 713.5,869.1 713.5,930.8 766.9,961.7 			"/>
			<polygon class="st4" points="927.2,930.8 927.2,869.1 873.8,838.3 820.3,869.1 820.3,930.8 873.8,961.7 			"/>
			<polygon class="st4" points="1034.1,930.8 1034.1,869.1 980.6,838.3 927.2,869.1 927.2,930.8 980.6,961.7 			"/>
			<polygon class="st4" points="1141,930.8 1141,869.1 1087.5,838.3 1034.1,869.1 1034.1,930.8 1087.5,961.7 			"/>
			<polygon class="st4" points="1247.8,930.8 1247.8,869.1 1194.4,838.3 1141,869.1 1141,930.8 1194.4,961.7 			"/>
			<polygon class="st4" points="1354.7,930.8 1354.7,869.1 1301.3,838.3 1247.8,869.1 1247.8,930.8 1301.3,961.7 			"/>
			<polygon class="st4" points="1461.6,930.8 1461.6,869.1 1408.1,838.3 1354.7,869.1 1354.7,930.8 1408.1,961.7 			"/>
			<polygon class="st4" points="1568.4,930.8 1568.4,869.1 1515,838.3 1461.6,869.1 1461.6,930.8 1515,961.7 			"/>
			<polygon class="st4" points="1675.3,930.8 1675.3,869.1 1621.9,838.3 1568.4,869.1 1568.4,930.8 1621.9,961.7 			"/>
			<polygon class="st3" points="339.3,1023.7 339.3,962 285.9,931.2 232.4,962 232.4,1023.7 285.9,1054.6 			"/>
			<polygon class="st3" points="446.2,1023.7 446.2,962 392.7,931.2 339.3,962 339.3,1023.7 392.7,1054.6 			"/>
			<polygon class="st3" points="553,1023.7 553,962 499.6,931.2 446.2,962 446.2,1023.7 499.6,1054.6 			"/>
			<polygon class="st3" points="659.9,1023.7 659.9,962 606.5,931.2 553,962 553,1023.7 606.5,1054.6 			"/>
			<polygon class="st3" points="766.8,1023.7 766.8,962 713.4,931.2 659.9,962 659.9,1023.7 713.4,1054.6 			"/>
			<polygon class="st3" points="873.7,1023.7 873.7,962 820.2,931.2 766.8,962 766.8,1023.7 820.2,1054.6 			"/>
			<polygon class="st3" points="980.5,1023.7 980.5,962 927.1,931.2 873.7,962 873.7,1023.7 927.1,1054.6 			"/>
			<polygon class="st3" points="1087.4,1023.7 1087.4,962 1034,931.2 980.5,962 980.5,1023.7 1034,1054.6 			"/>
			<polygon class="st3" points="1194.3,1023.7 1194.3,962 1140.8,931.2 1087.4,962 1087.4,1023.7 1140.8,1054.6 			"/>
			<polygon class="st3" points="1301.2,1023.7 1301.2,962 1247.7,931.2 1194.3,962 1194.3,1023.7 1247.7,1054.6 			"/>
			<polygon class="st3" points="1408,1023.7 1408,962 1354.6,931.2 1301.2,962 1301.2,1023.7 1354.6,1054.6 			"/>
			<polygon class="st3" points="1514.9,1023.7 1514.9,962 1461.5,931.2 1408,962 1408,1023.7 1461.5,1054.6 			"/>
			<polygon class="st3" points="1621.8,1023.7 1621.8,962 1568.3,931.2 1514.9,962 1514.9,1023.7 1568.3,1054.6 			"/>
			<polygon class="st4" points="392.8,1115.9 392.8,1054.2 339.4,1023.4 286,1054.2 286,1115.9 339.4,1146.8 			"/>
			<polygon class="st4" points="499.7,1115.9 499.7,1054.2 446.3,1023.4 392.8,1054.2 392.8,1115.9 446.3,1146.8 			"/>
			<polygon class="st4" points="606.6,1115.9 606.6,1054.2 553.1,1023.4 499.7,1054.2 499.7,1115.9 553.1,1146.8 			"/>
			<polygon class="st4" points="713.5,1115.9 713.5,1054.2 660,1023.4 606.6,1054.2 606.6,1115.9 660,1146.8 			"/>
			<polygon class="st4" points="820.3,1115.9 820.3,1054.2 766.9,1023.4 713.5,1054.2 713.5,1115.9 766.9,1146.8 			"/>
			<polygon class="st4" points="927.2,1115.9 927.2,1054.2 873.8,1023.4 820.3,1054.2 820.3,1115.9 873.8,1146.8 			"/>
			<polygon class="st4" points="1034.1,1115.9 1034.1,1054.2 980.6,1023.4 927.2,1054.2 927.2,1115.9 980.6,1146.8 			"/>
			<polygon class="st4" points="1141,1115.9 1141,1054.2 1087.5,1023.4 1034.1,1054.2 1034.1,1115.9 1087.5,1146.8 			"/>
			<polygon class="st4" points="1247.8,1115.9 1247.8,1054.2 1194.4,1023.4 1141,1054.2 1141,1115.9 1194.4,1146.8 			"/>
			<polygon class="st4" points="1354.7,1115.9 1354.7,1054.2 1301.3,1023.4 1247.8,1054.2 1247.8,1115.9 1301.3,1146.8 			"/>
			<polygon class="st4" points="1461.6,1115.9 1461.6,1054.2 1408.1,1023.4 1354.7,1054.2 1354.7,1115.9 1408.1,1146.8 			"/>
			<polygon class="st4" points="1568.4,1115.9 1568.4,1054.2 1515,1023.4 1461.6,1054.2 1461.6,1115.9 1515,1146.8 			"/>
			<polygon class="st3" points="339.3,1208.8 339.3,1147.1 285.9,1116.3 232.4,1147.1 232.4,1208.8 285.9,1239.7 			"/>
			<polygon class="st3" points="446.2,1208.8 446.2,1147.1 392.7,1116.3 339.3,1147.1 339.3,1208.8 392.7,1239.7 			"/>
			<polygon class="st3" points="553,1208.8 553,1147.1 499.6,1116.3 446.2,1147.1 446.2,1208.8 499.6,1239.7 			"/>
			<polygon class="st3" points="659.9,1208.8 659.9,1147.1 606.5,1116.3 553,1147.1 553,1208.8 606.5,1239.7 			"/>
			<polygon class="st3" points="766.8,1208.8 766.8,1147.1 713.4,1116.3 659.9,1147.1 659.9,1208.8 713.4,1239.7 			"/>
			<polygon class="st3" points="873.7,1208.8 873.7,1147.1 820.2,1116.3 766.8,1147.1 766.8,1208.8 820.2,1239.7 			"/>
			<polygon class="st3" points="980.5,1208.8 980.5,1147.1 927.1,1116.3 873.7,1147.1 873.7,1208.8 927.1,1239.7 			"/>
			<polygon class="st3" points="1087.4,1208.8 1087.4,1147.1 1034,1116.3 980.5,1147.1 980.5,1208.8 1034,1239.7 			"/>
			<polygon class="st3" points="1194.3,1208.8 1194.3,1147.1 1140.8,1116.3 1087.4,1147.1 1087.4,1208.8 1140.8,1239.7 			"/>
			<polygon class="st3" points="1301.2,1208.8 1301.2,1147.1 1247.7,1116.3 1194.3,1147.1 1194.3,1208.8 1247.7,1239.7 			"/>
			<polygon class="st3" points="1408,1208.8 1408,1147.1 1354.6,1116.3 1301.2,1147.1 1301.2,1208.8 1354.6,1239.7 			"/>
			<polygon class="st4" points="392.8,1301 392.8,1239.3 339.4,1208.5 286,1239.3 286,1301 339.4,1331.9 			"/>
			<polygon class="st4" points="499.7,1301 499.7,1239.3 446.3,1208.5 392.8,1239.3 392.8,1301 446.3,1331.9 			"/>
			<polygon class="st4" points="606.6,1301 606.6,1239.3 553.1,1208.5 499.7,1239.3 499.7,1301 553.1,1331.9 			"/>
			<polygon class="st4" points="713.5,1301 713.5,1239.3 660,1208.5 606.6,1239.3 606.6,1301 660,1331.9 			"/>
			<polygon class="st4" points="820.3,1301 820.3,1239.3 766.9,1208.5 713.5,1239.3 713.5,1301 766.9,1331.9 			"/>
			<polygon class="st4" points="927.2,1301 927.2,1239.3 873.8,1208.5 820.3,1239.3 820.3,1301 873.8,1331.9 			"/>
			<polygon class="st4" points="1247.8,1301 1247.8,1239.3 1194.4,1208.5 1141,1239.3 1141,1301 1194.4,1331.9 			"/>
			<polygon class="st3" points="339.3,1393.9 339.3,1332.2 285.9,1301.4 232.4,1332.2 232.4,1393.9 285.9,1424.8 			"/>
			<polygon class="st3" points="446.2,1393.9 446.2,1332.2 392.7,1301.4 339.3,1332.2 339.3,1393.9 392.7,1424.8 			"/>
			<polygon class="st3" points="553,1393.9 553,1332.2 499.6,1301.4 446.2,1332.2 446.2,1393.9 499.6,1424.8 			"/>
			<polygon class="st3" points="659.9,1393.9 659.9,1332.2 606.5,1301.4 553,1332.2 553,1393.9 606.5,1424.8 			"/>
			<polygon class="st3" points="766.8,1393.9 766.8,1332.2 713.4,1301.4 659.9,1332.2 659.9,1393.9 713.4,1424.8 			"/>
			<polygon class="st3" points="873.7,1393.9 873.7,1332.2 820.2,1301.4 766.8,1332.2 766.8,1393.9 820.2,1424.8 			"/>
			<polygon class="st3" points="1194.3,1393.9 1194.3,1332.2 1140.8,1301.4 1087.4,1332.2 1087.4,1393.9 1140.8,1424.8 			"/>
			<polygon class="st3" points="1301.2,1393.9 1301.2,1332.2 1247.7,1301.4 1194.3,1332.2 1194.3,1393.9 1247.7,1424.8 			"/>
			<polygon class="st4" points="392.8,1486.1 392.8,1424.4 339.4,1393.6 286,1424.4 286,1486.1 339.4,1517 			"/>
			<polygon class="st4" points="499.7,1486.1 499.7,1424.4 446.3,1393.6 392.8,1424.4 392.8,1486.1 446.3,1517 			"/>
			<polygon class="st4" points="606.6,1486.1 606.6,1424.4 553.1,1393.6 499.7,1424.4 499.7,1486.1 553.1,1517 			"/>
			<polygon class="st4" points="713.5,1486.1 713.5,1424.4 660,1393.6 606.6,1424.4 606.6,1486.1 660,1517 			"/>
			<polygon class="st4" points="820.3,1486.1 820.3,1424.4 766.9,1393.6 713.5,1424.4 713.5,1486.1 766.9,1517 			"/>
			<polygon class="st4" points="927.2,1486.1 927.2,1424.4 873.8,1393.6 820.3,1424.4 820.3,1486.1 873.8,1517 			"/>
			<polygon class="st4" points="1247.8,1486.1 1247.8,1424.4 1194.4,1393.6 1141,1424.4 1141,1486.1 1194.4,1517 			"/>
			<polygon class="st4" points="1354.7,1486.1 1354.7,1424.4 1301.3,1393.6 1247.8,1424.4 1247.8,1486.1 1301.3,1517 			"/>
			<polygon class="st4" points="1461.6,1486.1 1461.6,1424.4 1408.1,1393.6 1354.7,1424.4 1354.7,1486.1 1408.1,1517 			"/>
			<polygon class="st3" points="339.3,1579 339.3,1517.3 285.9,1486.5 232.4,1517.3 232.4,1579 285.9,1609.9 			"/>
			<polygon class="st3" points="446.2,1579 446.2,1517.3 392.7,1486.5 339.3,1517.3 339.3,1579 392.7,1609.9 			"/>
			<polygon class="st3" points="553,1579 553,1517.3 499.6,1486.5 446.2,1517.3 446.2,1579 499.6,1609.9 			"/>
			<polygon class="st3" points="659.9,1579 659.9,1517.3 606.5,1486.5 553,1517.3 553,1579 606.5,1609.9 			"/>
			<polygon class="st3" points="766.8,1579 766.8,1517.3 713.4,1486.5 659.9,1517.3 659.9,1579 713.4,1609.9 			"/>
			<polygon class="st3" points="873.7,1579 873.7,1517.3 820.2,1486.5 766.8,1517.3 766.8,1579 820.2,1609.9 			"/>
			<polygon class="st3" points="980.5,1579 980.5,1517.3 927.1,1486.5 873.7,1517.3 873.7,1579 927.1,1609.9 			"/>
			<polygon class="st3" points="1087.4,1579 1087.4,1517.3 1034,1486.5 980.5,1517.3 980.5,1579 1034,1609.9 			"/>
			<polygon class="st3" points="1194.3,1579 1194.3,1517.3 1140.8,1486.5 1087.4,1517.3 1087.4,1579 1140.8,1609.9 			"/>
			<polygon class="st3" points="1301.2,1579 1301.2,1517.3 1247.7,1486.5 1194.3,1517.3 1194.3,1579 1247.7,1609.9 			"/>
			<polygon class="st3" points="1408,1579 1408,1517.3 1354.6,1486.5 1301.2,1517.3 1301.2,1579 1354.6,1609.9 			"/>
			<polygon class="st3" points="1514.9,1579 1514.9,1517.3 1461.5,1486.5 1408,1517.3 1408,1579 1461.5,1609.9 			"/>
			<polygon class="st3" points="1621.8,1579 1621.8,1517.3 1568.3,1486.5 1514.9,1517.3 1514.9,1579 1568.3,1609.9 			"/>
			<polygon class="st4" points="392.8,1671.2 392.8,1609.5 339.4,1578.7 286,1609.5 286,1671.2 339.4,1702.1 			"/>
			<polygon class="st4" points="499.7,1671.2 499.7,1609.5 446.3,1578.7 392.8,1609.5 392.8,1671.2 446.3,1702.1 			"/>
			<polygon class="st4" points="606.6,1671.2 606.6,1609.5 553.1,1578.7 499.7,1609.5 499.7,1671.2 553.1,1702.1 			"/>
			<polygon class="st4" points="713.5,1671.2 713.5,1609.5 660,1578.7 606.6,1609.5 606.6,1671.2 660,1702.1 			"/>
			<polygon class="st4" points="820.3,1671.2 820.3,1609.5 766.9,1578.7 713.5,1609.5 713.5,1671.2 766.9,1702.1 			"/>
			<polygon class="st4" points="927.2,1671.2 927.2,1609.5 873.8,1578.7 820.3,1609.5 820.3,1671.2 873.8,1702.1 			"/>
			<polygon class="st4" points="1034.1,1671.2 1034.1,1609.5 980.6,1578.7 927.2,1609.5 927.2,1671.2 980.6,1702.1 			"/>
			<polygon class="st4" points="1141,1671.2 1141,1609.5 1087.5,1578.7 1034.1,1609.5 1034.1,1671.2 1087.5,1702.1 			"/>
			<polygon class="st4" points="1247.8,1671.2 1247.8,1609.5 1194.4,1578.7 1141,1609.5 1141,1671.2 1194.4,1702.1 			"/>
			<polygon class="st4" points="1354.7,1671.2 1354.7,1609.5 1301.3,1578.7 1247.8,1609.5 1247.8,1671.2 1301.3,1702.1 			"/>
			<polygon class="st4" points="1461.6,1671.2 1461.6,1609.5 1408.1,1578.7 1354.7,1609.5 1354.7,1671.2 1408.1,1702.1 			"/>
			<polygon class="st4" points="1568.4,1671.2 1568.4,1609.5 1515,1578.7 1461.6,1609.5 1461.6,1671.2 1515,1702.1 			"/>
			<polygon class="st4" points="1675.3,1671.2 1675.3,1609.5 1621.9,1578.7 1568.4,1609.5 1568.4,1671.2 1621.9,1702.1 			"/>
			<polygon class="st3" points="339.3,1763.8 339.3,1702.1 285.9,1671.2 232.4,1702.1 232.4,1763.8 285.9,1794.6 			"/>
			<polygon class="st3" points="446.2,1763.8 446.2,1702.1 392.7,1671.2 339.3,1702.1 339.3,1763.8 392.7,1794.6 			"/>
			<polygon class="st3" points="553,1763.8 553,1702.1 499.6,1671.2 446.2,1702.1 446.2,1763.8 499.6,1794.6 			"/>
			<polygon class="st3" points="659.9,1763.8 659.9,1702.1 606.5,1671.2 553,1702.1 553,1763.8 606.5,1794.6 			"/>
			<polygon class="st3" points="766.8,1763.8 766.8,1702.1 713.4,1671.2 659.9,1702.1 659.9,1763.8 713.4,1794.6 			"/>
			<polygon class="st3" points="873.7,1763.8 873.7,1702.1 820.2,1671.2 766.8,1702.1 766.8,1763.8 820.2,1794.6 			"/>
			<polygon class="st3" points="980.5,1763.8 980.5,1702.1 927.1,1671.2 873.7,1702.1 873.7,1763.8 927.1,1794.6 			"/>
			<polygon class="st3" points="1087.4,1763.8 1087.4,1702.1 1034,1671.2 980.5,1702.1 980.5,1763.8 1034,1794.6 			"/>
			<polygon class="st3" points="1194.3,1763.8 1194.3,1702.1 1140.8,1671.2 1087.4,1702.1 1087.4,1763.8 1140.8,1794.6 			"/>
			<polygon class="st3" points="1301.2,1763.8 1301.2,1702.1 1247.7,1671.2 1194.3,1702.1 1194.3,1763.8 1247.7,1794.6 			"/>
			<polygon class="st3" points="1408,1763.8 1408,1702.1 1354.6,1671.2 1301.2,1702.1 1301.2,1763.8 1354.6,1794.6 			"/>
			<polygon class="st3" points="1514.9,1763.8 1514.9,1702.1 1461.5,1671.2 1408,1702.1 1408,1763.8 1461.5,1794.6 			"/>
			<polygon class="st3" points="1621.8,1763.8 1621.8,1702.1 1568.3,1671.2 1514.9,1702.1 1514.9,1763.8 1568.3,1794.6 			"/>
			<polygon class="st4" points="392.8,1856 392.8,1794.3 339.4,1763.4 286,1794.3 286,1856 339.4,1886.8 			"/>
			<polygon class="st4" points="499.7,1856 499.7,1794.3 446.3,1763.4 392.8,1794.3 392.8,1856 446.3,1886.8 			"/>
			<polygon class="st4" points="606.6,1856 606.6,1794.3 553.1,1763.4 499.7,1794.3 499.7,1856 553.1,1886.8 			"/>
			<polygon class="st4" points="713.5,1856 713.5,1794.3 660,1763.4 606.6,1794.3 606.6,1856 660,1886.8 			"/>
			<polygon class="st4" points="820.3,1856 820.3,1794.3 766.9,1763.4 713.5,1794.3 713.5,1856 766.9,1886.8 			"/>
			<polygon class="st4" points="927.2,1856 927.2,1794.3 873.8,1763.4 820.3,1794.3 820.3,1856 873.8,1886.8 			"/>
			<polygon class="st4" points="1034.1,1856 1034.1,1794.3 980.6,1763.4 927.2,1794.3 927.2,1856 980.6,1886.8 			"/>
			<polygon class="st4" points="1141,1856 1141,1794.3 1087.5,1763.4 1034.1,1794.3 1034.1,1856 1087.5,1886.8 			"/>
			<polygon class="st4" points="1247.8,1856 1247.8,1794.3 1194.4,1763.4 1141,1794.3 1141,1856 1194.4,1886.8 			"/>
			<polygon class="st4" points="1354.7,1856 1354.7,1794.3 1301.3,1763.4 1247.8,1794.3 1247.8,1856 1301.3,1886.8 			"/>
			<polygon class="st4" points="1461.6,1856 1461.6,1794.3 1408.1,1763.4 1354.7,1794.3 1354.7,1856 1408.1,1886.8 			"/>
			<polygon class="st4" points="1568.4,1856 1568.4,1794.3 1515,1763.4 1461.6,1794.3 1461.6,1856 1515,1886.8 			"/>
			<polygon class="st4" points="1675.3,1856 1675.3,1794.3 1621.9,1763.4 1568.4,1794.3 1568.4,1856 1621.9,1886.8 			"/>
			<polygon class="st3" points="339.3,1948.9 339.3,1887.2 285.9,1856.3 232.4,1887.2 232.4,1948.9 285.9,1979.7 			"/>
			<polygon class="st3" points="446.2,1948.9 446.2,1887.2 392.7,1856.3 339.3,1887.2 339.3,1948.9 392.7,1979.7 			"/>
			<polygon class="st3" points="553,1948.9 553,1887.2 499.6,1856.3 446.2,1887.2 446.2,1948.9 499.6,1979.7 			"/>
			<polygon class="st3" points="659.9,1948.9 659.9,1887.2 606.5,1856.3 553,1887.2 553,1948.9 606.5,1979.7 			"/>
			<polygon class="st3" points="766.8,1948.9 766.8,1887.2 713.4,1856.3 659.9,1887.2 659.9,1948.9 713.4,1979.7 			"/>
			<polygon class="st3" points="873.7,1948.9 873.7,1887.2 820.2,1856.3 766.8,1887.2 766.8,1948.9 820.2,1979.7 			"/>
			<polygon class="st3" points="980.5,1948.9 980.5,1887.2 927.1,1856.3 873.7,1887.2 873.7,1948.9 927.1,1979.7 			"/>
			<polygon class="st3" points="1087.4,1948.9 1087.4,1887.2 1034,1856.3 980.5,1887.2 980.5,1948.9 1034,1979.7 			"/>
			<polygon class="st3" points="1194.3,1948.9 1194.3,1887.2 1140.8,1856.3 1087.4,1887.2 1087.4,1948.9 1140.8,1979.7 			"/>
			<polygon class="st3" points="1301.2,1948.9 1301.2,1887.2 1247.7,1856.3 1194.3,1887.2 1194.3,1948.9 1247.7,1979.7 			"/>
			<polygon class="st3" points="1408,1948.9 1408,1887.2 1354.6,1856.3 1301.2,1887.2 1301.2,1948.9 1354.6,1979.7 			"/>
			<polygon class="st3" points="1514.9,1948.9 1514.9,1887.2 1461.5,1856.3 1408,1887.2 1408,1948.9 1461.5,1979.7 			"/>
			<polygon class="st3" points="1621.8,1948.9 1621.8,1887.2 1568.3,1856.3 1514.9,1887.2 1514.9,1948.9 1568.3,1979.7 			"/>
			<polygon class="st4" points="392.8,2041.1 392.8,1979.4 339.4,1948.5 286,1979.4 286,2041.1 339.4,2071.9 			"/>
			<polygon class="st4" points="499.7,2041.1 499.7,1979.4 446.3,1948.5 392.8,1979.4 392.8,2041.1 446.3,2071.9 			"/>
			<polygon class="st4" points="606.6,2041.1 606.6,1979.4 553.1,1948.5 499.7,1979.4 499.7,2041.1 553.1,2071.9 			"/>
			<polygon class="st4" points="713.5,2041.1 713.5,1979.4 660,1948.5 606.6,1979.4 606.6,2041.1 660,2071.9 			"/>
			<polygon class="st4" points="820.3,2041.1 820.3,1979.4 766.9,1948.5 713.5,1979.4 713.5,2041.1 766.9,2071.9 			"/>
			<polygon class="st4" points="927.2,2041.1 927.2,1979.4 873.8,1948.5 820.3,1979.4 820.3,2041.1 873.8,2071.9 			"/>
			<polygon class="st4" points="1034.1,2041.1 1034.1,1979.4 980.6,1948.5 927.2,1979.4 927.2,2041.1 980.6,2071.9 			"/>
			<polygon class="st4" points="1141,2041.1 1141,1979.4 1087.5,1948.5 1034.1,1979.4 1034.1,2041.1 1087.5,2071.9 			"/>
			<polygon class="st4" points="1247.8,2041.1 1247.8,1979.4 1194.4,1948.5 1141,1979.4 1141,2041.1 1194.4,2071.9 			"/>
			<polygon class="st4" points="1354.7,2041.1 1354.7,1979.4 1301.3,1948.5 1247.8,1979.4 1247.8,2041.1 1301.3,2071.9 			"/>
			<polygon class="st4" points="1461.6,2041.1 1461.6,1979.4 1408.1,1948.5 1354.7,1979.4 1354.7,2041.1 1408.1,2071.9 			"/>
			<polygon class="st4" points="1568.4,2041.1 1568.4,1979.4 1515,1948.5 1461.6,1979.4 1461.6,2041.1 1515,2071.9 			"/>
			<polygon class="st4" points="1675.3,2041.1 1675.3,1979.4 1621.9,1948.5 1568.4,1979.4 1568.4,2041.1 1621.9,2071.9 			"/>
			<polygon class="st3" points="339.3,2134 339.3,2072.3 285.9,2041.4 232.4,2072.3 232.4,2134 285.9,2164.8 			"/>
			<polygon class="st3" points="446.2,2134 446.2,2072.3 392.7,2041.4 339.3,2072.3 339.3,2134 392.7,2164.8 			"/>
			<polygon class="st3" points="553,2134 553,2072.3 499.6,2041.4 446.2,2072.3 446.2,2134 499.6,2164.8 			"/>
			<polygon class="st3" points="659.9,2134 659.9,2072.3 606.5,2041.4 553,2072.3 553,2134 606.5,2164.8 			"/>
			<polygon class="st3" points="766.8,2134 766.8,2072.3 713.4,2041.4 659.9,2072.3 659.9,2134 713.4,2164.8 			"/>
			<polygon class="st3" points="873.7,2134 873.7,2072.3 820.2,2041.4 766.8,2072.3 766.8,2134 820.2,2164.8 			"/>
			<polygon class="st3" points="980.5,2134 980.5,2072.3 927.1,2041.4 873.7,2072.3 873.7,2134 927.1,2164.8 			"/>
			<polygon class="st3" points="1087.4,2134 1087.4,2072.3 1034,2041.4 980.5,2072.3 980.5,2134 1034,2164.8 			"/>
			<polygon class="st3" points="1194.3,2134 1194.3,2072.3 1140.8,2041.4 1087.4,2072.3 1087.4,2134 1140.8,2164.8 			"/>
			<polygon class="st3" points="1301.2,2134 1301.2,2072.3 1247.7,2041.4 1194.3,2072.3 1194.3,2134 1247.7,2164.8 			"/>
			<polygon class="st3" points="1408,2134 1408,2072.3 1354.6,2041.4 1301.2,2072.3 1301.2,2134 1354.6,2164.8 			"/>
			<polygon class="st3" points="1514.9,2134 1514.9,2072.3 1461.5,2041.4 1408,2072.3 1408,2134 1461.5,2164.8 			"/>
			<polygon class="st3" points="1621.8,2134 1621.8,2072.3 1568.3,2041.4 1514.9,2072.3 1514.9,2134 1568.3,2164.8 			"/>
			<polygon class="st4" points="392.8,2226.2 392.8,2164.5 339.4,2133.6 286,2164.5 286,2226.2 339.4,2257 			"/>
			<polygon class="st4" points="499.7,2226.2 499.7,2164.5 446.3,2133.6 392.8,2164.5 392.8,2226.2 446.3,2257 			"/>
			<polygon class="st4" points="606.6,2226.2 606.6,2164.5 553.1,2133.6 499.7,2164.5 499.7,2226.2 553.1,2257 			"/>
			<polygon class="st4" points="713.5,2226.2 713.5,2164.5 660,2133.6 606.6,2164.5 606.6,2226.2 660,2257 			"/>
			<polygon class="st4" points="820.3,2226.2 820.3,2164.5 766.9,2133.6 713.5,2164.5 713.5,2226.2 766.9,2257 			"/>
			<polygon class="st4" points="927.2,2226.2 927.2,2164.5 873.8,2133.6 820.3,2164.5 820.3,2226.2 873.8,2257 			"/>
			<polygon class="st4" points="1034.1,2226.2 1034.1,2164.5 980.6,2133.6 927.2,2164.5 927.2,2226.2 980.6,2257 			"/>
			<polygon class="st4" points="1141,2226.2 1141,2164.5 1087.5,2133.6 1034.1,2164.5 1034.1,2226.2 1087.5,2257 			"/>
			<polygon class="st4" points="1247.8,2226.2 1247.8,2164.5 1194.4,2133.6 1141,2164.5 1141,2226.2 1194.4,2257 			"/>
			<polygon class="st4" points="1354.7,2226.2 1354.7,2164.5 1301.3,2133.6 1247.8,2164.5 1247.8,2226.2 1301.3,2257 			"/>
			<polygon class="st4" points="1461.6,2226.2 1461.6,2164.5 1408.1,2133.6 1354.7,2164.5 1354.7,2226.2 1408.1,2257 			"/>
			<polygon class="st4" points="1568.4,2226.2 1568.4,2164.5 1515,2133.6 1461.6,2164.5 1461.6,2226.2 1515,2257 			"/>
			<polygon class="st4" points="1675.3,2226.2 1675.3,2164.5 1621.9,2133.6 1568.4,2164.5 1568.4,2226.2 1621.9,2257 			"/>
			<polygon class="st3" points="339.3,2319.1 339.3,2257.4 285.9,2226.5 232.4,2257.4 232.4,2319.1 285.9,2349.9 			"/>
			<polygon class="st3" points="446.2,2319.1 446.2,2257.4 392.7,2226.5 339.3,2257.4 339.3,2319.1 392.7,2349.9 			"/>
			<polygon class="st3" points="553,2319.1 553,2257.4 499.6,2226.5 446.2,2257.4 446.2,2319.1 499.6,2349.9 			"/>
			<polygon class="st3" points="659.9,2319.1 659.9,2257.4 606.5,2226.5 553,2257.4 553,2319.1 606.5,2349.9 			"/>
			<polygon class="st3" points="766.8,2319.1 766.8,2257.4 713.4,2226.5 659.9,2257.4 659.9,2319.1 713.4,2349.9 			"/>
			<polygon class="st3" points="873.7,2319.1 873.7,2257.4 820.2,2226.5 766.8,2257.4 766.8,2319.1 820.2,2349.9 			"/>
			<polygon class="st3" points="980.5,2319.1 980.5,2257.4 927.1,2226.5 873.7,2257.4 873.7,2319.1 927.1,2349.9 			"/>
			<polygon class="st3" points="1087.4,2319.1 1087.4,2257.4 1034,2226.5 980.5,2257.4 980.5,2319.1 1034,2349.9 			"/>
			<polygon class="st3" points="1194.3,2319.1 1194.3,2257.4 1140.8,2226.5 1087.4,2257.4 1087.4,2319.1 1140.8,2349.9 			"/>
			<polygon class="st3" points="1301.2,2319.1 1301.2,2257.4 1247.7,2226.5 1194.3,2257.4 1194.3,2319.1 1247.7,2349.9 			"/>
			<polygon class="st3" points="1408,2319.1 1408,2257.4 1354.6,2226.5 1301.2,2257.4 1301.2,2319.1 1354.6,2349.9 			"/>
			<polygon class="st3" points="1514.9,2319.1 1514.9,2257.4 1461.5,2226.5 1408,2257.4 1408,2319.1 1461.5,2349.9 			"/>
			<polygon class="st3" points="1621.8,2319.1 1621.8,2257.4 1568.3,2226.5 1514.9,2257.4 1514.9,2319.1 1568.3,2349.9 			"/>
			<polygon class="st4" points="392.8,2411.3 392.8,2349.6 339.4,2318.7 286,2349.6 286,2411.3 339.4,2442.1 			"/>
			<polygon class="st4" points="499.7,2411.3 499.7,2349.6 446.3,2318.7 392.8,2349.6 392.8,2411.3 446.3,2442.1 			"/>
			<polygon class="st4" points="606.6,2411.3 606.6,2349.6 553.1,2318.7 499.7,2349.6 499.7,2411.3 553.1,2442.1 			"/>
			<polygon class="st4" points="713.5,2411.3 713.5,2349.6 660,2318.7 606.6,2349.6 606.6,2411.3 660,2442.1 			"/>
			<polygon class="st4" points="820.3,2411.3 820.3,2349.6 766.9,2318.7 713.5,2349.6 713.5,2411.3 766.9,2442.1 			"/>
			<polygon class="st4" points="927.2,2411.3 927.2,2349.6 873.8,2318.7 820.3,2349.6 820.3,2411.3 873.8,2442.1 			"/>
			<polygon class="st4" points="1034.1,2411.3 1034.1,2349.6 980.6,2318.7 927.2,2349.6 927.2,2411.3 980.6,2442.1 			"/>
			<polygon class="st4" points="1141,2411.3 1141,2349.6 1087.5,2318.7 1034.1,2349.6 1034.1,2411.3 1087.5,2442.1 			"/>
			<polygon class="st4" points="1247.8,2411.3 1247.8,2349.6 1194.4,2318.7 1141,2349.6 1141,2411.3 1194.4,2442.1 			"/>
			<polygon class="st4" points="1354.7,2411.3 1354.7,2349.6 1301.3,2318.7 1247.8,2349.6 1247.8,2411.3 1301.3,2442.1 			"/>
			<polygon class="st4" points="1461.6,2411.3 1461.6,2349.6 1408.1,2318.7 1354.7,2349.6 1354.7,2411.3 1408.1,2442.1 			"/>
			<polygon class="st4" points="1568.4,2411.3 1568.4,2349.6 1515,2318.7 1461.6,2349.6 1461.6,2411.3 1515,2442.1 			"/>
			<polygon class="st4" points="1675.3,2411.3 1675.3,2349.6 1621.9,2318.7 1568.4,2349.6 1568.4,2411.3 1621.9,2442.1 			"/>
			<polygon class="st3" points="1729,283.3 1729,221.6 1675.5,190.8 1622.1,221.6 1622.1,283.3 1675.5,314.2 			"/>
			<polygon class="st3" points="1835.8,283.3 1835.8,221.6 1782.4,190.8 1729,221.6 1729,283.3 1782.4,314.2 			"/>
			<polygon class="st3" points="1942.7,283.3 1942.7,221.6 1889.3,190.8 1835.8,221.6 1835.8,283.3 1889.3,314.2 			"/>
			<polygon class="st3" points="2049.6,283.3 2049.6,221.6 1996.2,190.8 1942.7,221.6 1942.7,283.3 1996.2,314.2 			"/>
			<polygon class="st3" points="2156.5,283.3 2156.5,221.6 2103,190.8 2049.6,221.6 2049.6,283.3 2103,314.2 			"/>
			<polygon class="st3" points="2263.3,283.3 2263.3,221.6 2209.9,190.8 2156.5,221.6 2156.5,283.3 2209.9,314.2 			"/>
			<polygon class="st3" points="2370.2,283.3 2370.2,221.6 2316.8,190.8 2263.3,221.6 2263.3,283.3 2316.8,314.2 			"/>
			<polygon class="st3" points="2477.1,283.3 2477.1,221.6 2423.7,190.8 2370.2,221.6 2370.2,283.3 2423.7,314.2 			"/>
			<polygon class="st3" points="2584,283.3 2584,221.6 2530.5,190.8 2477.1,221.6 2477.1,283.3 2530.5,314.2 			"/>
			<polygon class="st3" points="2690.8,283.3 2690.8,221.6 2637.4,190.8 2584,221.6 2584,283.3 2637.4,314.2 			"/>
			<polygon class="st3" points="2797.7,283.3 2797.7,221.6 2744.3,190.8 2690.8,221.6 2690.8,283.3 2744.3,314.2 			"/>
			<polygon class="st3" points="2904.6,283.3 2904.6,221.6 2851.1,190.8 2797.7,221.6 2797.7,283.3 2851.1,314.2 			"/>
			<polygon class="st3" points="3011.5,283.3 3011.5,221.6 2958,190.8 2904.6,221.6 2904.6,283.3 2958,314.2 			"/>
			<polygon class="st4" points="1782.5,375.5 1782.5,313.8 1729.1,283 1675.6,313.8 1675.6,375.5 1729.1,406.4 			"/>
			<polygon class="st4" points="1889.4,375.5 1889.4,313.8 1836,283 1782.5,313.8 1782.5,375.5 1836,406.4 			"/>
			<polygon class="st4" points="1996.3,375.5 1996.3,313.8 1942.8,283 1889.4,313.8 1889.4,375.5 1942.8,406.4 			"/>
			<polygon class="st4" points="2103.1,375.5 2103.1,313.8 2049.7,283 1996.3,313.8 1996.3,375.5 2049.7,406.4 			"/>
			<polygon class="st4" points="2210,375.5 2210,313.8 2156.6,283 2103.1,313.8 2103.1,375.5 2156.6,406.4 			"/>
			<polygon class="st4" points="2316.9,375.5 2316.9,313.8 2263.4,283 2210,313.8 2210,375.5 2263.4,406.4 			"/>
			<polygon class="st4" points="2423.8,375.5 2423.8,313.8 2370.3,283 2316.9,313.8 2316.9,375.5 2370.3,406.4 			"/>
			<polygon class="st4" points="2530.6,375.5 2530.6,313.8 2477.2,283 2423.8,313.8 2423.8,375.5 2477.2,406.4 			"/>
			<polygon class="st4" points="2637.5,375.5 2637.5,313.8 2584.1,283 2530.6,313.8 2530.6,375.5 2584.1,406.4 			"/>
			<polygon class="st4" points="2744.4,375.5 2744.4,313.8 2690.9,283 2637.5,313.8 2637.5,375.5 2690.9,406.4 			"/>
			<polygon class="st4" points="2851.3,375.5 2851.3,313.8 2797.8,283 2744.4,313.8 2744.4,375.5 2797.8,406.4 			"/>
			<polygon class="st4" points="2958.1,375.5 2958.1,313.8 2904.7,283 2851.3,313.8 2851.3,375.5 2904.7,406.4 			"/>
			<polygon class="st4" points="3065,375.5 3065,313.8 3011.6,283 2958.1,313.8 2958.1,375.5 3011.6,406.4 			"/>
			<polygon class="st3" points="1729,468.4 1729,406.7 1675.5,375.9 1622.1,406.7 1622.1,468.4 1675.5,499.3 			"/>
			<polygon class="st3" points="1835.8,468.4 1835.8,406.7 1782.4,375.9 1729,406.7 1729,468.4 1782.4,499.3 			"/>
			<polygon class="st3" points="1942.7,468.4 1942.7,406.7 1889.3,375.9 1835.8,406.7 1835.8,468.4 1889.3,499.3 			"/>
			<polygon class="st3" points="2049.6,468.4 2049.6,406.7 1996.2,375.9 1942.7,406.7 1942.7,468.4 1996.2,499.3 			"/>
			<polygon class="st3" points="2156.5,468.4 2156.5,406.7 2103,375.9 2049.6,406.7 2049.6,468.4 2103,499.3 			"/>
			<polygon class="st3" points="2263.3,468.4 2263.3,406.7 2209.9,375.9 2156.5,406.7 2156.5,468.4 2209.9,499.3 			"/>
			<polygon class="st3" points="2370.2,468.4 2370.2,406.7 2316.8,375.9 2263.3,406.7 2263.3,468.4 2316.8,499.3 			"/>
			<polygon class="st3" points="2477.1,468.4 2477.1,406.7 2423.7,375.9 2370.2,406.7 2370.2,468.4 2423.7,499.3 			"/>
			<polygon class="st3" points="2584,468.4 2584,406.7 2530.5,375.9 2477.1,406.7 2477.1,468.4 2530.5,499.3 			"/>
			<polygon class="st3" points="2690.8,468.4 2690.8,406.7 2637.4,375.9 2584,406.7 2584,468.4 2637.4,499.3 			"/>
			<polygon class="st3" points="2797.7,468.4 2797.7,406.7 2744.3,375.9 2690.8,406.7 2690.8,468.4 2744.3,499.3 			"/>
			<polygon class="st3" points="2904.6,468.4 2904.6,406.7 2851.1,375.9 2797.7,406.7 2797.7,468.4 2851.1,499.3 			"/>
			<polygon class="st3" points="3011.5,468.4 3011.5,406.7 2958,375.9 2904.6,406.7 2904.6,468.4 2958,499.3 			"/>
			<polygon class="st4" points="1782.5,560.6 1782.5,498.9 1729.1,468.1 1675.6,498.9 1675.6,560.6 1729.1,591.5 			"/>
			<polygon class="st4" points="1889.4,560.6 1889.4,498.9 1836,468.1 1782.5,498.9 1782.5,560.6 1836,591.5 			"/>
			<polygon class="st4" points="1996.3,560.6 1996.3,498.9 1942.8,468.1 1889.4,498.9 1889.4,560.6 1942.8,591.5 			"/>
			<polygon class="st4" points="2103.1,560.6 2103.1,498.9 2049.7,468.1 1996.3,498.9 1996.3,560.6 2049.7,591.5 			"/>
			<polygon class="st4" points="2210,560.6 2210,498.9 2156.6,468.1 2103.1,498.9 2103.1,560.6 2156.6,591.5 			"/>
			<polygon class="st4" points="2316.9,560.6 2316.9,498.9 2263.4,468.1 2210,498.9 2210,560.6 2263.4,591.5 			"/>
			<polygon class="st4" points="2423.8,560.6 2423.8,498.9 2370.3,468.1 2316.9,498.9 2316.9,560.6 2370.3,591.5 			"/>
			<polygon class="st4" points="2530.6,560.6 2530.6,498.9 2477.2,468.1 2423.8,498.9 2423.8,560.6 2477.2,591.5 			"/>
			<polygon class="st4" points="2637.5,560.6 2637.5,498.9 2584.1,468.1 2530.6,498.9 2530.6,560.6 2584.1,591.5 			"/>
			<polygon class="st4" points="2744.4,560.6 2744.4,498.9 2690.9,468.1 2637.5,498.9 2637.5,560.6 2690.9,591.5 			"/>
			<polygon class="st4" points="2851.3,560.6 2851.3,498.9 2797.8,468.1 2744.4,498.9 2744.4,560.6 2797.8,591.5 			"/>
			<polygon class="st4" points="2958.1,560.6 2958.1,498.9 2904.7,468.1 2851.3,498.9 2851.3,560.6 2904.7,591.5 			"/>
			<polygon class="st4" points="3065,560.6 3065,498.9 3011.6,468.1 2958.1,498.9 2958.1,560.6 3011.6,591.5 			"/>
			<polygon class="st3" points="1729,653.5 1729,591.8 1675.5,561 1622.1,591.8 1622.1,653.5 1675.5,684.4 			"/>
			<polygon class="st3" points="1835.8,653.5 1835.8,591.8 1782.4,561 1729,591.8 1729,653.5 1782.4,684.4 			"/>
			<polygon class="st3" points="1942.7,653.5 1942.7,591.8 1889.3,561 1835.8,591.8 1835.8,653.5 1889.3,684.4 			"/>
			<polygon class="st3" points="2049.6,653.5 2049.6,591.8 1996.2,561 1942.7,591.8 1942.7,653.5 1996.2,684.4 			"/>
			<polygon class="st3" points="2156.5,653.5 2156.5,591.8 2103,561 2049.6,591.8 2049.6,653.5 2103,684.4 			"/>
			<polygon class="st3" points="2263.3,653.5 2263.3,591.8 2209.9,561 2156.5,591.8 2156.5,653.5 2209.9,684.4 			"/>
			<polygon class="st3" points="2370.2,653.5 2370.2,591.8 2316.8,561 2263.3,591.8 2263.3,653.5 2316.8,684.4 			"/>
			<polygon class="st3" points="2477.1,653.5 2477.1,591.8 2423.7,561 2370.2,591.8 2370.2,653.5 2423.7,684.4 			"/>
			<polygon class="st3" points="2584,653.5 2584,591.8 2530.5,561 2477.1,591.8 2477.1,653.5 2530.5,684.4 			"/>
			<polygon class="st3" points="2690.8,653.5 2690.8,591.8 2637.4,561 2584,591.8 2584,653.5 2637.4,684.4 			"/>
			<polygon class="st3" points="2797.7,653.5 2797.7,591.8 2744.3,561 2690.8,591.8 2690.8,653.5 2744.3,684.4 			"/>
			<polygon class="st3" points="2904.6,653.5 2904.6,591.8 2851.1,561 2797.7,591.8 2797.7,653.5 2851.1,684.4 			"/>
			<polygon class="st3" points="3011.5,653.5 3011.5,591.8 2958,561 2904.6,591.8 2904.6,653.5 2958,684.4 			"/>
			<polygon class="st4" points="1782.5,745.7 1782.5,684 1729.1,653.2 1675.6,684 1675.6,745.7 1729.1,776.6 			"/>
			<polygon class="st4" points="1889.4,745.7 1889.4,684 1836,653.2 1782.5,684 1782.5,745.7 1836,776.6 			"/>
			<polygon class="st4" points="1996.3,745.7 1996.3,684 1942.8,653.2 1889.4,684 1889.4,745.7 1942.8,776.6 			"/>
			<polygon class="st4" points="2103.1,745.7 2103.1,684 2049.7,653.2 1996.3,684 1996.3,745.7 2049.7,776.6 			"/>
			<polygon class="st4" points="2210,745.7 2210,684 2156.6,653.2 2103.1,684 2103.1,745.7 2156.6,776.6 			"/>
			<polygon class="st4" points="2316.9,745.7 2316.9,684 2263.4,653.2 2210,684 2210,745.7 2263.4,776.6 			"/>
			<polygon class="st4" points="2423.8,745.7 2423.8,684 2370.3,653.2 2316.9,684 2316.9,745.7 2370.3,776.6 			"/>
			<polygon class="st4" points="2530.6,745.7 2530.6,684 2477.2,653.2 2423.8,684 2423.8,745.7 2477.2,776.6 			"/>
			<polygon class="st4" points="2637.5,745.7 2637.5,684 2584.1,653.2 2530.6,684 2530.6,745.7 2584.1,776.6 			"/>
			<polygon class="st4" points="2744.4,745.7 2744.4,684 2690.9,653.2 2637.5,684 2637.5,745.7 2690.9,776.6 			"/>
			<polygon class="st4" points="2851.3,745.7 2851.3,684 2797.8,653.2 2744.4,684 2744.4,745.7 2797.8,776.6 			"/>
			<polygon class="st4" points="2958.1,745.7 2958.1,684 2904.7,653.2 2851.3,684 2851.3,745.7 2904.7,776.6 			"/>
			<polygon class="st4" points="3065,745.7 3065,684 3011.6,653.2 2958.1,684 2958.1,745.7 3011.6,776.6 			"/>
			<polygon class="st3" points="1729,838.6 1729,776.9 1675.5,746.1 1622.1,776.9 1622.1,838.6 1675.5,869.5 			"/>
			<polygon class="st3" points="1835.8,838.6 1835.8,776.9 1782.4,746.1 1729,776.9 1729,838.6 1782.4,869.5 			"/>
			<polygon class="st3" points="1942.7,838.6 1942.7,776.9 1889.3,746.1 1835.8,776.9 1835.8,838.6 1889.3,869.5 			"/>
			<polygon class="st3" points="2049.6,838.6 2049.6,776.9 1996.2,746.1 1942.7,776.9 1942.7,838.6 1996.2,869.5 			"/>
			<polygon class="st3" points="2156.5,838.6 2156.5,776.9 2103,746.1 2049.6,776.9 2049.6,838.6 2103,869.5 			"/>
			<polygon class="st3" points="2263.3,838.6 2263.3,776.9 2209.9,746.1 2156.5,776.9 2156.5,838.6 2209.9,869.5 			"/>
			<polygon class="st3" points="2370.2,838.6 2370.2,776.9 2316.8,746.1 2263.3,776.9 2263.3,838.6 2316.8,869.5 			"/>
			<polygon class="st3" points="2477.1,838.6 2477.1,776.9 2423.7,746.1 2370.2,776.9 2370.2,838.6 2423.7,869.5 			"/>
			<polygon class="st3" points="2584,838.6 2584,776.9 2530.5,746.1 2477.1,776.9 2477.1,838.6 2530.5,869.5 			"/>
			<polygon class="st3" points="2690.8,838.6 2690.8,776.9 2637.4,746.1 2584,776.9 2584,838.6 2637.4,869.5 			"/>
			<polygon class="st3" points="2797.7,838.6 2797.7,776.9 2744.3,746.1 2690.8,776.9 2690.8,838.6 2744.3,869.5 			"/>
			<polygon class="st3" points="2904.6,838.6 2904.6,776.9 2851.1,746.1 2797.7,776.9 2797.7,838.6 2851.1,869.5 			"/>
			<polygon class="st3" points="3011.5,838.6 3011.5,776.9 2958,746.1 2904.6,776.9 2904.6,838.6 2958,869.5 			"/>
			<polygon class="st4" points="1782.5,930.8 1782.5,869.1 1729.1,838.3 1675.6,869.1 1675.6,930.8 1729.1,961.7 			"/>
			<polygon class="st4" points="1889.4,930.8 1889.4,869.1 1836,838.3 1782.5,869.1 1782.5,930.8 1836,961.7 			"/>
			<polygon class="st4" points="1996.3,930.8 1996.3,869.1 1942.8,838.3 1889.4,869.1 1889.4,930.8 1942.8,961.7 			"/>
			<polygon class="st4" points="2103.1,930.8 2103.1,869.1 2049.7,838.3 1996.3,869.1 1996.3,930.8 2049.7,961.7 			"/>
			<polygon class="st4" points="2210,930.8 2210,869.1 2156.6,838.3 2103.1,869.1 2103.1,930.8 2156.6,961.7 			"/>
			<polygon class="st4" points="2316.9,930.8 2316.9,869.1 2263.4,838.3 2210,869.1 2210,930.8 2263.4,961.7 			"/>
			<polygon class="st4" points="2423.8,930.8 2423.8,869.1 2370.3,838.3 2316.9,869.1 2316.9,930.8 2370.3,961.7 			"/>
			<polygon class="st4" points="2530.6,930.8 2530.6,869.1 2477.2,838.3 2423.8,869.1 2423.8,930.8 2477.2,961.7 			"/>
			<polygon class="st4" points="2637.5,930.8 2637.5,869.1 2584.1,838.3 2530.6,869.1 2530.6,930.8 2584.1,961.7 			"/>
			<polygon class="st4" points="2744.4,930.8 2744.4,869.1 2690.9,838.3 2637.5,869.1 2637.5,930.8 2690.9,961.7 			"/>
			<polygon class="st4" points="2851.3,930.8 2851.3,869.1 2797.8,838.3 2744.4,869.1 2744.4,930.8 2797.8,961.7 			"/>
			<polygon class="st4" points="2958.1,930.8 2958.1,869.1 2904.7,838.3 2851.3,869.1 2851.3,930.8 2904.7,961.7 			"/>
			<polygon class="st4" points="3065,930.8 3065,869.1 3011.6,838.3 2958.1,869.1 2958.1,930.8 3011.6,961.7 			"/>
			<polygon class="st3" points="1729,1023.7 1729,962 1675.5,931.2 1622.1,962 1622.1,1023.7 1675.5,1054.6 			"/>
			<polygon class="st3" points="1835.8,1023.7 1835.8,962 1782.4,931.2 1729,962 1729,1023.7 1782.4,1054.6 			"/>
			<polygon class="st3" points="1942.7,1023.7 1942.7,962 1889.3,931.2 1835.8,962 1835.8,1023.7 1889.3,1054.6 			"/>
			<polygon class="st3" points="2049.6,1023.7 2049.6,962 1996.2,931.2 1942.7,962 1942.7,1023.7 1996.2,1054.6 			"/>
			<polygon class="st3" points="2156.5,1023.7 2156.5,962 2103,931.2 2049.6,962 2049.6,1023.7 2103,1054.6 			"/>
			<polygon class="st3" points="2263.3,1023.7 2263.3,962 2209.9,931.2 2156.5,962 2156.5,1023.7 2209.9,1054.6 			"/>
			<polygon class="st3" points="2370.2,1023.7 2370.2,962 2316.8,931.2 2263.3,962 2263.3,1023.7 2316.8,1054.6 			"/>
			<polygon class="st3" points="2477.1,1023.7 2477.1,962 2423.7,931.2 2370.2,962 2370.2,1023.7 2423.7,1054.6 			"/>
			<polygon class="st3" points="2584,1023.7 2584,962 2530.5,931.2 2477.1,962 2477.1,1023.7 2530.5,1054.6 			"/>
			<polygon class="st3" points="2690.8,1023.7 2690.8,962 2637.4,931.2 2584,962 2584,1023.7 2637.4,1054.6 			"/>
			<polygon class="st3" points="2797.7,1023.7 2797.7,962 2744.3,931.2 2690.8,962 2690.8,1023.7 2744.3,1054.6 			"/>
			<polygon class="st3" points="2904.6,1023.7 2904.6,962 2851.1,931.2 2797.7,962 2797.7,1023.7 2851.1,1054.6 			"/>
			<polygon class="st3" points="3011.5,1023.7 3011.5,962 2958,931.2 2904.6,962 2904.6,1023.7 2958,1054.6 			"/>
			<polygon class="st4" points="1782.5,1115.9 1782.5,1054.2 1729.1,1023.4 1675.6,1054.2 1675.6,1115.9 1729.1,1146.8 			"/>
			<polygon class="st4" points="1889.4,1115.9 1889.4,1054.2 1836,1023.4 1782.5,1054.2 1782.5,1115.9 1836,1146.8 			"/>
			<polygon class="st4" points="1996.3,1115.9 1996.3,1054.2 1942.8,1023.4 1889.4,1054.2 1889.4,1115.9 1942.8,1146.8 			"/>
			<polygon class="st4" points="2103.1,1115.9 2103.1,1054.2 2049.7,1023.4 1996.3,1054.2 1996.3,1115.9 2049.7,1146.8 			"/>
			<polygon class="st4" points="2210,1115.9 2210,1054.2 2156.6,1023.4 2103.1,1054.2 2103.1,1115.9 2156.6,1146.8 			"/>
			<polygon class="st4" points="2316.9,1115.9 2316.9,1054.2 2263.4,1023.4 2210,1054.2 2210,1115.9 2263.4,1146.8 			"/>
			<polygon class="st4" points="2423.8,1115.9 2423.8,1054.2 2370.3,1023.4 2316.9,1054.2 2316.9,1115.9 2370.3,1146.8 			"/>
			<polygon class="st4" points="2530.6,1115.9 2530.6,1054.2 2477.2,1023.4 2423.8,1054.2 2423.8,1115.9 2477.2,1146.8 			"/>
			<polygon class="st4" points="2637.5,1115.9 2637.5,1054.2 2584.1,1023.4 2530.6,1054.2 2530.6,1115.9 2584.1,1146.8 			"/>
			<polygon class="st4" points="2744.4,1115.9 2744.4,1054.2 2690.9,1023.4 2637.5,1054.2 2637.5,1115.9 2690.9,1146.8 			"/>
			<polygon class="st4" points="2851.3,1115.9 2851.3,1054.2 2797.8,1023.4 2744.4,1054.2 2744.4,1115.9 2797.8,1146.8 			"/>
			<polygon class="st4" points="2958.1,1115.9 2958.1,1054.2 2904.7,1023.4 2851.3,1054.2 2851.3,1115.9 2904.7,1146.8 			"/>
			<polygon class="st4" points="3065,1115.9 3065,1054.2 3011.6,1023.4 2958.1,1054.2 2958.1,1115.9 3011.6,1146.8 			"/>
			<polygon class="st3" points="1942.7,1208.8 1942.7,1147.1 1889.3,1116.3 1835.8,1147.1 1835.8,1208.8 1889.3,1239.7 			"/>
			<polygon class="st3" points="2049.6,1208.8 2049.6,1147.1 1996.2,1116.3 1942.7,1147.1 1942.7,1208.8 1996.2,1239.7 			"/>
			<polygon class="st3" points="2156.5,1208.8 2156.5,1147.1 2103,1116.3 2049.6,1147.1 2049.6,1208.8 2103,1239.7 			"/>
			<polygon class="st3" points="2263.3,1208.8 2263.3,1147.1 2209.9,1116.3 2156.5,1147.1 2156.5,1208.8 2209.9,1239.7 			"/>
			<polygon class="st3" points="2370.2,1208.8 2370.2,1147.1 2316.8,1116.3 2263.3,1147.1 2263.3,1208.8 2316.8,1239.7 			"/>
			<polygon class="st3" points="2477.1,1208.8 2477.1,1147.1 2423.7,1116.3 2370.2,1147.1 2370.2,1208.8 2423.7,1239.7 			"/>
			<polygon class="st3" points="2584,1208.8 2584,1147.1 2530.5,1116.3 2477.1,1147.1 2477.1,1208.8 2530.5,1239.7 			"/>
			<polygon class="st3" points="2690.8,1208.8 2690.8,1147.1 2637.4,1116.3 2584,1147.1 2584,1208.8 2637.4,1239.7 			"/>
			<polygon class="st3" points="2797.7,1208.8 2797.7,1147.1 2744.3,1116.3 2690.8,1147.1 2690.8,1208.8 2744.3,1239.7 			"/>
			<polygon class="st3" points="2904.6,1208.8 2904.6,1147.1 2851.1,1116.3 2797.7,1147.1 2797.7,1208.8 2851.1,1239.7 			"/>
			<polygon class="st3" points="3011.5,1208.8 3011.5,1147.1 2958,1116.3 2904.6,1147.1 2904.6,1208.8 2958,1239.7 			"/>
			<polygon class="st4" points="1996.3,1301 1996.3,1239.3 1942.8,1208.5 1889.4,1239.3 1889.4,1301 1942.8,1331.9 			"/>
			<polygon class="st4" points="2103.1,1301 2103.1,1239.3 2049.7,1208.5 1996.3,1239.3 1996.3,1301 2049.7,1331.9 			"/>
			<polygon class="st4" points="2210,1301 2210,1239.3 2156.6,1208.5 2103.1,1239.3 2103.1,1301 2156.6,1331.9 			"/>
			<polygon class="st4" points="2316.9,1301 2316.9,1239.3 2263.4,1208.5 2210,1239.3 2210,1301 2263.4,1331.9 			"/>
			<polygon class="st4" points="2423.8,1301 2423.8,1239.3 2370.3,1208.5 2316.9,1239.3 2316.9,1301 2370.3,1331.9 			"/>
			<polygon class="st4" points="2530.6,1301 2530.6,1239.3 2477.2,1208.5 2423.8,1239.3 2423.8,1301 2477.2,1331.9 			"/>
			<polygon class="st4" points="2637.5,1301 2637.5,1239.3 2584.1,1208.5 2530.6,1239.3 2530.6,1301 2584.1,1331.9 			"/>
			<polygon class="st4" points="2744.4,1301 2744.4,1239.3 2690.9,1208.5 2637.5,1239.3 2637.5,1301 2690.9,1331.9 			"/>
			<polygon class="st4" points="2851.3,1301 2851.3,1239.3 2797.8,1208.5 2744.4,1239.3 2744.4,1301 2797.8,1331.9 			"/>
			<polygon class="st4" points="2958.1,1301 2958.1,1239.3 2904.7,1208.5 2851.3,1239.3 2851.3,1301 2904.7,1331.9 			"/>
			<polygon class="st4" points="3065,1301 3065,1239.3 3011.6,1208.5 2958.1,1239.3 2958.1,1301 3011.6,1331.9 			"/>
			<polygon class="st3" points="2049.6,1393.9 2049.6,1332.2 1996.2,1301.4 1942.7,1332.2 1942.7,1393.9 1996.2,1424.8 			"/>
			<polygon class="st3" points="2156.5,1393.9 2156.5,1332.2 2103,1301.4 2049.6,1332.2 2049.6,1393.9 2103,1424.8 			"/>
			<polygon class="st3" points="2263.3,1393.9 2263.3,1332.2 2209.9,1301.4 2156.5,1332.2 2156.5,1393.9 2209.9,1424.8 			"/>
			<polygon class="st3" points="2370.2,1393.9 2370.2,1332.2 2316.8,1301.4 2263.3,1332.2 2263.3,1393.9 2316.8,1424.8 			"/>
			<polygon class="st3" points="2477.1,1393.9 2477.1,1332.2 2423.7,1301.4 2370.2,1332.2 2370.2,1393.9 2423.7,1424.8 			"/>
			<polygon class="st3" points="2584,1393.9 2584,1332.2 2530.5,1301.4 2477.1,1332.2 2477.1,1393.9 2530.5,1424.8 			"/>
			<polygon class="st3" points="2690.8,1393.9 2690.8,1332.2 2637.4,1301.4 2584,1332.2 2584,1393.9 2637.4,1424.8 			"/>
			<polygon class="st3" points="2797.7,1393.9 2797.7,1332.2 2744.3,1301.4 2690.8,1332.2 2690.8,1393.9 2744.3,1424.8 			"/>
			<polygon class="st3" points="2904.6,1393.9 2904.6,1332.2 2851.1,1301.4 2797.7,1332.2 2797.7,1393.9 2851.1,1424.8 			"/>
			<polygon class="st3" points="3011.5,1393.9 3011.5,1332.2 2958,1301.4 2904.6,1332.2 2904.6,1393.9 2958,1424.8 			"/>
			<polygon class="st4" points="1996.3,1486.1 1996.3,1424.4 1942.8,1393.6 1889.4,1424.4 1889.4,1486.1 1942.8,1517 			"/>
			<polygon class="st4" points="2103.1,1486.1 2103.1,1424.4 2049.7,1393.6 1996.3,1424.4 1996.3,1486.1 2049.7,1517 			"/>
			<polygon class="st4" points="2210,1486.1 2210,1424.4 2156.6,1393.6 2103.1,1424.4 2103.1,1486.1 2156.6,1517 			"/>
			<polygon class="st4" points="2316.9,1486.1 2316.9,1424.4 2263.4,1393.6 2210,1424.4 2210,1486.1 2263.4,1517 			"/>
			<polygon class="st4" points="2423.8,1486.1 2423.8,1424.4 2370.3,1393.6 2316.9,1424.4 2316.9,1486.1 2370.3,1517 			"/>
			<polygon class="st4" points="2530.6,1486.1 2530.6,1424.4 2477.2,1393.6 2423.8,1424.4 2423.8,1486.1 2477.2,1517 			"/>
			<polygon class="st4" points="2637.5,1486.1 2637.5,1424.4 2584.1,1393.6 2530.6,1424.4 2530.6,1486.1 2584.1,1517 			"/>
			<polygon class="st4" points="2744.4,1486.1 2744.4,1424.4 2690.9,1393.6 2637.5,1424.4 2637.5,1486.1 2690.9,1517 			"/>
			<polygon class="st4" points="2851.3,1486.1 2851.3,1424.4 2797.8,1393.6 2744.4,1424.4 2744.4,1486.1 2797.8,1517 			"/>
			<polygon class="st4" points="2958.1,1486.1 2958.1,1424.4 2904.7,1393.6 2851.3,1424.4 2851.3,1486.1 2904.7,1517 			"/>
			<polygon class="st4" points="3065,1486.1 3065,1424.4 3011.6,1393.6 2958.1,1424.4 2958.1,1486.1 3011.6,1517 			"/>
			<polygon class="st3" points="1729,1579 1729,1517.3 1675.5,1486.5 1622.1,1517.3 1622.1,1579 1675.5,1609.9 			"/>
			<polygon class="st3" points="1835.8,1579 1835.8,1517.3 1782.4,1486.5 1729,1517.3 1729,1579 1782.4,1609.9 			"/>
			<polygon class="st3" points="1942.7,1579 1942.7,1517.3 1889.3,1486.5 1835.8,1517.3 1835.8,1579 1889.3,1609.9 			"/>
			<polygon class="st3" points="2049.6,1579 2049.6,1517.3 1996.2,1486.5 1942.7,1517.3 1942.7,1579 1996.2,1609.9 			"/>
			<polygon class="st3" points="2156.5,1579 2156.5,1517.3 2103,1486.5 2049.6,1517.3 2049.6,1579 2103,1609.9 			"/>
			<polygon class="st3" points="2263.3,1579 2263.3,1517.3 2209.9,1486.5 2156.5,1517.3 2156.5,1579 2209.9,1609.9 			"/>
			<polygon class="st3" points="2370.2,1579 2370.2,1517.3 2316.8,1486.5 2263.3,1517.3 2263.3,1579 2316.8,1609.9 			"/>
			<polygon class="st3" points="2477.1,1579 2477.1,1517.3 2423.7,1486.5 2370.2,1517.3 2370.2,1579 2423.7,1609.9 			"/>
			<polygon class="st3" points="2584,1579 2584,1517.3 2530.5,1486.5 2477.1,1517.3 2477.1,1579 2530.5,1609.9 			"/>
			<polygon class="st3" points="2690.8,1579 2690.8,1517.3 2637.4,1486.5 2584,1517.3 2584,1579 2637.4,1609.9 			"/>
			<polygon class="st3" points="2797.7,1579 2797.7,1517.3 2744.3,1486.5 2690.8,1517.3 2690.8,1579 2744.3,1609.9 			"/>
			<polygon class="st3" points="2904.6,1579 2904.6,1517.3 2851.1,1486.5 2797.7,1517.3 2797.7,1579 2851.1,1609.9 			"/>
			<polygon class="st3" points="3011.5,1579 3011.5,1517.3 2958,1486.5 2904.6,1517.3 2904.6,1579 2958,1609.9 			"/>
			<polygon class="st4" points="1782.5,1671.2 1782.5,1609.5 1729.1,1578.7 1675.6,1609.5 1675.6,1671.2 1729.1,1702.1 			"/>
			<polygon class="st4" points="1889.4,1671.2 1889.4,1609.5 1836,1578.7 1782.5,1609.5 1782.5,1671.2 1836,1702.1 			"/>
			<polygon class="st4" points="1996.3,1671.2 1996.3,1609.5 1942.8,1578.7 1889.4,1609.5 1889.4,1671.2 1942.8,1702.1 			"/>
			<polygon class="st4" points="2103.1,1671.2 2103.1,1609.5 2049.7,1578.7 1996.3,1609.5 1996.3,1671.2 2049.7,1702.1 			"/>
			<polygon class="st4" points="2210,1671.2 2210,1609.5 2156.6,1578.7 2103.1,1609.5 2103.1,1671.2 2156.6,1702.1 			"/>
			<polygon class="st4" points="2316.9,1671.2 2316.9,1609.5 2263.4,1578.7 2210,1609.5 2210,1671.2 2263.4,1702.1 			"/>
			<polygon class="st4" points="2423.8,1671.2 2423.8,1609.5 2370.3,1578.7 2316.9,1609.5 2316.9,1671.2 2370.3,1702.1 			"/>
			<polygon class="st4" points="2530.6,1671.2 2530.6,1609.5 2477.2,1578.7 2423.8,1609.5 2423.8,1671.2 2477.2,1702.1 			"/>
			<polygon class="st4" points="2637.5,1671.2 2637.5,1609.5 2584.1,1578.7 2530.6,1609.5 2530.6,1671.2 2584.1,1702.1 			"/>
			<polygon class="st4" points="2744.4,1671.2 2744.4,1609.5 2690.9,1578.7 2637.5,1609.5 2637.5,1671.2 2690.9,1702.1 			"/>
			<polygon class="st4" points="2851.3,1671.2 2851.3,1609.5 2797.8,1578.7 2744.4,1609.5 2744.4,1671.2 2797.8,1702.1 			"/>
			<polygon class="st4" points="2958.1,1671.2 2958.1,1609.5 2904.7,1578.7 2851.3,1609.5 2851.3,1671.2 2904.7,1702.1 			"/>
			<polygon class="st4" points="3065,1671.2 3065,1609.5 3011.6,1578.7 2958.1,1609.5 2958.1,1671.2 3011.6,1702.1 			"/>
			<polygon class="st3" points="1729,1763.8 1729,1702.1 1675.5,1671.2 1622.1,1702.1 1622.1,1763.8 1675.5,1794.6 			"/>
			<polygon class="st3" points="1835.8,1763.8 1835.8,1702.1 1782.4,1671.2 1729,1702.1 1729,1763.8 1782.4,1794.6 			"/>
			<polygon class="st3" points="1942.7,1763.8 1942.7,1702.1 1889.3,1671.2 1835.8,1702.1 1835.8,1763.8 1889.3,1794.6 			"/>
			<polygon class="st3" points="2049.6,1763.8 2049.6,1702.1 1996.2,1671.2 1942.7,1702.1 1942.7,1763.8 1996.2,1794.6 			"/>
			<polygon class="st3" points="2156.5,1763.8 2156.5,1702.1 2103,1671.2 2049.6,1702.1 2049.6,1763.8 2103,1794.6 			"/>
			<polygon class="st3" points="2263.3,1763.8 2263.3,1702.1 2209.9,1671.2 2156.5,1702.1 2156.5,1763.8 2209.9,1794.6 			"/>
			<polygon class="st3" points="2370.2,1763.8 2370.2,1702.1 2316.8,1671.2 2263.3,1702.1 2263.3,1763.8 2316.8,1794.6 			"/>
			<polygon class="st3" points="2477.1,1763.8 2477.1,1702.1 2423.7,1671.2 2370.2,1702.1 2370.2,1763.8 2423.7,1794.6 			"/>
			<polygon class="st3" points="2584,1763.8 2584,1702.1 2530.5,1671.2 2477.1,1702.1 2477.1,1763.8 2530.5,1794.6 			"/>
			<polygon class="st3" points="2690.8,1763.8 2690.8,1702.1 2637.4,1671.2 2584,1702.1 2584,1763.8 2637.4,1794.6 			"/>
			<polygon class="st3" points="2797.7,1763.8 2797.7,1702.1 2744.3,1671.2 2690.8,1702.1 2690.8,1763.8 2744.3,1794.6 			"/>
			<polygon class="st3" points="2904.6,1763.8 2904.6,1702.1 2851.1,1671.2 2797.7,1702.1 2797.7,1763.8 2851.1,1794.6 			"/>
			<polygon class="st3" points="3011.5,1763.8 3011.5,1702.1 2958,1671.2 2904.6,1702.1 2904.6,1763.8 2958,1794.6 			"/>
			<polygon class="st4" points="1782.5,1856 1782.5,1794.3 1729.1,1763.4 1675.6,1794.3 1675.6,1856 1729.1,1886.8 			"/>
			<polygon class="st4" points="1889.4,1856 1889.4,1794.3 1836,1763.4 1782.5,1794.3 1782.5,1856 1836,1886.8 			"/>
			<polygon class="st4" points="1996.3,1856 1996.3,1794.3 1942.8,1763.4 1889.4,1794.3 1889.4,1856 1942.8,1886.8 			"/>
			<polygon class="st4" points="2103.1,1856 2103.1,1794.3 2049.7,1763.4 1996.3,1794.3 1996.3,1856 2049.7,1886.8 			"/>
			<polygon class="st4" points="2210,1856 2210,1794.3 2156.6,1763.4 2103.1,1794.3 2103.1,1856 2156.6,1886.8 			"/>
			<polygon class="st4" points="2316.9,1856 2316.9,1794.3 2263.4,1763.4 2210,1794.3 2210,1856 2263.4,1886.8 			"/>
			<polygon class="st4" points="2423.8,1856 2423.8,1794.3 2370.3,1763.4 2316.9,1794.3 2316.9,1856 2370.3,1886.8 			"/>
			<polygon class="st4" points="2530.6,1856 2530.6,1794.3 2477.2,1763.4 2423.8,1794.3 2423.8,1856 2477.2,1886.8 			"/>
			<polygon class="st4" points="2637.5,1856 2637.5,1794.3 2584.1,1763.4 2530.6,1794.3 2530.6,1856 2584.1,1886.8 			"/>
			<polygon class="st4" points="2744.4,1856 2744.4,1794.3 2690.9,1763.4 2637.5,1794.3 2637.5,1856 2690.9,1886.8 			"/>
			<polygon class="st4" points="2851.3,1856 2851.3,1794.3 2797.8,1763.4 2744.4,1794.3 2744.4,1856 2797.8,1886.8 			"/>
			<polygon class="st4" points="2958.1,1856 2958.1,1794.3 2904.7,1763.4 2851.3,1794.3 2851.3,1856 2904.7,1886.8 			"/>
			<polygon class="st4" points="3065,1856 3065,1794.3 3011.6,1763.4 2958.1,1794.3 2958.1,1856 3011.6,1886.8 			"/>
			<polygon class="st3" points="1729,1948.9 1729,1887.2 1675.5,1856.3 1622.1,1887.2 1622.1,1948.9 1675.5,1979.7 			"/>
			<polygon class="st3" points="1835.8,1948.9 1835.8,1887.2 1782.4,1856.3 1729,1887.2 1729,1948.9 1782.4,1979.7 			"/>
			<polygon class="st3" points="1942.7,1948.9 1942.7,1887.2 1889.3,1856.3 1835.8,1887.2 1835.8,1948.9 1889.3,1979.7 			"/>
			<polygon class="st3" points="2049.6,1948.9 2049.6,1887.2 1996.2,1856.3 1942.7,1887.2 1942.7,1948.9 1996.2,1979.7 			"/>
			<polygon class="st3" points="2156.5,1948.9 2156.5,1887.2 2103,1856.3 2049.6,1887.2 2049.6,1948.9 2103,1979.7 			"/>
			<polygon class="st3" points="2263.3,1948.9 2263.3,1887.2 2209.9,1856.3 2156.5,1887.2 2156.5,1948.9 2209.9,1979.7 			"/>
			<polygon class="st3" points="2370.2,1948.9 2370.2,1887.2 2316.8,1856.3 2263.3,1887.2 2263.3,1948.9 2316.8,1979.7 			"/>
			<polygon class="st3" points="2477.1,1948.9 2477.1,1887.2 2423.7,1856.3 2370.2,1887.2 2370.2,1948.9 2423.7,1979.7 			"/>
			<polygon class="st3" points="2584,1948.9 2584,1887.2 2530.5,1856.3 2477.1,1887.2 2477.1,1948.9 2530.5,1979.7 			"/>
			<polygon class="st3" points="2690.8,1948.9 2690.8,1887.2 2637.4,1856.3 2584,1887.2 2584,1948.9 2637.4,1979.7 			"/>
			<polygon class="st3" points="2797.7,1948.9 2797.7,1887.2 2744.3,1856.3 2690.8,1887.2 2690.8,1948.9 2744.3,1979.7 			"/>
			<polygon class="st3" points="2904.6,1948.9 2904.6,1887.2 2851.1,1856.3 2797.7,1887.2 2797.7,1948.9 2851.1,1979.7 			"/>
			<polygon class="st3" points="3011.5,1948.9 3011.5,1887.2 2958,1856.3 2904.6,1887.2 2904.6,1948.9 2958,1979.7 			"/>
			<polygon class="st4" points="1782.5,2041.1 1782.5,1979.4 1729.1,1948.5 1675.6,1979.4 1675.6,2041.1 1729.1,2071.9 			"/>
			<polygon class="st4" points="1889.4,2041.1 1889.4,1979.4 1836,1948.5 1782.5,1979.4 1782.5,2041.1 1836,2071.9 			"/>
			<polygon class="st4" points="1996.3,2041.1 1996.3,1979.4 1942.8,1948.5 1889.4,1979.4 1889.4,2041.1 1942.8,2071.9 			"/>
			<polygon class="st4" points="2103.1,2041.1 2103.1,1979.4 2049.7,1948.5 1996.3,1979.4 1996.3,2041.1 2049.7,2071.9 			"/>
			<polygon class="st4" points="2210,2041.1 2210,1979.4 2156.6,1948.5 2103.1,1979.4 2103.1,2041.1 2156.6,2071.9 			"/>
			<polygon class="st4" points="2316.9,2041.1 2316.9,1979.4 2263.4,1948.5 2210,1979.4 2210,2041.1 2263.4,2071.9 			"/>
			<polygon class="st4" points="2423.8,2041.1 2423.8,1979.4 2370.3,1948.5 2316.9,1979.4 2316.9,2041.1 2370.3,2071.9 			"/>
			<polygon class="st4" points="2530.6,2041.1 2530.6,1979.4 2477.2,1948.5 2423.8,1979.4 2423.8,2041.1 2477.2,2071.9 			"/>
			<polygon class="st4" points="2637.5,2041.1 2637.5,1979.4 2584.1,1948.5 2530.6,1979.4 2530.6,2041.1 2584.1,2071.9 			"/>
			<polygon class="st4" points="2744.4,2041.1 2744.4,1979.4 2690.9,1948.5 2637.5,1979.4 2637.5,2041.1 2690.9,2071.9 			"/>
			<polygon class="st4" points="2851.3,2041.1 2851.3,1979.4 2797.8,1948.5 2744.4,1979.4 2744.4,2041.1 2797.8,2071.9 			"/>
			<polygon class="st4" points="2958.1,2041.1 2958.1,1979.4 2904.7,1948.5 2851.3,1979.4 2851.3,2041.1 2904.7,2071.9 			"/>
			<polygon class="st4" points="3065,2041.1 3065,1979.4 3011.6,1948.5 2958.1,1979.4 2958.1,2041.1 3011.6,2071.9 			"/>
			<polygon class="st3" points="1729,2134 1729,2072.3 1675.5,2041.4 1622.1,2072.3 1622.1,2134 1675.5,2164.8 			"/>
			<polygon class="st3" points="1835.8,2134 1835.8,2072.3 1782.4,2041.4 1729,2072.3 1729,2134 1782.4,2164.8 			"/>
			<polygon class="st3" points="1942.7,2134 1942.7,2072.3 1889.3,2041.4 1835.8,2072.3 1835.8,2134 1889.3,2164.8 			"/>
			<polygon class="st3" points="2049.6,2134 2049.6,2072.3 1996.2,2041.4 1942.7,2072.3 1942.7,2134 1996.2,2164.8 			"/>
			<polygon class="st3" points="2156.5,2134 2156.5,2072.3 2103,2041.4 2049.6,2072.3 2049.6,2134 2103,2164.8 			"/>
			<polygon class="st3" points="2263.3,2134 2263.3,2072.3 2209.9,2041.4 2156.5,2072.3 2156.5,2134 2209.9,2164.8 			"/>
			<polygon class="st3" points="2370.2,2134 2370.2,2072.3 2316.8,2041.4 2263.3,2072.3 2263.3,2134 2316.8,2164.8 			"/>
			<polygon class="st3" points="2477.1,2134 2477.1,2072.3 2423.7,2041.4 2370.2,2072.3 2370.2,2134 2423.7,2164.8 			"/>
			<polygon class="st3" points="2584,2134 2584,2072.3 2530.5,2041.4 2477.1,2072.3 2477.1,2134 2530.5,2164.8 			"/>
			<polygon class="st3" points="2690.8,2134 2690.8,2072.3 2637.4,2041.4 2584,2072.3 2584,2134 2637.4,2164.8 			"/>
			<polygon class="st3" points="2797.7,2134 2797.7,2072.3 2744.3,2041.4 2690.8,2072.3 2690.8,2134 2744.3,2164.8 			"/>
			<polygon class="st3" points="2904.6,2134 2904.6,2072.3 2851.1,2041.4 2797.7,2072.3 2797.7,2134 2851.1,2164.8 			"/>
			<polygon class="st3" points="3011.5,2134 3011.5,2072.3 2958,2041.4 2904.6,2072.3 2904.6,2134 2958,2164.8 			"/>
			<polygon class="st4" points="1782.5,2226.2 1782.5,2164.5 1729.1,2133.6 1675.6,2164.5 1675.6,2226.2 1729.1,2257 			"/>
			<polygon class="st4" points="1889.4,2226.2 1889.4,2164.5 1836,2133.6 1782.5,2164.5 1782.5,2226.2 1836,2257 			"/>
			<polygon class="st4" points="1996.3,2226.2 1996.3,2164.5 1942.8,2133.6 1889.4,2164.5 1889.4,2226.2 1942.8,2257 			"/>
			<polygon class="st4" points="2103.1,2226.2 2103.1,2164.5 2049.7,2133.6 1996.3,2164.5 1996.3,2226.2 2049.7,2257 			"/>
			<polygon class="st4" points="2210,2226.2 2210,2164.5 2156.6,2133.6 2103.1,2164.5 2103.1,2226.2 2156.6,2257 			"/>
			<polygon class="st4" points="2316.9,2226.2 2316.9,2164.5 2263.4,2133.6 2210,2164.5 2210,2226.2 2263.4,2257 			"/>
			<polygon class="st4" points="2423.8,2226.2 2423.8,2164.5 2370.3,2133.6 2316.9,2164.5 2316.9,2226.2 2370.3,2257 			"/>
			<polygon class="st4" points="2530.6,2226.2 2530.6,2164.5 2477.2,2133.6 2423.8,2164.5 2423.8,2226.2 2477.2,2257 			"/>
			<polygon class="st4" points="2637.5,2226.2 2637.5,2164.5 2584.1,2133.6 2530.6,2164.5 2530.6,2226.2 2584.1,2257 			"/>
			<polygon class="st4" points="2744.4,2226.2 2744.4,2164.5 2690.9,2133.6 2637.5,2164.5 2637.5,2226.2 2690.9,2257 			"/>
			<polygon class="st4" points="2851.3,2226.2 2851.3,2164.5 2797.8,2133.6 2744.4,2164.5 2744.4,2226.2 2797.8,2257 			"/>
			<polygon class="st4" points="2958.1,2226.2 2958.1,2164.5 2904.7,2133.6 2851.3,2164.5 2851.3,2226.2 2904.7,2257 			"/>
			<polygon class="st4" points="3065,2226.2 3065,2164.5 3011.6,2133.6 2958.1,2164.5 2958.1,2226.2 3011.6,2257 			"/>
			<polygon class="st3" points="1729,2319.1 1729,2257.4 1675.5,2226.5 1622.1,2257.4 1622.1,2319.1 1675.5,2349.9 			"/>
			<polygon class="st3" points="1835.8,2319.1 1835.8,2257.4 1782.4,2226.5 1729,2257.4 1729,2319.1 1782.4,2349.9 			"/>
			<polygon class="st3" points="1942.7,2319.1 1942.7,2257.4 1889.3,2226.5 1835.8,2257.4 1835.8,2319.1 1889.3,2349.9 			"/>
			<polygon class="st3" points="2049.6,2319.1 2049.6,2257.4 1996.2,2226.5 1942.7,2257.4 1942.7,2319.1 1996.2,2349.9 			"/>
			<polygon class="st3" points="2156.5,2319.1 2156.5,2257.4 2103,2226.5 2049.6,2257.4 2049.6,2319.1 2103,2349.9 			"/>
			<polygon class="st3" points="2263.3,2319.1 2263.3,2257.4 2209.9,2226.5 2156.5,2257.4 2156.5,2319.1 2209.9,2349.9 			"/>
			<polygon class="st3" points="2370.2,2319.1 2370.2,2257.4 2316.8,2226.5 2263.3,2257.4 2263.3,2319.1 2316.8,2349.9 			"/>
			<polygon class="st3" points="2477.1,2319.1 2477.1,2257.4 2423.7,2226.5 2370.2,2257.4 2370.2,2319.1 2423.7,2349.9 			"/>
			<polygon class="st3" points="2584,2319.1 2584,2257.4 2530.5,2226.5 2477.1,2257.4 2477.1,2319.1 2530.5,2349.9 			"/>
			<polygon class="st3" points="2690.8,2319.1 2690.8,2257.4 2637.4,2226.5 2584,2257.4 2584,2319.1 2637.4,2349.9 			"/>
			<polygon class="st3" points="2797.7,2319.1 2797.7,2257.4 2744.3,2226.5 2690.8,2257.4 2690.8,2319.1 2744.3,2349.9 			"/>
			<polygon class="st3" points="2904.6,2319.1 2904.6,2257.4 2851.1,2226.5 2797.7,2257.4 2797.7,2319.1 2851.1,2349.9 			"/>
			<polygon class="st3" points="3011.5,2319.1 3011.5,2257.4 2958,2226.5 2904.6,2257.4 2904.6,2319.1 2958,2349.9 			"/>
			<polygon class="st4" points="1782.5,2411.3 1782.5,2349.6 1729.1,2318.7 1675.6,2349.6 1675.6,2411.3 1729.1,2442.1 			"/>
			<polygon class="st4" points="1889.4,2411.3 1889.4,2349.6 1836,2318.7 1782.5,2349.6 1782.5,2411.3 1836,2442.1 			"/>
			<polygon class="st4" points="1996.3,2411.3 1996.3,2349.6 1942.8,2318.7 1889.4,2349.6 1889.4,2411.3 1942.8,2442.1 			"/>
			<polygon class="st4" points="2103.1,2411.3 2103.1,2349.6 2049.7,2318.7 1996.3,2349.6 1996.3,2411.3 2049.7,2442.1 			"/>
			<polygon class="st4" points="2210,2411.3 2210,2349.6 2156.6,2318.7 2103.1,2349.6 2103.1,2411.3 2156.6,2442.1 			"/>
			<polygon class="st4" points="2316.9,2411.3 2316.9,2349.6 2263.4,2318.7 2210,2349.6 2210,2411.3 2263.4,2442.1 			"/>
			<polygon class="st4" points="2423.8,2411.3 2423.8,2349.6 2370.3,2318.7 2316.9,2349.6 2316.9,2411.3 2370.3,2442.1 			"/>
			<polygon class="st4" points="2530.6,2411.3 2530.6,2349.6 2477.2,2318.7 2423.8,2349.6 2423.8,2411.3 2477.2,2442.1 			"/>
			<polygon class="st4" points="2637.5,2411.3 2637.5,2349.6 2584.1,2318.7 2530.6,2349.6 2530.6,2411.3 2584.1,2442.1 			"/>
			<polygon class="st4" points="2744.4,2411.3 2744.4,2349.6 2690.9,2318.7 2637.5,2349.6 2637.5,2411.3 2690.9,2442.1 			"/>
			<polygon class="st4" points="2851.3,2411.3 2851.3,2349.6 2797.8,2318.7 2744.4,2349.6 2744.4,2411.3 2797.8,2442.1 			"/>
			<polygon class="st4" points="2958.1,2411.3 2958.1,2349.6 2904.7,2318.7 2851.3,2349.6 2851.3,2411.3 2904.7,2442.1 			"/>
			<polygon class="st4" points="3065,2411.3 3065,2349.6 3011.6,2318.7 2958.1,2349.6 2958.1,2411.3 3011.6,2442.1 			"/>
		</g>
		<g class="st5">
			<circle class="st6" cx="1621.3" cy="1516.1" r="8.7"/>
			<circle class="st6" cx="1837.9" cy="1209.3" r="8.7"/>
			<circle class="st6" cx="1729.2" cy="1146.6" r="8.7"/>
			<circle class="st6" cx="2054.4" cy="1207.9" r="8.7"/>
			<circle class="st6" cx="1729.9" cy="1517.6" r="8.7"/>
			<circle class="st6" cx="1515.9" cy="1582.6" r="8.7"/>
			<circle class="st6" cx="1247.5" cy="1240.7" r="8.7"/>
			<circle class="st6" cx="1356.9" cy="1421.5" r="8.7"/>
			<circle class="st6" cx="1301.5" cy="1147.3" r="8.7"/>
			<circle class="st6" cx="1461.6" cy="1116.6" r="8.7"/>
			<circle class="st6" cx="1567.7" cy="1054.6" r="8.7"/>
			<circle class="st6" cx="1354.9" cy="1053.9" r="8.7"/>
		</g>
	</g>
</g>
<rect class="st7" width="3365" height="2653.6"/>
</svg>
