<!-- Generator: Adobe Illustrator 22.0.0, SVG Export Plug-In  -->
<svg version="1.1"
	 xmlns="http://www.w3.org/2000/svg" xmlns:xlink="http://www.w3.org/1999/xlink" xmlns:a="http://ns.adobe.com/AdobeSVGViewerExtensions/3.0/"
	 x="0px" y="0px" width="3397.2px" height="2679px" viewBox="0 0 3397.2 2679"
	 style="overflow:scroll;enable-background:new 0 0 3397.2 2679;" xml:space="preserve">
<style type="text/css">
	.st0{opacity:0.24;}
	.st1{fill:#FFFFFF;}
	.st2{fill:none;}
</style>
<defs>
</defs>
<g id="Layer_4_copy">
	<g class="st0">
		<circle class="st1" cx="1785.5" cy="1424.6" r="7.2"/>
		<circle class="st1" cx="1112.8" cy="1142.4" r="7.2"/>
		<circle class="st1" cx="629.2" cy="360.8" r="7.2"/>
		<circle class="st1" cx="2204.7" cy="1161.9" r="7.2"/>
		<circle class="st1" cx="2556" cy="849.7" r="7.2"/>
		<circle class="st1" cx="2127.8" cy="1414.8" r="7.2"/>
		<circle class="st1" cx="1577.6" cy="1138.5" r="7.2"/>
		<circle class="st1" cx="1286.2" cy="521.2" r="7.2"/>
		<circle class="st1" cx="1565.2" cy="1454" r="7.2"/>
		<circle class="st1" cx="2735.9" cy="1265.6" r="7.2"/>
		<circle class="st1" cx="1401.6" cy="902.5" r="7.2"/>
		<circle class="st1" cx="1446.6" cy="1517.8" r="7.2"/>
		<circle class="st1" cx="1527.4" cy="2156.6" r="7.2"/>
		<circle class="st1" cx="1352.1" cy="1924.6" r="7.2"/>
		<circle class="st1" cx="1009.6" cy="1280.2" r="7.2"/>
		<circle class="st1" cx="1816.8" cy="1113" r="7.2"/>
		<circle class="st1" cx="1655.4" cy="1254.8" r="9.5"/>
		<circle class="st1" cx="2587.6" cy="1993.4" r="9.5"/>
		<circle class="st1" cx="2394.7" cy="477.2" r="9.5"/>
		<circle class="st1" cx="2158.7" cy="1794.5" r="9.5"/>
		<circle class="st1" cx="2502.2" cy="1539" r="9.5"/>
		<circle class="st1" cx="1830.8" cy="1698.7" r="9.5"/>
		<circle class="st1" cx="1956" cy="1193.5" r="9.5"/>
		<circle class="st1" cx="1918.8" cy="870.9" r="9.5"/>
		<circle class="st1" cx="1583.1" cy="500" r="9.5"/>
		<circle class="st1" cx="1898.6" cy="702.7" r="9.5"/>
		<circle class="st1" cx="2092.9" cy="1022.1" r="9.5"/>
		<circle class="st1" cx="1262.4" cy="1131" r="9.5"/>
		<circle class="st1" cx="956.7" cy="1888.4" r="9.5"/>
		<circle class="st1" cx="910.4" cy="817.4" r="9.5"/>
		<circle class="st1" cx="1401.9" cy="1207.2" r="9.5"/>
		<circle class="st1" cx="1305.4" cy="1451.7" r="9.5"/>
		<circle class="st1" cx="2225.2" cy="2149.8" r="9.5"/>
		<circle class="st1" cx="608" cy="2120.5" r="9.5"/>
		<circle class="st1" cx="636" cy="1144.7" r="9.5"/>
		<circle class="st1" cx="743.6" cy="1552.7" r="9.5"/>
	</g>
</g>
<rect class="st2" width="3397.2" height="2679"/>
</svg>
