<!-- Generator: Adobe Illustrator 22.0.0, SVG Export Plug-In  -->
<svg version="1.1"
	 xmlns="http://www.w3.org/2000/svg" xmlns:xlink="http://www.w3.org/1999/xlink" xmlns:a="http://ns.adobe.com/AdobeSVGViewerExtensions/3.0/"
	 x="0px" y="0px" width="3365px" height="2653.6px" viewBox="0 0 3365 2653.6"
	 style="overflow:scroll;enable-background:new 0 0 3365 2653.6;" xml:space="preserve">
<style type="text/css">
	.st0{opacity:0.4;}
	.st1{display:none;fill:#339999;stroke:#339999;stroke-width:1.5;stroke-miterlimit:10;}
	.st2{fill:none;stroke:#FFFFFF;stroke-width:1.5;stroke-miterlimit:10;}
	.st3{display:none;fill:none;stroke:#FFFFFF;stroke-width:1.5;stroke-miterlimit:10;}
	.st4{display:none;}
	.st5{display:inline;fill:#FFFFFF;stroke:#FFFFFF;stroke-width:1.5;stroke-miterlimit:10;}
	.st6{fill:none;}
</style>
<defs>
</defs>
<g id="Layer_2_1_" class="st0">
	<g>
		<polygon class="st1" points="1631.7,1232.5 1631.7,1143.4 1554.5,1098.9 1477.4,1143.4 1477.4,1232.5 1554.5,1277.1 		"/>
		<polygon class="st1" points="1786.1,1232.5 1786.1,1143.4 1708.9,1098.9 1631.7,1143.4 1631.7,1232.5 1708.9,1277.1 		"/>
		<polygon class="st1" points="1554.4,1366.7 1554.4,1277.6 1477.2,1233.1 1400,1277.6 1400,1366.7 1477.2,1411.3 		"/>
		<polygon class="st1" points="1708.8,1366.7 1708.8,1277.6 1631.6,1233.1 1554.4,1277.6 1554.4,1366.7 1631.6,1411.3 		"/>
		<polygon class="st1" points="1631.7,1499.9 1631.7,1410.8 1554.5,1366.2 1477.4,1410.8 1477.4,1499.9 1554.5,1544.5 		"/>
		<polygon class="st1" points="1786.1,1499.9 1786.1,1410.8 1708.9,1366.2 1631.7,1410.8 1631.7,1499.9 1708.9,1544.5 		"/>
		<polygon class="st1" points="1708.8,1634.1 1708.8,1545 1631.6,1500.4 1554.4,1545 1554.4,1634.1 1631.6,1678.7 		"/>
		<polygon class="st1" points="1940.9,1232.5 1940.9,1143.4 1863.7,1098.9 1786.6,1143.4 1786.6,1232.5 1863.7,1277.1 		"/>
		<polygon class="st1" points="1863.6,1366.7 1863.6,1277.6 1786.4,1233.1 1709.2,1277.6 1709.2,1366.7 1786.4,1411.3 		"/>
		<polygon class="st1" points="2018,1366.7 2018,1277.6 1940.8,1233.1 1863.6,1277.6 1863.6,1366.7 1940.8,1411.3 		"/>
		<polygon class="st1" points="1940.9,1499.9 1940.9,1410.8 1863.7,1366.2 1786.6,1410.8 1786.6,1499.9 1863.7,1544.5 		"/>
		<polygon class="st1" points="1863.6,1634.1 1863.6,1545 1786.4,1500.4 1709.2,1545 1709.2,1634.1 1786.4,1678.7 		"/>
		<g>
			<polygon class="st2" points="242.4,163.1 242.4,74 165.2,29.4 88,74 88,163.1 165.2,207.7 			"/>
			<polygon class="st2" points="396.8,163.1 396.8,74 319.6,29.4 242.4,74 242.4,163.1 319.6,207.7 			"/>
			<polygon class="st2" points="551.2,163.1 551.2,74 474,29.4 396.8,74 396.8,163.1 474,207.7 			"/>
			<polygon class="st2" points="705.5,163.1 705.5,74 628.3,29.4 551.2,74 551.2,163.1 628.3,207.7 			"/>
			<polygon class="st2" points="859.9,163.1 859.9,74 782.7,29.4 705.5,74 705.5,163.1 782.7,207.7 			"/>
			<polygon class="st2" points="1014.3,163.1 1014.3,74 937.1,29.4 859.9,74 859.9,163.1 937.1,207.7 			"/>
			<polygon class="st2" points="1168.6,163.1 1168.6,74 1091.4,29.4 1014.3,74 1014.3,163.1 1091.4,207.7 			"/>
			<polygon class="st2" points="1323,163.1 1323,74 1245.8,29.4 1168.6,74 1168.6,163.1 1245.8,207.7 			"/>
			<polygon class="st2" points="1477.4,163.1 1477.4,74 1400.2,29.4 1323,74 1323,163.1 1400.2,207.7 			"/>
			<polygon class="st2" points="1631.7,163.1 1631.7,74 1554.5,29.4 1477.4,74 1477.4,163.1 1554.5,207.7 			"/>
			<polygon class="st2" points="1786.1,163.1 1786.1,74 1708.9,29.4 1631.7,74 1631.7,163.1 1708.9,207.7 			"/>
			<polygon class="st2" points="319.4,297.3 319.4,208.2 242.3,163.6 165.1,208.2 165.1,297.3 242.3,341.9 			"/>
			<polygon class="st2" points="473.8,297.3 473.8,208.2 396.6,163.6 319.4,208.2 319.4,297.3 396.6,341.9 			"/>
			<polygon class="st2" points="628.2,297.3 628.2,208.2 551,163.6 473.8,208.2 473.8,297.3 551,341.9 			"/>
			<polygon class="st2" points="782.5,297.3 782.5,208.2 705.4,163.6 628.2,208.2 628.2,297.3 705.4,341.9 			"/>
			<polygon class="st2" points="936.9,297.3 936.9,208.2 859.7,163.6 782.5,208.2 782.5,297.3 859.7,341.9 			"/>
			<polygon class="st2" points="1091.3,297.3 1091.3,208.2 1014.1,163.6 936.9,208.2 936.9,297.3 1014.1,341.9 			"/>
			<polygon class="st2" points="1245.7,297.3 1245.7,208.2 1168.5,163.6 1091.3,208.2 1091.3,297.3 1168.5,341.9 			"/>
			<polygon class="st2" points="1400,297.3 1400,208.2 1322.8,163.6 1245.7,208.2 1245.7,297.3 1322.8,341.9 			"/>
			<polygon class="st2" points="1554.4,297.3 1554.4,208.2 1477.2,163.6 1400,208.2 1400,297.3 1477.2,341.9 			"/>
			<polygon class="st2" points="1708.8,297.3 1708.8,208.2 1631.6,163.6 1554.4,208.2 1554.4,297.3 1631.6,341.9 			"/>
			<polygon class="st2" points="242.4,430.5 242.4,341.3 165.2,296.8 88,341.3 88,430.5 165.2,475 			"/>
			<polygon class="st2" points="396.8,430.5 396.8,341.3 319.6,296.8 242.4,341.3 242.4,430.5 319.6,475 			"/>
			<polygon class="st2" points="551.2,430.5 551.2,341.3 474,296.8 396.8,341.3 396.8,430.5 474,475 			"/>
			<polygon class="st2" points="705.5,430.5 705.5,341.3 628.3,296.8 551.2,341.3 551.2,430.5 628.3,475 			"/>
			<polygon class="st2" points="859.9,430.5 859.9,341.3 782.7,296.8 705.5,341.3 705.5,430.5 782.7,475 			"/>
			<polygon class="st2" points="1014.3,430.5 1014.3,341.3 937.1,296.8 859.9,341.3 859.9,430.5 937.1,475 			"/>
			<polygon class="st2" points="1168.6,430.5 1168.6,341.3 1091.4,296.8 1014.3,341.3 1014.3,430.5 1091.4,475 			"/>
			<polygon class="st2" points="1323,430.5 1323,341.3 1245.8,296.8 1168.6,341.3 1168.6,430.5 1245.8,475 			"/>
			<polygon class="st2" points="1477.4,430.5 1477.4,341.3 1400.2,296.8 1323,341.3 1323,430.5 1400.2,475 			"/>
			<polygon class="st2" points="1631.7,430.5 1631.7,341.3 1554.5,296.8 1477.4,341.3 1477.4,430.5 1554.5,475 			"/>
			<polygon class="st2" points="1786.1,430.5 1786.1,341.3 1708.9,296.8 1631.7,341.3 1631.7,430.5 1708.9,475 			"/>
			<polygon class="st2" points="319.4,564.7 319.4,475.5 242.3,431 165.1,475.5 165.1,564.7 242.3,609.2 			"/>
			<polygon class="st2" points="473.8,564.7 473.8,475.5 396.6,431 319.4,475.5 319.4,564.7 396.6,609.2 			"/>
			<polygon class="st2" points="628.2,564.7 628.2,475.5 551,431 473.8,475.5 473.8,564.7 551,609.2 			"/>
			<polygon class="st2" points="782.5,564.7 782.5,475.5 705.4,431 628.2,475.5 628.2,564.7 705.4,609.2 			"/>
			<polygon class="st2" points="936.9,564.7 936.9,475.5 859.7,431 782.5,475.5 782.5,564.7 859.7,609.2 			"/>
			<polygon class="st2" points="1091.3,564.7 1091.3,475.5 1014.1,431 936.9,475.5 936.9,564.7 1014.1,609.2 			"/>
			<polygon class="st2" points="1245.7,564.7 1245.7,475.5 1168.5,431 1091.3,475.5 1091.3,564.7 1168.5,609.2 			"/>
			<polygon class="st2" points="1400,564.7 1400,475.5 1322.8,431 1245.7,475.5 1245.7,564.7 1322.8,609.2 			"/>
			<polygon class="st2" points="1554.4,564.7 1554.4,475.5 1477.2,431 1400,475.5 1400,564.7 1477.2,609.2 			"/>
			<polygon class="st2" points="1708.8,564.7 1708.8,475.5 1631.6,431 1554.4,475.5 1554.4,564.7 1631.6,609.2 			"/>
			<polygon class="st2" points="242.4,697.8 242.4,608.7 165.2,564.1 88,608.7 88,697.8 165.2,742.4 			"/>
			<polygon class="st2" points="396.8,697.8 396.8,608.7 319.6,564.1 242.4,608.7 242.4,697.8 319.6,742.4 			"/>
			<polygon class="st2" points="551.2,697.8 551.2,608.7 474,564.1 396.8,608.7 396.8,697.8 474,742.4 			"/>
			<polygon class="st2" points="705.5,697.8 705.5,608.7 628.3,564.1 551.2,608.7 551.2,697.8 628.3,742.4 			"/>
			<polygon class="st2" points="859.9,697.8 859.9,608.7 782.7,564.1 705.5,608.7 705.5,697.8 782.7,742.4 			"/>
			<polygon class="st2" points="1014.3,697.8 1014.3,608.7 937.1,564.1 859.9,608.7 859.9,697.8 937.1,742.4 			"/>
			<polygon class="st2" points="1168.6,697.8 1168.6,608.7 1091.4,564.1 1014.3,608.7 1014.3,697.8 1091.4,742.4 			"/>
			<polygon class="st2" points="1323,697.8 1323,608.7 1245.8,564.1 1168.6,608.7 1168.6,697.8 1245.8,742.4 			"/>
			<polygon class="st2" points="1477.4,697.8 1477.4,608.7 1400.2,564.1 1323,608.7 1323,697.8 1400.2,742.4 			"/>
			<polygon class="st2" points="1631.7,697.8 1631.7,608.7 1554.5,564.1 1477.4,608.7 1477.4,697.8 1554.5,742.4 			"/>
			<polygon class="st2" points="1786.1,697.8 1786.1,608.7 1708.9,564.1 1631.7,608.7 1631.7,697.8 1708.9,742.4 			"/>
			<polygon class="st2" points="319.4,832 319.4,742.9 242.3,698.3 165.1,742.9 165.1,832 242.3,876.6 			"/>
			<polygon class="st2" points="473.8,832 473.8,742.9 396.6,698.3 319.4,742.9 319.4,832 396.6,876.6 			"/>
			<polygon class="st2" points="628.2,832 628.2,742.9 551,698.3 473.8,742.9 473.8,832 551,876.6 			"/>
			<polygon class="st2" points="782.5,832 782.5,742.9 705.4,698.3 628.2,742.9 628.2,832 705.4,876.6 			"/>
			<polygon class="st2" points="936.9,832 936.9,742.9 859.7,698.3 782.5,742.9 782.5,832 859.7,876.6 			"/>
			<polygon class="st2" points="1091.3,832 1091.3,742.9 1014.1,698.3 936.9,742.9 936.9,832 1014.1,876.6 			"/>
			<polygon class="st2" points="1245.7,832 1245.7,742.9 1168.5,698.3 1091.3,742.9 1091.3,832 1168.5,876.6 			"/>
			<polygon class="st2" points="1400,832 1400,742.9 1322.8,698.3 1245.7,742.9 1245.7,832 1322.8,876.6 			"/>
			<polygon class="st2" points="1554.4,832 1554.4,742.9 1477.2,698.3 1400,742.9 1400,832 1477.2,876.6 			"/>
			<polygon class="st2" points="1708.8,832 1708.8,742.9 1631.6,698.3 1554.4,742.9 1554.4,832 1631.6,876.6 			"/>
			<polygon class="st2" points="242.4,965.2 242.4,876.1 165.2,831.5 88,876.1 88,965.2 165.2,1009.8 			"/>
			<polygon class="st2" points="396.8,965.2 396.8,876.1 319.6,831.5 242.4,876.1 242.4,965.2 319.6,1009.8 			"/>
			<polygon class="st2" points="551.2,965.2 551.2,876.1 474,831.5 396.8,876.1 396.8,965.2 474,1009.8 			"/>
			<polygon class="st2" points="705.5,965.2 705.5,876.1 628.3,831.5 551.2,876.1 551.2,965.2 628.3,1009.8 			"/>
			<polygon class="st2" points="859.9,965.2 859.9,876.1 782.7,831.5 705.5,876.1 705.5,965.2 782.7,1009.8 			"/>
			<polygon class="st2" points="1014.3,965.2 1014.3,876.1 937.1,831.5 859.9,876.1 859.9,965.2 937.1,1009.8 			"/>
			<polygon class="st2" points="1168.6,965.2 1168.6,876.1 1091.4,831.5 1014.3,876.1 1014.3,965.2 1091.4,1009.8 			"/>
			<polygon class="st2" points="1323,965.2 1323,876.1 1245.8,831.5 1168.6,876.1 1168.6,965.2 1245.8,1009.8 			"/>
			<polygon class="st2" points="1477.4,965.2 1477.4,876.1 1400.2,831.5 1323,876.1 1323,965.2 1400.2,1009.8 			"/>
			<polygon class="st2" points="1631.7,965.2 1631.7,876.1 1554.5,831.5 1477.4,876.1 1477.4,965.2 1554.5,1009.8 			"/>
			<polygon class="st2" points="1786.1,965.2 1786.1,876.1 1708.9,831.5 1631.7,876.1 1631.7,965.2 1708.9,1009.8 			"/>
			<polygon class="st2" points="319.4,1099.4 319.4,1010.3 242.3,965.7 165.1,1010.3 165.1,1099.4 242.3,1143.9 			"/>
			<polygon class="st2" points="473.8,1099.4 473.8,1010.3 396.6,965.7 319.4,1010.3 319.4,1099.4 396.6,1143.9 			"/>
			<polygon class="st2" points="628.2,1099.4 628.2,1010.3 551,965.7 473.8,1010.3 473.8,1099.4 551,1143.9 			"/>
			<polygon class="st2" points="782.5,1099.4 782.5,1010.3 705.4,965.7 628.2,1010.3 628.2,1099.4 705.4,1143.9 			"/>
			<polygon class="st2" points="936.9,1099.4 936.9,1010.3 859.7,965.7 782.5,1010.3 782.5,1099.4 859.7,1143.9 			"/>
			<polygon class="st2" points="1091.3,1099.4 1091.3,1010.3 1014.1,965.7 936.9,1010.3 936.9,1099.4 1014.1,1143.9 			"/>
			<polygon class="st3" points="1245.7,1099.4 1245.7,1010.3 1168.5,965.7 1091.3,1010.3 1091.3,1099.4 1168.5,1143.9 			"/>
			<polygon class="st3" points="1400,1099.4 1400,1010.3 1322.8,965.7 1245.7,1010.3 1245.7,1099.4 1322.8,1143.9 			"/>
			<polygon class="st3" points="1554.4,1099.4 1554.4,1010.3 1477.2,965.7 1400,1010.3 1400,1099.4 1477.2,1143.9 			"/>
			<polygon class="st3" points="1708.8,1099.4 1708.8,1010.3 1631.6,965.7 1554.4,1010.3 1554.4,1099.4 1631.6,1143.9 			"/>
			<polygon class="st2" points="242.4,1232.5 242.4,1143.4 165.2,1098.9 88,1143.4 88,1232.5 165.2,1277.1 			"/>
			<polygon class="st2" points="396.8,1232.5 396.8,1143.4 319.6,1098.9 242.4,1143.4 242.4,1232.5 319.6,1277.1 			"/>
			<polygon class="st2" points="551.2,1232.5 551.2,1143.4 474,1098.9 396.8,1143.4 396.8,1232.5 474,1277.1 			"/>
			<polygon class="st2" points="705.5,1232.5 705.5,1143.4 628.3,1098.9 551.2,1143.4 551.2,1232.5 628.3,1277.1 			"/>
			<polygon class="st2" points="859.9,1232.5 859.9,1143.4 782.7,1098.9 705.5,1143.4 705.5,1232.5 782.7,1277.1 			"/>
			<polygon class="st2" points="1014.3,1232.5 1014.3,1143.4 937.1,1098.9 859.9,1143.4 859.9,1232.5 937.1,1277.1 			"/>
			<polygon class="st3" points="1168.6,1232.5 1168.6,1143.4 1091.4,1098.9 1014.3,1143.4 1014.3,1232.5 1091.4,1277.1 			"/>
			<polygon class="st3" points="1323,1232.5 1323,1143.4 1245.8,1098.9 1168.6,1143.4 1168.6,1232.5 1245.8,1277.1 			"/>
			<polygon class="st3" points="1477.4,1232.5 1477.4,1143.4 1400.2,1098.9 1323,1143.4 1323,1232.5 1400.2,1277.1 			"/>
			<polygon class="st2" points="319.4,1366.7 319.4,1277.6 242.3,1233.1 165.1,1277.6 165.1,1366.7 242.3,1411.3 			"/>
			<polygon class="st2" points="473.8,1366.7 473.8,1277.6 396.6,1233.1 319.4,1277.6 319.4,1366.7 396.6,1411.3 			"/>
			<polygon class="st2" points="628.2,1366.7 628.2,1277.6 551,1233.1 473.8,1277.6 473.8,1366.7 551,1411.3 			"/>
			<polygon class="st2" points="782.5,1366.7 782.5,1277.6 705.4,1233.1 628.2,1277.6 628.2,1366.7 705.4,1411.3 			"/>
			<polygon class="st2" points="936.9,1366.7 936.9,1277.6 859.7,1233.1 782.5,1277.6 782.5,1366.7 859.7,1411.3 			"/>
			<polygon class="st2" points="1091.3,1366.7 1091.3,1277.6 1014.1,1233.1 936.9,1277.6 936.9,1366.7 1014.1,1411.3 			"/>
			<polygon class="st3" points="1245.7,1366.7 1245.7,1277.6 1168.5,1233.1 1091.3,1277.6 1091.3,1366.7 1168.5,1411.3 			"/>
			<polygon class="st3" points="1400,1366.7 1400,1277.6 1322.8,1233.1 1245.7,1277.6 1245.7,1366.7 1322.8,1411.3 			"/>
			<polygon class="st2" points="242.4,1499.9 242.4,1410.8 165.2,1366.2 88,1410.8 88,1499.9 165.2,1544.5 			"/>
			<polygon class="st2" points="396.8,1499.9 396.8,1410.8 319.6,1366.2 242.4,1410.8 242.4,1499.9 319.6,1544.5 			"/>
			<polygon class="st2" points="551.2,1499.9 551.2,1410.8 474,1366.2 396.8,1410.8 396.8,1499.9 474,1544.5 			"/>
			<polygon class="st2" points="705.5,1499.9 705.5,1410.8 628.3,1366.2 551.2,1410.8 551.2,1499.9 628.3,1544.5 			"/>
			<polygon class="st2" points="859.9,1499.9 859.9,1410.8 782.7,1366.2 705.5,1410.8 705.5,1499.9 782.7,1544.5 			"/>
			<polygon class="st2" points="1014.3,1499.9 1014.3,1410.8 937.1,1366.2 859.9,1410.8 859.9,1499.9 937.1,1544.5 			"/>
			<polygon class="st2" points="1168.6,1499.9 1168.6,1410.8 1091.4,1366.2 1014.3,1410.8 1014.3,1499.9 1091.4,1544.5 			"/>
			<polygon class="st3" points="1323,1499.9 1323,1410.8 1245.8,1366.2 1168.6,1410.8 1168.6,1499.9 1245.8,1544.5 			"/>
			<polygon class="st3" points="1477.4,1499.9 1477.4,1410.8 1400.2,1366.2 1323,1410.8 1323,1499.9 1400.2,1544.5 			"/>
			<polygon class="st2" points="319.4,1634.1 319.4,1545 242.3,1500.4 165.1,1545 165.1,1634.1 242.3,1678.7 			"/>
			<polygon class="st2" points="473.8,1634.1 473.8,1545 396.6,1500.4 319.4,1545 319.4,1634.1 396.6,1678.7 			"/>
			<polygon class="st2" points="628.2,1634.1 628.2,1545 551,1500.4 473.8,1545 473.8,1634.1 551,1678.7 			"/>
			<polygon class="st2" points="782.5,1634.1 782.5,1545 705.4,1500.4 628.2,1545 628.2,1634.1 705.4,1678.7 			"/>
			<polygon class="st2" points="936.9,1634.1 936.9,1545 859.7,1500.4 782.5,1545 782.5,1634.1 859.7,1678.7 			"/>
			<polygon class="st2" points="1091.3,1634.1 1091.3,1545 1014.1,1500.4 936.9,1545 936.9,1634.1 1014.1,1678.7 			"/>
			<polygon class="st2" points="1245.7,1634.1 1245.7,1545 1168.5,1500.4 1091.3,1545 1091.3,1634.1 1168.5,1678.7 			"/>
			<polygon class="st2" points="1400,1634.1 1400,1545 1322.8,1500.4 1245.7,1545 1245.7,1634.1 1322.8,1678.7 			"/>
			<polygon class="st2" points="1554.4,1634.1 1554.4,1545 1477.2,1500.4 1400,1545 1400,1634.1 1477.2,1678.7 			"/>
			<polygon class="st2" points="242.4,1767.3 242.4,1678.1 165.2,1633.6 88,1678.1 88,1767.3 165.2,1811.8 			"/>
			<polygon class="st2" points="396.8,1767.3 396.8,1678.1 319.6,1633.6 242.4,1678.1 242.4,1767.3 319.6,1811.8 			"/>
			<polygon class="st2" points="551.2,1767.3 551.2,1678.1 474,1633.6 396.8,1678.1 396.8,1767.3 474,1811.8 			"/>
			<polygon class="st2" points="705.5,1767.3 705.5,1678.1 628.3,1633.6 551.2,1678.1 551.2,1767.3 628.3,1811.8 			"/>
			<polygon class="st2" points="859.9,1767.3 859.9,1678.1 782.7,1633.6 705.5,1678.1 705.5,1767.3 782.7,1811.8 			"/>
			<polygon class="st2" points="1014.3,1767.3 1014.3,1678.1 937.1,1633.6 859.9,1678.1 859.9,1767.3 937.1,1811.8 			"/>
			<polygon class="st2" points="1168.6,1767.3 1168.6,1678.1 1091.4,1633.6 1014.3,1678.1 1014.3,1767.3 1091.4,1811.8 			"/>
			<polygon class="st2" points="1323,1767.3 1323,1678.1 1245.8,1633.6 1168.6,1678.1 1168.6,1767.3 1245.8,1811.8 			"/>
			<polygon class="st2" points="1477.4,1767.3 1477.4,1678.1 1400.2,1633.6 1323,1678.1 1323,1767.3 1400.2,1811.8 			"/>
			<polygon class="st2" points="1631.7,1767.3 1631.7,1678.1 1554.5,1633.6 1477.4,1678.1 1477.4,1767.3 1554.5,1811.8 			"/>
			<polygon class="st2" points="1786.1,1767.3 1786.1,1678.1 1708.9,1633.6 1631.7,1678.1 1631.7,1767.3 1708.9,1811.8 			"/>
			<polygon class="st2" points="319.4,1901.5 319.4,1812.3 242.3,1767.8 165.1,1812.3 165.1,1901.5 242.3,1946 			"/>
			<polygon class="st2" points="473.8,1901.5 473.8,1812.3 396.6,1767.8 319.4,1812.3 319.4,1901.5 396.6,1946 			"/>
			<polygon class="st2" points="628.2,1901.5 628.2,1812.3 551,1767.8 473.8,1812.3 473.8,1901.5 551,1946 			"/>
			<polygon class="st2" points="782.5,1901.5 782.5,1812.3 705.4,1767.8 628.2,1812.3 628.2,1901.5 705.4,1946 			"/>
			<polygon class="st2" points="936.9,1901.5 936.9,1812.3 859.7,1767.8 782.5,1812.3 782.5,1901.5 859.7,1946 			"/>
			<polygon class="st2" points="1091.3,1901.5 1091.3,1812.3 1014.1,1767.8 936.9,1812.3 936.9,1901.5 1014.1,1946 			"/>
			<polygon class="st2" points="1245.7,1901.5 1245.7,1812.3 1168.5,1767.8 1091.3,1812.3 1091.3,1901.5 1168.5,1946 			"/>
			<polygon class="st2" points="1400,1901.5 1400,1812.3 1322.8,1767.8 1245.7,1812.3 1245.7,1901.5 1322.8,1946 			"/>
			<polygon class="st2" points="1554.4,1901.5 1554.4,1812.3 1477.2,1767.8 1400,1812.3 1400,1901.5 1477.2,1946 			"/>
			<polygon class="st2" points="1708.8,1901.5 1708.8,1812.3 1631.6,1767.8 1554.4,1812.3 1554.4,1901.5 1631.6,1946 			"/>
			<polygon class="st2" points="242.4,2034.6 242.4,1945.5 165.2,1900.9 88,1945.5 88,2034.6 165.2,2079.2 			"/>
			<polygon class="st2" points="396.8,2034.6 396.8,1945.5 319.6,1900.9 242.4,1945.5 242.4,2034.6 319.6,2079.2 			"/>
			<polygon class="st2" points="551.2,2034.6 551.2,1945.5 474,1900.9 396.8,1945.5 396.8,2034.6 474,2079.2 			"/>
			<polygon class="st2" points="705.5,2034.6 705.5,1945.5 628.3,1900.9 551.2,1945.5 551.2,2034.6 628.3,2079.2 			"/>
			<polygon class="st2" points="859.9,2034.6 859.9,1945.5 782.7,1900.9 705.5,1945.5 705.5,2034.6 782.7,2079.2 			"/>
			<polygon class="st2" points="1014.3,2034.6 1014.3,1945.5 937.1,1900.9 859.9,1945.5 859.9,2034.6 937.1,2079.2 			"/>
			<polygon class="st2" points="1168.6,2034.6 1168.6,1945.5 1091.4,1900.9 1014.3,1945.5 1014.3,2034.6 1091.4,2079.2 			"/>
			<polygon class="st2" points="1323,2034.6 1323,1945.5 1245.8,1900.9 1168.6,1945.5 1168.6,2034.6 1245.8,2079.2 			"/>
			<polygon class="st2" points="1477.4,2034.6 1477.4,1945.5 1400.2,1900.9 1323,1945.5 1323,2034.6 1400.2,2079.2 			"/>
			<polygon class="st2" points="1631.7,2034.6 1631.7,1945.5 1554.5,1900.9 1477.4,1945.5 1477.4,2034.6 1554.5,2079.2 			"/>
			<polygon class="st2" points="1786.1,2034.6 1786.1,1945.5 1708.9,1900.9 1631.7,1945.5 1631.7,2034.6 1708.9,2079.2 			"/>
			<polygon class="st2" points="319.4,2168.3 319.4,2079.2 242.3,2034.6 165.1,2079.2 165.1,2168.3 242.3,2212.9 			"/>
			<polygon class="st2" points="473.8,2168.3 473.8,2079.2 396.6,2034.6 319.4,2079.2 319.4,2168.3 396.6,2212.9 			"/>
			<polygon class="st2" points="628.2,2168.3 628.2,2079.2 551,2034.6 473.8,2079.2 473.8,2168.3 551,2212.9 			"/>
			<polygon class="st2" points="782.5,2168.3 782.5,2079.2 705.4,2034.6 628.2,2079.2 628.2,2168.3 705.4,2212.9 			"/>
			<polygon class="st2" points="936.9,2168.3 936.9,2079.2 859.7,2034.6 782.5,2079.2 782.5,2168.3 859.7,2212.9 			"/>
			<polygon class="st2" points="1091.3,2168.3 1091.3,2079.2 1014.1,2034.6 936.9,2079.2 936.9,2168.3 1014.1,2212.9 			"/>
			<polygon class="st2" points="1245.7,2168.3 1245.7,2079.2 1168.5,2034.6 1091.3,2079.2 1091.3,2168.3 1168.5,2212.9 			"/>
			<polygon class="st2" points="1400,2168.3 1400,2079.2 1322.8,2034.6 1245.7,2079.2 1245.7,2168.3 1322.8,2212.9 			"/>
			<polygon class="st2" points="1554.4,2168.3 1554.4,2079.2 1477.2,2034.6 1400,2079.2 1400,2168.3 1477.2,2212.9 			"/>
			<polygon class="st2" points="1708.8,2168.3 1708.8,2079.2 1631.6,2034.6 1554.4,2079.2 1554.4,2168.3 1631.6,2212.9 			"/>
			<polygon class="st2" points="242.4,2301.5 242.4,2212.3 165.2,2167.8 88,2212.3 88,2301.5 165.2,2346 			"/>
			<polygon class="st2" points="396.8,2301.5 396.8,2212.3 319.6,2167.8 242.4,2212.3 242.4,2301.5 319.6,2346 			"/>
			<polygon class="st2" points="551.2,2301.5 551.2,2212.3 474,2167.8 396.8,2212.3 396.8,2301.5 474,2346 			"/>
			<polygon class="st2" points="705.5,2301.5 705.5,2212.3 628.3,2167.8 551.2,2212.3 551.2,2301.5 628.3,2346 			"/>
			<polygon class="st2" points="859.9,2301.5 859.9,2212.3 782.7,2167.8 705.5,2212.3 705.5,2301.5 782.7,2346 			"/>
			<polygon class="st2" points="1014.3,2301.5 1014.3,2212.3 937.1,2167.8 859.9,2212.3 859.9,2301.5 937.1,2346 			"/>
			<polygon class="st2" points="1168.6,2301.5 1168.6,2212.3 1091.4,2167.8 1014.3,2212.3 1014.3,2301.5 1091.4,2346 			"/>
			<polygon class="st2" points="1323,2301.5 1323,2212.3 1245.8,2167.8 1168.6,2212.3 1168.6,2301.5 1245.8,2346 			"/>
			<polygon class="st2" points="1477.4,2301.5 1477.4,2212.3 1400.2,2167.8 1323,2212.3 1323,2301.5 1400.2,2346 			"/>
			<polygon class="st2" points="1631.7,2301.5 1631.7,2212.3 1554.5,2167.8 1477.4,2212.3 1477.4,2301.5 1554.5,2346 			"/>
			<polygon class="st2" points="1786.1,2301.5 1786.1,2212.3 1708.9,2167.8 1631.7,2212.3 1631.7,2301.5 1708.9,2346 			"/>
			<polygon class="st2" points="319.4,2435.7 319.4,2346.5 242.3,2302 165.1,2346.5 165.1,2435.7 242.3,2480.2 			"/>
			<polygon class="st2" points="473.8,2435.7 473.8,2346.5 396.6,2302 319.4,2346.5 319.4,2435.7 396.6,2480.2 			"/>
			<polygon class="st2" points="628.2,2435.7 628.2,2346.5 551,2302 473.8,2346.5 473.8,2435.7 551,2480.2 			"/>
			<polygon class="st2" points="782.5,2435.7 782.5,2346.5 705.4,2302 628.2,2346.5 628.2,2435.7 705.4,2480.2 			"/>
			<polygon class="st2" points="936.9,2435.7 936.9,2346.5 859.7,2302 782.5,2346.5 782.5,2435.7 859.7,2480.2 			"/>
			<polygon class="st2" points="1091.3,2435.7 1091.3,2346.5 1014.1,2302 936.9,2346.5 936.9,2435.7 1014.1,2480.2 			"/>
			<polygon class="st2" points="1245.7,2435.7 1245.7,2346.5 1168.5,2302 1091.3,2346.5 1091.3,2435.7 1168.5,2480.2 			"/>
			<polygon class="st2" points="1400,2435.7 1400,2346.5 1322.8,2302 1245.7,2346.5 1245.7,2435.7 1322.8,2480.2 			"/>
			<polygon class="st2" points="1554.4,2435.7 1554.4,2346.5 1477.2,2302 1400,2346.5 1400,2435.7 1477.2,2480.2 			"/>
			<polygon class="st2" points="1708.8,2435.7 1708.8,2346.5 1631.6,2302 1554.4,2346.5 1554.4,2435.7 1631.6,2480.2 			"/>
			<polygon class="st2" points="242.4,2568.8 242.4,2479.7 165.2,2435.1 88,2479.7 88,2568.8 165.2,2613.4 			"/>
			<polygon class="st2" points="396.8,2568.8 396.8,2479.7 319.6,2435.1 242.4,2479.7 242.4,2568.8 319.6,2613.4 			"/>
			<polygon class="st2" points="551.2,2568.8 551.2,2479.7 474,2435.1 396.8,2479.7 396.8,2568.8 474,2613.4 			"/>
			<polygon class="st2" points="705.5,2568.8 705.5,2479.7 628.3,2435.1 551.2,2479.7 551.2,2568.8 628.3,2613.4 			"/>
			<polygon class="st2" points="859.9,2568.8 859.9,2479.7 782.7,2435.1 705.5,2479.7 705.5,2568.8 782.7,2613.4 			"/>
			<polygon class="st2" points="1014.3,2568.8 1014.3,2479.7 937.1,2435.1 859.9,2479.7 859.9,2568.8 937.1,2613.4 			"/>
			<polygon class="st2" points="1168.6,2568.8 1168.6,2479.7 1091.4,2435.1 1014.3,2479.7 1014.3,2568.8 1091.4,2613.4 			"/>
			<polygon class="st2" points="1323,2568.8 1323,2479.7 1245.8,2435.1 1168.6,2479.7 1168.6,2568.8 1245.8,2613.4 			"/>
			<polygon class="st2" points="1477.4,2568.8 1477.4,2479.7 1400.2,2435.1 1323,2479.7 1323,2568.8 1400.2,2613.4 			"/>
			<polygon class="st2" points="1631.7,2568.8 1631.7,2479.7 1554.5,2435.1 1477.4,2479.7 1477.4,2568.8 1554.5,2613.4 			"/>
			<polygon class="st2" points="1786.1,2568.8 1786.1,2479.7 1708.9,2435.1 1631.7,2479.7 1631.7,2568.8 1708.9,2613.4 			"/>
			<polygon class="st2" points="1940.9,163.1 1940.9,74 1863.7,29.4 1786.6,74 1786.6,163.1 1863.7,207.7 			"/>
			<polygon class="st2" points="2095.3,163.1 2095.3,74 2018.1,29.4 1940.9,74 1940.9,163.1 2018.1,207.7 			"/>
			<polygon class="st2" points="2249.7,163.1 2249.7,74 2172.5,29.4 2095.3,74 2095.3,163.1 2172.5,207.7 			"/>
			<polygon class="st2" points="2404,163.1 2404,74 2326.9,29.4 2249.7,74 2249.7,163.1 2326.9,207.7 			"/>
			<polygon class="st2" points="2558.4,163.1 2558.4,74 2481.2,29.4 2404,74 2404,163.1 2481.2,207.7 			"/>
			<polygon class="st2" points="2712.8,163.1 2712.8,74 2635.6,29.4 2558.4,74 2558.4,163.1 2635.6,207.7 			"/>
			<polygon class="st2" points="2867.1,163.1 2867.1,74 2790,29.4 2712.8,74 2712.8,163.1 2790,207.7 			"/>
			<polygon class="st2" points="3021.5,163.1 3021.5,74 2944.3,29.4 2867.1,74 2867.1,163.1 2944.3,207.7 			"/>
			<polygon class="st2" points="3175.9,163.1 3175.9,74 3098.7,29.4 3021.5,74 3021.5,163.1 3098.7,207.7 			"/>
			<polygon class="st2" points="1863.6,297.3 1863.6,208.2 1786.4,163.6 1709.2,208.2 1709.2,297.3 1786.4,341.9 			"/>
			<polygon class="st2" points="2018,297.3 2018,208.2 1940.8,163.6 1863.6,208.2 1863.6,297.3 1940.8,341.9 			"/>
			<polygon class="st2" points="2172.3,297.3 2172.3,208.2 2095.1,163.6 2018,208.2 2018,297.3 2095.1,341.9 			"/>
			<polygon class="st2" points="2326.7,297.3 2326.7,208.2 2249.5,163.6 2172.3,208.2 2172.3,297.3 2249.5,341.9 			"/>
			<polygon class="st2" points="2481.1,297.3 2481.1,208.2 2403.9,163.6 2326.7,208.2 2326.7,297.3 2403.9,341.9 			"/>
			<polygon class="st2" points="2635.4,297.3 2635.4,208.2 2558.3,163.6 2481.1,208.2 2481.1,297.3 2558.3,341.9 			"/>
			<polygon class="st2" points="2789.8,297.3 2789.8,208.2 2712.6,163.6 2635.4,208.2 2635.4,297.3 2712.6,341.9 			"/>
			<polygon class="st2" points="2944.2,297.3 2944.2,208.2 2867,163.6 2789.8,208.2 2789.8,297.3 2867,341.9 			"/>
			<polygon class="st2" points="3098.5,297.3 3098.5,208.2 3021.4,163.6 2944.2,208.2 2944.2,297.3 3021.4,341.9 			"/>
			<polygon class="st2" points="3252.9,297.3 3252.9,208.2 3175.7,163.6 3098.5,208.2 3098.5,297.3 3175.7,341.9 			"/>
			<polygon class="st2" points="1940.9,430.5 1940.9,341.3 1863.7,296.8 1786.6,341.3 1786.6,430.5 1863.7,475 			"/>
			<polygon class="st2" points="2095.3,430.5 2095.3,341.3 2018.1,296.8 1940.9,341.3 1940.9,430.5 2018.1,475 			"/>
			<polygon class="st2" points="2249.7,430.5 2249.7,341.3 2172.5,296.8 2095.3,341.3 2095.3,430.5 2172.5,475 			"/>
			<polygon class="st2" points="2404,430.5 2404,341.3 2326.9,296.8 2249.7,341.3 2249.7,430.5 2326.9,475 			"/>
			<polygon class="st2" points="2558.4,430.5 2558.4,341.3 2481.2,296.8 2404,341.3 2404,430.5 2481.2,475 			"/>
			<polygon class="st2" points="2712.8,430.5 2712.8,341.3 2635.6,296.8 2558.4,341.3 2558.4,430.5 2635.6,475 			"/>
			<polygon class="st2" points="2867.1,430.5 2867.1,341.3 2790,296.8 2712.8,341.3 2712.8,430.5 2790,475 			"/>
			<polygon class="st2" points="3021.5,430.5 3021.5,341.3 2944.3,296.8 2867.1,341.3 2867.1,430.5 2944.3,475 			"/>
			<polygon class="st2" points="3175.9,430.5 3175.9,341.3 3098.7,296.8 3021.5,341.3 3021.5,430.5 3098.7,475 			"/>
			<polygon class="st2" points="1863.6,564.7 1863.6,475.5 1786.4,431 1709.2,475.5 1709.2,564.7 1786.4,609.2 			"/>
			<polygon class="st2" points="2018,564.7 2018,475.5 1940.8,431 1863.6,475.5 1863.6,564.7 1940.8,609.2 			"/>
			<polygon class="st2" points="2172.3,564.7 2172.3,475.5 2095.1,431 2018,475.5 2018,564.7 2095.1,609.2 			"/>
			<polygon class="st2" points="2326.7,564.7 2326.7,475.5 2249.5,431 2172.3,475.5 2172.3,564.7 2249.5,609.2 			"/>
			<polygon class="st2" points="2481.1,564.7 2481.1,475.5 2403.9,431 2326.7,475.5 2326.7,564.7 2403.9,609.2 			"/>
			<polygon class="st2" points="2635.4,564.7 2635.4,475.5 2558.3,431 2481.1,475.5 2481.1,564.7 2558.3,609.2 			"/>
			<polygon class="st2" points="2789.8,564.7 2789.8,475.5 2712.6,431 2635.4,475.5 2635.4,564.7 2712.6,609.2 			"/>
			<polygon class="st2" points="2944.2,564.7 2944.2,475.5 2867,431 2789.8,475.5 2789.8,564.7 2867,609.2 			"/>
			<polygon class="st2" points="3098.5,564.7 3098.5,475.5 3021.4,431 2944.2,475.5 2944.2,564.7 3021.4,609.2 			"/>
			<polygon class="st2" points="3252.9,564.7 3252.9,475.5 3175.7,431 3098.5,475.5 3098.5,564.7 3175.7,609.2 			"/>
			<polygon class="st2" points="1940.9,697.8 1940.9,608.7 1863.7,564.1 1786.6,608.7 1786.6,697.8 1863.7,742.4 			"/>
			<polygon class="st2" points="2095.3,697.8 2095.3,608.7 2018.1,564.1 1940.9,608.7 1940.9,697.8 2018.1,742.4 			"/>
			<polygon class="st2" points="2249.7,697.8 2249.7,608.7 2172.5,564.1 2095.3,608.7 2095.3,697.8 2172.5,742.4 			"/>
			<polygon class="st2" points="2404,697.8 2404,608.7 2326.9,564.1 2249.7,608.7 2249.7,697.8 2326.9,742.4 			"/>
			<polygon class="st2" points="2558.4,697.8 2558.4,608.7 2481.2,564.1 2404,608.7 2404,697.8 2481.2,742.4 			"/>
			<polygon class="st2" points="2712.8,697.8 2712.8,608.7 2635.6,564.1 2558.4,608.7 2558.4,697.8 2635.6,742.4 			"/>
			<polygon class="st2" points="2867.1,697.8 2867.1,608.7 2790,564.1 2712.8,608.7 2712.8,697.8 2790,742.4 			"/>
			<polygon class="st2" points="3021.5,697.8 3021.5,608.7 2944.3,564.1 2867.1,608.7 2867.1,697.8 2944.3,742.4 			"/>
			<polygon class="st2" points="3175.9,697.8 3175.9,608.7 3098.7,564.1 3021.5,608.7 3021.5,697.8 3098.7,742.4 			"/>
			<polygon class="st2" points="1863.6,832 1863.6,742.9 1786.4,698.3 1709.2,742.9 1709.2,832 1786.4,876.6 			"/>
			<polygon class="st2" points="2018,832 2018,742.9 1940.8,698.3 1863.6,742.9 1863.6,832 1940.8,876.6 			"/>
			<polygon class="st2" points="2172.3,832 2172.3,742.9 2095.1,698.3 2018,742.9 2018,832 2095.1,876.6 			"/>
			<polygon class="st2" points="2326.7,832 2326.7,742.9 2249.5,698.3 2172.3,742.9 2172.3,832 2249.5,876.6 			"/>
			<polygon class="st2" points="2481.1,832 2481.1,742.9 2403.9,698.3 2326.7,742.9 2326.7,832 2403.9,876.6 			"/>
			<polygon class="st2" points="2635.4,832 2635.4,742.9 2558.3,698.3 2481.1,742.9 2481.1,832 2558.3,876.6 			"/>
			<polygon class="st2" points="2789.8,832 2789.8,742.9 2712.6,698.3 2635.4,742.9 2635.4,832 2712.6,876.6 			"/>
			<polygon class="st2" points="2944.2,832 2944.2,742.9 2867,698.3 2789.8,742.9 2789.8,832 2867,876.6 			"/>
			<polygon class="st2" points="3098.5,832 3098.5,742.9 3021.4,698.3 2944.2,742.9 2944.2,832 3021.4,876.6 			"/>
			<polygon class="st2" points="3252.9,832 3252.9,742.9 3175.7,698.3 3098.5,742.9 3098.5,832 3175.7,876.6 			"/>
			<polygon class="st2" points="1940.9,965.2 1940.9,876.1 1863.7,831.5 1786.6,876.1 1786.6,965.2 1863.7,1009.8 			"/>
			<polygon class="st2" points="2095.3,965.2 2095.3,876.1 2018.1,831.5 1940.9,876.1 1940.9,965.2 2018.1,1009.8 			"/>
			<polygon class="st2" points="2249.7,965.2 2249.7,876.1 2172.5,831.5 2095.3,876.1 2095.3,965.2 2172.5,1009.8 			"/>
			<polygon class="st2" points="2404,965.2 2404,876.1 2326.9,831.5 2249.7,876.1 2249.7,965.2 2326.9,1009.8 			"/>
			<polygon class="st2" points="2558.4,965.2 2558.4,876.1 2481.2,831.5 2404,876.1 2404,965.2 2481.2,1009.8 			"/>
			<polygon class="st2" points="2712.8,965.2 2712.8,876.1 2635.6,831.5 2558.4,876.1 2558.4,965.2 2635.6,1009.8 			"/>
			<polygon class="st2" points="2867.1,965.2 2867.1,876.1 2790,831.5 2712.8,876.1 2712.8,965.2 2790,1009.8 			"/>
			<polygon class="st2" points="3021.5,965.2 3021.5,876.1 2944.3,831.5 2867.1,876.1 2867.1,965.2 2944.3,1009.8 			"/>
			<polygon class="st2" points="3175.9,965.2 3175.9,876.1 3098.7,831.5 3021.5,876.1 3021.5,965.2 3098.7,1009.8 			"/>
			<polygon class="st2" points="1863.6,1099.4 1863.6,1010.3 1786.4,965.7 1709.2,1010.3 1709.2,1099.4 1786.4,1143.9 			"/>
			<polygon class="st2" points="2018,1099.4 2018,1010.3 1940.8,965.7 1863.6,1010.3 1863.6,1099.4 1940.8,1143.9 			"/>
			<polygon class="st2" points="2172.3,1099.4 2172.3,1010.3 2095.1,965.7 2018,1010.3 2018,1099.4 2095.1,1143.9 			"/>
			<polygon class="st2" points="2326.7,1099.4 2326.7,1010.3 2249.5,965.7 2172.3,1010.3 2172.3,1099.4 2249.5,1143.9 			"/>
			<polygon class="st2" points="2481.1,1099.4 2481.1,1010.3 2403.9,965.7 2326.7,1010.3 2326.7,1099.4 2403.9,1143.9 			"/>
			<polygon class="st2" points="2635.4,1099.4 2635.4,1010.3 2558.3,965.7 2481.1,1010.3 2481.1,1099.4 2558.3,1143.9 			"/>
			<polygon class="st2" points="2789.8,1099.4 2789.8,1010.3 2712.6,965.7 2635.4,1010.3 2635.4,1099.4 2712.6,1143.9 			"/>
			<polygon class="st2" points="2944.2,1099.4 2944.2,1010.3 2867,965.7 2789.8,1010.3 2789.8,1099.4 2867,1143.9 			"/>
			<polygon class="st2" points="3098.5,1099.4 3098.5,1010.3 3021.4,965.7 2944.2,1010.3 2944.2,1099.4 3021.4,1143.9 			"/>
			<polygon class="st2" points="3252.9,1099.4 3252.9,1010.3 3175.7,965.7 3098.5,1010.3 3098.5,1099.4 3175.7,1143.9 			"/>
			<polygon class="st3" points="2095.3,1232.5 2095.3,1143.4 2018.1,1098.9 1940.9,1143.4 1940.9,1232.5 2018.1,1277.1 			"/>
			<polygon class="st2" points="2249.7,1232.5 2249.7,1143.4 2172.5,1098.9 2095.3,1143.4 2095.3,1232.5 2172.5,1277.1 			"/>
			<polygon class="st2" points="2404,1232.5 2404,1143.4 2326.9,1098.9 2249.7,1143.4 2249.7,1232.5 2326.9,1277.1 			"/>
			<polygon class="st2" points="2558.4,1232.5 2558.4,1143.4 2481.2,1098.9 2404,1143.4 2404,1232.5 2481.2,1277.1 			"/>
			<polygon class="st2" points="2712.8,1232.5 2712.8,1143.4 2635.6,1098.9 2558.4,1143.4 2558.4,1232.5 2635.6,1277.1 			"/>
			<polygon class="st2" points="2867.1,1232.5 2867.1,1143.4 2790,1098.9 2712.8,1143.4 2712.8,1232.5 2790,1277.1 			"/>
			<polygon class="st2" points="3021.5,1232.5 3021.5,1143.4 2944.3,1098.9 2867.1,1143.4 2867.1,1232.5 2944.3,1277.1 			"/>
			<polygon class="st2" points="3175.9,1232.5 3175.9,1143.4 3098.7,1098.9 3021.5,1143.4 3021.5,1232.5 3098.7,1277.1 			"/>
			<polygon class="st3" points="2172.3,1366.7 2172.3,1277.6 2095.1,1233.1 2018,1277.6 2018,1366.7 2095.1,1411.3 			"/>
			<polygon class="st2" points="2326.7,1366.7 2326.7,1277.6 2249.5,1233.1 2172.3,1277.6 2172.3,1366.7 2249.5,1411.3 			"/>
			<polygon class="st2" points="2481.1,1366.7 2481.1,1277.6 2403.9,1233.1 2326.7,1277.6 2326.7,1366.7 2403.9,1411.3 			"/>
			<polygon class="st2" points="2635.4,1366.7 2635.4,1277.6 2558.3,1233.1 2481.1,1277.6 2481.1,1366.7 2558.3,1411.3 			"/>
			<polygon class="st2" points="2789.8,1366.7 2789.8,1277.6 2712.6,1233.1 2635.4,1277.6 2635.4,1366.7 2712.6,1411.3 			"/>
			<polygon class="st2" points="2944.2,1366.7 2944.2,1277.6 2867,1233.1 2789.8,1277.6 2789.8,1366.7 2867,1411.3 			"/>
			<polygon class="st2" points="3098.5,1366.7 3098.5,1277.6 3021.4,1233.1 2944.2,1277.6 2944.2,1366.7 3021.4,1411.3 			"/>
			<polygon class="st2" points="3252.9,1366.7 3252.9,1277.6 3175.7,1233.1 3098.5,1277.6 3098.5,1366.7 3175.7,1411.3 			"/>
			<polygon class="st2" points="2095.3,1499.9 2095.3,1410.8 2018.1,1366.2 1940.9,1410.8 1940.9,1499.9 2018.1,1544.5 			"/>
			<polygon class="st2" points="2249.7,1499.9 2249.7,1410.8 2172.5,1366.2 2095.3,1410.8 2095.3,1499.9 2172.5,1544.5 			"/>
			<polygon class="st2" points="2404,1499.9 2404,1410.8 2326.9,1366.2 2249.7,1410.8 2249.7,1499.9 2326.9,1544.5 			"/>
			<polygon class="st2" points="2558.4,1499.9 2558.4,1410.8 2481.2,1366.2 2404,1410.8 2404,1499.9 2481.2,1544.5 			"/>
			<polygon class="st2" points="2712.8,1499.9 2712.8,1410.8 2635.6,1366.2 2558.4,1410.8 2558.4,1499.9 2635.6,1544.5 			"/>
			<polygon class="st2" points="2867.1,1499.9 2867.1,1410.8 2790,1366.2 2712.8,1410.8 2712.8,1499.9 2790,1544.5 			"/>
			<polygon class="st2" points="3021.5,1499.9 3021.5,1410.8 2944.3,1366.2 2867.1,1410.8 2867.1,1499.9 2944.3,1544.5 			"/>
			<polygon class="st2" points="3175.9,1499.9 3175.9,1410.8 3098.7,1366.2 3021.5,1410.8 3021.5,1499.9 3098.7,1544.5 			"/>
			<polygon class="st2" points="2018,1634.1 2018,1545 1940.8,1500.4 1863.6,1545 1863.6,1634.1 1940.8,1678.7 			"/>
			<polygon class="st2" points="2172.3,1634.1 2172.3,1545 2095.1,1500.4 2018,1545 2018,1634.1 2095.1,1678.7 			"/>
			<polygon class="st2" points="2326.7,1634.1 2326.7,1545 2249.5,1500.4 2172.3,1545 2172.3,1634.1 2249.5,1678.7 			"/>
			<polygon class="st2" points="2481.1,1634.1 2481.1,1545 2403.9,1500.4 2326.7,1545 2326.7,1634.1 2403.9,1678.7 			"/>
			<polygon class="st2" points="2635.4,1634.1 2635.4,1545 2558.3,1500.4 2481.1,1545 2481.1,1634.1 2558.3,1678.7 			"/>
			<polygon class="st2" points="2789.8,1634.1 2789.8,1545 2712.6,1500.4 2635.4,1545 2635.4,1634.1 2712.6,1678.7 			"/>
			<polygon class="st2" points="2944.2,1634.1 2944.2,1545 2867,1500.4 2789.8,1545 2789.8,1634.1 2867,1678.7 			"/>
			<polygon class="st2" points="3098.5,1634.1 3098.5,1545 3021.4,1500.4 2944.2,1545 2944.2,1634.1 3021.4,1678.7 			"/>
			<polygon class="st2" points="3252.9,1634.1 3252.9,1545 3175.7,1500.4 3098.5,1545 3098.5,1634.1 3175.7,1678.7 			"/>
			<polygon class="st2" points="1940.9,1767.3 1940.9,1678.1 1863.7,1633.6 1786.6,1678.1 1786.6,1767.3 1863.7,1811.8 			"/>
			<polygon class="st2" points="2095.3,1767.3 2095.3,1678.1 2018.1,1633.6 1940.9,1678.1 1940.9,1767.3 2018.1,1811.8 			"/>
			<polygon class="st2" points="2249.7,1767.3 2249.7,1678.1 2172.5,1633.6 2095.3,1678.1 2095.3,1767.3 2172.5,1811.8 			"/>
			<polygon class="st2" points="2404,1767.3 2404,1678.1 2326.9,1633.6 2249.7,1678.1 2249.7,1767.3 2326.9,1811.8 			"/>
			<polygon class="st2" points="2558.4,1767.3 2558.4,1678.1 2481.2,1633.6 2404,1678.1 2404,1767.3 2481.2,1811.8 			"/>
			<polygon class="st2" points="2712.8,1767.3 2712.8,1678.1 2635.6,1633.6 2558.4,1678.1 2558.4,1767.3 2635.6,1811.8 			"/>
			<polygon class="st2" points="2867.1,1767.3 2867.1,1678.1 2790,1633.6 2712.8,1678.1 2712.8,1767.3 2790,1811.8 			"/>
			<polygon class="st2" points="3021.5,1767.3 3021.5,1678.1 2944.3,1633.6 2867.1,1678.1 2867.1,1767.3 2944.3,1811.8 			"/>
			<polygon class="st2" points="3175.9,1767.3 3175.9,1678.1 3098.7,1633.6 3021.5,1678.1 3021.5,1767.3 3098.7,1811.8 			"/>
			<polygon class="st2" points="1863.6,1901.5 1863.6,1812.3 1786.4,1767.8 1709.2,1812.3 1709.2,1901.5 1786.4,1946 			"/>
			<polygon class="st2" points="2018,1901.5 2018,1812.3 1940.8,1767.8 1863.6,1812.3 1863.6,1901.5 1940.8,1946 			"/>
			<polygon class="st2" points="2172.3,1901.5 2172.3,1812.3 2095.1,1767.8 2018,1812.3 2018,1901.5 2095.1,1946 			"/>
			<polygon class="st2" points="2326.7,1901.5 2326.7,1812.3 2249.5,1767.8 2172.3,1812.3 2172.3,1901.5 2249.5,1946 			"/>
			<polygon class="st2" points="2481.1,1901.5 2481.1,1812.3 2403.9,1767.8 2326.7,1812.3 2326.7,1901.5 2403.9,1946 			"/>
			<polygon class="st2" points="2635.4,1901.5 2635.4,1812.3 2558.3,1767.8 2481.1,1812.3 2481.1,1901.5 2558.3,1946 			"/>
			<polygon class="st2" points="2789.8,1901.5 2789.8,1812.3 2712.6,1767.8 2635.4,1812.3 2635.4,1901.5 2712.6,1946 			"/>
			<polygon class="st2" points="2944.2,1901.5 2944.2,1812.3 2867,1767.8 2789.8,1812.3 2789.8,1901.5 2867,1946 			"/>
			<polygon class="st2" points="3098.5,1901.5 3098.5,1812.3 3021.4,1767.8 2944.2,1812.3 2944.2,1901.5 3021.4,1946 			"/>
			<polygon class="st2" points="3252.9,1901.5 3252.9,1812.3 3175.7,1767.8 3098.5,1812.3 3098.5,1901.5 3175.7,1946 			"/>
			<polygon class="st2" points="1940.9,2034.6 1940.9,1945.5 1863.7,1900.9 1786.6,1945.5 1786.6,2034.6 1863.7,2079.2 			"/>
			<polygon class="st2" points="2095.3,2034.6 2095.3,1945.5 2018.1,1900.9 1940.9,1945.5 1940.9,2034.6 2018.1,2079.2 			"/>
			<polygon class="st2" points="2249.7,2034.6 2249.7,1945.5 2172.5,1900.9 2095.3,1945.5 2095.3,2034.6 2172.5,2079.2 			"/>
			<polygon class="st2" points="2404,2034.6 2404,1945.5 2326.9,1900.9 2249.7,1945.5 2249.7,2034.6 2326.9,2079.2 			"/>
			<polygon class="st2" points="2558.4,2034.6 2558.4,1945.5 2481.2,1900.9 2404,1945.5 2404,2034.6 2481.2,2079.2 			"/>
			<polygon class="st2" points="2712.8,2034.6 2712.8,1945.5 2635.6,1900.9 2558.4,1945.5 2558.4,2034.6 2635.6,2079.2 			"/>
			<polygon class="st2" points="2867.1,2034.6 2867.1,1945.5 2790,1900.9 2712.8,1945.5 2712.8,2034.6 2790,2079.2 			"/>
			<polygon class="st2" points="3021.5,2034.6 3021.5,1945.5 2944.3,1900.9 2867.1,1945.5 2867.1,2034.6 2944.3,2079.2 			"/>
			<polygon class="st2" points="3175.9,2034.6 3175.9,1945.5 3098.7,1900.9 3021.5,1945.5 3021.5,2034.6 3098.7,2079.2 			"/>
			<polygon class="st2" points="1863.6,2168.3 1863.6,2079.2 1786.4,2034.6 1709.2,2079.2 1709.2,2168.3 1786.4,2212.9 			"/>
			<polygon class="st2" points="2018,2168.3 2018,2079.2 1940.8,2034.6 1863.6,2079.2 1863.6,2168.3 1940.8,2212.9 			"/>
			<polygon class="st2" points="2172.3,2168.3 2172.3,2079.2 2095.1,2034.6 2018,2079.2 2018,2168.3 2095.1,2212.9 			"/>
			<polygon class="st2" points="2326.7,2168.3 2326.7,2079.2 2249.5,2034.6 2172.3,2079.2 2172.3,2168.3 2249.5,2212.9 			"/>
			<polygon class="st2" points="2481.1,2168.3 2481.1,2079.2 2403.9,2034.6 2326.7,2079.2 2326.7,2168.3 2403.9,2212.9 			"/>
			<polygon class="st2" points="2635.4,2168.3 2635.4,2079.2 2558.3,2034.6 2481.1,2079.2 2481.1,2168.3 2558.3,2212.9 			"/>
			<polygon class="st2" points="2789.8,2168.3 2789.8,2079.2 2712.6,2034.6 2635.4,2079.2 2635.4,2168.3 2712.6,2212.9 			"/>
			<polygon class="st2" points="2944.2,2168.3 2944.2,2079.2 2867,2034.6 2789.8,2079.2 2789.8,2168.3 2867,2212.9 			"/>
			<polygon class="st2" points="3098.5,2168.3 3098.5,2079.2 3021.4,2034.6 2944.2,2079.2 2944.2,2168.3 3021.4,2212.9 			"/>
			<polygon class="st2" points="3252.9,2168.3 3252.9,2079.2 3175.7,2034.6 3098.5,2079.2 3098.5,2168.3 3175.7,2212.9 			"/>
			<polygon class="st2" points="1940.9,2301.5 1940.9,2212.3 1863.7,2167.8 1786.6,2212.3 1786.6,2301.5 1863.7,2346 			"/>
			<polygon class="st2" points="2095.3,2301.5 2095.3,2212.3 2018.1,2167.8 1940.9,2212.3 1940.9,2301.5 2018.1,2346 			"/>
			<polygon class="st2" points="2249.7,2301.5 2249.7,2212.3 2172.5,2167.8 2095.3,2212.3 2095.3,2301.5 2172.5,2346 			"/>
			<polygon class="st2" points="2404,2301.5 2404,2212.3 2326.9,2167.8 2249.7,2212.3 2249.7,2301.5 2326.9,2346 			"/>
			<polygon class="st2" points="2558.4,2301.5 2558.4,2212.3 2481.2,2167.8 2404,2212.3 2404,2301.5 2481.2,2346 			"/>
			<polygon class="st2" points="2712.8,2301.5 2712.8,2212.3 2635.6,2167.8 2558.4,2212.3 2558.4,2301.5 2635.6,2346 			"/>
			<polygon class="st2" points="2867.1,2301.5 2867.1,2212.3 2790,2167.8 2712.8,2212.3 2712.8,2301.5 2790,2346 			"/>
			<polygon class="st2" points="3021.5,2301.5 3021.5,2212.3 2944.3,2167.8 2867.1,2212.3 2867.1,2301.5 2944.3,2346 			"/>
			<polygon class="st2" points="3175.9,2301.5 3175.9,2212.3 3098.7,2167.8 3021.5,2212.3 3021.5,2301.5 3098.7,2346 			"/>
			<polygon class="st2" points="1863.6,2435.7 1863.6,2346.5 1786.4,2302 1709.2,2346.5 1709.2,2435.7 1786.4,2480.2 			"/>
			<polygon class="st2" points="2018,2435.7 2018,2346.5 1940.8,2302 1863.6,2346.5 1863.6,2435.7 1940.8,2480.2 			"/>
			<polygon class="st2" points="2172.3,2435.7 2172.3,2346.5 2095.1,2302 2018,2346.5 2018,2435.7 2095.1,2480.2 			"/>
			<polygon class="st2" points="2326.7,2435.7 2326.7,2346.5 2249.5,2302 2172.3,2346.5 2172.3,2435.7 2249.5,2480.2 			"/>
			<polygon class="st2" points="2481.1,2435.7 2481.1,2346.5 2403.9,2302 2326.7,2346.5 2326.7,2435.7 2403.9,2480.2 			"/>
			<polygon class="st2" points="2635.4,2435.7 2635.4,2346.5 2558.3,2302 2481.1,2346.5 2481.1,2435.7 2558.3,2480.2 			"/>
			<polygon class="st2" points="2789.8,2435.7 2789.8,2346.5 2712.6,2302 2635.4,2346.5 2635.4,2435.7 2712.6,2480.2 			"/>
			<polygon class="st2" points="2944.2,2435.7 2944.2,2346.5 2867,2302 2789.8,2346.5 2789.8,2435.7 2867,2480.2 			"/>
			<polygon class="st2" points="3098.5,2435.7 3098.5,2346.5 3021.4,2302 2944.2,2346.5 2944.2,2435.7 3021.4,2480.2 			"/>
			<polygon class="st2" points="3252.9,2435.7 3252.9,2346.5 3175.7,2302 3098.5,2346.5 3098.5,2435.7 3175.7,2480.2 			"/>
			<polygon class="st2" points="1940.9,2568.8 1940.9,2479.7 1863.7,2435.1 1786.6,2479.7 1786.6,2568.8 1863.7,2613.4 			"/>
			<polygon class="st2" points="2095.3,2568.8 2095.3,2479.7 2018.1,2435.1 1940.9,2479.7 1940.9,2568.8 2018.1,2613.4 			"/>
			<polygon class="st2" points="2249.7,2568.8 2249.7,2479.7 2172.5,2435.1 2095.3,2479.7 2095.3,2568.8 2172.5,2613.4 			"/>
			<polygon class="st2" points="2404,2568.8 2404,2479.7 2326.9,2435.1 2249.7,2479.7 2249.7,2568.8 2326.9,2613.4 			"/>
			<polygon class="st2" points="2558.4,2568.8 2558.4,2479.7 2481.2,2435.1 2404,2479.7 2404,2568.8 2481.2,2613.4 			"/>
			<polygon class="st2" points="2712.8,2568.8 2712.8,2479.7 2635.6,2435.1 2558.4,2479.7 2558.4,2568.8 2635.6,2613.4 			"/>
			<polygon class="st2" points="2867.1,2568.8 2867.1,2479.7 2790,2435.1 2712.8,2479.7 2712.8,2568.8 2790,2613.4 			"/>
			<polygon class="st2" points="3021.5,2568.8 3021.5,2479.7 2944.3,2435.1 2867.1,2479.7 2867.1,2568.8 2944.3,2613.4 			"/>
			<polygon class="st2" points="3175.9,2568.8 3175.9,2479.7 3098.7,2435.1 3021.5,2479.7 3021.5,2568.8 3098.7,2613.4 			"/>
		</g>
		<g class="st4">
			<circle class="st5" cx="1477" cy="965.3" r="16"/>
			<circle class="st5" cx="1711" cy="1101.3" r="16"/>
			<circle class="st5" cx="1942" cy="1411.3" r="16"/>
			<circle class="st5" cx="1710" cy="1634.3" r="16"/>
			<circle class="st5" cx="1169" cy="1411.3" r="16"/>
			<circle class="st5" cx="1401" cy="1635.3" r="16"/>
			<circle class="st5" cx="1478" cy="1501.3" r="16"/>
			<circle class="st5" cx="1090" cy="1101.3" r="16"/>
			<circle class="st5" cx="940" cy="1278.3" r="16"/>
			<circle class="st5" cx="1942" cy="966.3" r="16"/>
			<circle class="st5" cx="1092" cy="1635.3" r="16"/>
			<circle class="st5" cx="936" cy="1008.3" r="16"/>
			<circle class="st5" cx="1170" cy="878.3" r="16"/>
			<circle class="st5" cx="2096" cy="1233.3" r="16"/>
		</g>
	</g>
</g>
<rect class="st6" width="3365" height="2653.6"/>
</svg>
