<!-- Generator: Adobe Illustrator 22.0.0, SVG Export Plug-In  -->
<svg version="1.1"
	 xmlns="http://www.w3.org/2000/svg" xmlns:xlink="http://www.w3.org/1999/xlink" xmlns:a="http://ns.adobe.com/AdobeSVGViewerExtensions/3.0/"
	 x="0px" y="0px" width="3405.6px" height="2486.8px" viewBox="0 0 3405.6 2486.8"
	 style="overflow:scroll;enable-background:new 0 0 3405.6 2486.8;" xml:space="preserve">
<style type="text/css">
	.st0{opacity:0.4;}
	.st1{fill:none;stroke:#FFFFFF;stroke-width:2;stroke-linejoin:round;stroke-miterlimit:10;}
	.st2{fill:none;stroke:#FFFFFF;stroke-width:2;stroke-miterlimit:10;}
	.st3{display:none;fill:none;stroke:#FFFFFF;stroke-width:2;stroke-miterlimit:10;}
	.st4{display:none;fill:none;stroke:#FFFFFF;stroke-width:2;stroke-linejoin:round;stroke-miterlimit:10;}
</style>
<defs>
</defs>
<g id="Layer_1_2_" class="st0">
	<polygon class="st1" points="201.2,174.4 201.2,58.8 101.1,1 1,58.8 1,174.4 101.1,232.1 	"/>
	<polygon class="st1" points="401.4,174.4 401.4,58.8 301.3,1 201.2,58.8 201.2,174.4 301.3,232.1 	"/>
	<polygon class="st1" points="601.5,174.4 601.5,58.8 501.4,1 401.4,58.8 401.4,174.4 501.4,232.1 	"/>
	<polygon class="st1" points="801.7,174.4 801.7,58.8 701.6,1 601.5,58.8 601.5,174.4 701.6,232.1 	"/>
	<polygon class="st1" points="1001.9,174.4 1001.9,58.8 901.8,1 801.7,58.8 801.7,174.4 901.8,232.1 	"/>
	<polygon class="st1" points="1202.1,174.4 1202.1,58.8 1102,1 1001.9,58.8 1001.9,174.4 1102,232.1 	"/>
	<polygon class="st1" points="1402.2,174.4 1402.2,58.8 1302.1,1 1202.1,58.8 1202.1,174.4 1302.1,232.1 	"/>
	<polygon class="st1" points="1602.4,174.4 1602.4,58.8 1502.3,1 1402.2,58.8 1402.2,174.4 1502.3,232.1 	"/>
	<polygon class="st2" points="301.1,348.4 301.1,232.8 201,175 100.9,232.8 100.9,348.4 201,406.2 	"/>
	<polygon class="st2" points="501.2,348.4 501.2,232.8 401.2,175 301.1,232.8 301.1,348.4 401.2,406.2 	"/>
	<polygon class="st3" points="701.4,348.4 701.4,232.8 601.3,175 501.2,232.8 501.2,348.4 601.3,406.2 	"/>
	<polygon class="st2" points="901.6,348.4 901.6,232.8 801.5,175 701.4,232.8 701.4,348.4 801.5,406.2 	"/>
	<polygon class="st2" points="1101.8,348.4 1101.8,232.8 1001.7,175 901.6,232.8 901.6,348.4 1001.7,406.2 	"/>
	<polygon class="st2" points="1301.9,348.4 1301.9,232.8 1201.9,175 1101.8,232.8 1101.8,348.4 1201.9,406.2 	"/>
	<polygon class="st2" points="1502.1,348.4 1502.1,232.8 1402,175 1301.9,232.8 1301.9,348.4 1402,406.2 	"/>
	<polygon class="st1" points="201.2,521.1 201.2,405.5 101.1,347.7 1,405.5 1,521.1 101.1,578.8 	"/>
	<polygon class="st1" points="401.4,521.1 401.4,405.5 301.3,347.7 201.2,405.5 201.2,521.1 301.3,578.8 	"/>
	<polygon class="st1" points="601.5,521.1 601.5,405.5 501.4,347.7 401.4,405.5 401.4,521.1 501.4,578.8 	"/>
	<polygon class="st1" points="801.7,521.1 801.7,405.5 701.6,347.7 601.5,405.5 601.5,521.1 701.6,578.8 	"/>
	<polygon class="st1" points="1001.9,521.1 1001.9,405.5 901.8,347.7 801.7,405.5 801.7,521.1 901.8,578.8 	"/>
	<polygon class="st1" points="1202.1,521.1 1202.1,405.5 1102,347.7 1001.9,405.5 1001.9,521.1 1102,578.8 	"/>
	<polygon class="st1" points="1402.2,521.1 1402.2,405.5 1302.1,347.7 1202.1,405.5 1202.1,521.1 1302.1,578.8 	"/>
	<polygon class="st1" points="1602.4,521.1 1602.4,405.5 1502.3,347.7 1402.2,405.5 1402.2,521.1 1502.3,578.8 	"/>
	<polygon class="st2" points="301.1,695.1 301.1,579.5 201,521.7 100.9,579.5 100.9,695.1 201,752.9 	"/>
	<polygon class="st2" points="501.2,695.1 501.2,579.5 401.2,521.7 301.1,579.5 301.1,695.1 401.2,752.9 	"/>
	<polygon class="st2" points="701.4,695.1 701.4,579.5 601.3,521.7 501.2,579.5 501.2,695.1 601.3,752.9 	"/>
	<polygon class="st2" points="901.6,695.1 901.6,579.5 801.5,521.7 701.4,579.5 701.4,695.1 801.5,752.9 	"/>
	<polygon class="st3" points="1101.8,695.1 1101.8,579.5 1001.7,521.7 901.6,579.5 901.6,695.1 1001.7,752.9 	"/>
	<polygon class="st3" points="1301.9,695.1 1301.9,579.5 1201.9,521.7 1101.8,579.5 1101.8,695.1 1201.9,752.9 	"/>
	<polygon class="st3" points="1502.1,695.1 1502.1,579.5 1402,521.7 1301.9,579.5 1301.9,695.1 1402,752.9 	"/>
	<polygon class="st1" points="201.2,867.7 201.2,752.2 101.1,694.4 1,752.2 1,867.7 101.1,925.5 	"/>
	<polygon class="st1" points="401.4,867.7 401.4,752.2 301.3,694.4 201.2,752.2 201.2,867.7 301.3,925.5 	"/>
	<polygon class="st1" points="601.5,867.7 601.5,752.2 501.4,694.4 401.4,752.2 401.4,867.7 501.4,925.5 	"/>
	<polygon class="st1" points="801.7,867.7 801.7,752.2 701.6,694.4 601.5,752.2 601.5,867.7 701.6,925.5 	"/>
	<polygon class="st1" points="1001.9,867.7 1001.9,752.2 901.8,694.4 801.7,752.2 801.7,867.7 901.8,925.5 	"/>
	<polygon class="st4" points="1202.1,867.7 1202.1,752.2 1102,694.4 1001.9,752.2 1001.9,867.7 1102,925.5 	"/>
	<polygon class="st4" points="1402.2,867.7 1402.2,752.2 1302.1,694.4 1202.1,752.2 1202.1,867.7 1302.1,925.5 	"/>
	<polygon class="st4" points="1602.4,867.7 1602.4,752.2 1502.3,694.4 1402.2,752.2 1402.2,867.7 1502.3,925.5 	"/>
	<polygon class="st2" points="301.1,1041.8 301.1,926.2 201,868.4 100.9,926.2 100.9,1041.8 201,1099.5 	"/>
	<polygon class="st2" points="501.2,1041.8 501.2,926.2 401.2,868.4 301.1,926.2 301.1,1041.8 401.2,1099.5 	"/>
	<polygon class="st2" points="701.4,1041.8 701.4,926.2 601.3,868.4 501.2,926.2 501.2,1041.8 601.3,1099.5 	"/>
	<polygon class="st2" points="901.6,1041.8 901.6,926.2 801.5,868.4 701.4,926.2 701.4,1041.8 801.5,1099.5 	"/>
	<polygon class="st3" points="1101.8,1041.8 1101.8,926.2 1001.7,868.4 901.6,926.2 901.6,1041.8 1001.7,1099.5 	"/>
	<polygon class="st3" points="1301.9,1041.8 1301.9,926.2 1201.9,868.4 1101.8,926.2 1101.8,1041.8 1201.9,1099.5 	"/>
	<polygon class="st3" points="1502.1,1041.8 1502.1,926.2 1402,868.4 1301.9,926.2 1301.9,1041.8 1402,1099.5 	"/>
	<polygon class="st1" points="201.2,1214.4 201.2,1098.9 101.1,1041.1 1,1098.9 1,1214.4 101.1,1272.2 	"/>
	<polygon class="st1" points="401.4,1214.4 401.4,1098.9 301.3,1041.1 201.2,1098.9 201.2,1214.4 301.3,1272.2 	"/>
	<polygon class="st1" points="601.5,1214.4 601.5,1098.9 501.4,1041.1 401.4,1098.9 401.4,1214.4 501.4,1272.2 	"/>
	<polygon class="st1" points="801.7,1214.4 801.7,1098.9 701.6,1041.1 601.5,1098.9 601.5,1214.4 701.6,1272.2 	"/>
	<polygon class="st1" points="1001.9,1214.4 1001.9,1098.9 901.8,1041.1 801.7,1098.9 801.7,1214.4 901.8,1272.2 	"/>
	<polygon class="st4" points="1202.1,1214.4 1202.1,1098.9 1102,1041.1 1001.9,1098.9 1001.9,1214.4 1102,1272.2 	"/>
	<polygon class="st4" points="1402.2,1214.4 1402.2,1098.9 1302.1,1041.1 1202.1,1098.9 1202.1,1214.4 1302.1,1272.2 	"/>
	<polygon class="st4" points="1602.4,1214.4 1602.4,1098.9 1502.3,1041.1 1402.2,1098.9 1402.2,1214.4 1502.3,1272.2 	"/>
	<polygon class="st2" points="301.1,1388.5 301.1,1272.9 201,1215.1 100.9,1272.9 100.9,1388.5 201,1446.2 	"/>
	<polygon class="st2" points="501.2,1388.5 501.2,1272.9 401.2,1215.1 301.1,1272.9 301.1,1388.5 401.2,1446.2 	"/>
	<polygon class="st2" points="701.4,1388.5 701.4,1272.9 601.3,1215.1 501.2,1272.9 501.2,1388.5 601.3,1446.2 	"/>
	<polygon class="st2" points="901.6,1388.5 901.6,1272.9 801.5,1215.1 701.4,1272.9 701.4,1388.5 801.5,1446.2 	"/>
	<polygon class="st2" points="1101.8,1388.5 1101.8,1272.9 1001.7,1215.1 901.6,1272.9 901.6,1388.5 1001.7,1446.2 	"/>
	<polygon class="st2" points="1301.9,1388.5 1301.9,1272.9 1201.9,1215.1 1101.8,1272.9 1101.8,1388.5 1201.9,1446.2 	"/>
	<polygon class="st3" points="1502.1,1388.5 1502.1,1272.9 1402,1215.1 1301.9,1272.9 1301.9,1388.5 1402,1446.2 	"/>
	<polygon class="st1" points="201.2,1561.1 201.2,1445.6 101.1,1387.8 1,1445.6 1,1561.1 101.1,1618.9 	"/>
	<polygon class="st1" points="401.4,1561.1 401.4,1445.6 301.3,1387.8 201.2,1445.6 201.2,1561.1 301.3,1618.9 	"/>
	<polygon class="st1" points="601.5,1561.1 601.5,1445.6 501.4,1387.8 401.4,1445.6 401.4,1561.1 501.4,1618.9 	"/>
	<polygon class="st1" points="801.7,1561.1 801.7,1445.6 701.6,1387.8 601.5,1445.6 601.5,1561.1 701.6,1618.9 	"/>
	<polygon class="st1" points="1001.9,1561.1 1001.9,1445.6 901.8,1387.8 801.7,1445.6 801.7,1561.1 901.8,1618.9 	"/>
	<polygon class="st1" points="1202.1,1561.1 1202.1,1445.6 1102,1387.8 1001.9,1445.6 1001.9,1561.1 1102,1618.9 	"/>
	<polygon class="st1" points="1402.2,1561.1 1402.2,1445.6 1302.1,1387.8 1202.1,1445.6 1202.1,1561.1 1302.1,1618.9 	"/>
	<polygon class="st4" points="1602.4,1561.1 1602.4,1445.6 1502.3,1387.8 1402.2,1445.6 1402.2,1561.1 1502.3,1618.9 	"/>
	<polygon class="st2" points="301.1,1735.2 301.1,1619.6 201,1561.8 100.9,1619.6 100.9,1735.2 201,1792.9 	"/>
	<polygon class="st2" points="501.2,1735.2 501.2,1619.6 401.2,1561.8 301.1,1619.6 301.1,1735.2 401.2,1792.9 	"/>
	<polygon class="st2" points="701.4,1735.2 701.4,1619.6 601.3,1561.8 501.2,1619.6 501.2,1735.2 601.3,1792.9 	"/>
	<polygon class="st2" points="901.6,1735.2 901.6,1619.6 801.5,1561.8 701.4,1619.6 701.4,1735.2 801.5,1792.9 	"/>
	<polygon class="st2" points="1101.8,1735.2 1101.8,1619.6 1001.7,1561.8 901.6,1619.6 901.6,1735.2 1001.7,1792.9 	"/>
	<polygon class="st2" points="1301.9,1735.2 1301.9,1619.6 1201.9,1561.8 1101.8,1619.6 1101.8,1735.2 1201.9,1792.9 	"/>
	<polygon class="st2" points="1502.1,1735.2 1502.1,1619.6 1402,1561.8 1301.9,1619.6 1301.9,1735.2 1402,1792.9 	"/>
	<polygon class="st1" points="201.2,1907.8 201.2,1792.3 101.1,1734.5 1,1792.3 1,1907.8 101.1,1965.6 	"/>
	<polygon class="st1" points="401.4,1907.8 401.4,1792.3 301.3,1734.5 201.2,1792.3 201.2,1907.8 301.3,1965.6 	"/>
	<polygon class="st1" points="601.5,1907.8 601.5,1792.3 501.4,1734.5 401.4,1792.3 401.4,1907.8 501.4,1965.6 	"/>
	<polygon class="st1" points="801.7,1907.8 801.7,1792.3 701.6,1734.5 601.5,1792.3 601.5,1907.8 701.6,1965.6 	"/>
	<polygon class="st1" points="1001.9,1907.8 1001.9,1792.3 901.8,1734.5 801.7,1792.3 801.7,1907.8 901.8,1965.6 	"/>
	<polygon class="st1" points="1202.1,1907.8 1202.1,1792.3 1102,1734.5 1001.9,1792.3 1001.9,1907.8 1102,1965.6 	"/>
	<polygon class="st1" points="1402.2,1907.8 1402.2,1792.3 1302.1,1734.5 1202.1,1792.3 1202.1,1907.8 1302.1,1965.6 	"/>
	<polygon class="st1" points="1602.4,1907.8 1602.4,1792.3 1502.3,1734.5 1402.2,1792.3 1402.2,1907.8 1502.3,1965.6 	"/>
	<polygon class="st2" points="301.1,2081.8 301.1,1966.3 201,1908.5 100.9,1966.3 100.9,2081.8 201,2139.6 	"/>
	<polygon class="st2" points="501.2,2081.8 501.2,1966.3 401.2,1908.5 301.1,1966.3 301.1,2081.8 401.2,2139.6 	"/>
	<polygon class="st2" points="701.4,2081.8 701.4,1966.3 601.3,1908.5 501.2,1966.3 501.2,2081.8 601.3,2139.6 	"/>
	<polygon class="st2" points="901.6,2081.8 901.6,1966.3 801.5,1908.5 701.4,1966.3 701.4,2081.8 801.5,2139.6 	"/>
	<polygon class="st2" points="1101.8,2081.8 1101.8,1966.3 1001.7,1908.5 901.6,1966.3 901.6,2081.8 1001.7,2139.6 	"/>
	<polygon class="st2" points="1301.9,2081.8 1301.9,1966.3 1201.9,1908.5 1101.8,1966.3 1101.8,2081.8 1201.9,2139.6 	"/>
	<polygon class="st2" points="1502.1,2081.8 1502.1,1966.3 1402,1908.5 1301.9,1966.3 1301.9,2081.8 1402,2139.6 	"/>
	<polygon class="st1" points="201.2,2254.5 201.2,2139 101.1,2081.2 1,2139 1,2254.5 101.1,2312.3 	"/>
	<polygon class="st1" points="401.4,2254.5 401.4,2139 301.3,2081.2 201.2,2139 201.2,2254.5 301.3,2312.3 	"/>
	<polygon class="st1" points="601.5,2254.5 601.5,2139 501.4,2081.2 401.4,2139 401.4,2254.5 501.4,2312.3 	"/>
	<polygon class="st1" points="801.7,2254.5 801.7,2139 701.6,2081.2 601.5,2139 601.5,2254.5 701.6,2312.3 	"/>
	<polygon class="st1" points="1001.9,2254.5 1001.9,2139 901.8,2081.2 801.7,2139 801.7,2254.5 901.8,2312.3 	"/>
	<polygon class="st1" points="1202.1,2254.5 1202.1,2139 1102,2081.2 1001.9,2139 1001.9,2254.5 1102,2312.3 	"/>
	<polygon class="st1" points="1402.2,2254.5 1402.2,2139 1302.1,2081.2 1202.1,2139 1202.1,2254.5 1302.1,2312.3 	"/>
	<polygon class="st1" points="1602.4,2254.5 1602.4,2139 1502.3,2081.2 1402.2,2139 1402.2,2254.5 1502.3,2312.3 	"/>
	<polygon class="st2" points="301.1,2427.9 301.1,2312.3 201,2254.5 100.9,2312.3 100.9,2427.9 201,2485.7 	"/>
	<polygon class="st2" points="501.2,2427.9 501.2,2312.3 401.2,2254.5 301.1,2312.3 301.1,2427.9 401.2,2485.7 	"/>
	<polygon class="st2" points="701.4,2427.9 701.4,2312.3 601.3,2254.5 501.2,2312.3 501.2,2427.9 601.3,2485.7 	"/>
	<polygon class="st2" points="901.6,2427.9 901.6,2312.3 801.5,2254.5 701.4,2312.3 701.4,2427.9 801.5,2485.7 	"/>
	<polygon class="st2" points="1101.8,2427.9 1101.8,2312.3 1001.7,2254.5 901.6,2312.3 901.6,2427.9 1001.7,2485.7 	"/>
	<polygon class="st2" points="1301.9,2427.9 1301.9,2312.3 1201.9,2254.5 1101.8,2312.3 1101.8,2427.9 1201.9,2485.7 	"/>
	<polygon class="st2" points="1502.1,2427.9 1502.1,2312.3 1402,2254.5 1301.9,2312.3 1301.9,2427.9 1402,2485.7 	"/>
	<polygon class="st1" points="1803.2,174.4 1803.2,58.8 1703.1,1 1603,58.8 1603,174.4 1703.1,232.1 	"/>
	<polygon class="st1" points="2003.4,174.4 2003.4,58.8 1903.3,1 1803.2,58.8 1803.2,174.4 1903.3,232.1 	"/>
	<polygon class="st1" points="2203.5,174.4 2203.5,58.8 2103.4,1 2003.4,58.8 2003.4,174.4 2103.4,232.1 	"/>
	<polygon class="st1" points="2403.7,174.4 2403.7,58.8 2303.6,1 2203.5,58.8 2203.5,174.4 2303.6,232.1 	"/>
	<polygon class="st1" points="2603.9,174.4 2603.9,58.8 2503.8,1 2403.7,58.8 2403.7,174.4 2503.8,232.1 	"/>
	<polygon class="st1" points="2804.1,174.4 2804.1,58.8 2704,1 2603.9,58.8 2603.9,174.4 2704,232.1 	"/>
	<polygon class="st1" points="3004.2,174.4 3004.2,58.8 2904.2,1 2804.1,58.8 2804.1,174.4 2904.2,232.1 	"/>
	<polygon class="st1" points="3204.4,174.4 3204.4,58.8 3104.3,1 3004.2,58.8 3004.2,174.4 3104.3,232.1 	"/>
	<polygon class="st1" points="3404.6,174.4 3404.6,58.8 3304.5,1 3204.4,58.8 3204.4,174.4 3304.5,232.1 	"/>
	<polygon class="st2" points="1702.9,348.4 1702.9,232.8 1602.8,175 1502.7,232.8 1502.7,348.4 1602.8,406.2 	"/>
	<polygon class="st2" points="1903.1,348.4 1903.1,232.8 1803,175 1702.9,232.8 1702.9,348.4 1803,406.2 	"/>
	<polygon class="st2" points="2103.2,348.4 2103.2,232.8 2003.2,175 1903.1,232.8 1903.1,348.4 2003.2,406.2 	"/>
	<polygon class="st2" points="2303.4,348.4 2303.4,232.8 2203.3,175 2103.2,232.8 2103.2,348.4 2203.3,406.2 	"/>
	<polygon class="st2" points="2503.6,348.4 2503.6,232.8 2403.5,175 2303.4,232.8 2303.4,348.4 2403.5,406.2 	"/>
	<polygon class="st2" points="2703.8,348.4 2703.8,232.8 2603.7,175 2503.6,232.8 2503.6,348.4 2603.7,406.2 	"/>
	<polygon class="st2" points="2904,348.4 2904,232.8 2803.9,175 2703.8,232.8 2703.8,348.4 2803.9,406.2 	"/>
	<polygon class="st2" points="3104.1,348.4 3104.1,232.8 3004,175 2904,232.8 2904,348.4 3004,406.2 	"/>
	<polygon class="st2" points="3304.3,348.4 3304.3,232.8 3204.2,175 3104.1,232.8 3104.1,348.4 3204.2,406.2 	"/>
	<polygon class="st1" points="1803.2,521.1 1803.2,405.5 1703.1,347.7 1603,405.5 1603,521.1 1703.1,578.8 	"/>
	<polygon class="st1" points="2003.4,521.1 2003.4,405.5 1903.3,347.7 1803.2,405.5 1803.2,521.1 1903.3,578.8 	"/>
	<polygon class="st1" points="2203.5,521.1 2203.5,405.5 2103.4,347.7 2003.4,405.5 2003.4,521.1 2103.4,578.8 	"/>
	<polygon class="st1" points="2403.7,521.1 2403.7,405.5 2303.6,347.7 2203.5,405.5 2203.5,521.1 2303.6,578.8 	"/>
	<polygon class="st1" points="2603.9,521.1 2603.9,405.5 2503.8,347.7 2403.7,405.5 2403.7,521.1 2503.8,578.8 	"/>
	<polygon class="st1" points="2804.1,521.1 2804.1,405.5 2704,347.7 2603.9,405.5 2603.9,521.1 2704,578.8 	"/>
	<polygon class="st1" points="3004.2,521.1 3004.2,405.5 2904.2,347.7 2804.1,405.5 2804.1,521.1 2904.2,578.8 	"/>
	<polygon class="st1" points="3204.4,521.1 3204.4,405.5 3104.3,347.7 3004.2,405.5 3004.2,521.1 3104.3,578.8 	"/>
	<polygon class="st1" points="3404.6,521.1 3404.6,405.5 3304.5,347.7 3204.4,405.5 3204.4,521.1 3304.5,578.8 	"/>
	<polygon class="st2" points="1702.9,695.1 1702.9,579.5 1602.8,521.7 1502.7,579.5 1502.7,695.1 1602.8,752.9 	"/>
	<polygon class="st2" points="1903.1,695.1 1903.1,579.5 1803,521.7 1702.9,579.5 1702.9,695.1 1803,752.9 	"/>
	<polygon class="st2" points="2103.2,695.1 2103.2,579.5 2003.2,521.7 1903.1,579.5 1903.1,695.1 2003.2,752.9 	"/>
	<polygon class="st2" points="2303.4,695.1 2303.4,579.5 2203.3,521.7 2103.2,579.5 2103.2,695.1 2203.3,752.9 	"/>
	<polygon class="st2" points="2503.6,695.1 2503.6,579.5 2403.5,521.7 2303.4,579.5 2303.4,695.1 2403.5,752.9 	"/>
	<polygon class="st2" points="2703.8,695.1 2703.8,579.5 2603.7,521.7 2503.6,579.5 2503.6,695.1 2603.7,752.9 	"/>
	<polygon class="st2" points="2904,695.1 2904,579.5 2803.9,521.7 2703.8,579.5 2703.8,695.1 2803.9,752.9 	"/>
	<polygon class="st2" points="3104.1,695.1 3104.1,579.5 3004,521.7 2904,579.5 2904,695.1 3004,752.9 	"/>
	<polygon class="st2" points="3304.3,695.1 3304.3,579.5 3204.2,521.7 3104.1,579.5 3104.1,695.1 3204.2,752.9 	"/>
	<polygon class="st1" points="1803.2,867.7 1803.2,752.2 1703.1,694.4 1603,752.2 1603,867.7 1703.1,925.5 	"/>
	<polygon class="st1" points="2003.4,867.7 2003.4,752.2 1903.3,694.4 1803.2,752.2 1803.2,867.7 1903.3,925.5 	"/>
	<polygon class="st1" points="2203.5,867.7 2203.5,752.2 2103.4,694.4 2003.4,752.2 2003.4,867.7 2103.4,925.5 	"/>
	<polygon class="st1" points="2403.7,867.7 2403.7,752.2 2303.6,694.4 2203.5,752.2 2203.5,867.7 2303.6,925.5 	"/>
	<polygon class="st1" points="2603.9,867.7 2603.9,752.2 2503.8,694.4 2403.7,752.2 2403.7,867.7 2503.8,925.5 	"/>
	<polygon class="st1" points="2804.1,867.7 2804.1,752.2 2704,694.4 2603.9,752.2 2603.9,867.7 2704,925.5 	"/>
	<polygon class="st1" points="3004.2,867.7 3004.2,752.2 2904.2,694.4 2804.1,752.2 2804.1,867.7 2904.2,925.5 	"/>
	<polygon class="st1" points="3204.4,867.7 3204.4,752.2 3104.3,694.4 3004.2,752.2 3004.2,867.7 3104.3,925.5 	"/>
	<polygon class="st1" points="3404.6,867.7 3404.6,752.2 3304.5,694.4 3204.4,752.2 3204.4,867.7 3304.5,925.5 	"/>
	<polygon class="st3" points="1702.9,1041.8 1702.9,926.2 1602.8,868.4 1502.7,926.2 1502.7,1041.8 1602.8,1099.5 	"/>
	<polygon class="st3" points="1903.1,1041.8 1903.1,926.2 1803,868.4 1702.9,926.2 1702.9,1041.8 1803,1099.5 	"/>
	<polygon class="st2" points="2103.2,1041.8 2103.2,926.2 2003.2,868.4 1903.1,926.2 1903.1,1041.8 2003.2,1099.5 	"/>
	<polygon class="st2" points="2303.4,1041.8 2303.4,926.2 2203.3,868.4 2103.2,926.2 2103.2,1041.8 2203.3,1099.5 	"/>
	<polygon class="st2" points="2503.6,1041.8 2503.6,926.2 2403.5,868.4 2303.4,926.2 2303.4,1041.8 2403.5,1099.5 	"/>
	<polygon class="st2" points="2703.8,1041.8 2703.8,926.2 2603.7,868.4 2503.6,926.2 2503.6,1041.8 2603.7,1099.5 	"/>
	<polygon class="st2" points="2904,1041.8 2904,926.2 2803.9,868.4 2703.8,926.2 2703.8,1041.8 2803.9,1099.5 	"/>
	<polygon class="st2" points="3104.1,1041.8 3104.1,926.2 3004,868.4 2904,926.2 2904,1041.8 3004,1099.5 	"/>
	<polygon class="st2" points="3304.3,1041.8 3304.3,926.2 3204.2,868.4 3104.1,926.2 3104.1,1041.8 3204.2,1099.5 	"/>
	<polygon class="st4" points="1803.2,1214.4 1803.2,1098.9 1703.1,1041.1 1603,1098.9 1603,1214.4 1703.1,1272.2 	"/>
	<polygon class="st4" points="2003.4,1214.4 2003.4,1098.9 1903.3,1041.1 1803.2,1098.9 1803.2,1214.4 1903.3,1272.2 	"/>
	<polygon class="st1" points="2203.5,1214.4 2203.5,1098.9 2103.4,1041.1 2003.4,1098.9 2003.4,1214.4 2103.4,1272.2 	"/>
	<polygon class="st1" points="2403.7,1214.4 2403.7,1098.9 2303.6,1041.1 2203.5,1098.9 2203.5,1214.4 2303.6,1272.2 	"/>
	<polygon class="st1" points="2603.9,1214.4 2603.9,1098.9 2503.8,1041.1 2403.7,1098.9 2403.7,1214.4 2503.8,1272.2 	"/>
	<polygon class="st1" points="2804.1,1214.4 2804.1,1098.9 2704,1041.1 2603.9,1098.9 2603.9,1214.4 2704,1272.2 	"/>
	<polygon class="st1" points="3004.2,1214.4 3004.2,1098.9 2904.2,1041.1 2804.1,1098.9 2804.1,1214.4 2904.2,1272.2 	"/>
	<polygon class="st1" points="3204.4,1214.4 3204.4,1098.9 3104.3,1041.1 3004.2,1098.9 3004.2,1214.4 3104.3,1272.2 	"/>
	<polygon class="st1" points="3404.6,1214.4 3404.6,1098.9 3304.5,1041.1 3204.4,1098.9 3204.4,1214.4 3304.5,1272.2 	"/>
	<polygon class="st3" points="1702.9,1388.5 1702.9,1272.9 1602.8,1215.1 1502.7,1272.9 1502.7,1388.5 1602.8,1446.2 	"/>
	<polygon class="st3" points="1903.1,1388.5 1903.1,1272.9 1803,1215.1 1702.9,1272.9 1702.9,1388.5 1803,1446.2 	"/>
	<polygon class="st2" points="2103.2,1388.5 2103.2,1272.9 2003.2,1215.1 1903.1,1272.9 1903.1,1388.5 2003.2,1446.2 	"/>
	<polygon class="st2" points="2303.4,1388.5 2303.4,1272.9 2203.3,1215.1 2103.2,1272.9 2103.2,1388.5 2203.3,1446.2 	"/>
	<polygon class="st2" points="2503.6,1388.5 2503.6,1272.9 2403.5,1215.1 2303.4,1272.9 2303.4,1388.5 2403.5,1446.2 	"/>
	<polygon class="st2" points="2703.8,1388.5 2703.8,1272.9 2603.7,1215.1 2503.6,1272.9 2503.6,1388.5 2603.7,1446.2 	"/>
	<polygon class="st2" points="2904,1388.5 2904,1272.9 2803.9,1215.1 2703.8,1272.9 2703.8,1388.5 2803.9,1446.2 	"/>
	<polygon class="st2" points="3104.1,1388.5 3104.1,1272.9 3004,1215.1 2904,1272.9 2904,1388.5 3004,1446.2 	"/>
	<polygon class="st2" points="3304.3,1388.5 3304.3,1272.9 3204.2,1215.1 3104.1,1272.9 3104.1,1388.5 3204.2,1446.2 	"/>
	<polygon class="st4" points="1803.2,1561.1 1803.2,1445.6 1703.1,1387.8 1603,1445.6 1603,1561.1 1703.1,1618.9 	"/>
	<polygon class="st1" points="2003.4,1561.1 2003.4,1445.6 1903.3,1387.8 1803.2,1445.6 1803.2,1561.1 1903.3,1618.9 	"/>
	<polygon class="st1" points="2203.5,1561.1 2203.5,1445.6 2103.4,1387.8 2003.4,1445.6 2003.4,1561.1 2103.4,1618.9 	"/>
	<polygon class="st1" points="2403.7,1561.1 2403.7,1445.6 2303.6,1387.8 2203.5,1445.6 2203.5,1561.1 2303.6,1618.9 	"/>
	<polygon class="st1" points="2603.9,1561.1 2603.9,1445.6 2503.8,1387.8 2403.7,1445.6 2403.7,1561.1 2503.8,1618.9 	"/>
	<polygon class="st1" points="2804.1,1561.1 2804.1,1445.6 2704,1387.8 2603.9,1445.6 2603.9,1561.1 2704,1618.9 	"/>
	<polygon class="st1" points="3004.2,1561.1 3004.2,1445.6 2904.2,1387.8 2804.1,1445.6 2804.1,1561.1 2904.2,1618.9 	"/>
	<polygon class="st1" points="3204.4,1561.1 3204.4,1445.6 3104.3,1387.8 3004.2,1445.6 3004.2,1561.1 3104.3,1618.9 	"/>
	<polygon class="st1" points="3404.6,1561.1 3404.6,1445.6 3304.5,1387.8 3204.4,1445.6 3204.4,1561.1 3304.5,1618.9 	"/>
	<polygon class="st2" points="1702.9,1735.2 1702.9,1619.6 1602.8,1561.8 1502.7,1619.6 1502.7,1735.2 1602.8,1792.9 	"/>
	<polygon class="st2" points="1903.1,1735.2 1903.1,1619.6 1803,1561.8 1702.9,1619.6 1702.9,1735.2 1803,1792.9 	"/>
	<polygon class="st2" points="2103.3,1735.2 2103.2,1619.6 2003,1561.9 1903,1619.8 1903.1,1735.4 2003.3,1793.1 	"/>
	<polygon class="st2" points="2303.5,1734.9 2303.3,1619.3 2203.2,1561.7 2103.2,1619.6 2103.3,1735.2 2203.5,1792.8 	"/>
	<polygon class="st2" points="2503.6,1735.2 2503.6,1619.6 2403.5,1561.8 2303.4,1619.6 2303.4,1735.2 2403.5,1792.9 	"/>
	<polygon class="st2" points="2703.8,1735.2 2703.8,1619.6 2603.7,1561.8 2503.6,1619.6 2503.6,1735.2 2603.7,1792.9 	"/>
	<polygon class="st2" points="2904,1735.2 2904,1619.6 2803.9,1561.8 2703.8,1619.6 2703.8,1735.2 2803.9,1792.9 	"/>
	<polygon class="st2" points="3104.1,1735.2 3104.1,1619.6 3004,1561.8 2904,1619.6 2904,1735.2 3004,1792.9 	"/>
	<polygon class="st2" points="3304.3,1735.2 3304.3,1619.6 3204.2,1561.8 3104.1,1619.6 3104.1,1735.2 3204.2,1792.9 	"/>
	<polygon class="st1" points="1803.2,1907.8 1803.2,1792.3 1703.1,1734.5 1603,1792.3 1603,1907.8 1703.1,1965.6 	"/>
	<polygon class="st1" points="2003.4,1907.8 2003.4,1792.3 1903.3,1734.5 1803.2,1792.3 1803.2,1907.8 1903.3,1965.6 	"/>
	<polygon class="st1" points="2203.5,1907.8 2203.5,1792.3 2103.4,1734.5 2003.4,1792.3 2003.4,1907.8 2103.4,1965.6 	"/>
	<polygon class="st1" points="2403.7,1907.8 2403.7,1792.3 2303.6,1734.5 2203.5,1792.3 2203.5,1907.8 2303.6,1965.6 	"/>
	<polygon class="st1" points="2603.9,1907.8 2603.9,1792.3 2503.8,1734.5 2403.7,1792.3 2403.7,1907.8 2503.8,1965.6 	"/>
	<polygon class="st1" points="2804.1,1907.8 2804.1,1792.3 2704,1734.5 2603.9,1792.3 2603.9,1907.8 2704,1965.6 	"/>
	<polygon class="st1" points="3004.2,1907.8 3004.2,1792.3 2904.2,1734.5 2804.1,1792.3 2804.1,1907.8 2904.2,1965.6 	"/>
	<polygon class="st1" points="3204.4,1907.8 3204.4,1792.3 3104.3,1734.5 3004.2,1792.3 3004.2,1907.8 3104.3,1965.6 	"/>
	<polygon class="st1" points="3404.6,1907.8 3404.6,1792.3 3304.5,1734.5 3204.4,1792.3 3204.4,1907.8 3304.5,1965.6 	"/>
	<polygon class="st2" points="1702.9,2081.8 1702.9,1966.3 1602.8,1908.5 1502.7,1966.3 1502.7,2081.8 1602.8,2139.6 	"/>
	<polygon class="st2" points="1903.1,2081.8 1903.1,1966.3 1803,1908.5 1702.9,1966.3 1702.9,2081.8 1803,2139.6 	"/>
	<polygon class="st2" points="2103.2,2081.8 2103.2,1966.3 2003.2,1908.5 1903.1,1966.3 1903.1,2081.8 2003.2,2139.6 	"/>
	<polygon class="st2" points="2303.4,2081.8 2303.4,1966.3 2203.3,1908.5 2103.2,1966.3 2103.2,2081.8 2203.3,2139.6 	"/>
	<polygon class="st2" points="2503.6,2081.8 2503.6,1966.3 2403.5,1908.5 2303.4,1966.3 2303.4,2081.8 2403.5,2139.6 	"/>
	<polygon class="st2" points="2703.8,2081.8 2703.8,1966.3 2603.7,1908.5 2503.6,1966.3 2503.6,2081.8 2603.7,2139.6 	"/>
	<polygon class="st2" points="2904,2081.8 2904,1966.3 2803.9,1908.5 2703.8,1966.3 2703.8,2081.8 2803.9,2139.6 	"/>
	<polygon class="st2" points="3104.1,2081.8 3104.1,1966.3 3004,1908.5 2904,1966.3 2904,2081.8 3004,2139.6 	"/>
	<polygon class="st2" points="3304.3,2081.8 3304.3,1966.3 3204.2,1908.5 3104.1,1966.3 3104.1,2081.8 3204.2,2139.6 	"/>
	<polygon class="st1" points="1803.2,2254.5 1803.2,2139 1703.1,2081.2 1603,2139 1603,2254.5 1703.1,2312.3 	"/>
	<polygon class="st1" points="2003.4,2254.5 2003.4,2139 1903.3,2081.2 1803.2,2139 1803.2,2254.5 1903.3,2312.3 	"/>
	<polygon class="st1" points="2203.5,2254.5 2203.5,2139 2103.4,2081.2 2003.4,2139 2003.4,2254.5 2103.4,2312.3 	"/>
	<polygon class="st1" points="2403.7,2254.5 2403.7,2139 2303.6,2081.2 2203.5,2139 2203.5,2254.5 2303.6,2312.3 	"/>
	<polygon class="st1" points="2603.9,2254.5 2603.9,2139 2503.8,2081.2 2403.7,2139 2403.7,2254.5 2503.8,2312.3 	"/>
	<polygon class="st1" points="2804.1,2254.5 2804.1,2139 2704,2081.2 2603.9,2139 2603.9,2254.5 2704,2312.3 	"/>
	<polygon class="st1" points="3004.2,2254.5 3004.2,2139 2904.2,2081.2 2804.1,2139 2804.1,2254.5 2904.2,2312.3 	"/>
	<polygon class="st1" points="3204.4,2254.5 3204.4,2139 3104.3,2081.2 3004.2,2139 3004.2,2254.5 3104.3,2312.3 	"/>
	<polygon class="st1" points="3404.6,2254.5 3404.6,2139 3304.5,2081.2 3204.4,2139 3204.4,2254.5 3304.5,2312.3 	"/>
	<polygon class="st2" points="1702.9,2427.9 1702.9,2312.3 1602.8,2254.5 1502.7,2312.3 1502.7,2427.9 1602.8,2485.7 	"/>
	<polygon class="st2" points="1903.1,2427.9 1903.1,2312.3 1803,2254.5 1702.9,2312.3 1702.9,2427.9 1803,2485.7 	"/>
	<polygon class="st2" points="2103.2,2427.9 2103.2,2312.3 2003.2,2254.5 1903.1,2312.3 1903.1,2427.9 2003.2,2485.7 	"/>
	<polygon class="st2" points="2303.4,2427.9 2303.4,2312.3 2203.3,2254.5 2103.2,2312.3 2103.2,2427.9 2203.3,2485.7 	"/>
	<polygon class="st2" points="2503.6,2427.9 2503.6,2312.3 2403.5,2254.5 2303.4,2312.3 2303.4,2427.9 2403.5,2485.7 	"/>
	<polygon class="st2" points="2703.8,2427.9 2703.8,2312.3 2603.7,2254.5 2503.6,2312.3 2503.6,2427.9 2603.7,2485.7 	"/>
	<polygon class="st2" points="2904,2427.9 2904,2312.3 2803.9,2254.5 2703.8,2312.3 2703.8,2427.9 2803.9,2485.7 	"/>
	<polygon class="st2" points="3104.1,2427.9 3104.1,2312.3 3004,2254.5 2904,2312.3 2904,2427.9 3004,2485.7 	"/>
	<polygon class="st2" points="3304.3,2427.9 3304.3,2312.3 3204.2,2254.5 3104.1,2312.3 3104.1,2427.9 3204.2,2485.7 	"/>
</g>
</svg>
