<!-- Generator: Adobe Illustrator 22.0.0, SVG Export Plug-In  -->
<svg version="1.1"
	 xmlns="http://www.w3.org/2000/svg" xmlns:xlink="http://www.w3.org/1999/xlink" xmlns:a="http://ns.adobe.com/AdobeSVGViewerExtensions/3.0/"
	 x="0px" y="0px" width="200px" height="33.6px" viewBox="0 0 200 33.6"
	 style="overflow:scroll;enable-background:new 0 0 200 33.6;" xml:space="preserve">
<style type="text/css">
	.st0{opacity:0.5;}
	.st1{fill:#E0AAD1;}
	.st2{fill:#993366;}
</style>
<defs>
</defs>
<g class="st0">
	<g>
		<path class="st1" d="M187.1,4.8l-14.7,28.8l-3.1-1.4L184,3.3L187.1,4.8z"/>
		<path class="st1" d="M187.3,25.4l9.4-7.6v-0.4l-9.3-7.5l2-2.6l10.6,8.7v3l-10.7,8.8L187.3,25.4z"/>
	</g>
</g>
<g class="st0">
	<g>
		<path class="st1" d="M12.6,2.5l-9.4,7.5v0.4l9.4,7.5l-2,2.6L0,11.8v-3L10.7,0L12.6,2.5z"/>
	</g>
</g>
<g>
	<g>
		<path class="st2" d="M15.8,18.7l-2.1,0v4.6h-2.4V10c6.6-0.9,8.7,0.9,8.7,3.7c0,1.7-0.9,2.8-2.2,3.7l3.1,5.8l-2.6,0.3L15.8,18.7z
			 M13.7,17l2.3-0.1c0.9-0.6,1.5-1.5,1.5-2.7c0-1.8-1.2-2.7-3.8-2.3V17z"/>
		<path class="st2" d="M22.4,18.2c0-3.5,2.4-5.9,5.2-5.9c2.7,0,4.5,2,4.5,5.4c0,3.6-2.4,5.9-5.2,5.9C24.3,23.6,22.4,21.7,22.4,18.2z
			 M29.8,18.2c0-2.6-1-3.9-2.5-3.9c-1.4,0-2.4,1.2-2.4,3.5c0,2.6,1,3.9,2.5,3.9C28.8,21.7,29.8,20.5,29.8,18.2z"/>
		<path class="st2" d="M36.4,14.9c0,2,0.1,4.9,0.1,8.4h-2.2c0-4.8,0-8.2-0.1-10.6l2-0.1l0.1,0.9c0.6-0.6,1.3-1.2,2.2-1.2
			c0.8,0,1.3,0.4,1.5,1.2c0.6-0.6,1.3-1.2,2.3-1.2c1.2,0,1.8,0.9,1.8,2.4v8.5h-2.2v-7.7c0-0.9-0.3-1.2-0.8-1.2
			c-0.4,0-0.7,0.2-1.1,0.5v8.4h-1.7v-7.7c0-0.9-0.2-1.2-0.8-1.2C37.2,14.4,36.7,14.6,36.4,14.9z"/>
		<path class="st2" d="M46.5,23.3v-1.8h3.7v-7l-3.8-0.2l0.2-1.7h6v8.9h3.7l-0.2,1.8H46.5z M50.1,11l0.2-3h2.5l-0.2,3H50.1z"/>
		<path class="st2" d="M72.8,23.3c-1.3-4.5-2.5-8.8-3.6-13.3l2.5-0.2c0.8,3.7,1.7,7.5,2.7,11.2h0.2c1-3.7,1.8-7.4,2.7-11.1h2.4
			c-1.1,4.4-2.2,8.9-3.5,13.3H72.8z"/>
		<path class="st2" d="M81.9,23.3v-1.8h3.7v-7l-3.8-0.2l0.2-1.7h6v8.9h3.7l-0.2,1.8H81.9z M85.5,11l0.2-3h2.5L88,11H85.5z"/>
		<path class="st2" d="M93.7,23.3v-1.8H97V10.2L93.8,10l0.2-1.7h5.4v13.2h3.3l-0.2,1.8H93.7z"/>
		<path class="st2" d="M105.6,23.3v-1.8h3.3V10.2l-3.2-0.2l0.2-1.7h5.4v13.2h3.3l-0.2,1.8H105.6z"/>
		<path class="st2" d="M123.9,22.1c-0.8,0.8-2,1.5-3.5,1.5c-1.9,0-3.2-1.1-3.2-2.8c0-2.1,2-3.9,6.5-3.7c-0.1-2.1-1.3-2.6-5.9-2.7
			l0.2-2c6.4,0.1,8.1,1.4,8.1,5.6c0,2.1,0.1,3.8,0.2,5.3l-2.2,0.1C124,23.3,123.9,22.6,123.9,22.1z M123.8,20.9c0-0.6,0-1.3-0.1-2.2
			c-3.3-0.3-4.2,0.4-4.2,1.5c0,0.9,0.7,1.5,1.8,1.5C122.1,21.8,123,21.4,123.8,20.9z"/>
		<path class="st2" d="M136.4,12.6h2.4c-1.1,3.6-2.4,7.2-3.8,10.8h-2.9c-1.3-3.5-2.6-7.2-3.7-10.7l2.4-0.2c0.8,2.8,1.7,5.6,2.7,8.5
			h0.2C134.7,18.2,135.6,15.4,136.4,12.6z"/>
		<path class="st2" d="M140.7,18.2c0-3.3,2.4-5.8,5.2-5.8c3,0,4.4,2.4,4.1,6.1l-6.9,0.2c0.3,2.1,1.9,2.9,6.6,3l-0.2,2
			C142.6,23.6,140.7,21.6,140.7,18.2z M143.1,17.2c1.1,0,3.3-0.1,4.6-0.2c-0.1-1.7-0.7-2.7-2.2-2.7
			C144.1,14.3,143.2,15.2,143.1,17.2z"/>
		<path class="st2" d="M152.7,23.3v-1.8h2.6c0-2.9-0.1-5.1-0.1-7l-2.5-0.2l0.2-1.7h4.4c0,0.1,0.2,1.3,0.2,1.8c1-1.1,2.5-2,4.5-2.3
			l0.1,2.5c-1.8,0.1-3.3,0.5-4.5,1.1c0,1.6,0.1,3.4,0.1,5.7h3.2l-0.2,1.8H152.7z"/>
		<path class="st2" d="M171,22.3c-0.7,0.7-1.7,1.3-2.9,1.3c-2.3,0-3.9-1.9-3.9-5c0-4,2.8-6.2,6.2-6.2c0.2,0,0.3,0,0.5,0V8.3l2.4-0.2
			v4.6c0,5,0,8.3,0.2,10.7l-2.2,0.1L171,22.3z M170.9,21c0-1.7-0.1-3.7-0.1-6.3c-0.5-0.2-1.1-0.3-1.5-0.3c-1.6,0-2.8,1.2-2.8,3.6
			c0,2.5,1.1,3.7,2.5,3.7C169.8,21.6,170.4,21.4,170.9,21z"/>
		<path class="st2" d="M176.2,18.2c0-3.3,2.4-5.8,5.2-5.8c3,0,4.4,2.4,4.1,6.1l-6.9,0.2c0.3,2.1,1.9,2.9,6.6,3l-0.2,2
			C178,23.6,176.2,21.6,176.2,18.2z M178.5,17.2c1.1,0,3.3-0.1,4.6-0.2c-0.1-1.7-0.7-2.7-2.2-2.7C179.5,14.3,178.6,15.2,178.5,17.2z
			"/>
	</g>
</g>
</svg>
