<!-- Generator: Adobe Illustrator 22.0.0, SVG Export Plug-In  -->
<svg version="1.1"
	 xmlns="http://www.w3.org/2000/svg" xmlns:xlink="http://www.w3.org/1999/xlink" xmlns:a="http://ns.adobe.com/AdobeSVGViewerExtensions/3.0/"
	 x="0px" y="0px" width="240px" height="240px" viewBox="0 0 240 240" style="overflow:scroll;enable-background:new 0 0 240 240;"
	 xml:space="preserve">
<style type="text/css">
	.st0{opacity:0.6;fill:#E9E5E8;}
	.st1{opacity:0.24;}
	.st2{fill:#8F898D;}
</style>
<defs>
</defs>
<rect class="st0" width="240" height="240"/>
<g class="st1">
	<g>
		<path class="st2" d="M109.4,101.9h-0.1l-22.9,51.3l-23.3-51.3h-2v-0.2h-4.8c-9.5,0-16.4,5-19.9,12.8l-0.5-12.7h-2.6v56h3.3v-31.5
			c0-12.4,7.8-21.4,19.5-21.4H61l24.1,53h2.8l21.6-48.6v48.6h3.3V82.1h-3.3V101.9z"/>
		<path class="st2" d="M204.2,101.9l-0.5,12.7c-3.5-7.9-10.4-12.8-19.9-12.8h-4.8v0.2h-2l-23.3,51.3l-22.9-51.3h-0.1V82.1h-3.3v75.8
			h3.3v-48.6l21.6,48.6h2.8l24.1-53h4.9c11.7,0,19.5,9,19.5,21.4v31.5h3.3v-56H204.2z"/>
	</g>
</g>
</svg>
